;TYPE=PLATED
;Layer: PTH_Through_Via
;EasyEDA Pro v3.2.149, 2026-09-26 09:59:41
;Gerber Generator version 0.3
M48
METRIC,LZ,0000.00000
;Hole size 1 = 0.30500 METRIC
T01C0.30500
%
G05
G90
T01
X27.432Y-56.261
X25.654Y-35.814
X13.081Y-26.924
X13.081Y-28.575
X13.081Y-30.226
X13.91055Y-27.69119
X13.91055Y-29.38242
X13.91055Y-31.06797
X14.732Y-28.62203
X14.732Y-26.97103
X14.732Y-30.27303
X15.494Y-27.73822
X15.494Y-29.42945
X15.494Y-31.115
X16.256Y-28.62203
X16.256Y-26.97103
X16.256Y-30.27303
X17.018Y-27.73822
X17.018Y-29.42945
X17.018Y-31.115
X26.543Y-39.09885
X17.78Y-39.116
X16.383Y-43.942
X8.89Y-39.116
X19.177Y-39.116
X21.59191Y-39.09885
X22.86Y-39.116
X22.76764Y-63.06447
X8.89191Y-21.09914
X24.765Y-12.7
X7.52259Y-20.99881
X12.88846Y-18.16101
X13.45079Y-9.00579
X15.875Y-54.483
X11.811Y-23.698
X19.939Y-35.56
X20.447Y-39.37
X14.859Y-7.62
X26.67Y-21.844
X6.985Y-44.323
X27.051Y-44.958
X27.051Y-47.498
X24.511Y-48.006
X23.22336Y-42.81664
X25.019Y-43.942
M30