;TYPE=PLATED
;Layer: PTH_Through
;EasyEDA Pro v3.2.149, 2026-09-26 09:59:41
;Gerber Generator version 0.3
M48
METRIC,LZ,0000.00000
;Hole size 1 = 0.30500 METRIC
T01C0.30500
;Hole size 2 = 0.60000 METRIC
T02C0.60000
;Hole size 3 = 1.00000 METRIC
T03C1.00000
;Hole size 4 = 1.10000 METRIC
T04C1.10000
;Hole size 5 = 1.20000 METRIC
T05C1.20000
;Hole size 6 = 1.50002 METRIC
T06C1.50002
;Hole size 7 = 3.20000 METRIC
T07C3.20000
%
G05
G90
T01
X27.432Y-56.261
X25.654Y-35.814
X13.081Y-26.924
X13.081Y-28.575
X13.081Y-30.226
X13.91055Y-27.69119
X13.91055Y-29.38242
X13.91055Y-31.06797
X14.732Y-28.62203
X14.732Y-26.97103
X14.732Y-30.27303
X15.494Y-27.73822
X15.494Y-29.42945
X15.494Y-31.115
X16.256Y-28.62203
X16.256Y-26.97103
X16.256Y-30.27303
X17.018Y-27.73822
X17.018Y-29.42945
X17.018Y-31.115
X26.543Y-39.09885
X17.78Y-39.116
X16.383Y-43.942
X8.89Y-39.116
X19.177Y-39.116
X21.59191Y-39.09885
X22.86Y-39.116
X22.76764Y-63.06447
X8.89191Y-21.09914
X24.765Y-12.7
X7.52259Y-20.99881
X12.88846Y-18.16101
X13.45079Y-9.00579
X15.875Y-54.483
X11.811Y-23.698
X19.939Y-35.56
X20.447Y-39.37
X14.859Y-7.62
X26.67Y-21.844
X6.985Y-44.323
X27.051Y-44.958
X27.051Y-47.498
X24.511Y-48.006
X23.22336Y-42.81664
X25.019Y-43.942
T02
X28.58193Y-60.60096G85X28.58193Y-59.70096
X19.93191Y-60.601G85X19.93191Y-59.70097
X28.58193Y-64.65098G85X28.58193Y-64.05098
X19.93191Y-64.65098G85X19.93191Y-64.05098
X29.35896Y-41.64907G85X28.45896Y-41.64907
X29.359Y-50.29909G85X28.45897Y-50.29909
X33.40898Y-41.64907G85X32.80898Y-41.64907
X33.40898Y-50.29909G85X32.80898Y-50.29909
T03
X32.23814Y-11.08504
X32.23814Y-15.58506
X30.734Y-62.103
X33.274Y-62.103
T04
X20.955Y-55.583
X18.415Y-55.583
X15.875Y-55.583
X13.335Y-55.583
X26.03152Y-2.583
X23.445Y-2.583
X20.95152Y-2.583
X18.41152Y-2.583
X15.87152Y-2.583
X13.33152Y-2.583
X10.79152Y-2.583
X8.25152Y-2.583
T05
X32.639Y-23.495
X32.639Y-26.035
X32.639Y-28.575
X32.639Y-31.115
X32.639Y-33.655
X32.639Y-36.195
X30.099Y-39.243
X32.639Y-39.243
X33.274Y-7.366
X30.734Y-7.366
T06
X29.73784Y-9.83513
X29.73784Y-16.83512
T07
X3.145Y-55.083
X31.645Y-55.083
X31.645Y-3.083
X3.145Y-3.083
M30