G04 Layer: BottomSolderMaskLayer*
G04 EasyEDA Pro v3.2.149, 2026-09-26 09:59:38*
G04 Gerber Generator version 0.3*
G04 Scale: 100 percent, Rotated: No, Reflected: No*
G04 Dimensions in millimeters*
G04 Leading zeros omitted, absolute positions, 4 integers and 5 decimals*
G04 Generated by one-click*
G04 Object Configs: Pad,Via,Track,Text,Image,Dimension,BoardOutline,BoardCutout,CopperFilled,SolidRegion,FPCStiffener,Line,PlaneZone,ComponentProperty,ComponentSilkscreen,TearDrop*
G04 Layer Configs: 1,2,3,4,5,6,7,8,9,10,11,13,14,56*
G04 Copper Areas: 0*
%FSLAX45Y45*%
%MOMM*%
%AMRoundRect*1,1,$1,$2,$3*1,1,$1,$4,$5*1,1,$1,0-$2,0-$3*1,1,$1,0-$4,0-$5*20,1,$1,$2,$3,$4,$5,0*20,1,$1,$4,$5,0-$2,0-$3,0*20,1,$1,0-$2,0-$3,0-$4,0-$5,0*20,1,$1,0-$4,0-$5,$2,$3,0*4,1,4,$2,$3,$4,$5,0-$2,0-$3,0-$4,0-$5,$2,$3,0*%
%ADD10RoundRect,0.1016X-0.705X0.67501X0.705X0.67501*%
%ADD11RoundRect,0.1016X-0.675X-0.705X-0.675X0.705*%
%ADD12RoundRect,0.1016X-1.35X-0.8175X-1.35X0.8175*%
%ADD13C,1.9016*%
%ADD14RoundRect,0.1016X-0.9X-0.9X-0.9X0.9*%
%ADD15RoundRect,0.1016X-0.5X0.62501X0.5X0.62501*%
%ADD16RoundRect,0.1016X-0.56627X0.68851X0.56627X0.68851*%
%ADD17RoundRect,0.1069X-1.235X0.49X1.235X0.49*%
%ADD18RoundRect,0.1016X-1.235X0.49X1.235X0.49*%
%ADD19RoundRect,0.1016X-1.235X1.8X1.235X1.8*%
%ADD20RoundRect,0.1016X-0.47501X1.05X0.47501X1.05*%
%ADD21RoundRect,0.1016X-1.05X0.47501X1.05X0.47501*%
%ADD22RoundRect,0.1016X-2.5X-2.5X-2.5X2.5*%
%ADD23RoundRect,0.1016X-0.68851X-0.56627X-0.68851X0.56627*%
%ADD24C,2.6016*%
%ADD25C,1.6256*%
%ADD26RoundRect,0.10003X-0.27501X0.55X0.27501X0.55*%
%ADD27RoundRect,0.10003X-0.15X0.55X0.15X0.55*%
%ADD28O,1.20002X2.10002*%
%ADD29O,1.30002X1.90002*%
%ADD30C,5.1016*%
%ADD31RoundRect,0.1016X-0.889X-0.889X-0.889X0.889*%
%ADD32C,1.8796*%
%ADD33RoundRect,0.1016X-0.889X0.889X0.889X0.889*%
%ADD34C,1.90002*%
%ADD35RoundRect,0.10003X-0.55X-0.27501X-0.55X0.27501*%
%ADD36RoundRect,0.10003X-0.55X-0.15X-0.55X0.15*%
%ADD37O,2.10002X1.20002*%
%ADD38O,1.90002X1.30002*%
%ADD39RoundRect,0.1016X-1.0X1.0X1.0X1.0*%
%ADD40C,2.1016*%
G75*


G04 Pad Start*
G54D10*
G01X836600Y-1574800D03*
G01X636600Y-1574800D03*
G54D11*
G01X1689100Y-5843600D03*
G01X1689100Y-6043600D03*
G54D12*
G01X1346200Y-5868060D03*
G01X1346200Y-6171540D03*
G54D10*
G01X636600Y-1816100D03*
G01X836600Y-1816100D03*
G54D13*
G01X3263900Y-2349500D03*
G01X3263900Y-2603500D03*
G01X3263900Y-2857500D03*
G01X3263900Y-3111500D03*
G01X3263900Y-3365500D03*
G54D14*
G01X3263900Y-3619500D03*
G54D15*
G01X194798Y-4737090D03*
G01X414812Y-4737090D03*
G01X1515598Y-6438890D03*
G01X1735612Y-6438890D03*
G54D16*
G01X1293800Y-6438900D03*
G01X1093800Y-6438900D03*
G54D18*
G01X842289Y-5954903D03*
G01X842289Y-6184900D03*
G01X842289Y-6414897D03*
G54D19*
G01X275311Y-6184900D03*
G54D20*
G01X762191Y-2109914D03*
G01X889191Y-2109914D03*
G01X1016191Y-2109914D03*
G01X1143191Y-2109914D03*
G01X1270191Y-2109914D03*
G01X1397191Y-2109914D03*
G01X1524191Y-2109914D03*
G01X1651191Y-2109914D03*
G01X1778191Y-2109914D03*
G01X1905191Y-2109914D03*
G01X2032191Y-2109914D03*
G01X2159191Y-2109914D03*
G01X2286191Y-2109914D03*
G01X2413191Y-2109914D03*
G54D21*
G01X2565210Y-2438413D03*
G01X2565210Y-2565413D03*
G01X2565210Y-2692413D03*
G01X2565210Y-2819413D03*
G01X2565210Y-2946413D03*
G01X2565184Y-3073413D03*
G01X2565184Y-3200413D03*
G01X2565184Y-3327413D03*
G01X2565184Y-3454413D03*
G01X2565184Y-3581413D03*
G54D20*
G01X2413191Y-3909885D03*
G01X2286191Y-3909885D03*
G01X2159191Y-3909885D03*
G01X2032191Y-3909885D03*
G01X1905191Y-3909885D03*
G01X1778191Y-3909885D03*
G01X1651191Y-3909885D03*
G01X1524191Y-3909885D03*
G01X1397191Y-3909885D03*
G01X1270191Y-3909885D03*
G01X1143191Y-3909885D03*
G01X1016191Y-3909885D03*
G01X889191Y-3909885D03*
G01X762191Y-3909885D03*
G54D22*
G01X1516494Y-2908211D03*
G54D10*
G01X1281100Y-1816100D03*
G01X1081100Y-1816100D03*
G01X1081100Y-1574800D03*
G01X1281100Y-1574800D03*
G01X1932000Y-1790700D03*
G01X2132000Y-1790700D03*
G54D16*
G01X204800Y-5003800D03*
G01X404800Y-5003800D03*
G54D23*
G01X2324100Y-4494200D03*
G01X2324100Y-4294200D03*
G54D16*
G01X852500Y-1346200D03*
G01X1052500Y-1346200D03*
G54D23*
G01X3289300Y-1855800D03*
G01X3289300Y-2055800D03*
G54D16*
G01X1919300Y-1549400D03*
G01X2119300Y-1549400D03*
G54D24*
G01X2973789Y-983501D03*
G01X2973789Y-1683499D03*
G54D25*
G01X3223814Y-1108494D03*
G01X3223814Y-1558506D03*
G54D16*
G01X3113100Y-5943600D03*
G01X3313100Y-5943600D03*
G01X3113100Y-6464300D03*
G01X3313100Y-6464300D03*
G54D26*
G01X2745702Y-5960097D03*
G01X2665692Y-5960097D03*
G54D27*
G01X2600693Y-5960097D03*
G01X2550681Y-5960097D03*
G01X2500694Y-5960097D03*
G01X2450706Y-5960097D03*
G01X2400694Y-5960097D03*
G01X2350707Y-5960097D03*
G01X2300694Y-5960097D03*
G01X2250681Y-5960097D03*
G54D26*
G01X2185683Y-5960097D03*
G01X2105698Y-5960097D03*
G54D28*
G01X2858199Y-6015088D03*
G01X1993202Y-6015088D03*
G54D29*
G01X2858199Y-6435103D03*
G01X1993202Y-6435103D03*
G54D30*
G01X314500Y-5508300D03*
G01X3164500Y-5508300D03*
G01X3164500Y-308300D03*
G01X314500Y-308300D03*
G54D31*
G01X2095500Y-5558300D03*
G54D32*
G01X1841500Y-5558300D03*
G01X1587500Y-5558300D03*
G01X1333500Y-5558300D03*
G54D33*
G01X2603152Y-258300D03*
G54D32*
G01X2344500Y-258300D03*
G01X2095152Y-258300D03*
G01X1841152Y-258300D03*
G01X1587152Y-258300D03*
G01X1333152Y-258300D03*
G01X1079152Y-258300D03*
G01X825152Y-258300D03*
G54D34*
G01X3073400Y-6210300D03*
G01X3327400Y-6210300D03*
G54D35*
G01X2835897Y-4277398D03*
G01X2835897Y-4357408D03*
G54D36*
G01X2835897Y-4422407D03*
G01X2835897Y-4472419D03*
G01X2835897Y-4522406D03*
G01X2835897Y-4572394D03*
G01X2835897Y-4622406D03*
G01X2835897Y-4672393D03*
G01X2835897Y-4722406D03*
G01X2835897Y-4772419D03*
G54D35*
G01X2835897Y-4837417D03*
G01X2835897Y-4917402D03*
G54D37*
G01X2890888Y-4164901D03*
G01X2890888Y-5029898D03*
G54D38*
G01X3310903Y-4164901D03*
G01X3310903Y-5029898D03*
G54D39*
G01X3009900Y-3924300D03*
G54D40*
G01X3263900Y-3924300D03*
G54D39*
G01X3327400Y-736600D03*
G54D40*
G01X3073400Y-736600D03*
G04 Pad End*

M02*

