G04 Layer: TopSolderMaskLayer*
G04 EasyEDA Pro v3.2.149, 2026-09-26 09:59:38*
G04 Gerber Generator version 0.3*
G04 Scale: 100 percent, Rotated: No, Reflected: No*
G04 Dimensions in millimeters*
G04 Leading zeros omitted, absolute positions, 4 integers and 5 decimals*
G04 Generated by one-click*
G04 Object Configs: Pad,Via,Track,Text,Image,Dimension,BoardOutline,BoardCutout,CopperFilled,SolidRegion,FPCStiffener,Line,PlaneZone,ComponentProperty,ComponentSilkscreen,TearDrop*
G04 Layer Configs: 1,2,3,4,5,6,7,8,9,10,11,13,14,56*
G04 Copper Areas: 0*
%FSLAX45Y45*%
%MOMM*%
%AMRoundRect*1,1,$1,$2,$3*1,1,$1,$4,$5*1,1,$1,0-$2,0-$3*1,1,$1,0-$4,0-$5*20,1,$1,$2,$3,$4,$5,0*20,1,$1,$4,$5,0-$2,0-$3,0*20,1,$1,0-$2,0-$3,0-$4,0-$5,0*20,1,$1,0-$4,0-$5,$2,$3,0*4,1,4,$2,$3,$4,$5,0-$2,0-$3,0-$4,0-$5,$2,$3,0*%
%ADD10C,1.9016*%
%ADD11RoundRect,0.1016X-0.9X-0.9X-0.9X0.9*%
%ADD12RoundRect,0.1016X-0.5X0.62501X0.5X0.62501*%
%ADD13C,2.6016*%
%ADD14C,1.6256*%
%ADD15O,1.20002X2.10002*%
%ADD16O,1.3056X1.90002*%
%ADD17O,1.30002X1.90002*%
%ADD18C,5.1016*%
%ADD19RoundRect,0.1016X-0.889X-0.889X-0.889X0.889*%
%ADD20C,1.8796*%
%ADD21RoundRect,0.1016X-0.889X0.889X0.889X0.889*%
%ADD22C,1.90002*%
%ADD23RoundRect,0.1016X-0.56627X0.68851X0.56627X0.68851*%
%ADD24O,2.10002X1.20002*%
%ADD25O,1.90002X1.30002*%
%ADD26RoundRect,0.1016X-1.0X1.0X1.0X1.0*%
%ADD27C,2.1016*%
G75*


G04 Pad Start*
G54D10*
G01X3263900Y-2349500D03*
G01X3263900Y-2603500D03*
G01X3263900Y-2857500D03*
G01X3263900Y-3111500D03*
G01X3263900Y-3365500D03*
G54D11*
G01X3263900Y-3619500D03*
G54D12*
G01X2523002Y-6248390D03*
G01X2302988Y-6248390D03*
G54D13*
G01X2973789Y-983501D03*
G01X2973789Y-1683499D03*
G54D14*
G01X3223814Y-1108494D03*
G01X3223814Y-1558506D03*
G54D15*
G01X2858199Y-6015088D03*
G01X1993202Y-6015088D03*
G54D17*
G01X2858199Y-6435103D03*
G01X1993202Y-6435103D03*
G54D18*
G01X314500Y-5508300D03*
G01X3164500Y-5508300D03*
G01X3164500Y-308300D03*
G01X314500Y-308300D03*
G54D19*
G01X2095500Y-5558300D03*
G54D20*
G01X1841500Y-5558300D03*
G01X1587500Y-5558300D03*
G01X1333500Y-5558300D03*
G54D21*
G01X2603152Y-258300D03*
G54D20*
G01X2344500Y-258300D03*
G01X2095152Y-258300D03*
G01X1841152Y-258300D03*
G01X1587152Y-258300D03*
G01X1333152Y-258300D03*
G01X1079152Y-258300D03*
G01X825152Y-258300D03*
G54D22*
G01X3073400Y-6210300D03*
G01X3327400Y-6210300D03*
G54D23*
G01X2043100Y-4597400D03*
G01X1843100Y-4597400D03*
G01X2043100Y-4851400D03*
G01X1843100Y-4851400D03*
G54D24*
G01X2890888Y-4164901D03*
G01X2890888Y-5029898D03*
G54D25*
G01X3310903Y-4164901D03*
G01X3310903Y-5029898D03*
G54D26*
G01X3009900Y-3924300D03*
G54D27*
G01X3263900Y-3924300D03*
G54D26*
G01X3327400Y-736600D03*
G54D27*
G01X3073400Y-736600D03*
G04 Pad End*

M02*

