G04 Layer: BottomSilkscreenLayer*
G04 EasyEDA Pro v3.2.149, 2026-09-26 09:59:38*
G04 Gerber Generator version 0.3*
G04 Scale: 100 percent, Rotated: No, Reflected: No*
G04 Dimensions in millimeters*
G04 Leading zeros omitted, absolute positions, 4 integers and 5 decimals*
G04 Generated by one-click*
G04 Object Configs: Pad,Via,Track,Text,Image,Dimension,BoardOutline,BoardCutout,CopperFilled,SolidRegion,FPCStiffener,Line,PlaneZone,ComponentProperty,ComponentSilkscreen,TearDrop*
G04 Layer Configs: 1,2,3,4,5,6,7,8,9,10,11,13,14,56*
G04 Copper Areas: 0*
%FSLAX45Y45*%
%MOMM*%
%ADD10C,0.203*%
%ADD11C,0.2*%
%ADD12C,0.1524*%
%ADD13C,0.254*%
%ADD14C,0.2032*%
%ADD15C,0.4470*%
G75*


G04 Image Start*
G36*
G01X1885735Y-4721557D02*
G01X1881369Y-4721900D01*
G01X1877309Y-4721461D01*
G01X1873190Y-4720353D01*
G01X1866695Y-4717539D01*
G01X1855285Y-4711861D01*
G01X1820544Y-4693493D01*
G01X1774615Y-4668414D01*
G01X1723144Y-4639788D01*
G01X1671777Y-4610780D01*
G01X1626160Y-4584554D01*
G01X1591940Y-4564274D01*
G01X1580868Y-4557353D01*
G01X1574763Y-4553106D01*
G01X1569480Y-4548770D01*
G01X1568889Y-4540455D01*
G01X1567981Y-4516044D01*
G01X1567265Y-4474902D01*
G01X1566481Y-4366099D01*
G01X1566669Y-4261394D01*
G01X1567168Y-4225377D01*
G01X1567518Y-4217768D01*
G01X1596194Y-4217768D01*
G01X1596519Y-4341775D01*
G01X1596919Y-4427054D01*
G01X1597619Y-4486920D01*
G01X1598638Y-4522570D01*
G01X1599275Y-4531687D01*
G01X1600000Y-4535198D01*
G01X1611059Y-4542176D01*
G01X1636963Y-4557179D01*
G01X1716124Y-4601697D01*
G01X1803126Y-4649635D01*
G01X1838829Y-4668912D01*
G01X1838829Y-4668912D01*
G01X1863607Y-4681874D01*
G01X1883010Y-4691647D01*
G01X1894346Y-4686106D01*
G01X1921293Y-4672105D01*
G01X1962728Y-4649336D01*
G01X2019273Y-4617451D01*
G01X2091552Y-4576105D01*
G01X2143012Y-4546383D01*
G01X2162394Y-4534717D01*
G01X2167438Y-4531386D01*
G01X2167445Y-4432705D01*
G01X2167216Y-4361434D01*
G01X2166602Y-4295533D01*
G01X2165729Y-4244839D01*
G01X2164721Y-4219190D01*
G01X2164075Y-4213031D01*
G01X2140541Y-4199627D01*
G01X2027967Y-4136236D01*
G01X1894154Y-4062470D01*
G01X1885974Y-4057910D01*
G01X1883489Y-4056739D01*
G01X1881530Y-4056268D01*
G01X1879688Y-4056470D01*
G01X1877555Y-4057314D01*
G01X1870779Y-4060816D01*
G01X1833797Y-4080659D01*
G01X1773122Y-4114542D01*
G01X1720290Y-4144337D01*
G01X1640083Y-4190397D01*
G01X1611070Y-4207531D01*
G01X1598352Y-4215789D01*
G01X1596194Y-4217768D01*
G01X1567518Y-4217768D01*
G01X1567961Y-4208141D01*
G01X1568578Y-4205780D01*
G01X1569800Y-4203301D01*
G01X1571804Y-4200591D01*
G01X1574772Y-4197535D01*
G01X1578883Y-4194021D01*
G01X1584317Y-4189935D01*
G01X1599875Y-4179592D01*
G01X1622886Y-4165597D01*
G01X1654788Y-4147043D01*
G01X1751029Y-4092620D01*
G01X1823168Y-4052365D01*
G01X1846004Y-4040085D01*
G01X1862116Y-4032066D01*
G01X1873077Y-4027584D01*
G01X1877118Y-4026441D01*
G01X1880461Y-4025910D01*
G01X1883304Y-4025900D01*
G01X1885842Y-4026319D01*
G01X1890792Y-4028084D01*
G01X1901844Y-4033496D01*
G01X1922757Y-4044469D01*
G01X1986868Y-4079216D01*
G01X2026713Y-4101067D01*
G01X2050248Y-4114252D01*
G01X2085308Y-4134028D01*
G01X2130923Y-4159830D01*
G01X2162139Y-4178029D01*
G01X2181034Y-4189872D01*
G01X2186511Y-4193798D01*
G01X2189688Y-4196603D01*
G01X2191774Y-4199557D01*
G01X2193378Y-4204497D01*
G01X2194572Y-4213209D01*
G01X2195427Y-4227480D01*
G01X2196408Y-4279839D01*
G01X2196897Y-4375860D01*
G01X2197100Y-4474255D01*
G01X2196868Y-4504781D01*
G01X2196283Y-4525604D01*
G01X2195246Y-4538786D01*
G01X2194528Y-4543155D01*
G01X2193659Y-4546385D01*
G01X2192629Y-4548735D01*
G01X2191425Y-4550462D01*
G01X2188444Y-4553075D01*
G01X2175699Y-4561294D01*
G01X2150873Y-4576174D01*
G01X2077595Y-4618686D01*
G01X1993837Y-4666155D01*
G01X1955913Y-4687231D01*
G01X1924829Y-4704125D01*
G01X1904286Y-4714698D01*
G01X1896830Y-4718070D01*
G01X1890767Y-4720319D01*
G01X1885735Y-4721557D01*
G37*
G36*
G01X1845868Y-4632108D02*
G01X1839737Y-4632362D01*
G01X1833619Y-4632202D01*
G01X1827540Y-4631629D01*
G01X1821524Y-4630647D01*
G01X1815595Y-4629260D01*
G01X1809777Y-4627471D01*
G01X1804094Y-4625282D01*
G01X1798572Y-4622696D01*
G01X1793234Y-4619718D01*
G01X1788105Y-4616349D01*
G01X1783209Y-4612594D01*
G01X1778570Y-4608455D01*
G01X1774213Y-4603935D01*
G01X1770162Y-4599038D01*
G01X1766441Y-4593766D01*
G01X1763076Y-4588123D01*
G01X1760089Y-4582113D01*
G01X1757506Y-4575737D01*
G01X1755351Y-4568999D01*
G01X1754099Y-4563446D01*
G01X1753253Y-4557370D01*
G01X1752808Y-4551006D01*
G01X1752783Y-4547881D01*
G01X1779316Y-4547881D01*
G01X1779707Y-4553872D01*
G01X1780874Y-4559977D01*
G01X1782779Y-4566095D01*
G01X1785385Y-4572126D01*
G01X1788655Y-4577969D01*
G01X1792550Y-4583524D01*
G01X1797035Y-4588690D01*
G01X1802071Y-4593366D01*
G01X1807621Y-4597452D01*
G01X1813648Y-4600848D01*
G01X1820115Y-4603453D01*
G01X1826575Y-4605205D01*
G01X1832988Y-4606251D01*
G01X1832988Y-4606251D01*
G01X1839325Y-4606608D01*
G01X1845556Y-4606293D01*
G01X1851652Y-4605323D01*
G01X1857584Y-4603715D01*
G01X1863321Y-4601487D01*
G01X1868836Y-4598654D01*
G01X1874098Y-4595235D01*
G01X1879078Y-4591246D01*
G01X1883747Y-4586704D01*
G01X1888075Y-4581626D01*
G01X1892034Y-4576030D01*
G01X1895593Y-4569932D01*
G01X1898724Y-4563350D01*
G01X1901396Y-4556299D01*
G01X1904506Y-4545742D01*
G01X1908831Y-4529447D01*
G01X1915049Y-4504404D01*
G01X1944339Y-4504404D01*
G01X1948544Y-4506859D01*
G01X1961735Y-4513115D01*
G01X1961735Y-4513115D01*
G01X1968761Y-4516013D01*
G01X1972548Y-4517233D01*
G01X1974508Y-4516603D01*
G01X1977833Y-4514927D01*
G01X1986572Y-4509713D01*
G01X1994757Y-4504145D01*
G01X1997388Y-4502027D01*
G01X1998377Y-4500778D01*
G01X1996463Y-4499316D01*
G01X1991391Y-4496577D01*
G01X1975787Y-4489103D01*
G01X1959593Y-4482031D01*
G01X1953784Y-4479792D01*
G01X1950839Y-4479032D01*
G01X1949835Y-4479429D01*
G01X1948974Y-4480506D01*
G01X1947234Y-4485496D01*
G01X1945861Y-4491770D01*
G01X1944939Y-4498075D01*
G01X1944339Y-4504404D01*
G01X1915049Y-4504404D01*
G01X1919009Y-4488457D01*
G01X1927697Y-4450944D01*
G01X1929974Y-4439897D01*
G01X1958775Y-4439897D01*
G01X1974493Y-4447443D01*
G01X2010321Y-4464140D01*
G01X2010321Y-4464140D01*
G01X2036799Y-4476068D01*
G01X2038866Y-4475716D01*
G01X2042552Y-4474155D01*
G01X2052401Y-4468819D01*
G01X2061585Y-4462882D01*
G01X2064438Y-4460570D01*
G01X2065339Y-4459165D01*
G01X2063326Y-4457746D01*
G01X2057954Y-4454811D01*
G01X2038776Y-4445195D01*
G01X2011096Y-4431925D01*
G01X1978204Y-4416608D01*
G01X1970549Y-4413165D01*
G01X1968208Y-4412427D01*
G01X1966565Y-4412430D01*
G01X1965400Y-4413237D01*
G01X1964493Y-4414911D01*
G01X1962578Y-4421116D01*
G01X1960532Y-4428929D01*
G01X1959347Y-4435024D01*
G01X1958775Y-4439897D01*
G01X1929974Y-4439897D01*
G01X1930159Y-4438996D01*
G01X1930662Y-4434525D01*
G01X1922558Y-4438996D01*
G01X1904644Y-4449747D01*
G01X1862966Y-4475458D01*
G01X1829506Y-4496589D01*
G01X1805029Y-4512650D01*
G01X1790298Y-4523152D01*
G01X1786252Y-4527066D01*
G01X1783168Y-4531596D01*
G01X1781009Y-4536643D01*
G01X1779737Y-4542104D01*
G01X1779316Y-4547881D01*
G01X1752783Y-4547881D01*
G01X1752758Y-4544587D01*
G01X1753097Y-4538349D01*
G01X1753822Y-4532526D01*
G01X1754925Y-4527353D01*
G01X1756402Y-4523063D01*
G01X1757211Y-4521274D01*
G01X1757610Y-4519856D01*
G01X1757279Y-4518563D01*
G01X1755901Y-4517146D01*
G01X1748725Y-4512950D01*
G01X1733531Y-4505286D01*
G01X1711230Y-4494099D01*
G01X1696069Y-4503140D01*
G01X1680016Y-4512513D01*
G01X1674715Y-4515286D01*
G01X1670759Y-4516941D01*
G01X1667792Y-4517596D01*
G01X1665462Y-4517369D01*
G01X1663412Y-4516379D01*
G01X1661289Y-4514743D01*
G01X1658533Y-4511879D01*
G01X1657158Y-4508987D01*
G01X1657233Y-4505969D01*
G01X1658829Y-4502725D01*
G01X1662015Y-4499155D01*
G01X1666860Y-4495159D01*
G01X1673436Y-4490640D01*
G01X1681811Y-4485496D01*
G01X1698917Y-4475398D01*
G01X1698326Y-4454877D01*
G01X1697367Y-4430950D01*
G01X1696668Y-4423176D01*
G01X1696458Y-4421993D01*
G01X1724797Y-4421993D01*
G01X1724958Y-4435185D01*
G01X1726416Y-4463857D01*
G01X1726416Y-4463857D01*
G01X1727014Y-4471551D01*
G01X1777925Y-4497268D01*
G01X1790623Y-4489218D01*
G01X1799344Y-4483722D01*
G01X1801396Y-4481946D01*
G01X1801804Y-4481175D01*
G01X1801785Y-4480436D01*
G01X1800421Y-4478907D01*
G01X1797212Y-4477073D01*
G01X1784889Y-4471342D01*
G01X1772645Y-4465668D01*
G01X1763655Y-4461231D01*
G01X1757420Y-4457244D01*
G01X1755180Y-4455172D01*
G01X1753441Y-4452918D01*
G01X1752141Y-4450383D01*
G01X1751217Y-4447468D01*
G01X1750251Y-4440105D01*
G01X1750067Y-4431268D01*
G01X1785996Y-4431268D01*
G01X1804053Y-4439574D01*
G01X1831545Y-4451972D01*
G01X1831545Y-4451972D01*
G01X1838404Y-4454794D01*
G01X1841404Y-4455683D01*
G01X1843591Y-4455029D01*
G01X1847295Y-4453295D01*
G01X1856943Y-4447957D01*
G01X1865721Y-4442401D01*
G01X1868339Y-4440397D01*
G01X1869004Y-4439364D01*
G01X1856692Y-4433573D01*
G01X1843121Y-4427531D01*
G01X1833031Y-4422648D01*
G01X1825895Y-4418174D01*
G01X1823271Y-4415855D01*
G01X1821188Y-4413356D01*
G01X1819581Y-4410583D01*
G01X1818384Y-4407443D01*
G01X1817531Y-4403841D01*
G01X1816957Y-4399684D01*
G01X1816380Y-4389326D01*
G01X1816128Y-4375619D01*
G01X1815610Y-4358881D01*
G01X1855185Y-4358881D01*
G01X1855351Y-4381563D01*
G01X1855831Y-4392145D01*
G01X1881934Y-4404526D01*
G01X1881934Y-4404526D01*
G01X1907176Y-4416114D01*
G01X1916995Y-4410285D01*
G01X1929315Y-4402881D01*
G01X1932484Y-4400493D01*
G01X1933722Y-4398593D01*
G01X1933632Y-4397734D01*
G01X1933077Y-4396888D01*
G01X1930598Y-4395086D01*
G01X1920330Y-4390026D01*
G01X1908484Y-4384135D01*
G01X1899291Y-4379153D01*
G01X1892474Y-4374921D01*
G01X1887761Y-4371282D01*
G01X1884018Y-4367897D01*
G01X1884177Y-4350483D01*
G01X1922516Y-4350483D01*
G01X1956364Y-4366226D01*
G01X2021499Y-4396433D01*
G01X2053638Y-4410961D01*
G01X2068597Y-4417443D01*
G01X2078673Y-4421422D01*
G01X2084615Y-4423167D01*
G01X2084615Y-4423167D01*
G01X2086270Y-4423285D01*
G01X2087173Y-4422945D01*
G01X2087602Y-4420758D01*
G01X2087953Y-4415425D01*
G01X2088430Y-4397058D01*
G01X2088563Y-4341662D01*
G01X2087742Y-4284527D01*
G01X2087027Y-4263985D01*
G01X2086136Y-4253422D01*
G01X2085233Y-4252395D01*
G01X2082890Y-4250720D01*
G01X2074294Y-4245630D01*
G01X2044283Y-4229910D01*
G01X2002573Y-4209520D01*
G01X1955631Y-4187716D01*
G01X1938637Y-4180031D01*
G01X1930697Y-4176739D01*
G01X1929021Y-4176387D01*
G01X1928290Y-4176709D01*
G01X1927897Y-4178812D01*
G01X1927058Y-4188264D01*
G01X1926163Y-4207589D01*
G01X1924460Y-4269108D01*
G01X1922996Y-4333598D01*
G01X1922516Y-4350483D01*
G01X1884177Y-4350483D01*
G01X1884283Y-4338939D01*
G01X1884415Y-4318401D01*
G01X1883975Y-4312725D01*
G01X1883507Y-4310895D01*
G01X1882827Y-4309685D01*
G01X1881901Y-4309055D01*
G01X1880693Y-4308965D01*
G01X1877294Y-4310243D01*
G01X1865592Y-4317526D01*
G01X1858862Y-4322021D01*
G01X1855811Y-4324546D01*
G01X1855338Y-4335931D01*
G01X1855185Y-4358881D01*
G01X1815610Y-4358881D01*
G01X1815242Y-4347008D01*
G01X1806949Y-4351442D01*
G01X1794601Y-4358687D01*
G01X1792764Y-4359752D01*
G01X1791402Y-4360886D01*
G01X1790397Y-4363000D01*
G01X1789630Y-4367004D01*
G01X1788329Y-4384331D01*
G01X1786544Y-4420154D01*
G01X1785996Y-4431268D01*
G01X1750067Y-4431268D01*
G01X1750041Y-4430042D01*
G01X1750089Y-4416492D01*
G01X1749661Y-4384515D01*
G01X1737484Y-4391380D01*
G01X1725756Y-4398244D01*
G01X1725059Y-4411275D01*
G01X1724797Y-4421993D01*
G01X1696458Y-4421993D01*
G01X1695687Y-4417662D01*
G01X1694320Y-4414007D01*
G01X1692465Y-4411811D01*
G01X1690020Y-4410672D01*
G01X1686881Y-4410191D01*
G01X1680236Y-4409284D01*
G01X1673635Y-4407677D01*
G01X1667126Y-4405416D01*
G01X1660760Y-4402549D01*
G01X1654583Y-4399124D01*
G01X1648645Y-4395189D01*
G01X1642996Y-4390791D01*
G01X1637682Y-4385977D01*
G01X1632754Y-4380795D01*
G01X1628260Y-4375293D01*
G01X1624248Y-4369518D01*
G01X1620768Y-4363519D01*
G01X1617869Y-4357341D01*
G01X1615598Y-4351034D01*
G01X1614005Y-4344644D01*
G01X1613138Y-4338219D01*
G01X1612848Y-4326593D01*
G01X1612885Y-4326140D01*
G01X1638764Y-4326140D01*
G01X1639012Y-4331316D01*
G01X1639777Y-4336461D01*
G01X1641049Y-4341544D01*
G01X1642819Y-4346536D01*
G01X1645078Y-4351405D01*
G01X1647817Y-4356122D01*
G01X1651027Y-4360656D01*
G01X1654698Y-4364977D01*
G01X1658822Y-4369056D01*
G01X1663389Y-4372862D01*
G01X1668391Y-4376364D01*
G01X1675368Y-4380703D01*
G01X1678489Y-4382269D01*
G01X1681605Y-4383345D01*
G01X1681605Y-4383345D01*
G01X1684897Y-4383864D01*
G01X1688543Y-4383760D01*
G01X1692725Y-4382968D01*
G01X1697622Y-4381422D01*
G01X1710283Y-4375804D01*
G01X1727967Y-4366378D01*
G01X1784169Y-4333993D01*
G01X1808663Y-4319823D01*
G01X1824006Y-4310804D01*
G01X1834520Y-4303975D01*
G01X1840151Y-4299376D01*
G01X1841117Y-4297924D01*
G01X1840842Y-4297044D01*
G01X1835199Y-4295250D01*
G01X1822284Y-4291899D01*
G01X1783283Y-4282544D01*
G01X1741122Y-4273003D01*
G01X1713086Y-4267300D01*
G01X1708334Y-4266611D01*
G01X1704768Y-4266431D01*
G01X1701006Y-4266795D01*
G01X1695662Y-4267739D01*
G01X1686520Y-4269759D01*
G01X1678475Y-4272204D01*
G01X1671389Y-4275164D01*
G01X1665126Y-4278730D01*
G01X1659550Y-4282991D01*
G01X1654526Y-4288037D01*
G01X1649917Y-4293958D01*
G01X1645586Y-4300845D01*
G01X1643116Y-4305725D01*
G01X1641208Y-4310725D01*
G01X1639852Y-4315814D01*
G01X1639041Y-4320963D01*
G01X1638764Y-4326140D01*
G01X1612885Y-4326140D01*
G01X1613748Y-4315526D01*
G01X1615793Y-4305061D01*
G01X1618935Y-4295236D01*
G01X1623126Y-4286094D01*
G01X1628321Y-4277673D01*
G01X1634470Y-4270015D01*
G01X1640849Y-4263821D01*
G01X1856506Y-4263821D01*
G01X1856530Y-4272633D01*
G01X1871082Y-4276551D01*
G01X1871082Y-4276551D01*
G01X1880819Y-4278798D01*
G01X1885396Y-4279596D01*
G01X1886820Y-4251915D01*
G01X1888515Y-4201547D01*
G01X1888760Y-4182824D01*
G01X1888508Y-4178906D01*
G01X1887988Y-4177745D01*
G01X1883628Y-4179793D01*
G01X1874761Y-4184717D01*
G01X1866359Y-4189745D01*
G01X1863755Y-4191694D01*
G01X1861964Y-4193611D01*
G01X1860799Y-4195755D01*
G01X1860072Y-4198383D01*
G01X1859177Y-4206127D01*
G01X1857167Y-4244073D01*
G01X1856506Y-4263821D01*
G01X1640849Y-4263821D01*
G01X1641529Y-4263160D01*
G01X1649448Y-4257149D01*
G01X1658182Y-4252022D01*
G01X1667683Y-4247820D01*
G01X1677903Y-4244582D01*
G01X1688797Y-4242350D01*
G01X1700316Y-4241165D01*
G01X1712414Y-4241065D01*
G01X1725044Y-4242093D01*
G01X1730757Y-4242804D01*
G01X1732348Y-4241805D01*
G01X1790926Y-4241805D01*
G01X1791496Y-4253055D01*
G01X1792100Y-4257466D01*
G01X1800382Y-4259401D01*
G01X1800382Y-4259401D01*
G01X1811395Y-4261839D01*
G01X1814678Y-4261984D01*
G01X1816843Y-4261096D01*
G01X1818160Y-4258936D01*
G01X1818902Y-4255268D01*
G01X1819746Y-4242453D01*
G01X1820285Y-4227550D01*
G01X1819842Y-4223311D01*
G01X1819359Y-4221921D01*
G01X1818671Y-4220990D01*
G01X1817753Y-4220496D01*
G01X1816582Y-4220418D01*
G01X1813386Y-4221427D01*
G01X1808894Y-4223848D01*
G01X1802914Y-4227514D01*
G01X1790960Y-4234967D01*
G01X1790926Y-4241805D01*
G01X1732348Y-4241805D01*
G01X1756742Y-4226484D01*
G01X1795143Y-4202538D01*
G01X1826883Y-4183172D01*
G01X1852657Y-4168018D01*
G01X1873164Y-4156710D01*
G01X1889099Y-4148884D01*
G01X1901159Y-4144174D01*
G01X1905954Y-4142873D01*
G01X1910041Y-4142213D01*
G01X1913507Y-4142150D01*
G01X1916440Y-4142637D01*
G01X1930974Y-4147842D01*
G01X1953803Y-4157371D01*
G01X1981725Y-4169835D01*
G01X2011543Y-4183848D01*
G01X2053129Y-4203898D01*
G01X2075887Y-4215273D01*
G01X2093376Y-4224894D01*
G01X2105062Y-4232446D01*
G01X2108561Y-4235348D01*
G01X2110409Y-4237615D01*
G01X2112138Y-4242251D01*
G01X2113548Y-4249043D01*
G01X2114654Y-4258326D01*
G01X2115473Y-4270431D01*
G01X2116318Y-4304441D01*
G01X2116216Y-4353740D01*
G01X2115446Y-4407215D01*
G01X2114822Y-4425208D01*
G01X2113931Y-4438527D01*
G01X2112693Y-4448041D01*
G01X2111026Y-4454615D01*
G01X2108849Y-4459117D01*
G01X2106082Y-4462415D01*
G01X2098860Y-4468119D01*
G01X2085844Y-4477166D01*
G01X2047619Y-4502003D01*
G01X2001788Y-4530355D01*
G01X1958733Y-4555652D01*
G01X1943400Y-4564475D01*
G01X1932769Y-4571005D01*
G01X1926114Y-4575714D01*
G01X1922708Y-4579077D01*
G01X1915759Y-4589610D01*
G01X1911663Y-4595544D01*
G01X1907264Y-4601023D01*
G01X1902587Y-4606049D01*
G01X1897656Y-4610626D01*
G01X1892495Y-4614757D01*
G01X1887130Y-4618444D01*
G01X1881583Y-4621691D01*
G01X1875880Y-4624501D01*
G01X1870044Y-4626878D01*
G01X1864101Y-4628824D01*
G01X1858074Y-4630342D01*
G01X1851988Y-4631436D01*
G01X1845868Y-4632108D01*
G37*
G36*
G01X2050118Y-4352048D02*
G01X2047025Y-4352290D01*
G01X2044096Y-4351782D01*
G01X2041411Y-4350525D01*
G01X2039051Y-4348524D01*
G01X2037095Y-4345782D01*
G01X2036041Y-4342457D01*
G01X2036276Y-4338988D01*
G01X2037602Y-4335596D01*
G01X2039818Y-4332502D01*
G01X2042727Y-4329926D01*
G01X2046127Y-4328087D01*
G01X2049821Y-4327208D01*
G01X2053610Y-4327507D01*
G01X2056796Y-4328756D01*
G01X2059377Y-4330631D01*
G01X2061304Y-4332983D01*
G01X2062534Y-4335666D01*
G01X2063021Y-4338534D01*
G01X2062720Y-4341439D01*
G01X2061584Y-4344235D01*
G01X2059569Y-4346775D01*
G01X2056470Y-4349294D01*
G01X2053293Y-4351050D01*
G01X2050118Y-4352048D01*
G37*
G36*
G01X1993485Y-4259172D02*
G01X1991217Y-4259705D01*
G01X1988803Y-4259780D01*
G01X1986270Y-4259341D01*
G01X1982859Y-4257883D01*
G01X1980297Y-4255738D01*
G01X1978603Y-4253069D01*
G01X1977795Y-4250042D01*
G01X1977892Y-4246822D01*
G01X1978913Y-4243575D01*
G01X1980877Y-4240464D01*
G01X1983802Y-4237656D01*
G01X1987275Y-4235567D01*
G01X1990748Y-4234579D01*
G01X1994177Y-4234697D01*
G01X1997518Y-4235926D01*
G01X1999583Y-4237341D01*
G01X2001153Y-4239022D01*
G01X2002256Y-4240914D01*
G01X2002919Y-4242961D01*
G01X2003169Y-4245108D01*
G01X2003031Y-4247298D01*
G01X2001702Y-4251587D01*
G01X1999148Y-4255382D01*
G01X1995581Y-4258236D01*
G01X1993485Y-4259172D01*
G37*
G36*
G01X1487452Y-4458568D02*
G01X1426835Y-4458568D01*
G01X1426835Y-4447989D01*
G01X1432599Y-4447989D01*
G01X1436024Y-4448118D01*
G01X1438526Y-4447804D01*
G01X1439476Y-4447153D01*
G01X1440249Y-4445997D01*
G01X1441336Y-4441646D01*
G01X1441932Y-4433700D01*
G01X1442179Y-4421108D01*
G01X1442204Y-4377783D01*
G01X1441924Y-4311424D01*
G01X1413347Y-4384995D01*
G01X1385050Y-4458566D01*
G01X1372156Y-4458326D01*
G01X1359261Y-4458087D01*
G01X1331604Y-4385477D01*
G01X1303019Y-4310943D01*
G01X1302613Y-4314441D01*
G01X1302310Y-4326668D01*
G01X1302026Y-4376397D01*
G01X1302021Y-4419444D01*
G01X1302223Y-4432094D01*
G01X1302707Y-4440202D01*
G01X1303586Y-4444799D01*
G01X1304208Y-4446103D01*
G01X1304969Y-4446915D01*
G01X1306968Y-4447582D01*
G01X1309692Y-4447830D01*
G01X1314928Y-4448470D01*
G01X1315219Y-4453519D01*
G01X1315509Y-4458568D01*
G01X1241444Y-4458568D01*
G01X1241444Y-4448220D01*
G01X1247284Y-4447797D01*
G01X1249950Y-4447705D01*
G01X1251010Y-4447517D01*
G01X1251907Y-4447020D01*
G01X1252654Y-4446056D01*
G01X1253264Y-4444465D01*
G01X1254131Y-4438761D01*
G01X1254617Y-4428631D01*
G01X1254831Y-4412798D01*
G01X1254878Y-4358907D01*
G01X1254874Y-4304506D01*
G01X1254676Y-4288741D01*
G01X1254182Y-4278803D01*
G01X1253270Y-4273343D01*
G01X1252619Y-4271872D01*
G01X1251817Y-4271014D01*
G01X1249699Y-4270467D01*
G01X1246794Y-4270354D01*
G01X1241444Y-4269801D01*
G01X1241444Y-4260453D01*
G01X1314099Y-4260453D01*
G01X1338438Y-4325610D01*
G01X1363461Y-4391554D01*
G01X1364029Y-4391077D01*
G01X1365070Y-4389195D01*
G01X1367974Y-4382418D01*
G01X1393228Y-4316473D01*
G01X1414653Y-4260453D01*
G01X1487351Y-4260453D01*
G01X1487351Y-4270070D01*
G01X1482252Y-4270070D01*
G01X1479078Y-4269874D01*
G01X1476767Y-4270158D01*
G01X1475890Y-4270890D01*
G01X1475176Y-4272233D01*
G01X1474166Y-4277410D01*
G01X1473598Y-4286999D01*
G01X1473330Y-4302311D01*
G01X1473139Y-4355345D01*
G01X1472967Y-4411839D01*
G01X1473147Y-4428274D01*
G01X1473683Y-4438687D01*
G01X1474709Y-4444468D01*
G01X1475448Y-4446055D01*
G01X1476359Y-4447004D01*
G01X1477460Y-4447490D01*
G01X1478768Y-4447686D01*
G01X1482068Y-4447903D01*
G01X1486871Y-4448470D01*
G01X1487161Y-4453519D01*
G01X1487452Y-4458568D01*
G37*
G36*
G01X831145Y-4447720D02*
G01X837043Y-4448256D01*
G01X837043Y-4458768D01*
G01X788294Y-4458312D01*
G01X756643Y-4457868D01*
G01X737196Y-4456990D01*
G01X730428Y-4456256D01*
G01X724767Y-4455253D01*
G01X714170Y-4452231D01*
G01X705463Y-4448686D01*
G01X697812Y-4444288D01*
G01X691226Y-4439148D01*
G01X685714Y-4433382D01*
G01X681285Y-4427102D01*
G01X677948Y-4420424D01*
G01X675712Y-4413459D01*
G01X674585Y-4406323D01*
G01X674581Y-4402108D01*
G01X724171Y-4402108D01*
G01X724544Y-4406079D01*
G01X725374Y-4410085D01*
G01X726676Y-4414095D01*
G01X728463Y-4418077D01*
G01X729955Y-4420420D01*
G01X731909Y-4422614D01*
G01X736957Y-4426491D01*
G01X743110Y-4429586D01*
G01X749872Y-4431777D01*
G01X756746Y-4432942D01*
G01X756746Y-4432942D01*
G01X763236Y-4432958D01*
G01X766182Y-4432498D01*
G01X768846Y-4431704D01*
G01X771166Y-4430563D01*
G01X773080Y-4429058D01*
G01X775566Y-4426569D01*
G01X775566Y-4367204D01*
G01X766201Y-4367221D01*
G01X757673Y-4367638D01*
G01X750322Y-4368619D01*
G01X746288Y-4369721D01*
G01X742545Y-4371235D01*
G01X739107Y-4373129D01*
G01X735988Y-4375371D01*
G01X733201Y-4377932D01*
G01X730761Y-4380778D01*
G01X728681Y-4383879D01*
G01X726975Y-4387203D01*
G01X725657Y-4390720D01*
G01X724741Y-4394397D01*
G01X724241Y-4398204D01*
G01X724171Y-4402108D01*
G01X674581Y-4402108D01*
G01X674578Y-4399129D01*
G01X675699Y-4391990D01*
G01X677956Y-4385021D01*
G01X681359Y-4378335D01*
G01X685918Y-4372046D01*
G01X691640Y-4366268D01*
G01X698535Y-4361114D01*
G01X706612Y-4356698D01*
G01X714270Y-4353158D01*
G01X707756Y-4349848D01*
G01X701913Y-4346343D01*
G01X696852Y-4342225D01*
G01X692573Y-4337582D01*
G01X689075Y-4332500D01*
G01X686360Y-4327067D01*
G01X684426Y-4321372D01*
G01X683272Y-4315503D01*
G01X683135Y-4313311D01*
G01X731217Y-4313311D01*
G01X731418Y-4317222D01*
G01X732056Y-4321059D01*
G01X733132Y-4324746D01*
G01X734646Y-4328211D01*
G01X736598Y-4331378D01*
G01X738989Y-4334174D01*
G01X741818Y-4336524D01*
G01X745087Y-4338354D01*
G01X751188Y-4339954D01*
G01X760211Y-4341341D01*
G01X768909Y-4342117D01*
G01X768909Y-4342117D01*
G01X772121Y-4342153D01*
G01X774033Y-4341887D01*
G01X774758Y-4339421D01*
G01X775288Y-4333429D01*
G01X775749Y-4315505D01*
G01X775391Y-4297399D01*
G01X774896Y-4291179D01*
G01X774187Y-4288394D01*
G01X772030Y-4287209D01*
G01X768969Y-4286355D01*
G01X761116Y-4285643D01*
G01X752579Y-4286270D01*
G01X748663Y-4287088D01*
G01X745308Y-4288244D01*
G01X742023Y-4290079D01*
G01X739173Y-4292434D01*
G01X736758Y-4295234D01*
G01X734778Y-4298404D01*
G01X733233Y-4301872D01*
G01X732125Y-4305561D01*
G01X731452Y-4309399D01*
G01X731217Y-4313311D01*
G01X683135Y-4313311D01*
G01X682900Y-4309545D01*
G01X683308Y-4303589D01*
G01X684496Y-4297720D01*
G01X686465Y-4292028D01*
G01X689213Y-4286599D01*
G01X692741Y-4281521D01*
G01X697048Y-4276883D01*
G01X702134Y-4272771D01*
G01X707998Y-4269274D01*
G01X713638Y-4266629D01*
G01X719283Y-4264566D01*
G01X725594Y-4263015D01*
G01X733230Y-4261904D01*
G01X742848Y-4261163D01*
G01X755108Y-4260721D01*
G01X790190Y-4260453D01*
G01X837043Y-4260453D01*
G01X837043Y-4270070D01*
G01X832783Y-4270070D01*
G01X829050Y-4270346D01*
G01X826059Y-4271008D01*
G01X823595Y-4271946D01*
G01X823609Y-4358284D01*
G01X823655Y-4412486D01*
G01X823865Y-4428400D01*
G01X824346Y-4438576D01*
G01X825205Y-4444306D01*
G01X825811Y-4445907D01*
G01X826552Y-4446879D01*
G01X827443Y-4447386D01*
G01X828496Y-4447587D01*
G01X831145Y-4447720D01*
G37*
G36*
G01X930218Y-4505692D02*
G01X1487351Y-4505692D01*
G01X1487351Y-4559549D01*
G01X930218Y-4559549D01*
G01X930218Y-4505692D01*
G37*
G36*
G01X957363Y-4459210D02*
G01X951256Y-4460893D01*
G01X944790Y-4461742D01*
G01X938051Y-4461727D01*
G01X931127Y-4460817D01*
G01X924104Y-4458980D01*
G01X917072Y-4456186D01*
G01X910115Y-4452404D01*
G01X903322Y-4447603D01*
G01X900249Y-4445235D01*
G01X898566Y-4444398D01*
G01X898076Y-4444541D01*
G01X897730Y-4445052D01*
G01X897197Y-4447157D01*
G01X896482Y-4449733D01*
G01X895431Y-4452014D01*
G01X894054Y-4453998D01*
G01X892361Y-4455684D01*
G01X890363Y-4457071D01*
G01X888068Y-4458158D01*
G01X882630Y-4459429D01*
G01X876125Y-4459486D01*
G01X868635Y-4458322D01*
G01X860237Y-4455927D01*
G01X851011Y-4452293D01*
G01X845553Y-4449877D01*
G01X847695Y-4446288D01*
G01X849635Y-4443174D01*
G01X850953Y-4441646D01*
G01X852091Y-4441385D01*
G01X853490Y-4442069D01*
G01X854552Y-4442638D01*
G01X855357Y-4442500D01*
G01X855952Y-4441142D01*
G01X856378Y-4438052D01*
G01X856907Y-4424630D01*
G01X857235Y-4402547D01*
G01X900462Y-4402547D01*
G01X900660Y-4406669D01*
G01X901221Y-4410573D01*
G01X903327Y-4417640D01*
G01X906568Y-4423569D01*
G01X908549Y-4426050D01*
G01X910735Y-4428179D01*
G01X913099Y-4429934D01*
G01X915615Y-4431291D01*
G01X918257Y-4432228D01*
G01X918257Y-4432228D01*
G01X920998Y-4432724D01*
G01X923812Y-4432754D01*
G01X926673Y-4432298D01*
G01X929555Y-4431332D01*
G01X932430Y-4429834D01*
G01X935185Y-4427826D01*
G01X937330Y-4425621D01*
G01X938882Y-4423255D01*
G01X939860Y-4420760D01*
G01X940282Y-4418174D01*
G01X940165Y-4415529D01*
G01X939529Y-4412860D01*
G01X938391Y-4410203D01*
G01X936770Y-4407593D01*
G01X934683Y-4405063D01*
G01X932149Y-4402648D01*
G01X929186Y-4400384D01*
G01X925812Y-4398304D01*
G01X922046Y-4396445D01*
G01X917905Y-4394839D01*
G01X913408Y-4393523D01*
G01X905473Y-4391604D01*
G01X903150Y-4391360D01*
G01X901673Y-4391769D01*
G01X900854Y-4392961D01*
G01X900505Y-4395067D01*
G01X900462Y-4402547D01*
G01X857235Y-4402547D01*
G01X857300Y-4398141D01*
G01X857874Y-4367884D01*
G01X858386Y-4357964D01*
G01X859197Y-4350565D01*
G01X860417Y-4344974D01*
G01X862160Y-4340479D01*
G01X864536Y-4336365D01*
G01X867657Y-4331919D01*
G01X872096Y-4326968D01*
G01X877645Y-4322709D01*
G01X884202Y-4319174D01*
G01X891664Y-4316393D01*
G01X899927Y-4314399D01*
G01X908889Y-4313222D01*
G01X918447Y-4312894D01*
G01X928498Y-4313445D01*
G01X938115Y-4314976D01*
G01X946718Y-4317551D01*
G01X954101Y-4321092D01*
G01X957270Y-4323199D01*
G01X960056Y-4325518D01*
G01X964287Y-4330216D01*
G01X967975Y-4335675D01*
G01X970985Y-4341469D01*
G01X973181Y-4347169D01*
G01X974429Y-4352347D01*
G01X974591Y-4356576D01*
G01X974224Y-4358200D01*
G01X973534Y-4359427D01*
G01X972506Y-4360202D01*
G01X971121Y-4360472D01*
G01X966449Y-4361006D01*
G01X965798Y-4361078D01*
G01X965256Y-4360747D01*
G01X964468Y-4358842D01*
G01X963465Y-4355808D01*
G01X961857Y-4352898D01*
G01X959707Y-4350138D01*
G01X957079Y-4347550D01*
G01X954038Y-4345160D01*
G01X950647Y-4342991D01*
G01X943072Y-4339415D01*
G01X934867Y-4337016D01*
G01X926545Y-4335988D01*
G01X922499Y-4336049D01*
G01X918616Y-4336525D01*
G01X914960Y-4337441D01*
G01X911595Y-4338821D01*
G01X908628Y-4340507D01*
G01X906196Y-4342329D01*
G01X904257Y-4344373D01*
G01X902768Y-4346725D01*
G01X901685Y-4349470D01*
G01X900965Y-4352694D01*
G01X900441Y-4360922D01*
G01X900441Y-4368779D01*
G01X918932Y-4372863D01*
G01X934795Y-4376773D01*
G01X948065Y-4380980D01*
G01X958914Y-4385610D01*
G01X963483Y-4388121D01*
G01X967511Y-4390786D01*
G01X971019Y-4393617D01*
G01X974028Y-4396632D01*
G01X976559Y-4399846D01*
G01X978634Y-4403275D01*
G01X980275Y-4406933D01*
G01X981502Y-4410837D01*
G01X982337Y-4415002D01*
G01X982801Y-4419444D01*
G01X982712Y-4426683D01*
G01X981565Y-4433336D01*
G01X979448Y-4439372D01*
G01X976448Y-4444759D01*
G01X972652Y-4449468D01*
G01X968148Y-4453466D01*
G01X963023Y-4456724D01*
G01X957363Y-4459210D01*
G37*
G36*
G01X607837Y-4460855D02*
G01X598026Y-4461627D01*
G01X588267Y-4461115D01*
G01X578706Y-4459356D01*
G01X569493Y-4456387D01*
G01X560776Y-4452245D01*
G01X552702Y-4446968D01*
G01X545421Y-4440593D01*
G01X538280Y-4433374D01*
G01X541835Y-4428419D01*
G01X545497Y-4423256D01*
G01X551621Y-4428779D01*
G01X557313Y-4433684D01*
G01X563001Y-4437585D01*
G01X568647Y-4440499D01*
G01X574215Y-4442443D01*
G01X579667Y-4443434D01*
G01X584966Y-4443491D01*
G01X590075Y-4442629D01*
G01X594956Y-4440867D01*
G01X599572Y-4438221D01*
G01X603886Y-4434710D01*
G01X607861Y-4430349D01*
G01X611460Y-4425157D01*
G01X614644Y-4419151D01*
G01X617378Y-4412347D01*
G01X619624Y-4404764D01*
G01X621345Y-4396419D01*
G01X622002Y-4392454D01*
G01X535428Y-4391026D01*
G01X536002Y-4382721D01*
G01X536895Y-4373848D01*
G01X537694Y-4369128D01*
G01X577467Y-4369128D01*
G01X622096Y-4369128D01*
G01X621408Y-4363615D01*
G01X619924Y-4356372D01*
G01X617481Y-4350051D01*
G01X614217Y-4344768D01*
G01X610275Y-4340640D01*
G01X605793Y-4337783D01*
G01X600913Y-4336313D01*
G01X598367Y-4336135D01*
G01X595774Y-4336347D01*
G01X593152Y-4336965D01*
G01X590517Y-4338002D01*
G01X588252Y-4339419D01*
G01X586155Y-4341418D01*
G01X584245Y-4343963D01*
G01X582539Y-4347017D01*
G01X579810Y-4354508D01*
G01X578110Y-4363598D01*
G01X577467Y-4369128D01*
G01X577467Y-4369128D01*
G01X537694Y-4369128D01*
G01X538302Y-4365540D01*
G01X540214Y-4357805D01*
G01X542622Y-4350651D01*
G01X545517Y-4344088D01*
G01X548891Y-4338124D01*
G01X552734Y-4332769D01*
G01X557039Y-4328029D01*
G01X561794Y-4323915D01*
G01X566993Y-4320435D01*
G01X572626Y-4317598D01*
G01X578683Y-4315413D01*
G01X585157Y-4313887D01*
G01X592038Y-4313030D01*
G01X599317Y-4312851D01*
G01X606985Y-4313358D01*
G01X613480Y-4314399D01*
G01X619605Y-4316046D01*
G01X625357Y-4318262D01*
G01X630734Y-4321008D01*
G01X635732Y-4324247D01*
G01X640349Y-4327940D01*
G01X644582Y-4332049D01*
G01X648428Y-4336537D01*
G01X651885Y-4341365D01*
G01X654950Y-4346494D01*
G01X657620Y-4351888D01*
G01X659892Y-4357508D01*
G01X661763Y-4363316D01*
G01X663232Y-4369274D01*
G01X664294Y-4375343D01*
G01X664947Y-4381486D01*
G01X665189Y-4387665D01*
G01X665017Y-4393842D01*
G01X664428Y-4399978D01*
G01X663418Y-4406036D01*
G01X661986Y-4411978D01*
G01X660129Y-4417764D01*
G01X657844Y-4423359D01*
G01X655127Y-4428722D01*
G01X651977Y-4433817D01*
G01X648391Y-4438605D01*
G01X644365Y-4443048D01*
G01X639897Y-4447109D01*
G01X634985Y-4450748D01*
G01X629625Y-4453929D01*
G01X623815Y-4456612D01*
G01X617552Y-4458760D01*
G01X607837Y-4460855D01*
G37*
G36*
G01X1168617Y-4461575D02*
G01X1160110Y-4461663D01*
G01X1151585Y-4460759D01*
G01X1143151Y-4458842D01*
G01X1134916Y-4455892D01*
G01X1126988Y-4451890D01*
G01X1119476Y-4446815D01*
G01X1112487Y-4440646D01*
G01X1108189Y-4436244D01*
G01X1107029Y-4434770D01*
G01X1106474Y-4433545D01*
G01X1106485Y-4432392D01*
G01X1107019Y-4431136D01*
G01X1109500Y-4427609D01*
G01X1112997Y-4422839D01*
G01X1116945Y-4427099D01*
G01X1122447Y-4432430D01*
G01X1128045Y-4436697D01*
G01X1133687Y-4439923D01*
G01X1139323Y-4442128D01*
G01X1144903Y-4443336D01*
G01X1150376Y-4443566D01*
G01X1155692Y-4442840D01*
G01X1160800Y-4441181D01*
G01X1165650Y-4438608D01*
G01X1170192Y-4435144D01*
G01X1174375Y-4430810D01*
G01X1178148Y-4425628D01*
G01X1181461Y-4419618D01*
G01X1184264Y-4412803D01*
G01X1186506Y-4405204D01*
G01X1188137Y-4396842D01*
G01X1188795Y-4392450D01*
G01X1145958Y-4391735D01*
G01X1103122Y-4391020D01*
G01X1103126Y-4384642D01*
G01X1103462Y-4375998D01*
G01X1104287Y-4369128D01*
G01X1144309Y-4369128D01*
G01X1188613Y-4369128D01*
G01X1188601Y-4366002D01*
G01X1188183Y-4361460D01*
G01X1187042Y-4356755D01*
G01X1185302Y-4352102D01*
G01X1183087Y-4347714D01*
G01X1180518Y-4343806D01*
G01X1177721Y-4340590D01*
G01X1174817Y-4338281D01*
G01X1171931Y-4337093D01*
G01X1168138Y-4336637D01*
G01X1164160Y-4336620D01*
G01X1160601Y-4337013D01*
G01X1158067Y-4337786D01*
G01X1155411Y-4339433D01*
G01X1153103Y-4341445D01*
G01X1151114Y-4343882D01*
G01X1149414Y-4346804D01*
G01X1147973Y-4350273D01*
G01X1146761Y-4354348D01*
G01X1144907Y-4364559D01*
G01X1144309Y-4369128D01*
G01X1144309Y-4369128D01*
G01X1104287Y-4369128D01*
G01X1104444Y-4367815D01*
G01X1106054Y-4360115D01*
G01X1108268Y-4352917D01*
G01X1111066Y-4346243D01*
G01X1114427Y-4340115D01*
G01X1118331Y-4334552D01*
G01X1122756Y-4329576D01*
G01X1127681Y-4325208D01*
G01X1133085Y-4321469D01*
G01X1138947Y-4318380D01*
G01X1145247Y-4315962D01*
G01X1151962Y-4314235D01*
G01X1159073Y-4313222D01*
G01X1166559Y-4312942D01*
G01X1174397Y-4313416D01*
G01X1182465Y-4314841D01*
G01X1190054Y-4317287D01*
G01X1197129Y-4320686D01*
G01X1203655Y-4324965D01*
G01X1209599Y-4330055D01*
G01X1214924Y-4335886D01*
G01X1219597Y-4342387D01*
G01X1223583Y-4349488D01*
G01X1226848Y-4357118D01*
G01X1229356Y-4365207D01*
G01X1231073Y-4373684D01*
G01X1231964Y-4382480D01*
G01X1231995Y-4391524D01*
G01X1231131Y-4400745D01*
G01X1229338Y-4410074D01*
G01X1226580Y-4419439D01*
G01X1223092Y-4427554D01*
G01X1218613Y-4434859D01*
G01X1213252Y-4441331D01*
G01X1207117Y-4446952D01*
G01X1200316Y-4451701D01*
G01X1192958Y-4455558D01*
G01X1185150Y-4458502D01*
G01X1177000Y-4460515D01*
G01X1168617Y-4461575D01*
G37*
G36*
G01X471182Y-4460485D02*
G01X462827Y-4461559D01*
G01X454343Y-4461665D01*
G01X445836Y-4460782D01*
G01X437414Y-4458891D01*
G01X429182Y-4455971D01*
G01X421248Y-4452002D01*
G01X413719Y-4446965D01*
G01X406700Y-4440840D01*
G01X402255Y-4436341D01*
G01X401051Y-4434836D01*
G01X400468Y-4433588D01*
G01X400463Y-4432419D01*
G01X400992Y-4431152D01*
G01X403479Y-4427609D01*
G01X406976Y-4422839D01*
G01X410923Y-4427116D01*
G01X416437Y-4432335D01*
G01X422207Y-4436409D01*
G01X428149Y-4439376D01*
G01X434177Y-4441274D01*
G01X440208Y-4442141D01*
G01X446158Y-4442016D01*
G01X451941Y-4440937D01*
G01X457474Y-4438942D01*
G01X462672Y-4436070D01*
G01X467450Y-4432359D01*
G01X471725Y-4427846D01*
G01X475412Y-4422571D01*
G01X478426Y-4416571D01*
G01X480684Y-4409886D01*
G01X482100Y-4402552D01*
G01X482591Y-4394609D01*
G01X482591Y-4392447D01*
G01X439846Y-4391733D01*
G01X397100Y-4391020D01*
G01X397104Y-4384642D01*
G01X397440Y-4375998D01*
G01X398265Y-4369128D01*
G01X438287Y-4369128D01*
G01X482591Y-4369128D01*
G01X482580Y-4366002D01*
G01X482161Y-4361460D01*
G01X481021Y-4356755D01*
G01X479281Y-4352102D01*
G01X477065Y-4347714D01*
G01X474496Y-4343806D01*
G01X471699Y-4340590D01*
G01X468795Y-4338281D01*
G01X465909Y-4337093D01*
G01X462544Y-4336668D01*
G01X458957Y-4336595D01*
G01X455648Y-4336861D01*
G01X453116Y-4337452D01*
G01X450336Y-4338816D01*
G01X447871Y-4340701D01*
G01X445708Y-4343136D01*
G01X443832Y-4346148D01*
G01X442225Y-4349768D01*
G01X440875Y-4354024D01*
G01X438881Y-4364559D01*
G01X438287Y-4369128D01*
G01X438287Y-4369128D01*
G01X398265Y-4369128D01*
G01X398423Y-4367815D01*
G01X400032Y-4360115D01*
G01X402246Y-4352917D01*
G01X405044Y-4346243D01*
G01X408406Y-4340115D01*
G01X412309Y-4334552D01*
G01X416734Y-4329576D01*
G01X421659Y-4325208D01*
G01X427063Y-4321469D01*
G01X432925Y-4318380D01*
G01X439225Y-4315962D01*
G01X445941Y-4314235D01*
G01X453052Y-4313222D01*
G01X460537Y-4312942D01*
G01X468375Y-4313416D01*
G01X476446Y-4314841D01*
G01X484038Y-4317287D01*
G01X491114Y-4320685D01*
G01X497642Y-4324963D01*
G01X503586Y-4330052D01*
G01X508912Y-4335882D01*
G01X513585Y-4342381D01*
G01X517571Y-4349481D01*
G01X520834Y-4357110D01*
G01X523341Y-4365199D01*
G01X525057Y-4373676D01*
G01X525948Y-4382472D01*
G01X525977Y-4391517D01*
G01X525112Y-4400740D01*
G01X523317Y-4410070D01*
G01X520559Y-4419439D01*
G01X517080Y-4427537D01*
G01X512619Y-4434828D01*
G01X507281Y-4441291D01*
G01X501174Y-4446906D01*
G01X494403Y-4451653D01*
G01X487077Y-4455512D01*
G01X479300Y-4458462D01*
G01X471182Y-4460485D01*
G37*
G36*
G01X1036767Y-4461053D02*
G01X1032021Y-4461265D01*
G01X1027235Y-4461041D01*
G01X1022472Y-4460389D01*
G01X1017797Y-4459313D01*
G01X1013274Y-4457821D01*
G01X1008966Y-4455917D01*
G01X1004938Y-4453607D01*
G01X1001253Y-4450898D01*
G01X997976Y-4447795D01*
G01X995169Y-4444304D01*
G01X992579Y-4440562D01*
G01X999689Y-4428612D01*
G01X1003551Y-4432595D01*
G01X1008168Y-4436580D01*
G01X1012761Y-4438941D01*
G01X1015076Y-4439523D01*
G01X1017419Y-4439709D01*
G01X1022235Y-4438915D01*
G01X1024020Y-4438215D01*
G01X1025369Y-4436967D01*
G01X1026349Y-4434516D01*
G01X1027025Y-4430211D01*
G01X1027724Y-4413426D01*
G01X1027989Y-4381389D01*
G01X1028262Y-4330659D01*
G01X998419Y-4330659D01*
G01X998419Y-4316233D01*
G01X1028161Y-4316233D01*
G01X1028419Y-4294354D01*
G01X1028677Y-4272474D01*
G01X1036842Y-4272395D01*
G01X1049948Y-4272682D01*
G01X1054889Y-4273049D01*
G01X1055540Y-4277570D01*
G01X1056861Y-4284629D01*
G01X1058763Y-4291850D01*
G01X1061087Y-4298709D01*
G01X1063676Y-4304683D01*
G01X1067260Y-4311814D01*
G01X1068596Y-4313885D01*
G01X1069980Y-4315192D01*
G01X1071674Y-4315907D01*
G01X1073943Y-4316203D01*
G01X1081260Y-4316233D01*
G01X1092555Y-4316233D01*
G01X1092555Y-4330659D01*
G01X1072383Y-4330659D01*
G01X1072364Y-4375619D01*
G01X1072044Y-4409872D01*
G01X1071502Y-4421425D01*
G01X1070567Y-4430157D01*
G01X1069135Y-4436742D01*
G01X1067101Y-4441850D01*
G01X1064363Y-4446154D01*
G01X1060816Y-4450325D01*
G01X1057655Y-4453269D01*
G01X1054069Y-4455742D01*
G01X1050124Y-4457752D01*
G01X1045883Y-4459303D01*
G01X1041409Y-4460401D01*
G01X1036767Y-4461053D01*
G37*
G36*
G01X637243Y-4505692D02*
G01X914849Y-4505692D01*
G01X914849Y-4559549D01*
G01X637243Y-4559549D01*
G01X637243Y-4505692D01*
G37*
G36*
G01X481631Y-4505692D02*
G01X624756Y-4505692D01*
G01X624756Y-4559549D01*
G01X481631Y-4559549D01*
G01X481631Y-4505692D01*
G37*
G36*
G01X398061Y-4505692D02*
G01X469143Y-4505692D01*
G01X469143Y-4559549D01*
G01X398061Y-4559549D01*
G01X398061Y-4505692D01*
G37*
G36*
G01X58900Y-850900D02*
G01X723900Y-850900D01*
G01X723900Y-1206500D01*
G01X58900Y-1206500D01*
G01X58900Y-1056991D01*
G01X345205Y-1056991D01*
G01X345376Y-1059604D01*
G01X345982Y-1062165D01*
G01X346998Y-1064597D01*
G01X348399Y-1066823D01*
G01X350160Y-1068767D01*
G01X352257Y-1070352D01*
G01X354664Y-1071500D01*
G01X357356Y-1072135D01*
G01X360308Y-1072179D01*
G01X363496Y-1071557D01*
G01X365460Y-1071068D01*
G01X380537Y-1085293D01*
G01X386423Y-1090864D01*
G01X390353Y-1094050D01*
G01X393612Y-1095719D01*
G01X397488Y-1096741D01*
G01X400237Y-1097506D01*
G01X421982Y-1117361D01*
G01X434210Y-1128709D01*
G01X435268Y-1129918D01*
G01X391455Y-1130108D01*
G01X347712Y-1130090D01*
G01X347712Y-1141214D01*
G01X347712Y-1141214D01*
G01X405805Y-1141214D01*
G01X463898Y-1141030D01*
G01X461596Y-1138791D01*
G01X446301Y-1124777D01*
G01X433444Y-1112833D01*
G01X428839Y-1108563D01*
G01X424107Y-1104166D01*
G01X418912Y-1099309D01*
G01X411759Y-1092650D01*
G01X407142Y-1088822D01*
G01X403719Y-1086857D01*
G01X400147Y-1085790D01*
G01X396533Y-1084694D01*
G01X373724Y-1063123D01*
G01X373286Y-1062423D01*
G01X373546Y-1061056D01*
G01X373958Y-1057155D01*
G01X373263Y-1053500D01*
G01X371619Y-1050231D01*
G01X369185Y-1047487D01*
G01X366120Y-1045406D01*
G01X362582Y-1044128D01*
G01X358729Y-1043792D01*
G01X354719Y-1044536D01*
G01X351754Y-1045844D01*
G01X349374Y-1047562D01*
G01X347554Y-1049612D01*
G01X346270Y-1051919D01*
G01X345495Y-1054404D01*
G01X345205Y-1056991D01*
G01X58900Y-1056991D01*
G01X58900Y-916592D01*
G01X247549Y-916592D01*
G01X249024Y-921569D01*
G01X251792Y-929845D01*
G01X255026Y-939221D01*
G01X257382Y-946167D01*
G01X258197Y-948713D01*
G01X259277Y-951954D01*
G01X260360Y-955195D01*
G01X261408Y-958321D01*
G01X262477Y-961515D01*
G01X262698Y-962576D01*
G01X262837Y-963242D01*
G01X266714Y-974527D01*
G01X270385Y-985523D01*
G01X273070Y-993626D01*
G01X274151Y-996740D01*
G01X274427Y-997090D01*
G01X274673Y-996936D01*
G01X277339Y-992692D01*
G01X279068Y-989990D01*
G01X283003Y-983787D01*
G01X285357Y-980083D01*
G01X288448Y-975270D01*
G01X289008Y-974277D01*
G01X285074Y-970420D01*
G01X282469Y-967894D01*
G01X281064Y-966953D01*
G01X280197Y-967475D01*
G01X279204Y-969338D01*
G01X278255Y-970826D01*
G01X277440Y-971444D01*
G01X276865Y-971167D01*
G01X276638Y-969968D01*
G01X276395Y-969086D01*
G01X276159Y-968484D01*
G01X274869Y-964224D01*
G01X272734Y-957742D01*
G01X272164Y-956121D01*
G01X271326Y-953806D01*
G01X270458Y-951321D01*
G01X270255Y-950557D01*
G01X269782Y-949237D01*
G01X269318Y-947668D01*
G01X269677Y-946977D01*
G01X271784Y-948650D01*
G01X278763Y-955311D01*
G01X288433Y-964572D01*
G01X313707Y-988901D01*
G01X321431Y-996102D01*
G01X324523Y-998464D01*
G01X327415Y-1000153D01*
G01X330342Y-1001282D01*
G01X333540Y-1001965D01*
G01X341690Y-1002450D01*
G01X349097Y-1002636D01*
G01X351630Y-1003005D01*
G01X353814Y-1003764D01*
G01X355974Y-1005066D01*
G01X358433Y-1007065D01*
G01X365542Y-1013765D01*
G01X377444Y-1025136D01*
G01X381530Y-1029254D01*
G01X383779Y-1032663D01*
G01X384873Y-1036933D01*
G01X385497Y-1043632D01*
G01X385986Y-1048307D01*
G01X386205Y-1049840D01*
G01X386773Y-1052319D01*
G01X388208Y-1055719D01*
G01X390103Y-1059199D01*
G01X392051Y-1061922D01*
G01X400119Y-1069873D01*
G01X404034Y-1073497D01*
G01X407241Y-1076489D01*
G01X411715Y-1080656D01*
G01X421627Y-1089813D01*
G01X425749Y-1093605D01*
G01X430575Y-1098037D01*
G01X438715Y-1105561D01*
G01X441801Y-1108455D01*
G01X444074Y-1110539D01*
G01X450074Y-1116095D01*
G01X456373Y-1121975D01*
G01X458899Y-1124290D01*
G01X469548Y-1134180D01*
G01X474643Y-1138980D01*
G01X476768Y-1140975D01*
G01X482554Y-1140980D01*
G01X482554Y-1140980D01*
G01X490701Y-1141137D01*
G01X493063Y-1141289D01*
G01X492236Y-1140383D01*
G01X484080Y-1132648D01*
G01X472762Y-1122114D01*
G01X470022Y-1119594D01*
G01X465660Y-1115542D01*
G01X460937Y-1111108D01*
G01X454212Y-1104857D01*
G01X431176Y-1083558D01*
G01X422577Y-1075581D01*
G01X411581Y-1065394D01*
G01X403708Y-1058008D01*
G01X399433Y-1053034D01*
G01X398267Y-1050875D01*
G01X397546Y-1048626D01*
G01X396834Y-1042938D01*
G01X395792Y-1033644D01*
G01X394894Y-1030157D01*
G01X393526Y-1027042D01*
G01X391522Y-1023998D01*
G01X388717Y-1020722D01*
G01X380046Y-1012271D01*
G01X370586Y-1003336D01*
G01X363574Y-997035D01*
G01X360712Y-994973D01*
G01X357974Y-993503D01*
G01X355132Y-992524D01*
G01X351958Y-991937D01*
G01X343698Y-991535D01*
G01X336581Y-991345D01*
G01X334055Y-990906D01*
G01X331774Y-990004D01*
G01X329406Y-988464D01*
G01X326617Y-986112D01*
G01X318444Y-978271D01*
G01X304049Y-964380D01*
G01X300446Y-960915D01*
G01X332924Y-960915D01*
G01X333514Y-964478D01*
G01X335102Y-967793D01*
G01X337500Y-970681D01*
G01X340523Y-972964D01*
G01X343984Y-974466D01*
G01X347698Y-975009D01*
G01X351479Y-974415D01*
G01X352457Y-974185D01*
G01X353425Y-974533D01*
G01X357749Y-978567D01*
G01X365190Y-985770D01*
G01X382648Y-1002192D01*
G01X394588Y-1013435D01*
G01X399156Y-1017657D01*
G01X401438Y-1020028D01*
G01X403066Y-1022725D01*
G01X404390Y-1026779D01*
G01X405467Y-1036224D01*
G01X406465Y-1042693D01*
G01X408236Y-1047864D01*
G01X411098Y-1052399D01*
G01X415367Y-1056961D01*
G01X434261Y-1074644D01*
G01X440165Y-1080088D01*
G01X446777Y-1086249D01*
G01X470730Y-1108332D01*
G01X477713Y-1114825D01*
G01X486094Y-1122588D01*
G01X494365Y-1130217D01*
G01X494365Y-1130217D01*
G01X505726Y-1140656D01*
G01X506497Y-1141214D01*
G01X555052Y-1141214D01*
G01X555052Y-1130102D01*
G01X510689Y-1130102D01*
G01X508134Y-1127731D01*
G01X502504Y-1122465D01*
G01X494261Y-1114822D01*
G01X486114Y-1107298D01*
G01X474171Y-1096298D01*
G01X470038Y-1092468D01*
G01X454476Y-1078012D01*
G01X450337Y-1074192D01*
G01X445111Y-1069314D01*
G01X433671Y-1058684D01*
G01X423849Y-1049530D01*
G01X420933Y-1046487D01*
G01X419017Y-1043927D01*
G01X417856Y-1041446D01*
G01X417202Y-1038641D01*
G01X416429Y-1030436D01*
G01X415415Y-1023201D01*
G01X414558Y-1020261D01*
G01X413356Y-1017561D01*
G01X411724Y-1014945D01*
G01X409579Y-1012253D01*
G01X403409Y-1006012D01*
G01X393631Y-996867D01*
G01X390184Y-993626D01*
G01X385013Y-988782D01*
G01X379119Y-983226D01*
G01X368317Y-973036D01*
G01X361653Y-966557D01*
G01X361069Y-965367D01*
G01X361291Y-964262D01*
G01X361743Y-961368D01*
G01X361581Y-958549D01*
G01X360845Y-955868D01*
G01X359575Y-953387D01*
G01X357811Y-951168D01*
G01X355594Y-949275D01*
G01X352965Y-947770D01*
G01X349963Y-946715D01*
G01X346619Y-946627D01*
G01X343107Y-947183D01*
G01X339881Y-948707D01*
G01X337227Y-950878D01*
G01X335115Y-953725D01*
G01X333516Y-957279D01*
G01X332924Y-960915D01*
G01X300446Y-960915D01*
G01X292816Y-953575D01*
G01X284408Y-945588D01*
G01X279287Y-940776D01*
G01X277401Y-938570D01*
G01X277618Y-938266D01*
G01X278580Y-938399D01*
G01X282653Y-939694D01*
G01X294124Y-943466D01*
G01X296586Y-944275D01*
G01X299941Y-945362D01*
G01X301557Y-945925D01*
G01X302121Y-946433D01*
G01X301650Y-947068D01*
G01X300156Y-948008D01*
G01X297771Y-949516D01*
G01X301227Y-952979D01*
G01X305515Y-956621D01*
G01X306182Y-956735D01*
G01X307392Y-956300D01*
G01X313707Y-952700D01*
G01X319138Y-949579D01*
G01X320937Y-948565D01*
G01X322148Y-947842D01*
G01X326354Y-945523D01*
G01X327844Y-944245D01*
G01X327608Y-943785D01*
G01X326738Y-943333D01*
G01X323153Y-942114D01*
G01X312644Y-938460D01*
G01X298829Y-933666D01*
G01X293752Y-931924D01*
G01X274134Y-925215D01*
G01X269711Y-923681D01*
G01X264115Y-921735D01*
G01X258801Y-919942D01*
G01X252662Y-917842D01*
G01X249237Y-916664D01*
G01X247986Y-916262D01*
G01X247549Y-916592D01*
G01X58900Y-916592D01*
G01X58900Y-850900D01*
G37*
G36*
G01X363216Y-1062111D02*
G01X361624Y-1063063D01*
G01X359614Y-1063421D01*
G01X357909Y-1063213D01*
G01X356448Y-1062618D01*
G01X355267Y-1061699D01*
G01X354400Y-1060524D01*
G01X353885Y-1059156D01*
G01X353755Y-1057662D01*
G01X354046Y-1056106D01*
G01X354795Y-1054554D01*
G01X356137Y-1053251D01*
G01X357972Y-1052488D01*
G01X360019Y-1052331D01*
G01X361999Y-1052846D01*
G01X363664Y-1054018D01*
G01X364696Y-1055551D01*
G01X365131Y-1057286D01*
G01X365005Y-1059063D01*
G01X364355Y-1060724D01*
G01X363216Y-1062111D01*
G37*
G36*
G01X351481Y-965602D02*
G01X349639Y-966586D01*
G01X347272Y-966835D01*
G01X344788Y-966206D01*
G01X342993Y-964870D01*
G01X341894Y-963060D01*
G01X341495Y-961006D01*
G01X341801Y-958940D01*
G01X342818Y-957094D01*
G01X344550Y-955699D01*
G01X347004Y-954985D01*
G01X349438Y-955295D01*
G01X351522Y-956552D01*
G01X352859Y-958256D01*
G01X353487Y-960210D01*
G01X353442Y-962217D01*
G01X352761Y-964080D01*
G01X351481Y-965602D01*
G37*
G36*
G01X589370Y-4737100D02*
G01X1143000Y-4737100D01*
G01X1143000Y-5087100D01*
G01X589370Y-5087100D01*
G01X589370Y-4912253D01*
G01X642723Y-4912253D01*
G01X643038Y-4913012D01*
G01X645665Y-4915104D01*
G01X651143Y-4919066D01*
G01X655323Y-4922150D01*
G01X667863Y-4931243D01*
G01X670805Y-4933318D01*
G01X672508Y-4934577D01*
G01X673591Y-4935426D01*
G01X676223Y-4937327D01*
G01X680558Y-4940430D01*
G01X684783Y-4943464D01*
G01X696350Y-4951927D01*
G01X700128Y-4954732D01*
G01X704522Y-4957905D01*
G01X710807Y-4962436D01*
G01X715082Y-4965534D01*
G01X720183Y-4969246D01*
G01X724561Y-4972498D01*
G01X727198Y-4974357D01*
G01X729499Y-4975905D01*
G01X731359Y-4977235D01*
G01X739853Y-4983493D01*
G01X744962Y-4987219D01*
G01X749143Y-4990320D01*
G01X751983Y-4992320D01*
G01X755794Y-4995109D01*
G01X759165Y-4997645D01*
G01X763249Y-5000541D01*
G01X767411Y-5003516D01*
G01X773602Y-5008070D01*
G01X776699Y-5010241D01*
G01X785277Y-5016612D01*
G01X790634Y-5020467D01*
G01X793266Y-5022487D01*
G01X801060Y-5027830D01*
G01X802361Y-5028772D01*
G01X807045Y-5032517D01*
G01X809057Y-5033822D01*
G01X813297Y-5036901D01*
G01X824106Y-5044725D01*
G01X826762Y-5046721D01*
G01X831407Y-5050130D01*
G01X836305Y-5053647D01*
G01X842808Y-5058393D01*
G01X847917Y-5062086D01*
G01X849155Y-5063030D01*
G01X852251Y-5065262D01*
G01X860791Y-5071304D01*
G01X862801Y-5072846D01*
G01X862801Y-5072846D01*
G01X864781Y-5074394D01*
G01X866169Y-5074908D01*
G01X867569Y-5074388D01*
G01X869591Y-5072832D01*
G01X873046Y-5070352D01*
G01X874284Y-5069531D01*
G01X875784Y-5068371D01*
G01X878614Y-5066280D01*
G01X880270Y-5065109D01*
G01X882744Y-5063328D01*
G01X888324Y-5059224D01*
G01X892929Y-5056008D01*
G01X894362Y-5054923D01*
G01X900214Y-5050617D01*
G01X905819Y-5046478D01*
G01X910308Y-5043232D01*
G01X913702Y-5040863D01*
G01X923469Y-5033677D01*
G01X929861Y-5028953D01*
G01X933531Y-5026279D01*
G01X941865Y-5020357D01*
G01X948387Y-5015649D01*
G01X953341Y-5011986D01*
G01X958862Y-5008005D01*
G01X964203Y-5004059D01*
G01X966959Y-5001923D01*
G01X973740Y-4997231D01*
G01X977258Y-4994567D01*
G01X980587Y-4992116D01*
G01X983377Y-4990180D01*
G01X989730Y-4985147D01*
G01X990117Y-4984886D01*
G01X994062Y-4982419D01*
G01X1000975Y-4977271D01*
G01X1002916Y-4975877D01*
G01X1010877Y-4970145D01*
G01X1016801Y-4965832D01*
G01X1025360Y-4959412D01*
G01X1026190Y-4958868D01*
G01X1029644Y-4956643D01*
G01X1033984Y-4953295D01*
G01X1036186Y-4951683D01*
G01X1039581Y-4949283D01*
G01X1042523Y-4947205D01*
G01X1047610Y-4943317D01*
G01X1050987Y-4940983D01*
G01X1054880Y-4938246D01*
G01X1056457Y-4937012D01*
G01X1063288Y-4932078D01*
G01X1068396Y-4928361D01*
G01X1076924Y-4922166D01*
G01X1082047Y-4918372D01*
G01X1084600Y-4916436D01*
G01X1089355Y-4913103D01*
G01X1089628Y-4912332D01*
G01X1089372Y-4911485D01*
G01X1087420Y-4909808D01*
G01X1084816Y-4908128D01*
G01X1071943Y-4898781D01*
G01X1071196Y-4898239D01*
G01X1068850Y-4896458D01*
G01X1066568Y-4894755D01*
G01X1065276Y-4893764D01*
G01X1062959Y-4892134D01*
G01X1059708Y-4889891D01*
G01X1057492Y-4888269D01*
G01X1056253Y-4887233D01*
G01X1054289Y-4885728D01*
G01X1049639Y-4882675D01*
G01X1048903Y-4882133D01*
G01X1044170Y-4878380D01*
G01X1036001Y-4872618D01*
G01X1033408Y-4870643D01*
G01X1031531Y-4869174D01*
G01X1028500Y-4867044D01*
G01X1026445Y-4865640D01*
G01X1021890Y-4862299D01*
G01X1015585Y-4857740D01*
G01X1010724Y-4854190D01*
G01X1001961Y-4847823D01*
G01X997159Y-4844284D01*
G01X992670Y-4841031D01*
G01X987098Y-4836988D01*
G01X982144Y-4833310D01*
G01X978738Y-4830915D01*
G01X976261Y-4829161D01*
G01X973280Y-4826893D01*
G01X968791Y-4823638D01*
G01X965580Y-4821412D01*
G01X954490Y-4813450D01*
G01X953664Y-4812809D01*
G01X949013Y-4809275D01*
G01X947079Y-4807927D01*
G01X940517Y-4803163D01*
G01X938104Y-4801331D01*
G01X934355Y-4798631D01*
G01X929337Y-4795025D01*
G01X926866Y-4793070D01*
G01X923769Y-4790948D01*
G01X919228Y-4787696D01*
G01X909270Y-4780450D01*
G01X906718Y-4778679D01*
G01X904425Y-4776916D01*
G01X902567Y-4775482D01*
G01X898697Y-4772781D01*
G01X893278Y-4768832D01*
G01X889563Y-4766031D01*
G01X886621Y-4763977D01*
G01X882966Y-4761345D01*
G01X879096Y-4758462D01*
G01X873172Y-4754281D01*
G01X870931Y-4752632D01*
G01X868375Y-4750501D01*
G01X866783Y-4749553D01*
G01X865572Y-4749599D01*
G01X864160Y-4750454D01*
G01X861319Y-4752693D01*
G01X859396Y-4754129D01*
G01X857154Y-4755554D01*
G01X854718Y-4757260D01*
G01X853170Y-4758409D01*
G01X850754Y-4760264D01*
G01X847658Y-4762568D01*
G01X844356Y-4764874D01*
G01X840485Y-4767679D01*
G01X838066Y-4769556D01*
G01X836836Y-4770629D01*
G01X835969Y-4771171D01*
G01X834413Y-4772132D01*
G01X831506Y-4774211D01*
G01X827003Y-4777541D01*
G01X823447Y-4780158D01*
G01X819435Y-4782964D01*
G01X813900Y-4787018D01*
G01X811106Y-4789135D01*
G01X808276Y-4791131D01*
G01X803174Y-4794883D01*
G01X799458Y-4797616D01*
G01X793684Y-4801697D01*
G01X783878Y-4808811D01*
G01X779543Y-4812013D01*
G01X774223Y-4815924D01*
G01X766637Y-4821475D01*
G01X762720Y-4824238D01*
G01X758160Y-4827487D01*
G01X752841Y-4831414D01*
G01X745480Y-4836842D01*
G01X739738Y-4840990D01*
G01X735185Y-4844313D01*
G01X733164Y-4845817D01*
G01X731680Y-4846837D01*
G01X728707Y-4849009D01*
G01X721382Y-4854335D01*
G01X719228Y-4855964D01*
G01X710128Y-4862445D01*
G01X707904Y-4864227D01*
G01X705973Y-4865640D01*
G01X698981Y-4870597D01*
G01X694081Y-4874158D01*
G01X687086Y-4879268D01*
G01X682007Y-4882937D01*
G01X675120Y-4887992D01*
G01X670227Y-4891503D01*
G01X668482Y-4892751D01*
G01X665455Y-4894899D01*
G01X662749Y-4896903D01*
G01X659172Y-4899556D01*
G01X647545Y-4908151D01*
G01X646814Y-4908693D01*
G01X644808Y-4909895D01*
G01X642929Y-4911496D01*
G01X642723Y-4912253D01*
G01X589370Y-4912253D01*
G01X589370Y-4737100D01*
G37*
G36*
G01X879440Y-5016947D02*
G01X871556Y-5017544D01*
G01X863893Y-5017694D01*
G01X858612Y-5017293D01*
G01X853493Y-5016628D01*
G01X850034Y-5016144D01*
G01X847245Y-5015547D01*
G01X843736Y-5014804D01*
G01X840950Y-5014063D01*
G01X832744Y-5011692D01*
G01X828874Y-5010531D01*
G01X827171Y-5009811D01*
G01X825704Y-5009212D01*
G01X824545Y-5008747D01*
G01X820171Y-5006569D01*
G01X819454Y-5006145D01*
G01X815869Y-5004091D01*
G01X808712Y-4999720D01*
G01X801138Y-4994110D01*
G01X794200Y-4988104D01*
G01X788951Y-4982544D01*
G01X786083Y-4979137D01*
G01X780561Y-4971678D01*
G01X778395Y-4968775D01*
G01X777939Y-4968163D01*
G01X789876Y-4955672D01*
G01X805088Y-4940905D01*
G01X807503Y-4938892D01*
G01X811072Y-4935759D01*
G01X815405Y-4932063D01*
G01X818802Y-4929207D01*
G01X822363Y-4926366D01*
G01X827720Y-4922288D01*
G01X832779Y-4918450D01*
G01X835868Y-4916049D01*
G01X836732Y-4915507D01*
G01X837376Y-4915058D01*
G01X839349Y-4913662D01*
G01X842343Y-4911649D01*
G01X851168Y-4905728D01*
G01X854022Y-4903908D01*
G01X858698Y-4900795D01*
G01X861013Y-4899323D01*
G01X862996Y-4898162D01*
G01X872024Y-4892993D01*
G01X876093Y-4890707D01*
G01X882751Y-4887310D01*
G01X896134Y-4880667D01*
G01X904735Y-4876793D01*
G01X908450Y-4875067D01*
G01X911141Y-4873864D01*
G01X913220Y-4873073D01*
G01X914555Y-4872620D01*
G01X921610Y-4869911D01*
G01X924585Y-4868699D01*
G01X926297Y-4868118D01*
G01X927347Y-4867697D01*
G01X929088Y-4867069D01*
G01X930564Y-4866445D01*
G01X932139Y-4865830D01*
G01X934378Y-4865190D01*
G01X938795Y-4863774D01*
G01X943368Y-4862362D01*
G01X945071Y-4861921D01*
G01X946536Y-4861430D01*
G01X948858Y-4860680D01*
G01X954277Y-4859076D01*
G01X957043Y-4858551D01*
G01X957947Y-4858840D01*
G01X958534Y-4859497D01*
G01X960303Y-4862697D01*
G01X961860Y-4865640D01*
G01X962483Y-4866879D01*
G01X963102Y-4868118D01*
G01X963722Y-4869357D01*
G01X966980Y-4878312D01*
G01X969606Y-4887322D01*
G01X970044Y-4888932D01*
G01X970702Y-4891875D01*
G01X971242Y-4894755D01*
G01X972740Y-4908466D01*
G01X972979Y-4913137D01*
G01X972727Y-4917138D01*
G01X971955Y-4925109D01*
G01X971257Y-4929910D01*
G01X970706Y-4932523D01*
G01X970089Y-4935310D01*
G01X969503Y-4937763D01*
G01X969011Y-4939789D01*
G01X968376Y-4941692D01*
G01X967750Y-4943848D01*
G01X966387Y-4947720D01*
G01X964258Y-4953783D01*
G01X962769Y-4957012D01*
G01X962172Y-4958250D01*
G01X961564Y-4959489D01*
G01X960294Y-4961812D01*
G01X959021Y-4964041D01*
G01X958045Y-4965667D01*
G01X953617Y-4972712D01*
G01X952271Y-4974435D01*
G01X948161Y-4979792D01*
G01X941843Y-4986561D01*
G01X936360Y-4991921D01*
G01X931744Y-4995480D01*
G01X927648Y-4998650D01*
G01X926100Y-4999740D01*
G01X924242Y-5001009D01*
G01X920836Y-5003017D01*
G01X916037Y-5005574D01*
G01X912662Y-5007387D01*
G01X910919Y-5008118D01*
G01X910180Y-5008550D01*
G01X908780Y-5009178D01*
G01X907387Y-5009797D01*
G01X905931Y-5010428D01*
G01X903852Y-5011059D01*
G01X897270Y-5013075D01*
G01X895800Y-5013538D01*
G01X893108Y-5014291D01*
G01X890741Y-5014881D01*
G01X888634Y-5015378D01*
G01X885383Y-5016006D01*
G01X879440Y-5016947D01*
G37*
G36*
G01X767749Y-4941732D02*
G01X767054Y-4941938D01*
G01X766472Y-4941442D01*
G01X765329Y-4937837D01*
G01X763697Y-4929910D01*
G01X762646Y-4922885D01*
G01X762189Y-4915317D01*
G01X762327Y-4907264D01*
G01X763061Y-4898781D01*
G01X764584Y-4890141D01*
G01X766971Y-4880662D01*
G01X768028Y-4876881D01*
G01X768623Y-4875413D01*
G01X769087Y-4874192D01*
G01X769742Y-4872757D01*
G01X770198Y-4871879D01*
G01X773704Y-4864385D01*
G01X778232Y-4856038D01*
G01X781238Y-4851702D01*
G01X785547Y-4845977D01*
G01X790697Y-4840095D01*
G01X796185Y-4834596D01*
G01X801504Y-4830020D01*
G01X807807Y-4825314D01*
G01X810345Y-4823559D01*
G01X814680Y-4821005D01*
G01X818966Y-4818660D01*
G01X820978Y-4817616D01*
G01X827584Y-4814486D01*
G01X835686Y-4811803D01*
G01X840021Y-4810528D01*
G01X842895Y-4809883D01*
G01X844719Y-4809421D01*
G01X847573Y-4808772D01*
G01X851013Y-4808165D01*
G01X856586Y-4807412D01*
G01X863089Y-4806802D01*
G01X867447Y-4806560D01*
G01X871759Y-4806796D01*
G01X878106Y-4807377D01*
G01X884144Y-4808181D01*
G01X887455Y-4808798D01*
G01X890154Y-4809431D01*
G01X891952Y-4809883D01*
G01X899316Y-4811902D01*
G01X902641Y-4812835D01*
G01X903821Y-4813319D01*
G01X904617Y-4813604D01*
G01X906999Y-4814413D01*
G01X910153Y-4815829D01*
G01X912011Y-4816712D01*
G01X914643Y-4818081D01*
G01X922542Y-4822310D01*
G01X925489Y-4824290D01*
G01X928174Y-4826149D01*
G01X938719Y-4834595D01*
G01X939567Y-4835642D01*
G01X939779Y-4836441D01*
G01X939362Y-4836954D01*
G01X938322Y-4837140D01*
G01X936913Y-4837583D01*
G01X935063Y-4838249D01*
G01X933221Y-4838860D01*
G01X931410Y-4839452D01*
G01X929242Y-4840076D01*
G01X924861Y-4841510D01*
G01X920681Y-4842933D01*
G01X919530Y-4843337D01*
G01X918137Y-4843775D01*
G01X914643Y-4845146D01*
G01X911237Y-4846566D01*
G01X909804Y-4847054D01*
G01X908946Y-4847483D01*
G01X907646Y-4848099D01*
G01X898387Y-4851604D01*
G01X888789Y-4856057D01*
G01X887550Y-4856666D01*
G01X885847Y-4857412D01*
G01X882596Y-4858846D01*
G01X873307Y-4863630D01*
G01X872068Y-4864246D01*
G01X870830Y-4864837D01*
G01X868368Y-4866117D01*
G01X863160Y-4868793D01*
G01X856022Y-4872994D01*
G01X853954Y-4874164D01*
G01X846250Y-4878618D01*
G01X843634Y-4880352D01*
G01X841665Y-4881669D01*
G01X839963Y-4882675D01*
G01X838644Y-4883394D01*
G01X834757Y-4885927D01*
G01X830534Y-4888925D01*
G01X828791Y-4890109D01*
G01X828130Y-4890537D01*
G01X825834Y-4892101D01*
G01X821822Y-4894847D01*
G01X814476Y-4900317D01*
G01X812154Y-4902006D01*
G01X806720Y-4906446D01*
G01X805435Y-4907453D01*
G01X803298Y-4909080D01*
G01X799301Y-4912410D01*
G01X794936Y-4916086D01*
G01X790960Y-4919494D01*
G01X787399Y-4922773D01*
G01X783822Y-4926051D01*
G01X778834Y-4930709D01*
G01X774004Y-4935385D01*
G01X769788Y-4939715D01*
G01X767749Y-4941732D01*
G37*
G36*
G01X60294Y-1193800D02*
G01X723900Y-1193800D01*
G01X723900Y-1303800D01*
G01X60294Y-1303800D01*
G01X60294Y-1257089D01*
G01X79156Y-1257089D01*
G01X79429Y-1260897D01*
G01X80418Y-1263417D01*
G01X81059Y-1264527D01*
G01X82031Y-1266013D01*
G01X82905Y-1267069D01*
G01X86202Y-1269590D01*
G01X87337Y-1270342D01*
G01X88729Y-1270960D01*
G01X90811Y-1271765D01*
G01X92326Y-1272302D01*
G01X92326Y-1272302D01*
G01X96009Y-1272747D01*
G01X100519Y-1272987D01*
G01X105216Y-1272867D01*
G01X109314Y-1272438D01*
G01X112030Y-1271747D01*
G01X114275Y-1271080D01*
G01X116777Y-1270194D01*
G01X118418Y-1269519D01*
G01X119573Y-1268962D01*
G01X120538Y-1268241D01*
G01X121056Y-1267650D01*
G01X121194Y-1266804D01*
G01X120336Y-1264545D01*
G01X119585Y-1262855D01*
G01X118844Y-1261210D01*
G01X118113Y-1259558D01*
G01X117634Y-1258324D01*
G01X117036Y-1258173D01*
G01X124198Y-1258173D01*
G01X124347Y-1260754D01*
G01X124908Y-1262756D01*
G01X125594Y-1264326D01*
G01X128240Y-1267794D01*
G01X129128Y-1268459D01*
G01X130810Y-1269535D01*
G01X132209Y-1270294D01*
G01X134632Y-1271099D01*
G01X137905Y-1271942D01*
G01X139224Y-1272327D01*
G01X155039Y-1272380D01*
G01X155039Y-1272380D01*
G01X168501Y-1272382D01*
G01X171163Y-1272152D01*
G01X171168Y-1271803D01*
G01X174647Y-1271803D01*
G01X175200Y-1272254D01*
G01X181354Y-1272418D01*
G01X188163Y-1272173D01*
G01X189063Y-1271504D01*
G01X189448Y-1270146D01*
G01X190011Y-1268742D01*
G01X190934Y-1266390D01*
G01X191606Y-1264809D01*
G01X192278Y-1263488D01*
G01X192803Y-1262550D01*
G01X193139Y-1262178D01*
G01X212718Y-1262178D01*
G01X213469Y-1262872D01*
G01X214370Y-1263910D01*
G01X214843Y-1265234D01*
G01X215515Y-1266886D01*
G01X216267Y-1268834D01*
G01X217019Y-1270651D01*
G01X217491Y-1271552D01*
G01X217491Y-1271552D01*
G01X217824Y-1272088D01*
G01X242744Y-1272466D01*
G01X267978Y-1272167D01*
G01X268465Y-1271915D01*
G01X268465Y-1228225D01*
G01X290271Y-1228225D01*
G01X290481Y-1232063D01*
G01X290926Y-1232731D01*
G01X291815Y-1233280D01*
G01X292671Y-1233770D01*
G01X306021Y-1233770D01*
G01X306213Y-1234191D01*
G01X306404Y-1253332D01*
G01X306523Y-1270955D01*
G01X306911Y-1272718D01*
G01X306911Y-1272718D01*
G01X307730Y-1272923D01*
G01X313993Y-1273095D01*
G01X318979Y-1272538D01*
G01X319103Y-1253314D01*
G01X319163Y-1248060D01*
G01X338887Y-1248060D01*
G01X339086Y-1272317D01*
G01X339432Y-1272754D01*
G01X339432Y-1272754D01*
G01X340285Y-1272985D01*
G01X345467Y-1273050D01*
G01X350750Y-1272997D01*
G01X351176Y-1272596D01*
G01X351601Y-1272196D01*
G01X351601Y-1224240D01*
G01X359822Y-1224240D01*
G01X359902Y-1239287D01*
G01X360076Y-1253492D01*
G01X360286Y-1255829D01*
G01X360654Y-1256737D01*
G01X361226Y-1258917D01*
G01X361634Y-1260872D01*
G01X362231Y-1261840D01*
G01X362755Y-1262985D01*
G01X363477Y-1264408D01*
G01X364217Y-1265461D01*
G01X366282Y-1267878D01*
G01X369029Y-1270052D01*
G01X369969Y-1270681D01*
G01X371890Y-1271596D01*
G01X373012Y-1272112D01*
G01X373845Y-1272675D01*
G01X375990Y-1273019D01*
G01X378352Y-1273518D01*
G01X380027Y-1273984D01*
G01X380027Y-1273984D01*
G01X382958Y-1274154D01*
G01X386033Y-1274020D01*
G01X388138Y-1273576D01*
G01X390365Y-1273075D01*
G01X392605Y-1272705D01*
G01X393664Y-1272171D01*
G01X395242Y-1271445D01*
G01X396770Y-1270715D01*
G01X397868Y-1269960D01*
G01X398952Y-1269103D01*
G01X399835Y-1268389D01*
G01X400587Y-1267641D01*
G01X401288Y-1266867D01*
G01X401996Y-1266090D01*
G01X402777Y-1265043D01*
G01X403229Y-1264376D01*
G01X410429Y-1264376D01*
G01X410569Y-1265031D01*
G01X411075Y-1265585D01*
G01X411656Y-1266336D01*
G01X412411Y-1267072D01*
G01X413201Y-1267774D01*
G01X414099Y-1268510D01*
G01X414864Y-1269125D01*
G01X416979Y-1270271D01*
G01X417547Y-1270755D01*
G01X419182Y-1271523D01*
G01X420752Y-1272179D01*
G01X421743Y-1272694D01*
G01X424180Y-1273081D01*
G01X426428Y-1273587D01*
G01X426428Y-1273587D01*
G01X428470Y-1274069D01*
G01X431354Y-1274225D01*
G01X434239Y-1274055D01*
G01X436288Y-1273561D01*
G01X438614Y-1273062D01*
G01X440859Y-1272721D01*
G01X441961Y-1272175D01*
G01X443613Y-1271506D01*
G01X444155Y-1271259D01*
G01X462100Y-1271259D01*
G01X462380Y-1272596D01*
G01X462806Y-1272997D01*
G01X462806Y-1272997D01*
G01X468112Y-1273048D01*
G01X472113Y-1272998D01*
G01X474548Y-1272676D01*
G01X475835Y-1271967D01*
G01X476391Y-1270755D01*
G01X476997Y-1269919D01*
G01X477720Y-1269028D01*
G01X478605Y-1267804D01*
G01X479435Y-1266490D01*
G01X480019Y-1265676D01*
G01X480617Y-1265030D01*
G01X481454Y-1263736D01*
G01X482211Y-1262701D01*
G01X483147Y-1261323D01*
G01X483821Y-1260332D01*
G01X484005Y-1259784D01*
G01X488444Y-1259737D01*
G01X493255Y-1259782D01*
G01X493626Y-1259872D01*
G01X493626Y-1272031D01*
G01X494001Y-1272384D01*
G01X495757Y-1272965D01*
G01X500855Y-1273047D01*
G01X505649Y-1272997D01*
G01X506236Y-1272428D01*
G01X506822Y-1271858D01*
G01X506822Y-1224252D01*
G01X506604Y-1224044D01*
G01X515729Y-1224044D01*
G01X515729Y-1272196D01*
G01X516580Y-1272997D01*
G01X516580Y-1272997D01*
G01X521860Y-1273052D01*
G01X527043Y-1272988D01*
G01X527898Y-1272756D01*
G01X528244Y-1272317D01*
G01X528305Y-1264955D01*
G01X533553Y-1264955D01*
G01X535251Y-1267036D01*
G01X537117Y-1268620D01*
G01X537883Y-1269193D01*
G01X539071Y-1269997D01*
G01X540258Y-1270721D01*
G01X541989Y-1271506D01*
G01X543736Y-1272274D01*
G01X544314Y-1272749D01*
G01X549355Y-1273603D01*
G01X551311Y-1274057D01*
G01X551311Y-1274057D01*
G01X554125Y-1274208D01*
G01X556968Y-1274055D01*
G01X559015Y-1273598D01*
G01X561852Y-1273004D01*
G01X563957Y-1272652D01*
G01X565080Y-1272002D01*
G01X566317Y-1271516D01*
G01X567629Y-1271145D01*
G01X568269Y-1270595D01*
G01X569278Y-1270025D01*
G01X570713Y-1269264D01*
G01X571896Y-1268402D01*
G01X572718Y-1267667D01*
G01X573429Y-1267039D01*
G01X574281Y-1266278D01*
G01X575092Y-1265470D01*
G01X575835Y-1264594D01*
G01X576421Y-1263916D01*
G01X577244Y-1262868D01*
G01X578135Y-1261542D01*
G01X578743Y-1260356D01*
G01X579470Y-1259005D01*
G01X580306Y-1256888D01*
G01X580984Y-1254869D01*
G01X581528Y-1252412D01*
G01X581709Y-1248057D01*
G01X581528Y-1243702D01*
G01X580984Y-1241245D01*
G01X580305Y-1239221D01*
G01X579551Y-1237198D01*
G01X578818Y-1235877D01*
G01X578079Y-1234513D01*
G01X577195Y-1233163D01*
G01X576433Y-1232201D01*
G01X576018Y-1231729D01*
G01X602202Y-1231729D01*
G01X602792Y-1232445D01*
G01X603658Y-1233365D01*
G01X604305Y-1233985D01*
G01X607354Y-1236683D01*
G01X608443Y-1237490D01*
G01X609127Y-1237987D01*
G01X610090Y-1238604D01*
G01X611139Y-1238014D01*
G01X612254Y-1237115D01*
G01X612914Y-1236479D01*
G01X613895Y-1235810D01*
G01X615280Y-1235018D01*
G01X616105Y-1234457D01*
G01X617572Y-1234180D01*
G01X619634Y-1233580D01*
G01X622806Y-1233048D01*
G01X625487Y-1233450D01*
G01X628008Y-1234192D01*
G01X630278Y-1235007D01*
G01X631582Y-1235819D01*
G01X632841Y-1236696D01*
G01X633641Y-1237391D01*
G01X634305Y-1238063D01*
G01X635052Y-1239058D01*
G01X635989Y-1240651D01*
G01X636725Y-1241962D01*
G01X637366Y-1244077D01*
G01X637580Y-1248057D01*
G01X637366Y-1252036D01*
G01X636725Y-1254151D01*
G01X635989Y-1255462D01*
G01X635052Y-1257055D01*
G01X634305Y-1258051D01*
G01X633641Y-1258722D01*
G01X632841Y-1259418D01*
G01X631586Y-1260295D01*
G01X630179Y-1261164D01*
G01X628794Y-1261760D01*
G01X625339Y-1262675D01*
G01X622761Y-1263036D01*
G01X619760Y-1262528D01*
G01X615973Y-1261683D01*
G01X615314Y-1261107D01*
G01X613965Y-1260328D01*
G01X612883Y-1259574D01*
G01X612058Y-1258849D01*
G01X611313Y-1258201D01*
G01X610322Y-1257465D01*
G01X608828Y-1258170D01*
G01X602783Y-1263611D01*
G01X602206Y-1264410D01*
G01X602656Y-1265065D01*
G01X603334Y-1266103D01*
G01X604076Y-1266902D01*
G01X604893Y-1267642D01*
G01X605681Y-1268373D01*
G01X606914Y-1269263D01*
G01X608209Y-1270039D01*
G01X609334Y-1270690D01*
G01X611121Y-1271508D01*
G01X612453Y-1272011D01*
G01X613341Y-1272589D01*
G01X615581Y-1273003D01*
G01X618287Y-1273573D01*
G01X618287Y-1273573D01*
G01X620330Y-1274057D01*
G01X623219Y-1274216D01*
G01X626113Y-1274050D01*
G01X628167Y-1273561D01*
G01X630843Y-1272999D01*
G01X632910Y-1272655D01*
G01X633922Y-1272074D01*
G01X635407Y-1271506D01*
G01X637201Y-1270729D01*
G01X638521Y-1269983D01*
G01X639430Y-1269523D01*
G01X639774Y-1269015D01*
G01X640365Y-1268637D01*
G01X641735Y-1267762D01*
G01X643082Y-1266551D01*
G01X645736Y-1263414D01*
G01X646384Y-1262637D01*
G01X647021Y-1261722D01*
G01X647747Y-1260506D01*
G01X648589Y-1258752D01*
G01X649121Y-1257366D01*
G01X649706Y-1256341D01*
G01X650091Y-1254042D01*
G01X650622Y-1251360D01*
G01X650930Y-1248158D01*
G01X653609Y-1248158D01*
G01X653888Y-1253124D01*
G01X654686Y-1255945D01*
G01X655201Y-1257463D01*
G01X655601Y-1258915D01*
G01X656136Y-1259463D01*
G01X656679Y-1260459D01*
G01X657491Y-1261979D01*
G01X658306Y-1263115D01*
G01X659082Y-1264002D01*
G01X659738Y-1264752D01*
G01X660539Y-1265552D01*
G01X661300Y-1266306D01*
G01X662132Y-1266989D01*
G01X662959Y-1267659D01*
G01X665042Y-1268783D01*
G01X665425Y-1269117D01*
G01X665968Y-1269658D01*
G01X667299Y-1270121D01*
G01X668267Y-1270561D01*
G01X669006Y-1271089D01*
G01X670712Y-1271507D01*
G01X672538Y-1272075D01*
G01X673780Y-1272596D01*
G01X676564Y-1272897D01*
G01X676564Y-1272897D01*
G01X690992Y-1273064D01*
G01X702261Y-1272966D01*
G01X704032Y-1272775D01*
G01X704631Y-1272422D01*
G01X704982Y-1248054D01*
G01X704627Y-1223687D01*
G01X701218Y-1223284D01*
G01X693593Y-1223035D01*
G01X676806Y-1223197D01*
G01X673939Y-1223482D01*
G01X672679Y-1224041D01*
G01X670834Y-1224587D01*
G01X669026Y-1225018D01*
G01X668267Y-1225552D01*
G01X667299Y-1225993D01*
G01X665978Y-1226449D01*
G01X665434Y-1226967D01*
G01X664459Y-1227547D01*
G01X663041Y-1228417D01*
G01X662034Y-1229173D01*
G01X661242Y-1229885D01*
G01X660451Y-1230658D01*
G01X659771Y-1231328D01*
G01X659064Y-1232125D01*
G01X658247Y-1233112D01*
G01X657584Y-1233986D01*
G01X656599Y-1235858D01*
G01X656086Y-1236626D01*
G01X655412Y-1237694D01*
G01X655115Y-1239151D01*
G01X654636Y-1240108D01*
G01X653856Y-1243127D01*
G01X653609Y-1248158D01*
G01X650930Y-1248158D01*
G01X650940Y-1248057D01*
G01X650622Y-1244753D01*
G01X650090Y-1242062D01*
G01X649659Y-1239605D01*
G01X649083Y-1238615D01*
G01X648587Y-1237356D01*
G01X647747Y-1235608D01*
G01X647021Y-1234391D01*
G01X646384Y-1233477D01*
G01X645736Y-1232706D01*
G01X643916Y-1230549D01*
G01X640404Y-1227510D01*
G01X639598Y-1226874D01*
G01X638404Y-1226105D01*
G01X637178Y-1225469D01*
G01X635041Y-1224525D01*
G01X633936Y-1224096D01*
G01X633045Y-1223523D01*
G01X630798Y-1223109D01*
G01X627977Y-1222521D01*
G01X624845Y-1221950D01*
G01X620481Y-1222048D01*
G01X618254Y-1222533D01*
G01X613329Y-1223365D01*
G01X612586Y-1223918D01*
G01X611155Y-1224578D01*
G01X609842Y-1224952D01*
G01X609174Y-1225516D01*
G01X608549Y-1225933D01*
G01X606618Y-1226998D01*
G01X605791Y-1227660D01*
G01X604875Y-1228396D01*
G01X604062Y-1229123D01*
G01X603192Y-1230164D01*
G01X602519Y-1231194D01*
G01X602202Y-1231729D01*
G01X576018Y-1231729D01*
G01X575763Y-1231439D01*
G01X575024Y-1230599D01*
G01X574289Y-1229854D01*
G01X573459Y-1229119D01*
G01X572705Y-1228454D01*
G01X571902Y-1227733D01*
G01X570734Y-1226920D01*
G01X569346Y-1226107D01*
G01X568081Y-1225383D01*
G01X566331Y-1224608D01*
G01X564982Y-1224087D01*
G01X564051Y-1223533D01*
G01X561622Y-1223095D01*
G01X558900Y-1222515D01*
G01X555931Y-1221963D01*
G01X551561Y-1222035D01*
G01X549334Y-1222517D01*
G01X546905Y-1223046D01*
G01X544553Y-1223409D01*
G01X543473Y-1223941D01*
G01X542188Y-1224537D01*
G01X539953Y-1225536D01*
G01X538811Y-1226176D01*
G01X537870Y-1226821D01*
G01X537100Y-1227469D01*
G01X535340Y-1228640D01*
G01X534069Y-1230350D01*
G01X533613Y-1231971D01*
G01X533792Y-1232553D01*
G01X534295Y-1232879D01*
G01X534932Y-1233513D01*
G01X535676Y-1234260D01*
G01X536450Y-1234962D01*
G01X537263Y-1235683D01*
G01X538075Y-1236402D01*
G01X538986Y-1237257D01*
G01X539648Y-1237843D01*
G01X540033Y-1238476D01*
G01X541028Y-1238412D01*
G01X542389Y-1237731D01*
G01X543876Y-1236506D01*
G01X545055Y-1235742D01*
G01X546246Y-1234825D01*
G01X546864Y-1234504D01*
G01X550864Y-1233501D01*
G01X553669Y-1233032D01*
G01X556737Y-1233568D01*
G01X558865Y-1234181D01*
G01X560386Y-1234518D01*
G01X561343Y-1235108D01*
G01X562383Y-1235689D01*
G01X563359Y-1236369D01*
G01X564169Y-1237083D01*
G01X564964Y-1237893D01*
G01X565611Y-1238560D01*
G01X566112Y-1239179D01*
G01X566985Y-1240450D01*
G01X567602Y-1241936D01*
G01X568565Y-1244780D01*
G01X568981Y-1248057D01*
G01X568565Y-1251333D01*
G01X567615Y-1254099D01*
G01X566874Y-1255704D01*
G01X566294Y-1256516D01*
G01X565464Y-1257651D01*
G01X564879Y-1258312D01*
G01X564193Y-1258998D01*
G01X563347Y-1259761D01*
G01X562383Y-1260425D01*
G01X561343Y-1261006D01*
G01X560363Y-1261606D01*
G01X558782Y-1261940D01*
G01X556641Y-1262529D01*
G01X553709Y-1263042D01*
G01X550920Y-1262601D01*
G01X548212Y-1261853D01*
G01X546728Y-1261485D01*
G01X546121Y-1261030D01*
G01X545268Y-1260447D01*
G01X543579Y-1259264D01*
G01X541167Y-1257524D01*
G01X540430Y-1257560D01*
G01X539733Y-1258117D01*
G01X538711Y-1258942D01*
G01X538013Y-1259630D01*
G01X537383Y-1260308D01*
G01X536348Y-1261297D01*
G01X535767Y-1261756D01*
G01X534903Y-1262493D01*
G01X534255Y-1263154D01*
G01X533588Y-1263890D01*
G01X533553Y-1264955D01*
G01X528305Y-1264955D01*
G01X528443Y-1248060D01*
G01X528247Y-1223802D01*
G01X527925Y-1223374D01*
G01X527115Y-1223151D01*
G01X521942Y-1223079D01*
G01X516525Y-1223117D01*
G01X516127Y-1223580D01*
G01X515729Y-1224044D01*
G01X506604Y-1224044D01*
G01X506368Y-1223818D01*
G01X505502Y-1223219D01*
G01X480182Y-1223200D01*
G01X477234Y-1223483D01*
G01X476028Y-1224012D01*
G01X474163Y-1224612D01*
G01X472100Y-1225368D01*
G01X470840Y-1226096D01*
G01X469592Y-1226921D01*
G01X468794Y-1227494D01*
G01X466860Y-1229199D01*
G01X465109Y-1231454D01*
G01X464606Y-1232197D01*
G01X464047Y-1232852D01*
G01X463621Y-1234321D01*
G01X463042Y-1235764D01*
G01X462407Y-1238074D01*
G01X462227Y-1241862D01*
G01X462486Y-1245515D01*
G01X463166Y-1247421D01*
G01X463672Y-1248801D01*
G01X464488Y-1250534D01*
G01X465150Y-1251463D01*
G01X466775Y-1253493D01*
G01X468791Y-1255260D01*
G01X469580Y-1255914D01*
G01X470478Y-1256553D01*
G01X471349Y-1256937D01*
G01X471321Y-1257838D01*
G01X470517Y-1259387D01*
G01X469605Y-1260805D01*
G01X468851Y-1261782D01*
G01X468282Y-1262504D01*
G01X467394Y-1263665D01*
G01X466756Y-1264615D01*
G01X465772Y-1266042D01*
G01X465167Y-1266989D01*
G01X464578Y-1267806D01*
G01X463745Y-1268833D01*
G01X463021Y-1269810D01*
G01X462100Y-1271259D01*
G01X444155Y-1271259D01*
G01X445166Y-1270796D01*
G01X446501Y-1270034D01*
G01X447881Y-1269215D01*
G01X448942Y-1268428D01*
G01X449771Y-1267728D01*
G01X450427Y-1267151D01*
G01X451213Y-1266466D01*
G01X452051Y-1265627D01*
G01X452735Y-1264840D01*
G01X453313Y-1264182D01*
G01X454038Y-1263289D01*
G01X454825Y-1262231D01*
G01X455604Y-1260916D01*
G01X456269Y-1259667D01*
G01X456796Y-1258932D01*
G01X457155Y-1257529D01*
G01X457723Y-1256190D01*
G01X458228Y-1254895D01*
G01X458570Y-1252403D01*
G01X458645Y-1245249D01*
G01X458328Y-1241224D01*
G01X457629Y-1239770D01*
G01X457075Y-1238201D01*
G01X456372Y-1236559D01*
G01X455599Y-1235181D01*
G01X454814Y-1233879D01*
G01X454022Y-1232819D01*
G01X453323Y-1231936D01*
G01X452699Y-1231235D01*
G01X451955Y-1230467D01*
G01X451273Y-1229778D01*
G01X450448Y-1229001D01*
G01X449703Y-1228328D01*
G01X448898Y-1227680D01*
G01X447821Y-1226875D01*
G01X446447Y-1226076D01*
G01X445277Y-1225478D01*
G01X444597Y-1224929D01*
G01X443235Y-1224535D01*
G01X442117Y-1224107D01*
G01X441187Y-1223515D01*
G01X438958Y-1223109D01*
G01X436137Y-1222521D01*
G01X432959Y-1221950D01*
G01X428581Y-1222037D01*
G01X426437Y-1222524D01*
G01X423649Y-1223102D01*
G01X421464Y-1223463D01*
G01X420552Y-1224024D01*
G01X419100Y-1224603D01*
G01X417271Y-1225414D01*
G01X415940Y-1226170D01*
G01X414883Y-1226881D01*
G01X413991Y-1227584D01*
G01X413186Y-1228271D01*
G01X412408Y-1228980D01*
G01X411646Y-1229722D01*
G01X411107Y-1230434D01*
G01X410444Y-1231638D01*
G01X411139Y-1232691D01*
G01X411891Y-1233440D01*
G01X412610Y-1234170D01*
G01X413522Y-1234999D01*
G01X414180Y-1235587D01*
G01X415056Y-1236289D01*
G01X417748Y-1238401D01*
G01X418739Y-1238439D01*
G01X419621Y-1237843D01*
G01X420758Y-1236849D01*
G01X421211Y-1236340D01*
G01X421995Y-1235821D01*
G01X423273Y-1235084D01*
G01X424231Y-1234515D01*
G01X425727Y-1234183D01*
G01X427774Y-1233575D01*
G01X430904Y-1233035D01*
G01X433707Y-1233502D01*
G01X436308Y-1234251D01*
G01X438441Y-1235004D01*
G01X439391Y-1235666D01*
G01X440470Y-1236373D01*
G01X441722Y-1237474D01*
G01X442942Y-1238876D01*
G01X443820Y-1240046D01*
G01X444554Y-1241587D01*
G01X445240Y-1243188D01*
G01X445788Y-1245035D01*
G01X445970Y-1248057D01*
G01X445788Y-1251078D01*
G01X445240Y-1252926D01*
G01X444554Y-1254526D01*
G01X443820Y-1256067D01*
G01X442942Y-1257237D01*
G01X441757Y-1258611D01*
G01X440417Y-1259784D01*
G01X439346Y-1260446D01*
G01X438492Y-1261026D01*
G01X437921Y-1261463D01*
G01X436634Y-1261768D01*
G01X433913Y-1262522D01*
G01X430946Y-1263047D01*
G01X428095Y-1262585D01*
G01X425748Y-1261936D01*
G01X424095Y-1261562D01*
G01X423149Y-1260912D01*
G01X422194Y-1260362D01*
G01X419644Y-1258213D01*
G01X418193Y-1257496D01*
G01X416710Y-1258228D01*
G01X415573Y-1259134D01*
G01X415026Y-1259699D01*
G01X414216Y-1260444D01*
G01X413329Y-1261258D01*
G01X412576Y-1261930D01*
G01X411798Y-1262699D01*
G01X411215Y-1263341D01*
G01X410647Y-1263765D01*
G01X410429Y-1264376D01*
G01X403229Y-1264376D01*
G01X403444Y-1264060D01*
G01X403726Y-1262945D01*
G01X404216Y-1262240D01*
G01X404822Y-1261347D01*
G01X405211Y-1259453D01*
G01X405725Y-1257787D01*
G01X406137Y-1257079D01*
G01X406354Y-1255007D01*
G01X406491Y-1240127D01*
G01X406431Y-1225030D01*
G01X406113Y-1223419D01*
G01X405445Y-1223194D01*
G01X399370Y-1223067D01*
G01X394287Y-1223493D01*
G01X393912Y-1223869D01*
G01X393736Y-1254168D01*
G01X393235Y-1255083D01*
G01X392514Y-1257277D01*
G01X392250Y-1258388D01*
G01X391823Y-1258894D01*
G01X391111Y-1259694D01*
G01X390272Y-1260511D01*
G01X389587Y-1261193D01*
G01X389067Y-1261619D01*
G01X385800Y-1262612D01*
G01X383275Y-1263056D01*
G01X380749Y-1262617D01*
G01X377490Y-1261683D01*
G01X376915Y-1261175D01*
G01X376127Y-1260447D01*
G01X375272Y-1259607D01*
G01X374238Y-1258610D01*
G01X373872Y-1256903D01*
G01X373091Y-1254277D01*
G01X372633Y-1253342D01*
G01X372590Y-1238808D01*
G01X372464Y-1223904D01*
G01X371901Y-1223499D01*
G01X370580Y-1223199D01*
G01X366626Y-1222931D01*
G01X362529Y-1223118D01*
G01X360216Y-1223781D01*
G01X359822Y-1224240D01*
G01X351601Y-1224240D01*
G01X351601Y-1223918D01*
G01X351230Y-1223572D01*
G01X345628Y-1223022D01*
G01X339668Y-1223218D01*
G01X339083Y-1223803D01*
G01X338887Y-1248060D01*
G01X319163Y-1248060D01*
G01X319325Y-1233990D01*
G01X326583Y-1233770D01*
G01X331939Y-1233692D01*
G01X334481Y-1233164D01*
G01X335021Y-1232517D01*
G01X335246Y-1231501D01*
G01X335271Y-1228013D01*
G01X335140Y-1224005D01*
G01X334843Y-1223418D01*
G01X334273Y-1223201D01*
G01X312424Y-1223070D01*
G01X291110Y-1223408D01*
G01X290606Y-1223771D01*
G01X290346Y-1224422D01*
G01X290271Y-1228225D01*
G01X268465Y-1228225D01*
G01X268465Y-1222714D01*
G01X268011Y-1222468D01*
G01X261436Y-1222182D01*
G01X255075Y-1222482D01*
G01X254816Y-1225344D01*
G01X254774Y-1241401D01*
G01X254705Y-1258153D01*
G01X254545Y-1260432D01*
G01X254233Y-1261060D01*
G01X242899Y-1261183D01*
G01X231602Y-1261270D01*
G01X231360Y-1261765D01*
G01X231019Y-1264904D01*
G01X230535Y-1268426D01*
G01X230094Y-1268325D01*
G01X229517Y-1266985D01*
G01X228798Y-1265462D01*
G01X227896Y-1263407D01*
G01X227245Y-1262003D01*
G01X226418Y-1260114D01*
G01X225577Y-1258231D01*
G01X225082Y-1257287D01*
G01X224173Y-1255000D01*
G01X223453Y-1253339D01*
G01X222715Y-1251642D01*
G01X222036Y-1250076D01*
G01X221286Y-1248305D01*
G01X220555Y-1246637D01*
G01X219827Y-1244982D01*
G01X219010Y-1243083D01*
G01X218301Y-1241464D01*
G01X217580Y-1239827D01*
G01X216777Y-1238000D01*
G01X216167Y-1236679D01*
G01X215318Y-1234662D01*
G01X214617Y-1233040D01*
G01X213795Y-1231144D01*
G01X213067Y-1229463D01*
G01X212328Y-1227760D01*
G01X211714Y-1226439D01*
G01X210807Y-1224346D01*
G01X210309Y-1223303D01*
G01X210108Y-1222650D01*
G01X209380Y-1222327D01*
G01X203407Y-1222209D01*
G01X196764Y-1222380D01*
G01X195884Y-1222833D01*
G01X195537Y-1223743D01*
G01X194804Y-1225443D01*
G01X194013Y-1227218D01*
G01X193259Y-1228919D01*
G01X192587Y-1230466D01*
G01X191821Y-1232219D01*
G01X191086Y-1233909D01*
G01X190298Y-1235726D01*
G01X189530Y-1237486D01*
G01X188780Y-1239198D01*
G01X188043Y-1240850D01*
G01X187291Y-1242544D01*
G01X186556Y-1244270D01*
G01X185841Y-1245935D01*
G01X185102Y-1247618D01*
G01X184411Y-1249213D01*
G01X183642Y-1250923D01*
G01X182901Y-1252599D01*
G01X182173Y-1254293D01*
G01X181411Y-1256027D01*
G01X180625Y-1257830D01*
G01X179907Y-1259464D01*
G01X179222Y-1260988D01*
G01X178402Y-1262918D01*
G01X177601Y-1264781D01*
G01X176942Y-1266229D01*
G01X176182Y-1268029D01*
G01X175441Y-1269685D01*
G01X174850Y-1270887D01*
G01X174647Y-1271803D01*
G01X171168Y-1271803D01*
G01X171521Y-1247365D01*
G01X171200Y-1222510D01*
G01X157203Y-1222186D01*
G01X141249Y-1222376D01*
G01X138528Y-1222939D01*
G01X135936Y-1223602D01*
G01X134121Y-1224189D01*
G01X132675Y-1224994D01*
G01X131208Y-1225948D01*
G01X128585Y-1228756D01*
G01X128031Y-1229599D01*
G01X127132Y-1231941D01*
G01X126846Y-1235411D01*
G01X127169Y-1238731D01*
G01X127555Y-1239936D01*
G01X128091Y-1240625D01*
G01X128611Y-1241420D01*
G01X129896Y-1242992D01*
G01X131705Y-1244545D01*
G01X132323Y-1245128D01*
G01X131787Y-1246045D01*
G01X130238Y-1247299D01*
G01X128685Y-1248320D01*
G01X127670Y-1249296D01*
G01X125859Y-1251645D01*
G01X125092Y-1253385D01*
G01X124449Y-1255540D01*
G01X124198Y-1258173D01*
G01X117036Y-1258173D01*
G01X116682Y-1258083D01*
G01X115827Y-1258129D01*
G01X115146Y-1258541D01*
G01X113589Y-1259309D01*
G01X111824Y-1260048D01*
G01X109267Y-1260868D01*
G01X106811Y-1261539D01*
G01X104362Y-1262055D01*
G01X100050Y-1262154D01*
G01X96820Y-1262096D01*
G01X95176Y-1261244D01*
G01X93251Y-1259960D01*
G01X92823Y-1258143D01*
G01X92749Y-1256742D01*
G01X93553Y-1255934D01*
G01X95626Y-1254581D01*
G01X96995Y-1254012D01*
G01X100046Y-1253167D01*
G01X103240Y-1252412D01*
G01X106125Y-1251677D01*
G01X108787Y-1250949D01*
G01X110986Y-1250193D01*
G01X112718Y-1249493D01*
G01X113993Y-1248813D01*
G01X117282Y-1246264D01*
G01X118835Y-1244528D01*
G01X119671Y-1243139D01*
G01X120270Y-1241669D01*
G01X120959Y-1238023D01*
G01X120572Y-1234240D01*
G01X119753Y-1231987D01*
G01X118698Y-1229875D01*
G01X118193Y-1229128D01*
G01X116296Y-1226972D01*
G01X113574Y-1224959D01*
G01X112135Y-1224126D01*
G01X110980Y-1223623D01*
G01X109192Y-1222944D01*
G01X105811Y-1222123D01*
G01X100428Y-1221607D01*
G01X96666Y-1221718D01*
G01X90926Y-1222252D01*
G01X88318Y-1222877D01*
G01X86037Y-1223610D01*
G01X83809Y-1224506D01*
G01X82562Y-1225099D01*
G01X81408Y-1225541D01*
G01X81408Y-1226402D01*
G01X81824Y-1227828D01*
G01X82499Y-1229305D01*
G01X83394Y-1231540D01*
G01X84283Y-1233790D01*
G01X84900Y-1234901D01*
G01X85909Y-1235409D01*
G01X87214Y-1235297D01*
G01X88716Y-1234549D01*
G01X90283Y-1233940D01*
G01X93120Y-1233146D01*
G01X95017Y-1232531D01*
G01X102781Y-1232531D01*
G01X104425Y-1233376D01*
G01X106347Y-1234809D01*
G01X107101Y-1236791D01*
G01X106520Y-1238722D01*
G01X104949Y-1240040D01*
G01X103347Y-1240717D01*
G01X100450Y-1241517D01*
G01X97651Y-1242196D01*
G01X94857Y-1242878D01*
G01X92130Y-1243545D01*
G01X89247Y-1244425D01*
G01X87433Y-1245137D01*
G01X85732Y-1245986D01*
G01X84531Y-1246674D01*
G01X83836Y-1247253D01*
G01X81178Y-1249896D01*
G01X80660Y-1250690D01*
G01X79574Y-1253264D01*
G01X79156Y-1257089D01*
G01X60294Y-1257089D01*
G01X60294Y-1193800D01*
G37*
G36*
G01X692103Y-1234166D02*
G01X692125Y-1261972D01*
G01X692026Y-1262344D01*
G01X686947Y-1262344D01*
G01X678446Y-1262003D01*
G01X675751Y-1261645D01*
G01X674744Y-1261222D01*
G01X673106Y-1260362D01*
G01X672139Y-1259786D01*
G01X670484Y-1258258D01*
G01X669164Y-1256728D01*
G01X668510Y-1255985D01*
G01X668041Y-1255407D01*
G01X667027Y-1252574D01*
G01X666532Y-1250875D01*
G01X666370Y-1248076D01*
G01X666539Y-1245254D01*
G01X667040Y-1243487D01*
G01X667647Y-1242193D01*
G01X667996Y-1240841D01*
G01X668482Y-1240127D01*
G01X669126Y-1239415D01*
G01X670484Y-1237861D01*
G01X672022Y-1236431D01*
G01X673177Y-1235769D01*
G01X674909Y-1234777D01*
G01X677334Y-1234295D01*
G01X682778Y-1233890D01*
G01X688493Y-1233707D01*
G01X691734Y-1233890D01*
G01X692103Y-1234166D01*
G37*
G36*
G01X157781Y-1261491D02*
G01X157163Y-1261876D01*
G01X156544Y-1262261D01*
G01X149781Y-1262257D01*
G01X142368Y-1261973D01*
G01X140704Y-1261391D01*
G01X139286Y-1260308D01*
G01X138620Y-1258863D01*
G01X138254Y-1256976D01*
G01X138620Y-1255088D01*
G01X139286Y-1253644D01*
G01X142111Y-1251973D01*
G01X149313Y-1251663D01*
G01X156476Y-1251757D01*
G01X157342Y-1252183D01*
G01X157781Y-1252472D01*
G01X157781Y-1261491D01*
G37*
G36*
G01X208437Y-1251707D02*
G01X202798Y-1251911D01*
G01X197707Y-1251856D01*
G01X197293Y-1251441D01*
G01X196879Y-1251025D01*
G01X197198Y-1250450D01*
G01X198303Y-1247818D01*
G01X199012Y-1246084D01*
G01X199762Y-1244175D01*
G01X200504Y-1242276D01*
G01X201246Y-1240384D01*
G01X201872Y-1238761D01*
G01X202685Y-1237633D01*
G01X203482Y-1237196D01*
G01X204060Y-1237649D01*
G01X204476Y-1239042D01*
G01X205120Y-1240572D01*
G01X205865Y-1242359D01*
G01X206608Y-1244258D01*
G01X208092Y-1248057D01*
G01X208831Y-1249935D01*
G01X209018Y-1251106D01*
G01X208437Y-1251707D01*
G37*
G36*
G01X493399Y-1248800D02*
G01X493177Y-1249543D01*
G01X488759Y-1249587D01*
G01X484762Y-1249570D01*
G01X483004Y-1249227D01*
G01X480347Y-1248543D01*
G01X478650Y-1248181D01*
G01X478020Y-1247610D01*
G01X477205Y-1246887D01*
G01X476530Y-1246198D01*
G01X475429Y-1243873D01*
G01X475017Y-1241446D01*
G01X475438Y-1239018D01*
G01X476636Y-1236346D01*
G01X477095Y-1236007D01*
G01X478260Y-1235260D01*
G01X479483Y-1234562D01*
G01X481502Y-1234095D01*
G01X488872Y-1233718D01*
G01X493109Y-1233687D01*
G01X493367Y-1234230D01*
G01X493648Y-1241354D01*
G01X493399Y-1248800D01*
G37*
G36*
G01X156096Y-1241863D02*
G01X151819Y-1241863D01*
G01X144627Y-1241534D01*
G01X142930Y-1240979D01*
G01X141797Y-1240035D01*
G01X140976Y-1238819D01*
G01X140581Y-1237578D01*
G01X140584Y-1236363D01*
G01X140961Y-1235225D01*
G01X142730Y-1233381D01*
G01X145680Y-1232450D01*
G01X156544Y-1232503D01*
G01X157307Y-1232817D01*
G01X157668Y-1233316D01*
G01X157743Y-1236941D01*
G01X157699Y-1240757D01*
G01X156897Y-1241310D01*
G01X156096Y-1241863D01*
G37*
G04 Image End*

G04 Text Start*
G54D10*
G01X2668274Y-902716D02*
G01X2668274Y-823722D01*
G01X2610870Y-866648D01*
G01X2610870Y-845058D01*
G01X2603758Y-830834D01*
G01X2596646Y-823722D01*
G01X2575056Y-816356D01*
G01X2560578Y-816356D01*
G01X2539242Y-823722D01*
G01X2524764Y-837946D01*
G01X2517652Y-859536D01*
G01X2517652Y-881126D01*
G01X2524764Y-902716D01*
G01X2531876Y-909828D01*
G01X2546354Y-916940D01*
G01X2668274Y-761492D02*
G01X2517652Y-704088D01*
G01X2668274Y-646684D02*
G01X2517652Y-704088D01*
G01X2668274Y-577596D02*
G01X2668274Y-498602D01*
G01X2610870Y-541782D01*
G01X2610870Y-520192D01*
G01X2603758Y-505714D01*
G01X2596646Y-498602D01*
G01X2575056Y-491490D01*
G01X2560578Y-491490D01*
G01X2539242Y-498602D01*
G01X2524764Y-513080D01*
G01X2517652Y-534416D01*
G01X2517652Y-556006D01*
G01X2524764Y-577596D01*
G01X2531876Y-584708D01*
G01X2546354Y-591820D01*
G01X2382524Y-809244D02*
G01X2396748Y-816356D01*
G01X2411226Y-830834D01*
G01X2418338Y-845058D01*
G01X2418338Y-873760D01*
G01X2411226Y-888238D01*
G01X2396748Y-902716D01*
G01X2382524Y-909828D01*
G01X2360934Y-916940D01*
G01X2325120Y-916940D01*
G01X2303530Y-909828D01*
G01X2289052Y-902716D01*
G01X2274828Y-888238D01*
G01X2267716Y-873760D01*
G01X2267716Y-845058D01*
G01X2274828Y-830834D01*
G01X2289052Y-816356D01*
G01X2303530Y-809244D01*
G01X2325120Y-809244D01*
G01X2325120Y-845058D02*
G01X2325120Y-809244D01*
G01X2418338Y-754380D02*
G01X2267716Y-754380D01*
G01X2418338Y-754380D02*
G01X2267716Y-654050D01*
G01X2418338Y-654050D02*
G01X2267716Y-654050D01*
G01X2418338Y-599186D02*
G01X2267716Y-599186D01*
G01X2418338Y-599186D02*
G01X2418338Y-549148D01*
G01X2411226Y-527558D01*
G01X2396748Y-513080D01*
G01X2382524Y-505968D01*
G01X2360934Y-498856D01*
G01X2325120Y-498856D01*
G01X2303530Y-505968D01*
G01X2289052Y-513080D01*
G01X2274828Y-527558D01*
G01X2267716Y-549148D01*
G01X2267716Y-599186D01*
G01X2132334Y-809244D02*
G01X2146812Y-816356D01*
G01X2161036Y-830834D01*
G01X2168402Y-845058D01*
G01X2168402Y-873760D01*
G01X2161036Y-888238D01*
G01X2146812Y-902716D01*
G01X2132334Y-909828D01*
G01X2110998Y-916940D01*
G01X2074930Y-916940D01*
G01X2053594Y-909828D01*
G01X2039116Y-902716D01*
G01X2024892Y-888238D01*
G01X2017526Y-873760D01*
G01X2017526Y-845058D01*
G01X2024892Y-830834D01*
G01X2039116Y-816356D01*
G01X2053594Y-809244D01*
G01X2146812Y-654050D02*
G01X2161036Y-668274D01*
G01X2168402Y-689864D01*
G01X2168402Y-718566D01*
G01X2161036Y-740156D01*
G01X2146812Y-754380D01*
G01X2132334Y-754380D01*
G01X2118110Y-747268D01*
G01X2110998Y-740156D01*
G01X2103632Y-725678D01*
G01X2089408Y-682752D01*
G01X2082296Y-668274D01*
G01X2074930Y-661162D01*
G01X2060706Y-654050D01*
G01X2039116Y-654050D01*
G01X2024892Y-668274D01*
G01X2017526Y-689864D01*
G01X2017526Y-718566D01*
G01X2024892Y-740156D01*
G01X2039116Y-754380D01*
G01X1918212Y-916940D02*
G01X1767590Y-916940D01*
G01X1918212Y-916940D02*
G01X1918212Y-852424D01*
G01X1911100Y-830834D01*
G01X1903988Y-823722D01*
G01X1889510Y-816356D01*
G01X1875286Y-816356D01*
G01X1860808Y-823722D01*
G01X1853696Y-830834D01*
G01X1846584Y-852424D01*
G01X1846584Y-916940D01*
G01X1846584Y-866648D02*
G01X1767590Y-816356D01*
G01X1896876Y-661162D02*
G01X1911100Y-675386D01*
G01X1918212Y-696976D01*
G01X1918212Y-725678D01*
G01X1911100Y-747268D01*
G01X1896876Y-761492D01*
G01X1882398Y-761492D01*
G01X1868174Y-754380D01*
G01X1860808Y-747268D01*
G01X1853696Y-732790D01*
G01X1839472Y-689864D01*
G01X1832106Y-675386D01*
G01X1824994Y-668274D01*
G01X1810770Y-661162D01*
G01X1789180Y-661162D01*
G01X1774702Y-675386D01*
G01X1767590Y-696976D01*
G01X1767590Y-725678D01*
G01X1774702Y-747268D01*
G01X1789180Y-761492D01*
G01X1918212Y-556260D02*
G01X1767590Y-556260D01*
G01X1918212Y-606298D02*
G01X1918212Y-505968D01*
G01X1668276Y-916940D02*
G01X1517654Y-916940D01*
G01X1668276Y-916940D02*
G01X1668276Y-866648D01*
G01X1661164Y-845058D01*
G01X1646686Y-830834D01*
G01X1632462Y-823722D01*
G01X1610872Y-816356D01*
G01X1575058Y-816356D01*
G01X1553468Y-823722D01*
G01X1539244Y-830834D01*
G01X1524766Y-845058D01*
G01X1517654Y-866648D01*
G01X1517654Y-916940D01*
G01X1632462Y-654050D02*
G01X1646686Y-661162D01*
G01X1661164Y-675386D01*
G01X1668276Y-689864D01*
G01X1668276Y-718566D01*
G01X1661164Y-732790D01*
G01X1646686Y-747268D01*
G01X1632462Y-754380D01*
G01X1610872Y-761492D01*
G01X1575058Y-761492D01*
G01X1553468Y-754380D01*
G01X1539244Y-747268D01*
G01X1524766Y-732790D01*
G01X1517654Y-718566D01*
G01X1517654Y-689864D01*
G01X1524766Y-675386D01*
G01X1539244Y-661162D01*
G01X1553468Y-654050D01*
G01X1418340Y-916940D02*
G01X1267718Y-916940D01*
G01X1418340Y-916940D02*
G01X1267718Y-859536D01*
G01X1418340Y-802132D02*
G01X1267718Y-859536D01*
G01X1418340Y-802132D02*
G01X1267718Y-802132D01*
G01X1418340Y-704342D02*
G01X1411228Y-718566D01*
G01X1396750Y-733044D01*
G01X1382526Y-740156D01*
G01X1360936Y-747268D01*
G01X1325122Y-747268D01*
G01X1303532Y-740156D01*
G01X1289054Y-733044D01*
G01X1274830Y-718566D01*
G01X1267718Y-704342D01*
G01X1267718Y-675640D01*
G01X1274830Y-661162D01*
G01X1289054Y-646938D01*
G01X1303532Y-639826D01*
G01X1325122Y-632460D01*
G01X1360936Y-632460D01*
G01X1382526Y-639826D01*
G01X1396750Y-646938D01*
G01X1411228Y-661162D01*
G01X1418340Y-675640D01*
G01X1418340Y-704342D01*
G01X1396750Y-477266D02*
G01X1411228Y-491490D01*
G01X1418340Y-513080D01*
G01X1418340Y-541782D01*
G01X1411228Y-563372D01*
G01X1396750Y-577596D01*
G01X1382526Y-577596D01*
G01X1368048Y-570484D01*
G01X1360936Y-563372D01*
G01X1353824Y-548894D01*
G01X1339346Y-505968D01*
G01X1332234Y-491490D01*
G01X1325122Y-484378D01*
G01X1310644Y-477266D01*
G01X1289054Y-477266D01*
G01X1274830Y-491490D01*
G01X1267718Y-513080D01*
G01X1267718Y-541782D01*
G01X1274830Y-563372D01*
G01X1289054Y-577596D01*
G01X1418340Y-422402D02*
G01X1267718Y-422402D01*
G01X1146814Y-816356D02*
G01X1161038Y-830834D01*
G01X1168404Y-852424D01*
G01X1168404Y-881126D01*
G01X1161038Y-902716D01*
G01X1146814Y-916940D01*
G01X1132336Y-916940D01*
G01X1118112Y-909828D01*
G01X1111000Y-902716D01*
G01X1103634Y-888238D01*
G01X1089410Y-845058D01*
G01X1082298Y-830834D01*
G01X1074932Y-823722D01*
G01X1060708Y-816356D01*
G01X1039118Y-816356D01*
G01X1024894Y-830834D01*
G01X1017528Y-852424D01*
G01X1017528Y-881126D01*
G01X1024894Y-902716D01*
G01X1039118Y-916940D01*
G01X1132336Y-654050D02*
G01X1146814Y-661162D01*
G01X1161038Y-675386D01*
G01X1168404Y-689864D01*
G01X1168404Y-718566D01*
G01X1161038Y-732790D01*
G01X1146814Y-747268D01*
G01X1132336Y-754380D01*
G01X1111000Y-761492D01*
G01X1074932Y-761492D01*
G01X1053596Y-754380D01*
G01X1039118Y-747268D01*
G01X1024894Y-732790D01*
G01X1017528Y-718566D01*
G01X1017528Y-689864D01*
G01X1024894Y-675386D01*
G01X1039118Y-661162D01*
G01X1053596Y-654050D01*
G01X1168404Y-599186D02*
G01X1017528Y-599186D01*
G01X1168404Y-498856D02*
G01X1067820Y-599186D01*
G01X1103634Y-563372D02*
G01X1017528Y-498856D01*
G01X918214Y-916940D02*
G01X767592Y-916940D01*
G01X918214Y-916940D02*
G01X918214Y-852424D01*
G01X911102Y-830834D01*
G01X903990Y-823722D01*
G01X889512Y-816356D01*
G01X875288Y-816356D01*
G01X860810Y-823722D01*
G01X853698Y-830834D01*
G01X846586Y-852424D01*
G01X846586Y-916940D02*
G01X846586Y-852424D01*
G01X839474Y-830834D01*
G01X832108Y-823722D01*
G01X817884Y-816356D01*
G01X796294Y-816356D01*
G01X782070Y-823722D01*
G01X774704Y-830834D01*
G01X767592Y-852424D01*
G01X767592Y-916940D01*
G01X918214Y-761492D02*
G01X767592Y-761492D01*
G01X767592Y-761492D02*
G01X767592Y-675386D01*
G01X2127760Y-5254244D02*
G01X2141984Y-5261356D01*
G01X2156462Y-5275834D01*
G01X2163574Y-5290058D01*
G01X2163574Y-5318760D01*
G01X2156462Y-5333238D01*
G01X2141984Y-5347716D01*
G01X2127760Y-5354828D01*
G01X2106170Y-5361940D01*
G01X2070356Y-5361940D01*
G01X2048766Y-5354828D01*
G01X2034542Y-5347716D01*
G01X2020064Y-5333238D01*
G01X2012952Y-5318760D01*
G01X2012952Y-5290058D01*
G01X2020064Y-5275834D01*
G01X2034542Y-5261356D01*
G01X2048766Y-5254244D01*
G01X2141984Y-5099050D02*
G01X2156462Y-5113274D01*
G01X2163574Y-5134864D01*
G01X2163574Y-5163566D01*
G01X2156462Y-5185156D01*
G01X2141984Y-5199380D01*
G01X2127760Y-5199380D01*
G01X2113282Y-5192268D01*
G01X2106170Y-5185156D01*
G01X2099058Y-5170678D01*
G01X2084580Y-5127752D01*
G01X2077468Y-5113274D01*
G01X2070356Y-5106162D01*
G01X2055878Y-5099050D01*
G01X2034542Y-5099050D01*
G01X2020064Y-5113274D01*
G01X2012952Y-5134864D01*
G01X2012952Y-5163566D01*
G01X2020064Y-5185156D01*
G01X2034542Y-5199380D01*
G01X1913638Y-5361940D02*
G01X1763016Y-5361940D01*
G01X1913638Y-5361940D02*
G01X1763016Y-5304536D01*
G01X1913638Y-5247132D02*
G01X1763016Y-5304536D01*
G01X1913638Y-5247132D02*
G01X1763016Y-5247132D01*
G01X1913638Y-5149342D02*
G01X1906526Y-5163566D01*
G01X1892048Y-5178044D01*
G01X1877824Y-5185156D01*
G01X1856234Y-5192268D01*
G01X1820420Y-5192268D01*
G01X1798830Y-5185156D01*
G01X1784352Y-5178044D01*
G01X1770128Y-5163566D01*
G01X1763016Y-5149342D01*
G01X1763016Y-5120640D01*
G01X1770128Y-5106162D01*
G01X1784352Y-5091938D01*
G01X1798830Y-5084826D01*
G01X1820420Y-5077460D01*
G01X1856234Y-5077460D01*
G01X1877824Y-5084826D01*
G01X1892048Y-5091938D01*
G01X1906526Y-5106162D01*
G01X1913638Y-5120640D01*
G01X1913638Y-5149342D01*
G01X1892048Y-4922266D02*
G01X1906526Y-4936490D01*
G01X1913638Y-4958080D01*
G01X1913638Y-4986782D01*
G01X1906526Y-5008372D01*
G01X1892048Y-5022596D01*
G01X1877824Y-5022596D01*
G01X1863346Y-5015484D01*
G01X1856234Y-5008372D01*
G01X1849122Y-4993894D01*
G01X1834644Y-4950968D01*
G01X1827532Y-4936490D01*
G01X1820420Y-4929378D01*
G01X1805942Y-4922266D01*
G01X1784352Y-4922266D01*
G01X1770128Y-4936490D01*
G01X1763016Y-4958080D01*
G01X1763016Y-4986782D01*
G01X1770128Y-5008372D01*
G01X1784352Y-5022596D01*
G01X1913638Y-4867402D02*
G01X1763016Y-4867402D01*
G01X1663702Y-5361940D02*
G01X1512826Y-5361940D01*
G01X1663702Y-5361940D02*
G01X1512826Y-5304536D01*
G01X1663702Y-5247132D02*
G01X1512826Y-5304536D01*
G01X1663702Y-5247132D02*
G01X1512826Y-5247132D01*
G01X1663702Y-5192268D02*
G01X1512826Y-5192268D01*
G01X1642112Y-5037074D02*
G01X1656336Y-5051298D01*
G01X1663702Y-5072888D01*
G01X1663702Y-5101590D01*
G01X1656336Y-5123180D01*
G01X1642112Y-5137404D01*
G01X1627634Y-5137404D01*
G01X1613410Y-5130292D01*
G01X1606298Y-5123180D01*
G01X1598932Y-5108702D01*
G01X1584708Y-5065776D01*
G01X1577596Y-5051298D01*
G01X1570230Y-5044186D01*
G01X1556006Y-5037074D01*
G01X1534416Y-5037074D01*
G01X1520192Y-5051298D01*
G01X1512826Y-5072888D01*
G01X1512826Y-5101590D01*
G01X1520192Y-5123180D01*
G01X1534416Y-5137404D01*
G01X1663702Y-4939284D02*
G01X1656336Y-4953508D01*
G01X1642112Y-4967986D01*
G01X1627634Y-4975098D01*
G01X1606298Y-4982210D01*
G01X1570230Y-4982210D01*
G01X1548894Y-4975098D01*
G01X1534416Y-4967986D01*
G01X1520192Y-4953508D01*
G01X1512826Y-4939284D01*
G01X1512826Y-4910582D01*
G01X1520192Y-4896104D01*
G01X1534416Y-4881880D01*
G01X1548894Y-4874768D01*
G01X1570230Y-4867402D01*
G01X1606298Y-4867402D01*
G01X1627634Y-4874768D01*
G01X1642112Y-4881880D01*
G01X1656336Y-4896104D01*
G01X1663702Y-4910582D01*
G01X1663702Y-4939284D01*
G01X1392176Y-5261356D02*
G01X1406400Y-5275834D01*
G01X1413512Y-5297424D01*
G01X1413512Y-5326126D01*
G01X1406400Y-5347716D01*
G01X1392176Y-5361940D01*
G01X1377698Y-5361940D01*
G01X1363474Y-5354828D01*
G01X1356108Y-5347716D01*
G01X1348996Y-5333238D01*
G01X1334772Y-5290058D01*
G01X1327406Y-5275834D01*
G01X1320294Y-5268722D01*
G01X1306070Y-5261356D01*
G01X1284480Y-5261356D01*
G01X1270002Y-5275834D01*
G01X1262890Y-5297424D01*
G01X1262890Y-5326126D01*
G01X1270002Y-5347716D01*
G01X1284480Y-5361940D01*
G01X1377698Y-5099050D02*
G01X1392176Y-5106162D01*
G01X1406400Y-5120386D01*
G01X1413512Y-5134864D01*
G01X1413512Y-5163566D01*
G01X1406400Y-5177790D01*
G01X1392176Y-5192268D01*
G01X1377698Y-5199380D01*
G01X1356108Y-5206492D01*
G01X1320294Y-5206492D01*
G01X1298704Y-5199380D01*
G01X1284480Y-5192268D01*
G01X1270002Y-5177790D01*
G01X1262890Y-5163566D01*
G01X1262890Y-5134864D01*
G01X1270002Y-5120386D01*
G01X1284480Y-5106162D01*
G01X1298704Y-5099050D01*
G01X1413512Y-5044186D02*
G01X1262890Y-5044186D01*
G01X1413512Y-4943856D02*
G01X1313182Y-5044186D01*
G01X1348996Y-5008372D02*
G01X1262890Y-4943856D01*
G54D11*
G01X1120394Y-5153990D02*
G01X1120394Y-5206568D01*
G01X1088390Y-5153990D02*
G01X1088390Y-5206568D01*
G01X1088390Y-5153990D02*
G01X1053338Y-5206568D01*
G01X1053338Y-5153990D02*
G01X1053338Y-5206568D01*
G01X1021334Y-5153990D02*
G01X1021334Y-5206568D01*
G01X1021334Y-5153990D02*
G01X1003808Y-5153990D01*
G01X996442Y-5156530D01*
G01X991362Y-5161610D01*
G01X988822Y-5166436D01*
G01X986282Y-5174056D01*
G01X986282Y-5186502D01*
G01X988822Y-5194122D01*
G01X991362Y-5198948D01*
G01X996442Y-5204028D01*
G01X1003808Y-5206568D01*
G01X1021334Y-5206568D01*
G01X954278Y-5153990D02*
G01X954278Y-5191582D01*
G01X951738Y-5198948D01*
G01X946658Y-5204028D01*
G01X939292Y-5206568D01*
G01X934212Y-5206568D01*
G01X926846Y-5204028D01*
G01X921766Y-5198948D01*
G01X919226Y-5191582D01*
G01X919226Y-5153990D01*
G01X852170Y-5161610D02*
G01X857250Y-5156530D01*
G01X864616Y-5153990D01*
G01X874776Y-5153990D01*
G01X882142Y-5156530D01*
G01X887222Y-5161610D01*
G01X887222Y-5166436D01*
G01X884682Y-5171516D01*
G01X882142Y-5174056D01*
G01X877316Y-5176596D01*
G01X862330Y-5181422D01*
G01X857250Y-5183962D01*
G01X854710Y-5186502D01*
G01X852170Y-5191582D01*
G01X852170Y-5198948D01*
G01X857250Y-5204028D01*
G01X864616Y-5206568D01*
G01X874776Y-5206568D01*
G01X882142Y-5204028D01*
G01X887222Y-5198948D01*
G01X802640Y-5153990D02*
G01X802640Y-5206568D01*
G01X820166Y-5153990D02*
G01X785114Y-5153990D01*
G01X753110Y-5153990D02*
G01X753110Y-5206568D01*
G01X753110Y-5153990D02*
G01X730504Y-5153990D01*
G01X723138Y-5156530D01*
G01X720598Y-5159070D01*
G01X718058Y-5163896D01*
G01X718058Y-5168976D01*
G01X720598Y-5174056D01*
G01X723138Y-5176596D01*
G01X730504Y-5178882D01*
G01X753110Y-5178882D01*
G01X735584Y-5178882D02*
G01X718058Y-5206568D01*
G01X686054Y-5153990D02*
G01X686054Y-5206568D01*
G01X633984Y-5153990D02*
G01X654050Y-5206568D01*
G01X633984Y-5153990D02*
G01X614172Y-5206568D01*
G01X646430Y-5189042D02*
G01X621538Y-5189042D01*
G01X1120394Y-5254066D02*
G01X1120394Y-5306390D01*
G01X1120394Y-5254066D02*
G01X1097788Y-5254066D01*
G01X1090422Y-5256606D01*
G01X1087882Y-5258892D01*
G01X1085342Y-5263972D01*
G01X1085342Y-5269052D01*
G01X1087882Y-5273878D01*
G01X1090422Y-5276418D01*
G01X1097788Y-5278958D01*
G01X1120394Y-5278958D02*
G01X1097788Y-5278958D01*
G01X1090422Y-5281498D01*
G01X1087882Y-5284038D01*
G01X1085342Y-5289118D01*
G01X1085342Y-5296484D01*
G01X1087882Y-5301564D01*
G01X1090422Y-5304104D01*
G01X1097788Y-5306390D01*
G01X1120394Y-5306390D01*
G01X1053338Y-5254066D02*
G01X1053338Y-5306390D01*
G01X1053338Y-5254066D02*
G01X1030732Y-5254066D01*
G01X1023366Y-5256606D01*
G01X1020826Y-5258892D01*
G01X1018286Y-5263972D01*
G01X1018286Y-5269052D01*
G01X1020826Y-5273878D01*
G01X1023366Y-5276418D01*
G01X1030732Y-5278958D01*
G01X1053338Y-5278958D01*
G01X1035812Y-5278958D02*
G01X1018286Y-5306390D01*
G01X966216Y-5254066D02*
G01X986282Y-5306390D01*
G01X966216Y-5254066D02*
G01X946404Y-5306390D01*
G01X978662Y-5289118D02*
G01X953770Y-5289118D01*
G01X879348Y-5261432D02*
G01X884428Y-5256606D01*
G01X891794Y-5254066D01*
G01X901954Y-5254066D01*
G01X909320Y-5256606D01*
G01X914400Y-5261432D01*
G01X914400Y-5266512D01*
G01X911860Y-5271592D01*
G01X909320Y-5273878D01*
G01X904494Y-5276418D01*
G01X889508Y-5281498D01*
G01X884428Y-5284038D01*
G01X881888Y-5286578D01*
G01X879348Y-5291404D01*
G01X879348Y-5299024D01*
G01X884428Y-5304104D01*
G01X891794Y-5306390D01*
G01X901954Y-5306390D01*
G01X909320Y-5304104D01*
G01X914400Y-5299024D01*
G01X847344Y-5254066D02*
G01X847344Y-5306390D01*
G01X815340Y-5254066D02*
G01X815340Y-5306390D01*
G01X815340Y-5306390D02*
G01X785368Y-5306390D01*
G01X753364Y-5254066D02*
G01X753364Y-5306390D01*
G01X753364Y-5254066D02*
G01X720852Y-5254066D01*
G01X753364Y-5278958D02*
G01X733298Y-5278958D01*
G01X753364Y-5306390D02*
G01X720852Y-5306390D01*
G01X688848Y-5254066D02*
G01X688848Y-5306390D01*
G01X656844Y-5254066D02*
G01X656844Y-5306390D01*
G01X656844Y-5254066D02*
G01X634238Y-5254066D01*
G01X626872Y-5256606D01*
G01X624332Y-5258892D01*
G01X621792Y-5263972D01*
G01X621792Y-5269052D01*
G01X624332Y-5273878D01*
G01X626872Y-5276418D01*
G01X634238Y-5278958D01*
G01X656844Y-5278958D01*
G01X639318Y-5278958D02*
G01X621792Y-5306390D01*
G01X569722Y-5254066D02*
G01X589788Y-5306390D01*
G01X569722Y-5254066D02*
G01X549910Y-5306390D01*
G01X582168Y-5289118D02*
G01X557276Y-5289118D01*
G36*
G01X2358460Y-1205785D02*
G01X2356339Y-1206997D01*
G01X2354218Y-1207603D01*
G01X2352703Y-1207906D01*
G01X2349369Y-1208209D01*
G01X2344218Y-1207603D01*
G01X2340582Y-1206391D01*
G01X2338460Y-1205179D01*
G01X2336945Y-1204270D01*
G01X2334824Y-1202451D01*
G01X2333006Y-1200027D01*
G01X2331491Y-1197603D01*
G01X2329976Y-1194876D01*
G01X2328157Y-1190027D01*
G01X2327248Y-1186997D01*
G01X2326642Y-1184270D01*
G01X2325430Y-1177603D01*
G01X2324824Y-1172149D01*
G01X2324218Y-1164270D01*
G01X2323915Y-1149118D01*
G01X2324218Y-1133966D01*
G01X2324824Y-1126088D01*
G01X2325430Y-1121239D01*
G01X2326036Y-1116997D01*
G01X2326642Y-1113967D01*
G01X2327551Y-1109724D01*
G01X2328763Y-1105785D01*
G01X2329976Y-1102451D01*
G01X2331491Y-1099421D01*
G01X2333309Y-1096694D01*
G01X2334824Y-1094573D01*
G01X2336339Y-1093058D01*
G01X2338460Y-1091542D01*
G01X2341491Y-1090027D01*
G01X2344218Y-1089118D01*
G01X2348157Y-1088815D01*
G01X2352097Y-1089118D01*
G01X2354824Y-1089724D01*
G01X2357551Y-1090633D01*
G01X2359369Y-1091542D01*
G01X2360885Y-1092754D01*
G01X2363915Y-1095785D01*
G01X2365127Y-1097300D01*
G01X2366339Y-1099421D01*
G01X2367551Y-1102451D01*
G01X2368763Y-1106088D01*
G01X2369672Y-1109118D01*
G01X2370885Y-1115785D01*
G01X2371491Y-1120633D01*
G01X2372097Y-1127300D01*
G01X2372703Y-1144876D01*
G01X2373006Y-1146997D01*
G01X2372703Y-1149118D01*
G01X2372097Y-1166694D01*
G01X2371491Y-1173967D01*
G01X2371188Y-1176088D01*
G01X2370885Y-1178815D01*
G01X2370279Y-1182452D01*
G01X2369066Y-1188512D01*
G01X2368157Y-1191845D01*
G01X2366945Y-1194876D01*
G01X2365430Y-1198209D01*
G01X2363915Y-1200330D01*
G01X2363006Y-1201845D01*
G01X2361794Y-1203361D01*
G01X2360278Y-1204573D01*
G01X2358460Y-1205785D01*
G37*
G36*
G01X2091794Y-1205785D02*
G01X2089672Y-1206997D01*
G01X2087551Y-1207603D01*
G01X2086036Y-1207906D01*
G01X2083612Y-1208209D01*
G01X2079369Y-1207906D01*
G01X2075430Y-1206997D01*
G01X2072400Y-1205482D01*
G01X2070279Y-1203967D01*
G01X2068460Y-1202451D01*
G01X2066945Y-1200633D01*
G01X2065430Y-1198512D01*
G01X2063915Y-1195785D01*
G01X2062703Y-1193058D01*
G01X2060885Y-1187603D01*
G01X2059975Y-1184270D01*
G01X2059369Y-1181239D01*
G01X2058763Y-1176997D01*
G01X2058157Y-1171542D01*
G01X2057551Y-1163058D01*
G01X2057248Y-1149118D01*
G01X2057551Y-1135179D01*
G01X2057854Y-1131845D01*
G01X2058157Y-1126694D01*
G01X2058763Y-1121239D01*
G01X2059369Y-1117603D01*
G01X2059975Y-1114270D01*
G01X2060885Y-1109724D01*
G01X2062097Y-1105785D01*
G01X2063309Y-1102451D01*
G01X2064824Y-1099421D01*
G01X2066642Y-1096694D01*
G01X2068157Y-1094573D01*
G01X2069672Y-1093058D01*
G01X2071794Y-1091542D01*
G01X2074824Y-1090027D01*
G01X2077551Y-1089118D01*
G01X2081491Y-1088815D01*
G01X2086036Y-1089118D01*
G01X2089369Y-1090027D01*
G01X2092703Y-1091542D01*
G01X2094824Y-1093361D01*
G01X2096339Y-1094876D01*
G01X2098157Y-1096997D01*
G01X2099672Y-1099421D01*
G01X2100885Y-1102148D01*
G01X2103006Y-1108512D01*
G01X2104218Y-1115179D01*
G01X2104824Y-1119421D01*
G01X2105430Y-1126088D01*
G01X2106036Y-1139421D01*
G01X2106339Y-1147300D01*
G01X2106036Y-1155179D01*
G01X2105430Y-1167906D01*
G01X2105127Y-1170330D01*
G01X2104824Y-1174573D01*
G01X2104218Y-1178815D01*
G01X2103612Y-1182452D01*
G01X2103006Y-1185482D01*
G01X2102400Y-1188209D01*
G01X2101491Y-1191845D01*
G01X2100279Y-1195179D01*
G01X2098763Y-1198209D01*
G01X2097248Y-1200330D01*
G01X2096339Y-1201845D01*
G01X2094521Y-1203967D01*
G01X2091794Y-1205785D01*
G37*
G36*
G01X1475430Y-1257300D02*
G01X1475430Y-1171846D01*
G01X1482096Y-1171846D01*
G01X1482399Y-1178209D01*
G01X1483005Y-1183058D01*
G01X1483611Y-1186694D01*
G01X1484218Y-1189118D01*
G01X1485127Y-1192148D01*
G01X1486339Y-1195179D01*
G01X1487854Y-1198209D01*
G01X1489672Y-1200936D01*
G01X1491187Y-1203058D01*
G01X1496339Y-1208209D01*
G01X1499066Y-1210027D01*
G01X1501793Y-1211542D01*
G01X1504520Y-1212754D01*
G01X1506945Y-1213664D01*
G01X1509975Y-1214573D01*
G01X1512702Y-1215179D01*
G01X1512702Y-1215179D01*
G01X1519369Y-1215785D01*
G01X1522096Y-1216088D01*
G01X1525430Y-1215785D01*
G01X1529066Y-1215179D01*
G01X1532096Y-1214573D01*
G01X1534824Y-1213967D01*
G01X1537854Y-1213058D01*
G01X1540581Y-1211845D01*
G01X1543612Y-1210330D01*
G01X1545733Y-1208815D01*
G01X1547551Y-1207603D01*
G01X1549369Y-1206088D01*
G01X1553006Y-1202451D01*
G01X1554824Y-1200027D01*
G01X1555473Y-1199118D01*
G01X1586945Y-1199118D01*
G01X1586945Y-1213664D01*
G01X1667551Y-1213664D01*
G01X1667551Y-1207300D01*
G01X1667324Y-1202148D01*
G01X1666642Y-1199421D01*
G01X1664521Y-1197300D01*
G01X1662703Y-1195785D01*
G01X1659672Y-1192755D01*
G01X1656036Y-1189724D01*
G01X1653006Y-1186694D01*
G01X1649975Y-1184270D01*
G01X1646945Y-1181239D01*
G01X1643309Y-1178209D01*
G01X1640278Y-1175179D01*
G01X1636642Y-1172149D01*
G01X1626036Y-1161542D01*
G01X1623005Y-1157906D01*
G01X1620581Y-1154876D01*
G01X1618763Y-1152754D01*
G01X1617248Y-1150633D01*
G01X1616036Y-1148512D01*
G01X1615362Y-1147300D01*
G01X1683915Y-1147300D01*
G01X1684218Y-1159421D01*
G01X1684521Y-1161845D01*
G01X1684824Y-1166088D01*
G01X1685430Y-1170936D01*
G01X1686036Y-1173967D01*
G01X1686339Y-1176088D01*
G01X1686945Y-1179421D01*
G01X1687854Y-1182452D01*
G01X1688460Y-1184876D01*
G01X1689369Y-1187603D01*
G01X1690278Y-1190027D01*
G01X1691187Y-1192148D01*
G01X1693915Y-1197603D01*
G01X1695430Y-1199724D01*
G01X1696642Y-1201542D01*
G01X1698157Y-1203361D01*
G01X1699369Y-1204876D01*
G01X1700581Y-1206088D01*
G01X1702096Y-1207300D01*
G01X1703612Y-1208815D01*
G01X1708460Y-1211845D01*
G01X1710581Y-1212754D01*
G01X1713005Y-1213664D01*
G01X1716036Y-1214573D01*
G01X1718763Y-1215179D01*
G01X1718763Y-1215179D01*
G01X1724218Y-1215785D01*
G01X1726642Y-1216088D01*
G01X1729672Y-1215785D01*
G01X1733309Y-1215179D01*
G01X1736339Y-1214573D01*
G01X1738763Y-1213967D01*
G01X1741187Y-1213058D01*
G01X1747854Y-1209724D01*
G01X1749369Y-1208512D01*
G01X1753915Y-1203967D01*
G01X1755733Y-1201845D01*
G01X1757248Y-1199724D01*
G01X1757594Y-1199118D01*
G01X1786945Y-1199118D01*
G01X1786945Y-1213664D01*
G01X1867551Y-1213664D01*
G01X1867551Y-1207300D01*
G01X1867324Y-1202148D01*
G01X1866642Y-1199421D01*
G01X1864521Y-1197300D01*
G01X1862703Y-1195785D01*
G01X1859672Y-1192755D01*
G01X1856036Y-1189724D01*
G01X1853006Y-1186694D01*
G01X1849975Y-1184270D01*
G01X1846945Y-1181239D01*
G01X1843309Y-1178209D01*
G01X1840278Y-1175179D01*
G01X1836642Y-1172149D01*
G01X1826036Y-1161542D01*
G01X1823005Y-1157906D01*
G01X1820581Y-1154876D01*
G01X1818763Y-1152754D01*
G01X1817248Y-1150633D01*
G01X1816036Y-1148512D01*
G01X1814521Y-1145785D01*
G01X1813309Y-1143360D01*
G01X1812399Y-1141239D01*
G01X1811490Y-1138815D01*
G01X1810581Y-1136088D01*
G01X1809672Y-1132754D01*
G01X1809066Y-1129724D01*
G01X1808460Y-1124876D01*
G01X1808157Y-1117603D01*
G01X1808460Y-1110330D01*
G01X1809672Y-1104876D01*
G01X1810581Y-1102148D01*
G01X1812096Y-1099118D01*
G01X1813309Y-1096997D01*
G01X1815127Y-1094876D01*
G01X1817854Y-1093058D01*
G01X1819975Y-1091845D01*
G01X1822399Y-1090936D01*
G01X1824824Y-1090330D01*
G01X1831490Y-1089724D01*
G01X1833005Y-1089724D01*
G01X1835127Y-1090027D01*
G01X1838763Y-1090330D01*
G01X1841793Y-1090936D01*
G01X1844521Y-1091542D01*
G01X1847551Y-1092451D01*
G01X1850278Y-1093664D01*
G01X1852703Y-1094876D01*
G01X1853460Y-1095936D01*
G01X1853915Y-1097906D01*
G01X1854824Y-1102451D01*
G01X1855733Y-1106088D01*
G01X1856642Y-1110633D01*
G01X1862703Y-1110633D01*
G01X1862703Y-1098815D01*
G01X1862097Y-1086088D01*
G01X1859369Y-1084876D01*
G01X1856339Y-1084270D01*
G01X1849672Y-1083058D01*
G01X1876642Y-1083058D01*
G01X1877551Y-1085482D01*
G01X1883006Y-1101845D01*
G01X1884824Y-1106694D01*
G01X1891187Y-1125785D01*
G01X1892400Y-1128815D01*
G01X1898460Y-1146997D01*
G01X1899672Y-1150027D01*
G01X1906036Y-1169118D01*
G01X1907854Y-1173967D01*
G01X1914218Y-1193058D01*
G01X1915430Y-1196088D01*
G01X1915430Y-1196088D01*
G01X1922096Y-1216088D01*
G01X1931793Y-1216088D01*
G01X1930884Y-1213967D01*
G01X1929369Y-1210027D01*
G01X1928157Y-1206391D01*
G01X1925733Y-1199724D01*
G01X1920884Y-1185179D01*
G01X1919672Y-1182149D01*
G01X1917955Y-1176997D01*
G01X1939369Y-1176997D01*
G01X1939369Y-1178815D01*
G01X1939975Y-1186088D01*
G01X1940581Y-1189421D01*
G01X1941490Y-1193058D01*
G01X1942399Y-1195482D01*
G01X1943309Y-1197603D01*
G01X1944521Y-1199724D01*
G01X1946339Y-1202451D01*
G01X1948157Y-1204876D01*
G01X1949672Y-1206391D01*
G01X1951187Y-1207603D01*
G01X1953006Y-1208815D01*
G01X1955430Y-1210330D01*
G01X1958460Y-1211845D01*
G01X1961794Y-1213058D01*
G01X1964218Y-1213967D01*
G01X1970885Y-1215179D01*
G01X1970885Y-1215179D01*
G01X1978157Y-1215785D01*
G01X1982400Y-1216088D01*
G01X1986036Y-1215785D01*
G01X1988157Y-1215482D01*
G01X1992097Y-1215179D01*
G01X1995733Y-1214573D01*
G01X2000581Y-1213361D01*
G01X2003309Y-1212451D01*
G01X2006036Y-1211239D01*
G01X2009066Y-1209724D01*
G01X2012097Y-1207603D01*
G01X2014521Y-1205785D01*
G01X2017551Y-1202148D01*
G01X2019066Y-1200027D01*
G01X2020278Y-1197603D01*
G01X2021187Y-1195482D01*
G01X2022097Y-1193058D01*
G01X2023006Y-1189421D01*
G01X2023612Y-1186088D01*
G01X2023915Y-1180633D01*
G01X2023612Y-1173967D01*
G01X2023006Y-1170936D01*
G01X2022703Y-1168815D01*
G01X2022097Y-1166391D01*
G01X2021187Y-1163967D01*
G01X2019975Y-1161239D01*
G01X2018157Y-1158209D01*
G01X2016642Y-1156088D01*
G01X2015430Y-1154573D01*
G01X2012400Y-1151542D01*
G01X2010278Y-1149724D01*
G01X2007551Y-1147906D01*
G01X2005915Y-1146997D01*
G01X2039066Y-1146997D01*
G01X2039369Y-1149118D01*
G01X2039975Y-1162452D01*
G01X2040581Y-1167906D01*
G01X2041187Y-1172149D01*
G01X2043006Y-1181239D01*
G01X2043915Y-1184573D01*
G01X2044824Y-1187300D01*
G01X2045733Y-1189724D01*
G01X2046945Y-1192452D01*
G01X2048460Y-1195785D01*
G01X2050278Y-1198815D01*
G01X2051794Y-1200936D01*
G01X2052703Y-1202451D01*
G01X2053915Y-1203967D01*
G01X2056945Y-1206997D01*
G01X2059369Y-1208815D01*
G01X2062097Y-1210633D01*
G01X2064218Y-1211845D01*
G01X2066642Y-1213058D01*
G01X2069066Y-1213967D01*
G01X2073915Y-1215179D01*
G01X2073915Y-1215179D01*
G01X2079976Y-1215785D01*
G01X2082400Y-1216088D01*
G01X2084218Y-1215785D01*
G01X2086339Y-1215482D01*
G01X2089066Y-1215179D01*
G01X2092097Y-1214573D01*
G01X2095430Y-1213664D01*
G01X2098157Y-1212451D01*
G01X2101188Y-1210936D01*
G01X2103309Y-1209421D01*
G01X2104824Y-1208512D01*
G01X2106339Y-1207300D01*
G01X2109369Y-1204270D01*
G01X2110582Y-1202755D01*
G01X2112097Y-1200633D01*
G01X2113915Y-1197906D01*
G01X2115430Y-1195179D01*
G01X2117854Y-1189724D01*
G01X2119066Y-1186088D01*
G01X2120278Y-1181845D01*
G01X2121188Y-1178815D01*
G01X2122400Y-1172149D01*
G01X2123006Y-1167300D01*
G01X2123612Y-1160633D01*
G01X2123653Y-1159118D01*
G01X2188763Y-1159118D01*
G01X2188763Y-1166997D01*
G01X2189066Y-1174573D01*
G01X2215127Y-1174270D01*
G01X2240885Y-1174270D01*
G01X2240885Y-1159118D01*
G01X2240885Y-1159118D01*
G01X2188763Y-1159118D01*
G01X2123653Y-1159118D01*
G01X2123915Y-1149421D01*
G01X2123849Y-1146997D01*
G01X2305733Y-1146997D01*
G01X2306036Y-1152148D01*
G01X2306642Y-1163058D01*
G01X2307248Y-1168512D01*
G01X2308460Y-1175785D01*
G01X2309067Y-1178512D01*
G01X2309976Y-1182452D01*
G01X2311188Y-1186391D01*
G01X2312400Y-1189724D01*
G01X2313612Y-1192755D01*
G01X2315127Y-1195785D01*
G01X2316945Y-1198815D01*
G01X2318460Y-1200936D01*
G01X2319370Y-1202451D01*
G01X2320582Y-1203967D01*
G01X2323612Y-1206997D01*
G01X2326036Y-1208815D01*
G01X2329066Y-1210936D01*
G01X2332097Y-1212451D01*
G01X2334824Y-1213664D01*
G01X2337854Y-1214573D01*
G01X2340582Y-1215179D01*
G01X2340582Y-1215179D01*
G01X2346642Y-1215785D01*
G01X2349066Y-1216088D01*
G01X2350885Y-1215785D01*
G01X2352703Y-1215482D01*
G01X2355127Y-1215179D01*
G01X2358460Y-1214573D01*
G01X2362097Y-1213664D01*
G01X2364824Y-1212451D01*
G01X2367854Y-1210936D01*
G01X2369976Y-1209421D01*
G01X2374521Y-1205785D01*
G01X2375976Y-1203967D01*
G01X2411794Y-1203967D01*
G01X2412097Y-1207300D01*
G01X2412703Y-1209724D01*
G01X2413915Y-1211845D01*
G01X2415430Y-1213361D01*
G01X2417248Y-1214876D01*
G01X2417248Y-1214876D01*
G01X2419673Y-1216088D01*
G01X2423612Y-1216694D01*
G01X2426945Y-1216391D01*
G01X2428460Y-1215482D01*
G01X2430885Y-1213664D01*
G01X2433006Y-1211542D01*
G01X2434218Y-1209421D01*
G01X2434319Y-1208815D01*
G01X2460279Y-1208815D01*
G01X2460279Y-1213664D01*
G01X2530582Y-1213664D01*
G01X2530582Y-1211542D01*
G01X2529976Y-1209118D01*
G01X2528461Y-1208512D01*
G01X2521794Y-1207906D01*
G01X2509673Y-1206694D01*
G01X2506339Y-1206391D01*
G01X2503915Y-1206391D01*
G01X2503915Y-1153361D01*
G01X2504521Y-1100027D01*
G01X2506945Y-1100330D01*
G01X2513612Y-1102754D01*
G01X2517248Y-1103967D01*
G01X2520279Y-1105179D01*
G01X2523006Y-1106088D01*
G01X2525430Y-1106997D01*
G01X2528158Y-1107906D01*
G01X2529976Y-1108209D01*
G01X2529976Y-1106694D01*
G01X2529673Y-1104270D01*
G01X2528764Y-1102754D01*
G01X2509673Y-1091845D01*
G01X2504218Y-1088815D01*
G01X2497324Y-1084876D01*
G01X2550582Y-1084876D01*
G01X2550885Y-1087300D01*
G01X2552097Y-1088512D01*
G01X2559370Y-1089724D01*
G01X2562703Y-1090330D01*
G01X2564673Y-1090936D01*
G01X2565733Y-1092148D01*
G01X2566945Y-1095179D01*
G01X2568157Y-1097906D01*
G01X2569066Y-1100330D01*
G01X2569976Y-1102451D01*
G01X2571188Y-1105179D01*
G01X2572400Y-1108209D01*
G01X2573612Y-1110936D01*
G01X2576036Y-1116997D01*
G01X2577248Y-1119724D01*
G01X2578157Y-1122148D01*
G01X2579067Y-1124270D01*
G01X2580279Y-1126997D01*
G01X2581491Y-1130027D01*
G01X2582703Y-1132754D01*
G01X2585127Y-1138815D01*
G01X2586339Y-1141542D01*
G01X2587248Y-1143967D01*
G01X2588158Y-1146088D01*
G01X2589370Y-1148815D01*
G01X2590582Y-1151845D01*
G01X2591794Y-1154573D01*
G01X2594218Y-1160633D01*
G01X2595430Y-1163361D01*
G01X2596339Y-1165785D01*
G01X2597249Y-1167906D01*
G01X2598461Y-1170633D01*
G01X2599673Y-1173664D01*
G01X2600885Y-1176391D01*
G01X2603309Y-1182452D01*
G01X2604521Y-1185179D01*
G01X2605430Y-1187603D01*
G01X2606339Y-1189724D01*
G01X2607552Y-1192452D01*
G01X2608764Y-1195482D01*
G01X2609976Y-1198209D01*
G01X2611188Y-1201239D01*
G01X2612400Y-1203967D01*
G01X2613309Y-1206391D01*
G01X2616036Y-1212754D01*
G01X2616945Y-1215179D01*
G01X2616945Y-1215179D01*
G01X2617249Y-1216694D01*
G01X2619976Y-1216694D01*
G01X2622703Y-1216391D01*
G01X2623309Y-1215179D01*
G01X2624521Y-1212451D01*
G01X2625733Y-1209421D01*
G01X2626945Y-1206694D01*
G01X2628158Y-1203664D01*
G01X2629370Y-1200936D01*
G01X2630279Y-1198512D01*
G01X2633006Y-1192148D01*
G01X2634218Y-1189421D01*
G01X2635430Y-1186391D01*
G01X2636642Y-1183664D01*
G01X2637855Y-1180633D01*
G01X2639067Y-1177906D01*
G01X2639976Y-1175482D01*
G01X2642703Y-1169118D01*
G01X2643915Y-1166391D01*
G01X2645127Y-1163361D01*
G01X2646339Y-1160633D01*
G01X2647551Y-1157603D01*
G01X2648764Y-1154876D01*
G01X2649673Y-1152451D01*
G01X2654218Y-1141845D01*
G01X2655430Y-1139118D01*
G01X2656642Y-1136088D01*
G01X2657854Y-1133360D01*
G01X2659067Y-1130330D01*
G01X2660279Y-1127603D01*
G01X2661188Y-1125179D01*
G01X2663915Y-1118815D01*
G01X2665127Y-1116088D01*
G01X2666339Y-1113057D01*
G01X2667551Y-1110330D01*
G01X2668764Y-1107300D01*
G01X2669976Y-1104573D01*
G01X2670885Y-1102148D01*
G01X2671794Y-1100027D01*
G01X2674218Y-1094573D01*
G01X2675127Y-1092148D01*
G01X2675885Y-1090936D01*
G01X2677551Y-1090330D01*
G01X2680582Y-1089724D01*
G01X2687248Y-1088512D01*
G01X2689370Y-1088209D01*
G01X2690279Y-1087906D01*
G01X2690582Y-1086997D01*
G01X2690279Y-1084270D01*
G01X2689976Y-1082755D01*
G01X2637855Y-1082755D01*
G01X2637855Y-1085179D01*
G01X2638461Y-1087906D01*
G01X2639976Y-1088512D01*
G01X2643612Y-1089118D01*
G01X2652097Y-1090330D01*
G01X2654067Y-1090860D01*
G01X2654521Y-1091845D01*
G01X2653612Y-1094573D01*
G01X2652400Y-1097300D01*
G01X2649976Y-1103361D01*
G01X2648764Y-1106088D01*
G01X2645127Y-1115179D01*
G01X2643915Y-1117906D01*
G01X2641491Y-1123967D01*
G01X2640279Y-1126694D01*
G01X2636642Y-1135785D01*
G01X2635430Y-1138512D01*
G01X2633006Y-1144573D01*
G01X2632097Y-1146997D01*
G01X2631188Y-1149118D01*
G01X2629976Y-1151845D01*
G01X2628764Y-1154876D01*
G01X2627855Y-1157300D01*
G01X2626945Y-1159421D01*
G01X2625733Y-1162149D01*
G01X2624521Y-1165179D01*
G01X2623612Y-1167603D01*
G01X2622703Y-1169724D01*
G01X2621491Y-1172452D01*
G01X2620279Y-1175482D01*
G01X2619370Y-1177906D01*
G01X2618461Y-1180027D01*
G01X2617249Y-1182755D01*
G01X2616036Y-1185785D01*
G01X2615430Y-1186391D01*
G01X2614824Y-1185785D01*
G01X2613612Y-1183361D01*
G01X2612400Y-1180633D01*
G01X2607552Y-1168512D01*
G01X2606339Y-1165785D01*
G01X2603915Y-1159724D01*
G01X2602703Y-1156997D01*
G01X2597855Y-1144876D01*
G01X2596642Y-1142148D01*
G01X2594218Y-1136088D01*
G01X2593006Y-1133360D01*
G01X2588158Y-1121239D01*
G01X2586945Y-1118512D01*
G01X2584521Y-1112451D01*
G01X2583309Y-1109724D01*
G01X2578460Y-1097603D01*
G01X2577248Y-1094876D01*
G01X2576339Y-1092148D01*
G01X2576036Y-1090633D01*
G01X2578157Y-1090330D01*
G01X2581188Y-1089724D01*
G01X2591794Y-1088209D01*
G01X2592703Y-1087527D01*
G01X2593006Y-1085482D01*
G01X2593006Y-1082755D01*
G01X2573309Y-1082755D01*
G01X2552097Y-1083058D01*
G01X2550961Y-1083664D01*
G01X2550582Y-1084876D01*
G01X2497324Y-1084876D01*
G01X2493612Y-1082755D01*
G01X2489976Y-1082148D01*
G01X2486945Y-1082148D01*
G01X2486945Y-1206391D01*
G01X2485430Y-1206391D01*
G01X2483006Y-1206694D01*
G01X2464824Y-1208512D01*
G01X2462097Y-1208815D01*
G01X2460279Y-1208815D01*
G01X2460279Y-1208815D01*
G01X2434319Y-1208815D01*
G01X2434824Y-1205785D01*
G01X2434218Y-1201542D01*
G01X2432703Y-1198209D01*
G01X2430279Y-1195482D01*
G01X2426642Y-1193664D01*
G01X2423006Y-1193361D01*
G01X2419976Y-1193967D01*
G01X2417551Y-1194876D01*
G01X2415733Y-1196088D01*
G01X2414218Y-1197603D01*
G01X2412703Y-1200027D01*
G01X2411794Y-1203967D01*
G01X2375976Y-1203967D01*
G01X2376945Y-1202755D01*
G01X2378763Y-1200633D01*
G01X2380582Y-1197603D01*
G01X2382097Y-1195179D01*
G01X2383915Y-1190936D01*
G01X2384824Y-1188512D01*
G01X2386642Y-1183058D01*
G01X2387551Y-1179421D01*
G01X2388461Y-1175179D01*
G01X2389067Y-1172149D01*
G01X2389673Y-1166694D01*
G01X2390279Y-1159421D01*
G01X2390582Y-1149118D01*
G01X2390279Y-1138815D01*
G01X2389673Y-1131542D01*
G01X2389067Y-1126694D01*
G01X2387854Y-1120027D01*
G01X2387248Y-1117300D01*
G01X2386339Y-1113664D01*
G01X2385127Y-1110027D01*
G01X2383915Y-1106694D01*
G01X2382703Y-1103664D01*
G01X2381491Y-1101239D01*
G01X2380279Y-1099118D01*
G01X2378763Y-1096694D01*
G01X2377248Y-1094573D01*
G01X2374824Y-1091542D01*
G01X2372703Y-1089421D01*
G01X2370279Y-1087603D01*
G01X2368763Y-1086391D01*
G01X2366642Y-1085179D01*
G01X2363915Y-1083967D01*
G01X2360582Y-1082755D01*
G01X2357551Y-1081845D01*
G01X2353309Y-1081239D01*
G01X2349672Y-1080936D01*
G01X2344824Y-1081239D01*
G01X2341188Y-1081845D01*
G01X2338157Y-1082451D01*
G01X2334824Y-1083361D01*
G01X2332097Y-1084573D01*
G01X2329673Y-1085785D01*
G01X2326945Y-1087300D01*
G01X2324824Y-1088815D01*
G01X2319673Y-1093967D01*
G01X2317854Y-1096391D01*
G01X2314824Y-1101239D01*
G01X2313612Y-1103664D01*
G01X2312400Y-1106694D01*
G01X2311188Y-1110027D01*
G01X2309067Y-1116391D01*
G01X2307854Y-1122451D01*
G01X2307248Y-1126694D01*
G01X2306642Y-1131542D01*
G01X2305733Y-1146997D01*
G01X2123849Y-1146997D01*
G01X2123612Y-1138209D01*
G01X2123309Y-1135482D01*
G01X2123006Y-1130936D01*
G01X2122400Y-1126694D01*
G01X2121794Y-1123057D01*
G01X2120581Y-1116997D01*
G01X2119672Y-1113664D01*
G01X2118763Y-1110936D01*
G01X2117854Y-1107906D01*
G01X2115430Y-1102451D01*
G01X2113915Y-1099421D01*
G01X2112097Y-1096694D01*
G01X2110582Y-1094270D01*
G01X2109066Y-1092451D01*
G01X2106036Y-1089421D01*
G01X2104521Y-1088209D01*
G01X2102400Y-1086694D01*
G01X2099975Y-1085179D01*
G01X2097551Y-1083967D01*
G01X2093915Y-1082755D01*
G01X2090885Y-1081845D01*
G01X2086642Y-1081239D01*
G01X2083309Y-1080936D01*
G01X2078157Y-1081239D01*
G01X2074521Y-1081845D01*
G01X2071491Y-1082451D01*
G01X2068157Y-1083361D01*
G01X2065430Y-1084573D01*
G01X2062400Y-1086088D01*
G01X2059672Y-1087906D01*
G01X2057551Y-1089421D01*
G01X2053006Y-1093967D01*
G01X2051491Y-1096088D01*
G01X2048460Y-1100936D01*
G01X2046945Y-1103664D01*
G01X2045733Y-1106694D01*
G01X2044521Y-1110027D01*
G01X2043309Y-1113967D01*
G01X2042400Y-1116997D01*
G01X2041187Y-1123057D01*
G01X2040581Y-1127300D01*
G01X2039975Y-1132148D01*
G01X2039369Y-1144876D01*
G01X2039066Y-1146997D01*
G01X2005915Y-1146997D01*
G01X2004824Y-1146391D01*
G01X2002400Y-1145179D01*
G01X2002021Y-1144497D01*
G01X2002703Y-1143663D01*
G01X2004824Y-1142148D01*
G01X2006945Y-1140936D01*
G01X2008763Y-1139421D01*
G01X2013309Y-1134876D01*
G01X2014824Y-1133057D01*
G01X2016036Y-1131239D01*
G01X2016945Y-1129421D01*
G01X2017854Y-1127300D01*
G01X2018763Y-1124876D01*
G01X2019369Y-1122451D01*
G01X2019672Y-1116088D01*
G01X2019369Y-1108512D01*
G01X2018460Y-1104270D01*
G01X2017248Y-1100633D01*
G01X2016036Y-1098209D01*
G01X2015127Y-1096088D01*
G01X2013915Y-1094270D01*
G01X2010278Y-1090027D01*
G01X2007854Y-1088209D01*
G01X2005127Y-1086391D01*
G01X2003006Y-1085179D01*
G01X2000884Y-1084270D01*
G01X1998460Y-1083361D01*
G01X1995430Y-1082451D01*
G01X1992703Y-1081845D01*
G01X1987854Y-1081239D01*
G01X1983309Y-1080936D01*
G01X1977551Y-1081239D01*
G01X1972703Y-1081845D01*
G01X1967854Y-1082755D01*
G01X1963915Y-1083967D01*
G01X1961188Y-1085179D01*
G01X1958763Y-1086391D01*
G01X1956642Y-1087603D01*
G01X1955127Y-1088512D01*
G01X1953612Y-1089724D01*
G01X1950581Y-1092754D01*
G01X1949369Y-1094270D01*
G01X1948157Y-1096088D01*
G01X1946945Y-1098209D01*
G01X1946036Y-1100330D01*
G01X1945127Y-1102754D01*
G01X1944218Y-1106088D01*
G01X1943612Y-1109118D01*
G01X1943309Y-1113664D01*
G01X1943612Y-1118209D01*
G01X1944218Y-1121845D01*
G01X1945127Y-1125785D01*
G01X1946339Y-1128512D01*
G01X1948460Y-1132754D01*
G01X1949672Y-1134270D01*
G01X1951187Y-1136088D01*
G01X1952703Y-1137603D01*
G01X1954218Y-1138815D01*
G01X1955733Y-1140330D01*
G01X1957854Y-1141845D01*
G01X1960278Y-1143057D01*
G01X1961794Y-1144270D01*
G01X1961642Y-1145103D01*
G01X1960581Y-1145785D01*
G01X1957854Y-1146997D01*
G01X1953612Y-1149421D01*
G01X1949975Y-1152451D01*
G01X1948460Y-1153967D01*
G01X1947248Y-1155482D01*
G01X1945430Y-1157603D01*
G01X1943915Y-1160027D01*
G01X1942703Y-1162452D01*
G01X1941490Y-1165179D01*
G01X1940581Y-1168209D01*
G01X1939975Y-1170936D01*
G01X1939369Y-1176997D01*
G01X1917955Y-1176997D01*
G01X1914218Y-1165785D01*
G01X1912400Y-1160936D01*
G01X1907854Y-1147300D01*
G01X1906036Y-1142451D01*
G01X1901490Y-1128815D01*
G01X1900278Y-1125785D01*
G01X1895430Y-1111239D01*
G01X1893006Y-1104573D01*
G01X1888157Y-1090027D01*
G01X1886945Y-1086997D01*
G01X1886036Y-1083967D01*
G01X1885733Y-1082148D01*
G01X1880884Y-1082148D01*
G01X1877400Y-1082376D01*
G01X1876642Y-1083058D01*
G01X1849672Y-1083058D01*
G01X1845430Y-1082451D01*
G01X1839975Y-1081845D01*
G01X1833612Y-1081542D01*
G01X1827248Y-1081845D01*
G01X1824824Y-1082148D01*
G01X1821793Y-1082451D01*
G01X1815733Y-1083664D01*
G01X1812399Y-1084573D01*
G01X1809066Y-1085785D01*
G01X1806339Y-1086997D01*
G01X1803612Y-1088512D01*
G01X1801490Y-1090027D01*
G01X1799975Y-1091239D01*
G01X1796945Y-1094270D01*
G01X1795127Y-1096391D01*
G01X1793612Y-1098815D01*
G01X1791793Y-1103057D01*
G01X1790884Y-1105785D01*
G01X1790278Y-1108512D01*
G01X1789975Y-1114270D01*
G01X1790278Y-1121845D01*
G01X1790884Y-1125482D01*
G01X1791490Y-1128512D01*
G01X1792400Y-1131845D01*
G01X1793309Y-1134270D01*
G01X1794218Y-1136391D01*
G01X1796642Y-1141239D01*
G01X1798157Y-1143663D01*
G01X1799975Y-1146391D01*
G01X1801187Y-1148512D01*
G01X1802399Y-1150027D01*
G01X1805430Y-1153664D01*
G01X1807551Y-1155785D01*
G01X1809369Y-1158209D01*
G01X1814521Y-1163361D01*
G01X1816945Y-1165179D01*
G01X1821490Y-1169724D01*
G01X1825127Y-1172755D01*
G01X1827248Y-1174876D01*
G01X1829672Y-1176694D01*
G01X1831187Y-1178209D01*
G01X1835430Y-1181845D01*
G01X1839066Y-1184876D01*
G01X1841187Y-1186997D01*
G01X1843612Y-1188815D01*
G01X1845127Y-1190330D01*
G01X1848157Y-1192755D01*
G01X1851187Y-1195785D01*
G01X1852703Y-1196997D01*
G01X1853915Y-1198209D01*
G01X1845733Y-1198891D01*
G01X1820581Y-1199118D01*
G01X1786945Y-1199118D01*
G01X1786945Y-1199118D01*
G01X1757594Y-1199118D01*
G01X1759672Y-1195482D01*
G01X1760884Y-1193058D01*
G01X1762097Y-1190027D01*
G01X1763309Y-1186694D01*
G01X1764521Y-1182452D01*
G01X1765430Y-1179421D01*
G01X1766642Y-1173361D01*
G01X1767248Y-1169118D01*
G01X1767854Y-1163664D01*
G01X1768157Y-1149421D01*
G01X1767854Y-1135179D01*
G01X1767551Y-1133057D01*
G01X1767248Y-1129724D01*
G01X1766642Y-1125482D01*
G01X1766036Y-1121845D01*
G01X1765430Y-1119421D01*
G01X1764824Y-1116391D01*
G01X1763915Y-1113057D01*
G01X1762097Y-1107603D01*
G01X1760884Y-1104573D01*
G01X1759369Y-1101239D01*
G01X1756339Y-1096391D01*
G01X1754824Y-1094270D01*
G01X1753612Y-1092754D01*
G01X1749066Y-1088209D01*
G01X1747551Y-1086997D01*
G01X1745430Y-1085785D01*
G01X1743006Y-1084573D01*
G01X1740884Y-1083664D01*
G01X1738460Y-1082755D01*
G01X1734824Y-1081845D01*
G01X1731490Y-1081239D01*
G01X1727551Y-1080936D01*
G01X1722399Y-1081239D01*
G01X1718763Y-1081845D01*
G01X1716339Y-1082451D01*
G01X1713612Y-1083058D01*
G01X1710884Y-1083967D01*
G01X1708460Y-1085179D01*
G01X1705733Y-1086694D01*
G01X1703612Y-1088209D01*
G01X1700581Y-1090633D01*
G01X1698460Y-1092754D01*
G01X1696642Y-1095179D01*
G01X1695127Y-1097300D01*
G01X1693612Y-1099724D01*
G01X1692399Y-1101845D01*
G01X1691187Y-1104270D01*
G01X1689975Y-1107300D01*
G01X1688763Y-1110633D01*
G01X1687551Y-1114573D01*
G01X1686642Y-1117603D01*
G01X1685430Y-1124270D01*
G01X1684824Y-1128512D01*
G01X1684218Y-1135179D01*
G01X1683915Y-1147300D01*
G01X1615362Y-1147300D01*
G01X1614521Y-1145785D01*
G01X1613308Y-1143360D01*
G01X1612399Y-1141239D01*
G01X1611490Y-1138815D01*
G01X1610581Y-1136088D01*
G01X1609672Y-1132754D01*
G01X1609066Y-1129724D01*
G01X1608460Y-1124876D01*
G01X1608157Y-1117603D01*
G01X1608460Y-1110330D01*
G01X1609672Y-1104876D01*
G01X1610581Y-1102148D01*
G01X1612096Y-1099118D01*
G01X1613308Y-1096997D01*
G01X1615127Y-1094876D01*
G01X1617854Y-1093058D01*
G01X1619975Y-1091845D01*
G01X1622399Y-1090936D01*
G01X1624824Y-1090330D01*
G01X1631490Y-1089724D01*
G01X1633005Y-1089724D01*
G01X1635127Y-1090027D01*
G01X1638763Y-1090330D01*
G01X1641793Y-1090936D01*
G01X1644521Y-1091542D01*
G01X1647551Y-1092451D01*
G01X1650278Y-1093664D01*
G01X1652703Y-1094876D01*
G01X1653460Y-1095936D01*
G01X1653915Y-1097906D01*
G01X1654824Y-1102451D01*
G01X1655733Y-1106088D01*
G01X1656642Y-1110633D01*
G01X1662703Y-1110633D01*
G01X1662703Y-1098815D01*
G01X1662096Y-1086088D01*
G01X1659369Y-1084876D01*
G01X1656339Y-1084270D01*
G01X1649672Y-1083058D01*
G01X1645430Y-1082451D01*
G01X1639975Y-1081845D01*
G01X1633612Y-1081542D01*
G01X1627248Y-1081845D01*
G01X1624824Y-1082148D01*
G01X1621793Y-1082451D01*
G01X1615733Y-1083664D01*
G01X1612399Y-1084573D01*
G01X1609066Y-1085785D01*
G01X1606339Y-1086997D01*
G01X1603611Y-1088512D01*
G01X1601490Y-1090027D01*
G01X1599975Y-1091239D01*
G01X1596945Y-1094270D01*
G01X1595127Y-1096391D01*
G01X1593611Y-1098815D01*
G01X1591793Y-1103057D01*
G01X1590884Y-1105785D01*
G01X1590278Y-1108512D01*
G01X1589975Y-1114270D01*
G01X1590278Y-1121845D01*
G01X1590884Y-1125482D01*
G01X1591490Y-1128512D01*
G01X1592399Y-1131845D01*
G01X1593308Y-1134270D01*
G01X1594218Y-1136391D01*
G01X1596642Y-1141239D01*
G01X1598157Y-1143663D01*
G01X1599975Y-1146391D01*
G01X1601187Y-1148512D01*
G01X1602399Y-1150027D01*
G01X1605430Y-1153664D01*
G01X1607551Y-1155785D01*
G01X1609369Y-1158209D01*
G01X1614521Y-1163361D01*
G01X1616945Y-1165179D01*
G01X1621490Y-1169724D01*
G01X1625127Y-1172755D01*
G01X1627248Y-1174876D01*
G01X1629672Y-1176694D01*
G01X1631187Y-1178209D01*
G01X1635430Y-1181845D01*
G01X1639066Y-1184876D01*
G01X1641187Y-1186997D01*
G01X1643612Y-1188815D01*
G01X1645127Y-1190330D01*
G01X1648157Y-1192755D01*
G01X1651187Y-1195785D01*
G01X1652703Y-1196997D01*
G01X1653915Y-1198209D01*
G01X1645733Y-1198891D01*
G01X1620581Y-1199118D01*
G01X1586945Y-1199118D01*
G01X1586945Y-1199118D01*
G01X1555473Y-1199118D01*
G01X1556339Y-1197906D01*
G01X1557854Y-1195482D01*
G01X1559066Y-1193361D01*
G01X1560278Y-1190936D01*
G01X1561490Y-1187906D01*
G01X1562702Y-1184573D01*
G01X1563612Y-1181845D01*
G01X1564824Y-1176997D01*
G01X1566036Y-1170936D01*
G01X1566642Y-1166088D01*
G01X1567248Y-1158815D01*
G01X1567551Y-1151845D01*
G01X1567248Y-1144876D01*
G01X1566642Y-1136997D01*
G01X1566036Y-1132148D01*
G01X1564218Y-1123057D01*
G01X1563309Y-1119724D01*
G01X1561490Y-1114270D01*
G01X1560278Y-1111542D01*
G01X1559066Y-1108512D01*
G01X1557854Y-1106088D01*
G01X1554824Y-1101239D01*
G01X1553612Y-1099421D01*
G01X1551187Y-1096391D01*
G01X1546036Y-1091239D01*
G01X1543612Y-1089421D01*
G01X1541793Y-1088209D01*
G01X1539369Y-1086694D01*
G01X1536339Y-1085179D01*
G01X1533308Y-1083967D01*
G01X1530278Y-1083058D01*
G01X1527854Y-1082451D01*
G01X1523005Y-1081845D01*
G01X1517551Y-1081542D01*
G01X1512096Y-1081845D01*
G01X1509369Y-1082148D01*
G01X1505430Y-1082451D01*
G01X1501187Y-1083058D01*
G01X1497551Y-1083664D01*
G01X1495127Y-1084270D01*
G01X1492096Y-1084876D01*
G01X1489975Y-1085179D01*
G01X1489975Y-1107603D01*
G01X1496642Y-1107603D01*
G01X1496945Y-1106088D01*
G01X1497854Y-1102451D01*
G01X1498763Y-1099421D01*
G01X1499369Y-1096694D01*
G01X1500581Y-1093967D01*
G01X1503308Y-1092451D01*
G01X1506036Y-1091542D01*
G01X1511490Y-1090330D01*
G01X1517248Y-1090027D01*
G01X1523611Y-1090330D01*
G01X1526036Y-1090936D01*
G01X1528460Y-1091845D01*
G01X1532702Y-1093967D01*
G01X1534218Y-1095179D01*
G01X1537248Y-1098209D01*
G01X1538460Y-1099724D01*
G01X1539672Y-1101542D01*
G01X1541187Y-1103967D01*
G01X1542703Y-1106997D01*
G01X1543915Y-1109724D01*
G01X1544824Y-1112148D01*
G01X1545733Y-1115482D01*
G01X1546642Y-1118209D01*
G01X1547854Y-1124270D01*
G01X1548460Y-1129118D01*
G01X1549066Y-1135179D01*
G01X1549369Y-1139421D01*
G01X1548763Y-1143057D01*
G01X1546642Y-1142754D01*
G01X1544218Y-1141542D01*
G01X1542096Y-1140633D01*
G01X1539672Y-1139724D01*
G01X1534218Y-1137906D01*
G01X1530884Y-1136997D01*
G01X1527854Y-1136391D01*
G01X1517854Y-1135482D01*
G01X1514520Y-1135785D01*
G01X1512399Y-1136088D01*
G01X1509672Y-1136391D01*
G01X1506642Y-1136997D01*
G01X1503308Y-1137906D01*
G01X1500278Y-1139118D01*
G01X1497854Y-1140330D01*
G01X1494217Y-1142754D01*
G01X1492399Y-1144270D01*
G01X1490884Y-1145785D01*
G01X1489066Y-1147906D01*
G01X1487248Y-1150633D01*
G01X1485733Y-1153664D01*
G01X1484521Y-1156694D01*
G01X1483611Y-1159724D01*
G01X1483005Y-1162452D01*
G01X1482399Y-1166694D01*
G01X1482096Y-1171846D01*
G01X1475430Y-1171846D01*
G01X1475430Y-1036088D01*
G01X2692400Y-1036088D01*
G01X2692400Y-1257300D01*
G01X1475430Y-1257300D01*
G37*
G36*
G01X1532096Y-1206088D02*
G01X1530278Y-1206997D01*
G01X1528157Y-1207603D01*
G01X1526642Y-1207906D01*
G01X1523005Y-1208209D01*
G01X1518763Y-1207906D01*
G01X1515733Y-1207300D01*
G01X1512702Y-1206391D01*
G01X1510581Y-1205482D01*
G01X1508763Y-1204270D01*
G01X1505733Y-1201239D01*
G01X1504520Y-1199724D01*
G01X1503611Y-1197906D01*
G01X1502702Y-1195785D01*
G01X1501793Y-1193058D01*
G01X1501187Y-1190330D01*
G01X1500581Y-1186088D01*
G01X1500278Y-1176694D01*
G01X1500581Y-1167300D01*
G01X1501187Y-1163058D01*
G01X1501793Y-1160330D01*
G01X1502702Y-1157300D01*
G01X1503914Y-1154573D01*
G01X1505127Y-1152451D01*
G01X1507551Y-1149421D01*
G01X1509369Y-1147906D01*
G01X1511793Y-1146694D01*
G01X1514217Y-1145785D01*
G01X1522096Y-1145179D01*
G01X1529672Y-1145482D01*
G01X1534521Y-1146088D01*
G01X1537551Y-1146694D01*
G01X1541793Y-1147603D01*
G01X1544824Y-1148512D01*
G01X1547551Y-1149118D01*
G01X1549369Y-1149421D01*
G01X1549369Y-1156391D01*
G01X1549066Y-1164270D01*
G01X1548460Y-1170936D01*
G01X1547854Y-1175179D01*
G01X1547248Y-1178815D01*
G01X1546339Y-1183664D01*
G01X1545127Y-1187906D01*
G01X1543915Y-1191239D01*
G01X1542703Y-1193967D01*
G01X1541187Y-1196997D01*
G01X1539369Y-1199724D01*
G01X1537854Y-1201845D01*
G01X1536339Y-1203361D01*
G01X1534218Y-1204876D01*
G01X1532096Y-1206088D01*
G37*
G36*
G01X1736945Y-1205482D02*
G01X1734218Y-1206997D01*
G01X1731793Y-1207603D01*
G01X1730278Y-1207906D01*
G01X1726945Y-1208209D01*
G01X1721793Y-1207603D01*
G01X1718460Y-1206391D01*
G01X1715733Y-1204876D01*
G01X1713612Y-1203058D01*
G01X1712096Y-1201542D01*
G01X1710581Y-1199724D01*
G01X1709369Y-1197906D01*
G01X1708157Y-1195785D01*
G01X1706945Y-1192755D01*
G01X1705733Y-1189118D01*
G01X1704824Y-1186088D01*
G01X1703612Y-1180027D01*
G01X1703005Y-1175179D01*
G01X1702399Y-1169118D01*
G01X1701793Y-1158209D01*
G01X1701490Y-1149118D01*
G01X1701793Y-1140027D01*
G01X1702399Y-1129118D01*
G01X1702702Y-1126694D01*
G01X1703005Y-1123057D01*
G01X1703612Y-1118815D01*
G01X1704218Y-1115179D01*
G01X1704824Y-1112148D01*
G01X1706036Y-1107300D01*
G01X1706945Y-1104573D01*
G01X1708157Y-1101845D01*
G01X1709672Y-1098815D01*
G01X1711187Y-1096694D01*
G01X1713005Y-1094573D01*
G01X1715127Y-1092451D01*
G01X1716642Y-1091239D01*
G01X1719066Y-1090027D01*
G01X1721793Y-1089118D01*
G01X1725430Y-1088815D01*
G01X1730278Y-1089118D01*
G01X1733915Y-1090027D01*
G01X1736339Y-1091239D01*
G01X1738460Y-1092451D01*
G01X1740278Y-1093967D01*
G01X1742096Y-1096391D01*
G01X1743915Y-1099118D01*
G01X1745127Y-1101845D01*
G01X1746339Y-1105179D01*
G01X1747248Y-1107906D01*
G01X1748460Y-1113967D01*
G01X1749066Y-1118209D01*
G01X1749672Y-1123663D01*
G01X1750278Y-1133360D01*
G01X1750581Y-1146997D01*
G01X1750278Y-1160633D01*
G01X1749672Y-1170330D01*
G01X1749369Y-1172452D01*
G01X1749066Y-1176391D01*
G01X1748460Y-1180633D01*
G01X1747248Y-1186694D01*
G01X1746036Y-1191542D01*
G01X1745127Y-1193967D01*
G01X1744218Y-1196088D01*
G01X1743006Y-1198512D01*
G01X1741793Y-1200633D01*
G01X1740581Y-1202148D01*
G01X1739066Y-1203664D01*
G01X1736945Y-1205482D01*
G37*
G36*
G01X1994218Y-1206391D02*
G01X1991491Y-1207300D01*
G01X1989066Y-1207603D01*
G01X1987248Y-1207906D01*
G01X1983006Y-1208209D01*
G01X1978157Y-1207906D01*
G01X1974521Y-1207300D01*
G01X1970885Y-1206391D01*
G01X1968460Y-1205179D01*
G01X1965733Y-1203664D01*
G01X1963612Y-1202148D01*
G01X1962097Y-1200633D01*
G01X1960885Y-1198815D01*
G01X1959066Y-1195179D01*
G01X1958157Y-1192452D01*
G01X1957551Y-1189724D01*
G01X1956945Y-1184270D01*
G01X1956642Y-1180633D01*
G01X1956945Y-1175179D01*
G01X1957551Y-1169724D01*
G01X1958460Y-1165179D01*
G01X1959672Y-1161542D01*
G01X1961188Y-1158512D01*
G01X1962703Y-1156391D01*
G01X1965733Y-1153361D01*
G01X1967854Y-1151845D01*
G01X1970582Y-1150633D01*
G01X1973915Y-1149724D01*
G01X1976945Y-1149118D01*
G01X1981491Y-1148815D01*
G01X1986036Y-1149118D01*
G01X1988460Y-1149421D01*
G01X1991794Y-1150027D01*
G01X1995127Y-1151239D01*
G01X1997248Y-1152451D01*
G01X1999066Y-1153664D01*
G01X2000581Y-1155179D01*
G01X2001794Y-1156694D01*
G01X2003309Y-1158815D01*
G01X2004521Y-1162149D01*
G01X2005430Y-1164876D01*
G01X2006036Y-1169118D01*
G01X2006339Y-1177906D01*
G01X2006036Y-1186694D01*
G01X2005733Y-1188815D01*
G01X2005127Y-1192148D01*
G01X2003915Y-1196088D01*
G01X2002400Y-1199421D01*
G01X2000278Y-1202148D01*
G01X1997551Y-1204573D01*
G01X1994218Y-1206391D01*
G37*
G36*
G01X1992703Y-1138512D02*
G01X1990278Y-1139421D01*
G01X1988157Y-1139724D01*
G01X1986642Y-1140027D01*
G01X1982703Y-1140330D01*
G01X1978157Y-1140027D01*
G01X1975430Y-1139421D01*
G01X1972097Y-1138512D01*
G01X1969672Y-1137300D01*
G01X1967248Y-1135482D01*
G01X1964824Y-1133057D01*
G01X1963612Y-1130936D01*
G01X1962703Y-1128815D01*
G01X1961794Y-1125785D01*
G01X1961188Y-1123057D01*
G01X1960885Y-1116391D01*
G01X1961188Y-1109118D01*
G01X1961794Y-1106088D01*
G01X1963006Y-1101239D01*
G01X1963915Y-1098815D01*
G01X1964824Y-1096997D01*
G01X1966036Y-1095482D01*
G01X1969066Y-1092451D01*
G01X1970885Y-1091239D01*
G01X1973612Y-1090027D01*
G01X1976339Y-1089118D01*
G01X1981491Y-1088815D01*
G01X1986642Y-1089118D01*
G01X1989369Y-1089724D01*
G01X1991794Y-1090633D01*
G01X1993915Y-1091845D01*
G01X1996036Y-1093361D01*
G01X1997551Y-1094876D01*
G01X1999066Y-1096997D01*
G01X2000278Y-1099724D01*
G01X2001188Y-1102451D01*
G01X2001794Y-1104876D01*
G01X2002400Y-1111542D01*
G01X2002703Y-1113967D01*
G01X2002400Y-1116391D01*
G01X2002097Y-1119421D01*
G01X2001794Y-1123057D01*
G01X2001188Y-1126088D01*
G01X2000278Y-1129421D01*
G01X1999066Y-1132148D01*
G01X1997854Y-1134270D01*
G01X1996339Y-1135785D01*
G01X1994824Y-1136997D01*
G01X1992703Y-1138512D01*
G37*
G54D10*
G01X2877312Y-3755390D02*
G01X2877312Y-3710686D01*
G01X2854960Y-3733038D02*
G01X2899664Y-3733038D01*
G01X2987802Y-3733038D02*
G01X3032506Y-3733038D01*
G54D12*
G01X441198Y-1407160D02*
G01X444246Y-1400810D01*
G01X450596Y-1394714D01*
G01X456692Y-1391666D01*
G01X469138Y-1391666D01*
G01X475234Y-1394714D01*
G01X481584Y-1400810D01*
G01X484632Y-1407160D01*
G01X487680Y-1416304D01*
G01X487680Y-1431798D01*
G01X484632Y-1441196D01*
G01X481584Y-1447292D01*
G01X475234Y-1453642D01*
G01X469138Y-1456690D01*
G01X456692Y-1456690D01*
G01X450596Y-1453642D01*
G01X444246Y-1447292D01*
G01X441198Y-1441196D01*
G01X410972Y-1404112D02*
G01X404876Y-1400810D01*
G01X395732Y-1391666D01*
G01X395732Y-1456690D01*
G01X1736598Y-6220460D02*
G01X1739646Y-6214110D01*
G01X1745996Y-6208014D01*
G01X1752092Y-6204966D01*
G01X1764538Y-6204966D01*
G01X1770634Y-6208014D01*
G01X1776984Y-6214110D01*
G01X1780032Y-6220460D01*
G01X1783080Y-6229604D01*
G01X1783080Y-6245098D01*
G01X1780032Y-6254496D01*
G01X1776984Y-6260592D01*
G01X1770634Y-6266942D01*
G01X1764538Y-6269990D01*
G01X1752092Y-6269990D01*
G01X1745996Y-6266942D01*
G01X1739646Y-6260592D01*
G01X1736598Y-6254496D01*
G01X1703324Y-6220460D02*
G01X1703324Y-6217412D01*
G01X1700276Y-6211062D01*
G01X1697228Y-6208014D01*
G01X1691132Y-6204966D01*
G01X1678686Y-6204966D01*
G01X1672336Y-6208014D01*
G01X1669288Y-6211062D01*
G01X1666240Y-6217412D01*
G01X1666240Y-6223508D01*
G01X1669288Y-6229604D01*
G01X1675638Y-6239002D01*
G01X1706372Y-6269990D01*
G01X1663192Y-6269990D01*
G01X1629918Y-6220460D02*
G01X1629918Y-6217412D01*
G01X1626870Y-6211062D01*
G01X1623822Y-6208014D01*
G01X1617726Y-6204966D01*
G01X1605280Y-6204966D01*
G01X1598930Y-6208014D01*
G01X1595882Y-6211062D01*
G01X1592834Y-6217412D01*
G01X1592834Y-6223508D01*
G01X1595882Y-6229604D01*
G01X1602232Y-6239002D01*
G01X1632966Y-6269990D01*
G01X1589786Y-6269990D01*
G01X1076198Y-5788660D02*
G01X1079246Y-5782310D01*
G01X1085596Y-5776214D01*
G01X1091692Y-5773166D01*
G01X1104138Y-5773166D01*
G01X1110234Y-5776214D01*
G01X1116584Y-5782310D01*
G01X1119632Y-5788660D01*
G01X1122680Y-5797804D01*
G01X1122680Y-5813298D01*
G01X1119632Y-5822696D01*
G01X1116584Y-5828792D01*
G01X1110234Y-5835142D01*
G01X1104138Y-5838190D01*
G01X1091692Y-5838190D01*
G01X1085596Y-5835142D01*
G01X1079246Y-5828792D01*
G01X1076198Y-5822696D01*
G01X1042924Y-5788660D02*
G01X1042924Y-5785612D01*
G01X1039876Y-5779262D01*
G01X1036828Y-5776214D01*
G01X1030732Y-5773166D01*
G01X1018286Y-5773166D01*
G01X1011936Y-5776214D01*
G01X1008888Y-5779262D01*
G01X1005840Y-5785612D01*
G01X1005840Y-5791708D01*
G01X1008888Y-5797804D01*
G01X1015238Y-5807202D01*
G01X1045972Y-5838190D01*
G01X1002792Y-5838190D01*
G01X966470Y-5773166D02*
G01X932434Y-5773166D01*
G01X950976Y-5797804D01*
G01X941832Y-5797804D01*
G01X935482Y-5800852D01*
G01X932434Y-5804154D01*
G01X929386Y-5813298D01*
G01X929386Y-5819648D01*
G01X932434Y-5828792D01*
G01X938530Y-5835142D01*
G01X947928Y-5838190D01*
G01X957326Y-5838190D01*
G01X966470Y-5835142D01*
G01X969518Y-5831840D01*
G01X972566Y-5825744D01*
G01X466598Y-1673860D02*
G01X469646Y-1667510D01*
G01X475996Y-1661414D01*
G01X482092Y-1658366D01*
G01X494538Y-1658366D01*
G01X500634Y-1661414D01*
G01X506984Y-1667510D01*
G01X510032Y-1673860D01*
G01X513080Y-1683004D01*
G01X513080Y-1698498D01*
G01X510032Y-1707896D01*
G01X506984Y-1713992D01*
G01X500634Y-1720342D01*
G01X494538Y-1723390D01*
G01X482092Y-1723390D01*
G01X475996Y-1720342D01*
G01X469646Y-1713992D01*
G01X466598Y-1707896D01*
G01X433324Y-1673860D02*
G01X433324Y-1670812D01*
G01X430276Y-1664462D01*
G01X427228Y-1661414D01*
G01X421132Y-1658366D01*
G01X408686Y-1658366D01*
G01X402336Y-1661414D01*
G01X399288Y-1664462D01*
G01X396240Y-1670812D01*
G01X396240Y-1676908D01*
G01X399288Y-1683004D01*
G01X405638Y-1692402D01*
G01X436372Y-1723390D01*
G01X393192Y-1723390D01*
G01X325882Y-1658366D02*
G01X356870Y-1658366D01*
G01X359918Y-1686052D01*
G01X356870Y-1683004D01*
G01X347726Y-1679956D01*
G01X338328Y-1679956D01*
G01X328930Y-1683004D01*
G01X322834Y-1689354D01*
G01X319786Y-1698498D01*
G01X319786Y-1704848D01*
G01X322834Y-1713992D01*
G01X328930Y-1720342D01*
G01X338328Y-1723390D01*
G01X347726Y-1723390D01*
G01X356870Y-1720342D01*
G01X359918Y-1717040D01*
G01X362966Y-1710944D01*
G01X3508634Y-3751577D02*
G01X3443610Y-3751577D01*
G01X3508634Y-3708143D02*
G01X3443610Y-3708143D01*
G01X3477646Y-3751577D02*
G01X3477646Y-3708143D01*
G01X3496188Y-3677917D02*
G01X3499490Y-3671821D01*
G01X3508634Y-3662677D01*
G01X3443610Y-3662677D01*
G01X291084Y-4515866D02*
G01X257048Y-4515866D01*
G01X275590Y-4540504D01*
G01X266192Y-4540504D01*
G01X260096Y-4543552D01*
G01X257048Y-4546854D01*
G01X253746Y-4555998D01*
G01X253746Y-4562348D01*
G01X257048Y-4571492D01*
G01X263144Y-4577842D01*
G01X272288Y-4580890D01*
G01X281686Y-4580890D01*
G01X291084Y-4577842D01*
G01X294132Y-4574540D01*
G01X297180Y-4568444D01*
G01X223520Y-4515866D02*
G01X198882Y-4580890D01*
G01X173990Y-4515866D02*
G01X198882Y-4580890D01*
G01X137668Y-4515866D02*
G01X103632Y-4515866D01*
G01X122174Y-4540504D01*
G01X113030Y-4540504D01*
G01X106680Y-4543552D01*
G01X103632Y-4546854D01*
G01X100584Y-4555998D01*
G01X100584Y-4562348D01*
G01X103632Y-4571492D01*
G01X109728Y-4577842D01*
G01X119126Y-4580890D01*
G01X128524Y-4580890D01*
G01X137668Y-4577842D01*
G01X140716Y-4574540D01*
G01X143764Y-4568444D01*
G01X1110234Y-6278880D02*
G01X1045210Y-6278880D01*
G01X1110234Y-6278880D02*
G01X1110234Y-6250940D01*
G01X1107186Y-6241796D01*
G01X1104138Y-6238748D01*
G01X1097788Y-6235446D01*
G01X1091692Y-6235446D01*
G01X1085596Y-6238748D01*
G01X1082548Y-6241796D01*
G01X1079246Y-6250940D01*
G01X1079246Y-6278880D01*
G01X1079246Y-6257290D02*
G01X1045210Y-6235446D01*
G01X1110234Y-6199124D02*
G01X1110234Y-6165088D01*
G01X1085596Y-6183630D01*
G01X1085596Y-6174486D01*
G01X1082548Y-6168136D01*
G01X1079246Y-6165088D01*
G01X1070102Y-6162040D01*
G01X1063752Y-6162040D01*
G01X1054608Y-6165088D01*
G01X1048258Y-6171184D01*
G01X1045210Y-6180582D01*
G01X1045210Y-6189980D01*
G01X1048258Y-6199124D01*
G01X1051560Y-6202172D01*
G01X1057656Y-6205220D01*
G01X1094740Y-6128766D02*
G01X1097788Y-6128766D01*
G01X1104138Y-6125718D01*
G01X1107186Y-6122670D01*
G01X1110234Y-6116574D01*
G01X1110234Y-6104128D01*
G01X1107186Y-6097778D01*
G01X1104138Y-6094730D01*
G01X1097788Y-6091682D01*
G01X1091692Y-6091682D01*
G01X1085596Y-6094730D01*
G01X1076198Y-6101080D01*
G01X1045210Y-6131814D01*
G01X1045210Y-6088634D01*
G01X297180Y-6433566D02*
G01X297180Y-6480048D01*
G01X294132Y-6489192D01*
G01X287782Y-6495542D01*
G01X278638Y-6498590D01*
G01X272288Y-6498590D01*
G01X263144Y-6495542D01*
G01X257048Y-6489192D01*
G01X253746Y-6480048D01*
G01X253746Y-6433566D01*
G01X223520Y-6446012D02*
G01X217424Y-6442710D01*
G01X208280Y-6433566D01*
G01X208280Y-6498590D01*
G01X1490726Y-1788160D02*
G01X1493774Y-1781810D01*
G01X1500124Y-1775714D01*
G01X1506220Y-1772666D01*
G01X1518666Y-1772666D01*
G01X1524762Y-1775714D01*
G01X1531112Y-1781810D01*
G01X1534160Y-1788160D01*
G01X1537208Y-1797304D01*
G01X1537208Y-1812798D01*
G01X1534160Y-1822196D01*
G01X1531112Y-1828292D01*
G01X1524762Y-1834642D01*
G01X1518666Y-1837690D01*
G01X1506220Y-1837690D01*
G01X1500124Y-1834642D01*
G01X1493774Y-1828292D01*
G01X1490726Y-1822196D01*
G01X1457452Y-1788160D02*
G01X1457452Y-1785112D01*
G01X1454404Y-1778762D01*
G01X1451356Y-1775714D01*
G01X1445260Y-1772666D01*
G01X1432814Y-1772666D01*
G01X1426464Y-1775714D01*
G01X1423416Y-1778762D01*
G01X1420368Y-1785112D01*
G01X1420368Y-1791208D01*
G01X1423416Y-1797304D01*
G01X1429766Y-1806702D01*
G01X1460500Y-1837690D01*
G01X1417320Y-1837690D01*
G01X1495298Y-1559560D02*
G01X1498346Y-1553210D01*
G01X1504696Y-1547114D01*
G01X1510792Y-1544066D01*
G01X1523238Y-1544066D01*
G01X1529334Y-1547114D01*
G01X1535684Y-1553210D01*
G01X1538732Y-1559560D01*
G01X1541780Y-1568704D01*
G01X1541780Y-1584198D01*
G01X1538732Y-1593596D01*
G01X1535684Y-1599692D01*
G01X1529334Y-1606042D01*
G01X1523238Y-1609090D01*
G01X1510792Y-1609090D01*
G01X1504696Y-1606042D01*
G01X1498346Y-1599692D01*
G01X1495298Y-1593596D01*
G01X1458976Y-1544066D02*
G01X1424940Y-1544066D01*
G01X1443482Y-1568704D01*
G01X1434338Y-1568704D01*
G01X1427988Y-1571752D01*
G01X1424940Y-1575054D01*
G01X1421892Y-1584198D01*
G01X1421892Y-1590548D01*
G01X1424940Y-1599692D01*
G01X1431036Y-1606042D01*
G01X1440434Y-1609090D01*
G01X1449832Y-1609090D01*
G01X1458976Y-1606042D01*
G01X1462024Y-1602740D01*
G01X1465072Y-1596644D01*
G01X1736598Y-1775460D02*
G01X1739646Y-1769110D01*
G01X1745996Y-1763014D01*
G01X1752092Y-1759966D01*
G01X1764538Y-1759966D01*
G01X1770634Y-1763014D01*
G01X1776984Y-1769110D01*
G01X1780032Y-1775460D01*
G01X1783080Y-1784604D01*
G01X1783080Y-1800098D01*
G01X1780032Y-1809496D01*
G01X1776984Y-1815592D01*
G01X1770634Y-1821942D01*
G01X1764538Y-1824990D01*
G01X1752092Y-1824990D01*
G01X1745996Y-1821942D01*
G01X1739646Y-1815592D01*
G01X1736598Y-1809496D01*
G01X1675638Y-1759966D02*
G01X1706372Y-1803146D01*
G01X1660144Y-1803146D01*
G01X1675638Y-1759966D02*
G01X1675638Y-1824990D01*
G01X627380Y-4960366D02*
G01X627380Y-5025390D01*
G01X627380Y-4960366D02*
G01X599440Y-4960366D01*
G01X590296Y-4963414D01*
G01X587248Y-4966462D01*
G01X583946Y-4972812D01*
G01X583946Y-4978908D01*
G01X587248Y-4985004D01*
G01X590296Y-4988052D01*
G01X599440Y-4991354D01*
G01X627380Y-4991354D01*
G01X605790Y-4991354D02*
G01X583946Y-5025390D01*
G01X553720Y-4972812D02*
G01X547624Y-4969510D01*
G01X538480Y-4960366D01*
G01X538480Y-5025390D01*
G01X2583180Y-4261866D02*
G01X2583180Y-4326890D01*
G01X2583180Y-4261866D02*
G01X2555240Y-4261866D01*
G01X2546096Y-4264914D01*
G01X2543048Y-4267962D01*
G01X2539746Y-4274312D01*
G01X2539746Y-4280408D01*
G01X2543048Y-4286504D01*
G01X2546096Y-4289552D01*
G01X2555240Y-4292854D01*
G01X2583180Y-4292854D01*
G01X2561590Y-4292854D02*
G01X2539746Y-4326890D01*
G01X2506472Y-4277360D02*
G01X2506472Y-4274312D01*
G01X2503424Y-4267962D01*
G01X2500376Y-4264914D01*
G01X2494280Y-4261866D01*
G01X2481834Y-4261866D01*
G01X2475484Y-4264914D01*
G01X2472436Y-4267962D01*
G01X2469388Y-4274312D01*
G01X2469388Y-4280408D01*
G01X2472436Y-4286504D01*
G01X2478786Y-4295902D01*
G01X2509520Y-4326890D01*
G01X2466340Y-4326890D01*
G01X995680Y-1137666D02*
G01X995680Y-1202690D01*
G01X995680Y-1137666D02*
G01X967740Y-1137666D01*
G01X958596Y-1140714D01*
G01X955548Y-1143762D01*
G01X952246Y-1150112D01*
G01X952246Y-1156208D01*
G01X955548Y-1162304D01*
G01X958596Y-1165352D01*
G01X967740Y-1168654D01*
G01X995680Y-1168654D01*
G01X974090Y-1168654D02*
G01X952246Y-1202690D01*
G01X915924Y-1137666D02*
G01X881888Y-1137666D01*
G01X900430Y-1162304D01*
G01X891286Y-1162304D01*
G01X884936Y-1165352D01*
G01X881888Y-1168654D01*
G01X878840Y-1177798D01*
G01X878840Y-1184148D01*
G01X881888Y-1193292D01*
G01X887984Y-1199642D01*
G01X897382Y-1202690D01*
G01X906780Y-1202690D01*
G01X915924Y-1199642D01*
G01X918972Y-1196340D01*
G01X922020Y-1190244D01*
G01X3154680Y-1925066D02*
G01X3154680Y-1990090D01*
G01X3154680Y-1925066D02*
G01X3126740Y-1925066D01*
G01X3117596Y-1928114D01*
G01X3114548Y-1931162D01*
G01X3111246Y-1937512D01*
G01X3111246Y-1943608D01*
G01X3114548Y-1949704D01*
G01X3117596Y-1952752D01*
G01X3126740Y-1956054D01*
G01X3154680Y-1956054D01*
G01X3133090Y-1956054D02*
G01X3111246Y-1990090D01*
G01X3050286Y-1925066D02*
G01X3081020Y-1968246D01*
G01X3034792Y-1968246D01*
G01X3050286Y-1925066D02*
G01X3050286Y-1990090D01*
G01X1770380Y-1531366D02*
G01X1770380Y-1596390D01*
G01X1770380Y-1531366D02*
G01X1742440Y-1531366D01*
G01X1733296Y-1534414D01*
G01X1730248Y-1537462D01*
G01X1726946Y-1543812D01*
G01X1726946Y-1549908D01*
G01X1730248Y-1556004D01*
G01X1733296Y-1559052D01*
G01X1742440Y-1562354D01*
G01X1770380Y-1562354D01*
G01X1748790Y-1562354D02*
G01X1726946Y-1596390D01*
G01X1659636Y-1531366D02*
G01X1690624Y-1531366D01*
G01X1693672Y-1559052D01*
G01X1690624Y-1556004D01*
G01X1681480Y-1552956D01*
G01X1672082Y-1552956D01*
G01X1662684Y-1556004D01*
G01X1656588Y-1562354D01*
G01X1653540Y-1571498D01*
G01X1653540Y-1577848D01*
G01X1656588Y-1586992D01*
G01X1662684Y-1593342D01*
G01X1672082Y-1596390D01*
G01X1681480Y-1596390D01*
G01X1690624Y-1593342D01*
G01X1693672Y-1590040D01*
G01X1696720Y-1583944D01*
G01X2989580Y-5811266D02*
G01X2989580Y-5857748D01*
G01X2986532Y-5866892D01*
G01X2980182Y-5873242D01*
G01X2971038Y-5876290D01*
G01X2964688Y-5876290D01*
G01X2955544Y-5873242D01*
G01X2949448Y-5866892D01*
G01X2946146Y-5857748D01*
G01X2946146Y-5811266D01*
G01X2909824Y-5811266D02*
G01X2875788Y-5811266D01*
G01X2894330Y-5835904D01*
G01X2885186Y-5835904D01*
G01X2878836Y-5838952D01*
G01X2875788Y-5842254D01*
G01X2872740Y-5851398D01*
G01X2872740Y-5857748D01*
G01X2875788Y-5866892D01*
G01X2881884Y-5873242D01*
G01X2891282Y-5876290D01*
G01X2900680Y-5876290D01*
G01X2909824Y-5873242D01*
G01X2912872Y-5869940D01*
G01X2915920Y-5863844D01*
G01X3014980Y-6509766D02*
G01X3014980Y-6556248D01*
G01X3011932Y-6565392D01*
G01X3005582Y-6571742D01*
G01X2996438Y-6574790D01*
G01X2990088Y-6574790D01*
G01X2980944Y-6571742D01*
G01X2974848Y-6565392D01*
G01X2971546Y-6556248D01*
G01X2971546Y-6509766D01*
G01X2910586Y-6509766D02*
G01X2941320Y-6552946D01*
G01X2895092Y-6552946D01*
G01X2910586Y-6509766D02*
G01X2910586Y-6574790D01*
G01X3053080Y-3588766D02*
G01X3053080Y-3653790D01*
G01X3053080Y-3588766D02*
G01X3025140Y-3588766D01*
G01X3015996Y-3591814D01*
G01X3012948Y-3594862D01*
G01X3009646Y-3601212D01*
G01X3009646Y-3610356D01*
G01X3012948Y-3616452D01*
G01X3015996Y-3619754D01*
G01X3025140Y-3622802D01*
G01X3053080Y-3622802D01*
G01X2979420Y-3588766D02*
G01X2964180Y-3653790D01*
G01X2948686Y-3588766D02*
G01X2964180Y-3653790D01*
G01X2948686Y-3588766D02*
G01X2933192Y-3653790D01*
G01X2917698Y-3588766D02*
G01X2933192Y-3653790D01*
G01X2887472Y-3588766D02*
G01X2887472Y-3653790D01*
G01X2887472Y-3588766D02*
G01X2859786Y-3588766D01*
G01X2850388Y-3591814D01*
G01X2847340Y-3594862D01*
G01X2844292Y-3601212D01*
G01X2844292Y-3607308D01*
G01X2847340Y-3613404D01*
G01X2850388Y-3616452D01*
G01X2859786Y-3619754D01*
G01X2887472Y-3619754D01*
G01X2865882Y-3619754D02*
G01X2844292Y-3653790D01*
G01X2869946Y-689610D02*
G01X2876296Y-683514D01*
G01X2885440Y-680466D01*
G01X2897886Y-680466D01*
G01X2907284Y-683514D01*
G01X2913380Y-689610D01*
G01X2913380Y-695960D01*
G01X2910332Y-702056D01*
G01X2907284Y-705104D01*
G01X2900934Y-708152D01*
G01X2882392Y-714502D01*
G01X2876296Y-717550D01*
G01X2873248Y-720598D01*
G01X2869946Y-726948D01*
G01X2869946Y-736092D01*
G01X2876296Y-742442D01*
G01X2885440Y-745490D01*
G01X2897886Y-745490D01*
G01X2907284Y-742442D01*
G01X2913380Y-736092D01*
G01X2839720Y-680466D02*
G01X2824480Y-745490D01*
G01X2808986Y-680466D02*
G01X2824480Y-745490D01*
G01X2808986Y-680466D02*
G01X2793492Y-745490D01*
G01X2777998Y-680466D02*
G01X2793492Y-745490D01*
G01X2726182Y-680466D02*
G01X2726182Y-745490D01*
G01X2747772Y-680466D02*
G01X2704592Y-680466D01*
G04 Text End*

G04 PolygonModel Start*
G01X917720Y-1665160D02*
G01X776719Y-1665160D01*
G01X776719Y-1484439D02*
G01X917720Y-1484439D01*
G01X932960Y-1499679D02*
G01X932960Y-1649920D01*
G01X555480Y-1665160D02*
G01X696481Y-1665160D01*
G01X696481Y-1484439D02*
G01X555480Y-1484439D01*
G01X540240Y-1499679D02*
G01X540240Y-1649920D01*
G01X917720Y-1484439D02*
G02X932960Y-1499679I0J-15240D01*
G01X932960Y-1649920D02*
G02X917720Y-1665160I-15240J0D01*
G01X555480Y-1484439D02*
G03X540240Y-1499679I0J-15240D01*
G01X540240Y-1649920D02*
G03X555480Y-1665160I15240J0D01*
G01X1779461Y-5762480D02*
G01X1779461Y-5903481D01*
G01X1598740Y-5903481D02*
G01X1598740Y-5762480D01*
G01X1613980Y-5747240D02*
G01X1764221Y-5747240D01*
G01X1779461Y-6124720D02*
G01X1779461Y-5983719D01*
G01X1598740Y-5983719D02*
G01X1598740Y-6124720D01*
G01X1613980Y-6139960D02*
G01X1764221Y-6139960D01*
G01X1598740Y-5762480D02*
G02X1613980Y-5747240I15240J0D01*
G01X1764221Y-5747240D02*
G02X1779461Y-5762480I0J-15240D01*
G01X1598740Y-6124720D02*
G03X1613980Y-6139960I15240J0D01*
G01X1764221Y-6139960D02*
G03X1779461Y-6124720I0J15240D01*
G01X1203579Y-5763440D02*
G01X1488821Y-5763440D01*
G01X1504061Y-5778680D02*
G01X1504061Y-5942180D01*
G01X1188339Y-5942180D02*
G01X1188339Y-5778680D01*
G01X1504061Y-6260920D02*
G01X1504061Y-6097420D01*
G01X1188339Y-6097420D02*
G01X1188339Y-6260920D01*
G01X1203579Y-6276160D02*
G01X1488821Y-6276160D01*
G01X1188339Y-5778680D02*
G02X1203579Y-5763440I15240J0D01*
G01X1488821Y-5763440D02*
G02X1504061Y-5778680I0J-15240D01*
G01X1188339Y-6260920D02*
G03X1203579Y-6276160I15240J0D01*
G01X1488821Y-6276160D02*
G03X1504061Y-6260920I0J15240D01*
G01X555480Y-1725739D02*
G01X696481Y-1725739D01*
G01X696481Y-1906460D02*
G01X555480Y-1906460D01*
G01X540240Y-1891220D02*
G01X540240Y-1740979D01*
G01X917720Y-1725739D02*
G01X776719Y-1725739D01*
G01X776719Y-1906460D02*
G01X917720Y-1906460D01*
G01X932960Y-1891220D02*
G01X932960Y-1740979D01*
G01X555480Y-1906460D02*
G02X540240Y-1891220I0J15240D01*
G01X540240Y-1740979D02*
G02X555480Y-1725739I15240J0D01*
G01X917720Y-1906460D02*
G03X932960Y-1891220I0J15240D01*
G01X932960Y-1740979D02*
G03X917720Y-1725739I-15240J0D01*
G54D13*
G01X3388898Y-2222503D02*
G01X3388898Y-3746497D01*
G01X3138902Y-3746497D02*
G01X3138902Y-2222503D01*
G01X3388898Y-2222503D02*
G01X3138902Y-2222503D01*
G01X3388898Y-3746497D02*
G01X3138902Y-3746497D01*
G01X3389000Y-3492497D02*
G01X3138902Y-3492497D01*
G01X254808Y-4642099D02*
G01X106799Y-4641101D01*
G01X240800Y-4831100D02*
G01X106799Y-4831100D01*
G01X106799Y-4641101D02*
G01X106799Y-4831103D01*
G01X479811Y-4832101D02*
G01X479811Y-4832096D01*
G01X479811Y-4832096D02*
G01X514805Y-4797102D01*
G01X479811Y-4642099D02*
G01X479811Y-4642104D01*
G01X479811Y-4642104D02*
G01X514805Y-4677098D01*
G01X354808Y-4642099D02*
G01X479811Y-4642099D01*
G01X354808Y-4832101D02*
G01X479811Y-4832101D01*
G01X514805Y-4677098D02*
G01X514805Y-4797102D01*
G01X274800Y-4687100D02*
G01X274800Y-4787100D01*
G01X274800Y-4737605D02*
G01X324800Y-4737605D01*
G01X1575608Y-6343899D02*
G01X1427599Y-6342901D01*
G01X1561600Y-6532900D02*
G01X1427599Y-6532900D01*
G01X1427599Y-6342901D02*
G01X1427599Y-6532903D01*
G01X1800611Y-6533901D02*
G01X1800611Y-6533896D01*
G01X1800611Y-6533896D02*
G01X1835605Y-6498902D01*
G01X1800611Y-6343899D02*
G01X1800611Y-6343904D01*
G01X1800611Y-6343904D02*
G01X1835605Y-6378898D01*
G01X1675608Y-6343899D02*
G01X1800611Y-6343899D01*
G01X1675608Y-6533901D02*
G01X1800611Y-6533901D01*
G01X1835605Y-6378898D02*
G01X1835605Y-6498902D01*
G01X1595600Y-6388900D02*
G01X1595600Y-6488900D01*
G01X1595600Y-6439405D02*
G01X1645600Y-6439405D01*
G54D12*
G01X1241420Y-6347191D02*
G01X1369913Y-6347191D01*
G01X1369913Y-6347191D02*
G01X1369913Y-6530609D01*
G01X1369913Y-6530609D02*
G01X1241420Y-6530609D01*
G01X1146180Y-6347191D02*
G01X1017687Y-6347191D01*
G01X1017687Y-6347191D02*
G01X1017687Y-6530609D01*
G01X1017687Y-6530609D02*
G01X1146180Y-6530609D01*
G01X421660Y-5852279D02*
G01X421660Y-6517521D01*
G01X421660Y-6517521D02*
G01X695940Y-6517521D01*
G01X695940Y-6517521D02*
G01X695940Y-5852279D01*
G01X695940Y-5852279D02*
G01X421660Y-5852279D01*
G54D13*
G01X2575784Y-3649520D02*
G01X2575784Y-3911605D01*
G01X2575784Y-3911605D02*
G01X2481296Y-3911605D01*
G01X2481296Y-2108205D02*
G01X2575784Y-2108205D01*
G01X2575784Y-2108205D02*
G01X2575784Y-2370292D01*
G01X647888Y-2108205D02*
G01X694068Y-2108205D01*
G01X694068Y-3911605D02*
G01X647888Y-3911605D01*
G01X647888Y-3911605D02*
G01X647888Y-2108205D01*
G01X20180Y-3909911D02*
G01X20180Y-2109914D01*
G01X650177Y-2109914D01*
G01X650177Y-3909911D01*
G01X20180Y-3909911D01*
G54D12*
G01X1362220Y-1906460D02*
G01X1221219Y-1906460D01*
G01X1221219Y-1725739D02*
G01X1362220Y-1725739D01*
G01X1377460Y-1740979D02*
G01X1377460Y-1891220D01*
G01X999980Y-1906460D02*
G01X1140981Y-1906460D01*
G01X1140981Y-1725739D02*
G01X999980Y-1725739D01*
G01X984740Y-1740979D02*
G01X984740Y-1891220D01*
G01X1362220Y-1725739D02*
G02X1377460Y-1740979I0J-15240D01*
G01X1377460Y-1891220D02*
G02X1362220Y-1906460I-15240J0D01*
G01X999980Y-1725739D02*
G03X984740Y-1740979I0J-15240D01*
G01X984740Y-1891220D02*
G03X999980Y-1906460I15240J0D01*
G01X999980Y-1484439D02*
G01X1140981Y-1484439D01*
G01X1140981Y-1665160D02*
G01X999980Y-1665160D01*
G01X984740Y-1649920D02*
G01X984740Y-1499679D01*
G01X1362220Y-1484439D02*
G01X1221219Y-1484439D01*
G01X1221219Y-1665160D02*
G01X1362220Y-1665160D01*
G01X1377460Y-1649920D02*
G01X1377460Y-1499679D01*
G01X999980Y-1665160D02*
G02X984740Y-1649920I0J15240D01*
G01X984740Y-1499679D02*
G02X999980Y-1484439I15240J0D01*
G01X1362220Y-1665160D02*
G03X1377460Y-1649920I0J15240D01*
G01X1377460Y-1499679D02*
G03X1362220Y-1484439I-15240J0D01*
G01X1850880Y-1700339D02*
G01X1991881Y-1700339D01*
G01X1991881Y-1881060D02*
G01X1850880Y-1881060D01*
G01X1835640Y-1865820D02*
G01X1835640Y-1715579D01*
G01X2213120Y-1700339D02*
G01X2072119Y-1700339D01*
G01X2072119Y-1881060D02*
G01X2213120Y-1881060D01*
G01X2228360Y-1865820D02*
G01X2228360Y-1715579D01*
G01X1850880Y-1881060D02*
G02X1835640Y-1865820I0J15240D01*
G01X1835640Y-1715579D02*
G02X1850880Y-1700339I15240J0D01*
G01X2213120Y-1881060D02*
G03X2228360Y-1865820I0J15240D01*
G01X2228360Y-1715579D02*
G03X2213120Y-1700339I-15240J0D01*
G01X257180Y-5095509D02*
G01X128687Y-5095509D01*
G01X128687Y-5095509D02*
G01X128687Y-4912091D01*
G01X128687Y-4912091D02*
G01X257180Y-4912091D01*
G01X352420Y-5095509D02*
G01X480913Y-5095509D01*
G01X480913Y-5095509D02*
G01X480913Y-4912091D01*
G01X480913Y-4912091D02*
G01X352420Y-4912091D01*
G01X2415809Y-4441820D02*
G01X2415809Y-4570313D01*
G01X2415809Y-4570313D02*
G01X2232391Y-4570313D01*
G01X2232391Y-4570313D02*
G01X2232391Y-4441820D01*
G01X2415809Y-4346580D02*
G01X2415809Y-4218087D01*
G01X2415809Y-4218087D02*
G01X2232391Y-4218087D01*
G01X2232391Y-4218087D02*
G01X2232391Y-4346580D01*
G01X904880Y-1437909D02*
G01X776387Y-1437909D01*
G01X776387Y-1437909D02*
G01X776387Y-1254491D01*
G01X776387Y-1254491D02*
G01X904880Y-1254491D01*
G01X1000120Y-1437909D02*
G01X1128613Y-1437909D01*
G01X1128613Y-1437909D02*
G01X1128613Y-1254491D01*
G01X1128613Y-1254491D02*
G01X1000120Y-1254491D01*
G01X3197591Y-1908180D02*
G01X3197591Y-1779687D01*
G01X3197591Y-1779687D02*
G01X3381009Y-1779687D01*
G01X3381009Y-1779687D02*
G01X3381009Y-1908180D01*
G01X3197591Y-2003420D02*
G01X3197591Y-2131913D01*
G01X3197591Y-2131913D02*
G01X3381009Y-2131913D01*
G01X3381009Y-2131913D02*
G01X3381009Y-2003420D01*
G01X1971680Y-1641109D02*
G01X1843187Y-1641109D01*
G01X1843187Y-1641109D02*
G01X1843187Y-1457691D01*
G01X1843187Y-1457691D02*
G01X1971680Y-1457691D01*
G01X2066920Y-1641109D02*
G01X2195413Y-1641109D01*
G01X2195413Y-1641109D02*
G01X2195413Y-1457691D01*
G01X2195413Y-1457691D02*
G01X2066920Y-1457691D01*
G54D13*
G01X3468921Y-1482301D02*
G01X3608878Y-1482301D01*
G01X3608878Y-1482301D02*
G01X3608878Y-1183599D01*
G01X3608878Y-1183599D02*
G01X3468921Y-1183599D01*
G01X3468921Y-1183599D02*
G01X3608878Y-1183599D01*
G01X3468812Y-968505D02*
G01X3468812Y-1698506D01*
G01X3104896Y-1698506D02*
G01X3104896Y-968505D01*
G01X3468812Y-968505D02*
G01X3085927Y-968505D01*
G01X3468812Y-1698506D02*
G01X3085927Y-1698506D01*
G54D12*
G01X3165480Y-6035309D02*
G01X3036987Y-6035309D01*
G01X3036987Y-6035309D02*
G01X3036987Y-5851891D01*
G01X3036987Y-5851891D02*
G01X3165480Y-5851891D01*
G01X3260720Y-6035309D02*
G01X3389213Y-6035309D01*
G01X3389213Y-6035309D02*
G01X3389213Y-5851891D01*
G01X3389213Y-5851891D02*
G01X3260720Y-5851891D01*
G01X3165480Y-6556009D02*
G01X3036987Y-6556009D01*
G01X3036987Y-6556009D02*
G01X3036987Y-6372591D01*
G01X3036987Y-6372591D02*
G01X3165480Y-6372591D01*
G01X3260720Y-6556009D02*
G01X3389213Y-6556009D01*
G01X3389213Y-6556009D02*
G01X3389213Y-6372591D01*
G01X3389213Y-6372591D02*
G01X3260720Y-6372591D01*
G54D13*
G01X1968492Y-6337295D02*
G01X1968492Y-6137900D01*
G01X1968492Y-6680197D02*
G01X1968492Y-6532900D01*
G01X2875691Y-6336982D02*
G01X2875691Y-6138210D01*
G01X2875691Y-6695097D02*
G01X2875691Y-6533213D01*
G01X1975693Y-6695097D02*
G01X2875691Y-6695097D01*
G01X3213095Y-5054608D02*
G01X3013700Y-5054608D01*
G01X3555997Y-5054608D02*
G01X3408700Y-5054608D01*
G01X3212783Y-4147409D02*
G01X3014010Y-4147409D01*
G01X3570897Y-4147409D02*
G01X3409013Y-4147409D01*
G01X3570897Y-5047407D02*
G01X3570897Y-4147409D01*
G54D14*
G01X3390900Y-4051300D02*
G01X3390900Y-3797300D01*
G01X3390900Y-3797300D02*
G01X2882900Y-3797300D01*
G01X2882900Y-3797300D02*
G01X2882900Y-4051300D01*
G01X2882900Y-4051300D02*
G01X3073400Y-4051300D01*
G54D10*
G01X3390900Y-4051300D02*
G01X3073400Y-4051300D01*
G54D14*
G01X2946400Y-609600D02*
G01X2946400Y-863600D01*
G01X2946400Y-863600D02*
G01X3454400Y-863600D01*
G01X3454400Y-863600D02*
G01X3454400Y-609600D01*
G01X3454400Y-609600D02*
G01X3263900Y-609600D01*
G54D10*
G01X2946400Y-609600D02*
G01X3263900Y-609600D01*

M02*

