G04 Layer: TopLayer*
G04 EasyEDA Pro v3.2.149, 2026-09-26 09:59:38*
G04 Gerber Generator version 0.3*
G04 Scale: 100 percent, Rotated: No, Reflected: No*
G04 Dimensions in millimeters*
G04 Leading zeros omitted, absolute positions, 4 integers and 5 decimals*
G04 Generated by one-click*
G04 Object Configs: Pad,Via,Track,Text,Image,Dimension,BoardOutline,BoardCutout,CopperFilled,SolidRegion,FPCStiffener,Line,PlaneZone,ComponentProperty,ComponentSilkscreen,TearDrop*
G04 Layer Configs: 1,2,3,4,5,6,7,8,9,10,11,13,14,56*
G04 Copper Areas: 69*
%FSLAX45Y45*%
%MOMM*%
%ADD10C,0.2032*%
%ADD11C,0.254*%
%ADD12C,1.8*%
%ADD13R,1.8X1.8*%
%ADD14R,1.0X1.25001*%
%ADD15C,2.5085*%
%ADD16C,2.49999*%
%ADD17C,1.524*%
%ADD18O,1.1X2.0*%
%ADD19O,1.2X1.8*%
%ADD20C,5.0*%
%ADD21R,1.778X1.778*%
%ADD22C,1.778*%
%ADD23R,1.13254X1.37701*%
%ADD24O,2.0X1.1*%
%ADD25O,1.8X1.2*%
%ADD26R,2.0X2.0*%
%ADD27C,2.0*%
%ADD28C,0.61*%
%ADD29C,0.6*%
%ADD30C,0.256*%
G75*


G04 Copper Start*
G36*
G01X51114Y-6572486D02*
G01X51114Y-6405103D01*
G01X1897388Y-6405103D01*
G01X1897388Y-6465103D01*
G01X1899229Y-6483795D01*
G01X1904681Y-6501769D01*
G01X1913535Y-6518334D01*
G01X1925451Y-6532853D01*
G01X1939970Y-6544769D01*
G01X1956535Y-6553623D01*
G01X1974509Y-6559075D01*
G01X1993202Y-6560917D01*
G01X2011894Y-6559075D01*
G01X2029868Y-6553623D01*
G01X2046433Y-6544769D01*
G01X2060952Y-6532853D01*
G01X2072868Y-6518334D01*
G01X2081722Y-6501769D01*
G01X2087174Y-6483795D01*
G01X2089015Y-6465103D01*
G01X2089015Y-6465103D01*
G01X2089015Y-6405103D01*
G01X2762385Y-6405103D01*
G01X2762385Y-6465103D01*
G01X2764226Y-6483795D01*
G01X2769678Y-6501769D01*
G01X2778532Y-6518334D01*
G01X2790448Y-6532853D01*
G01X2804967Y-6544769D01*
G01X2821532Y-6553623D01*
G01X2839506Y-6559075D01*
G01X2858199Y-6560917D01*
G01X2876891Y-6559075D01*
G01X2894865Y-6553623D01*
G01X2911430Y-6544769D01*
G01X2925949Y-6532853D01*
G01X2937865Y-6518334D01*
G01X2946719Y-6501769D01*
G01X2952171Y-6483795D01*
G01X2954012Y-6465103D01*
G01X2954012Y-6465103D01*
G01X2954012Y-6405103D01*
G01X2952171Y-6386410D01*
G01X2946719Y-6368436D01*
G01X2937865Y-6351871D01*
G01X2925949Y-6337352D01*
G01X2911430Y-6325436D01*
G01X2894865Y-6316582D01*
G01X2876891Y-6311130D01*
G01X2858199Y-6309289D01*
G01X2839506Y-6311130D01*
G01X2821532Y-6316582D01*
G01X2804967Y-6325436D01*
G01X2790448Y-6337352D01*
G01X2778532Y-6351871D01*
G01X2769678Y-6368436D01*
G01X2764226Y-6386410D01*
G01X2762385Y-6405103D01*
G01X2089015Y-6405103D01*
G01X2087174Y-6386410D01*
G01X2081722Y-6368436D01*
G01X2072868Y-6351871D01*
G01X2060952Y-6337352D01*
G01X2046433Y-6325436D01*
G01X2029868Y-6316582D01*
G01X2011894Y-6311130D01*
G01X1993202Y-6309289D01*
G01X1974509Y-6311130D01*
G01X1956535Y-6316582D01*
G01X1939970Y-6325436D01*
G01X1925451Y-6337352D01*
G01X1913535Y-6351871D01*
G01X1904681Y-6368436D01*
G01X1899229Y-6386410D01*
G01X1897388Y-6405103D01*
G01X51114Y-6405103D01*
G01X51114Y-6185889D01*
G01X2217174Y-6185889D01*
G01X2217174Y-6310890D01*
G01X2218926Y-6321957D01*
G01X2224013Y-6331941D01*
G01X2231937Y-6339864D01*
G01X2241920Y-6344951D01*
G01X2252988Y-6346704D01*
G01X2352987Y-6346704D01*
G01X2364055Y-6344951D01*
G01X2374038Y-6339864D01*
G01X2381962Y-6331941D01*
G01X2387049Y-6321957D01*
G01X2388801Y-6310890D01*
G01X2388801Y-6185889D01*
G01X2388801Y-6185889D01*
G01X2387049Y-6174822D01*
G01X2381962Y-6164838D01*
G01X2374038Y-6156915D01*
G01X2364055Y-6151828D01*
G01X2352987Y-6150075D01*
G01X2252988Y-6150075D01*
G01X2241920Y-6151828D01*
G01X2231937Y-6156915D01*
G01X2224013Y-6164838D01*
G01X2218926Y-6174822D01*
G01X2217174Y-6185889D01*
G01X51114Y-6185889D01*
G01X51114Y-5970088D01*
G01X1902388Y-5970088D01*
G01X1902388Y-6060088D01*
G01X1904306Y-6078657D01*
G01X1909981Y-6096441D01*
G01X1919172Y-6112689D01*
G01X1931492Y-6126714D01*
G01X1946418Y-6137925D01*
G01X1963322Y-6145846D01*
G01X1981488Y-6150143D01*
G01X2000149Y-6150636D01*
G01X2018516Y-6147302D01*
G01X2035814Y-6140284D01*
G01X2051311Y-6129876D01*
G01X2064353Y-6116520D01*
G01X2074389Y-6100780D01*
G01X2083696Y-6114085D01*
G01X2095790Y-6124920D01*
G01X2110033Y-6132716D01*
G01X2125678Y-6137062D01*
G01X2141902Y-6137730D01*
G01X2157852Y-6134686D01*
G01X2172688Y-6128088D01*
G01X2185632Y-6118285D01*
G01X2196003Y-6105790D01*
G01X2203254Y-6091262D01*
G01X2207006Y-6075464D01*
G01X2207006Y-6075464D01*
G01X2207061Y-6059227D01*
G01X2203416Y-6043404D01*
G01X2196263Y-6028827D01*
G01X2185977Y-6016263D01*
G01X2173100Y-6006372D01*
G01X2158308Y-5999674D01*
G01X2142380Y-5996522D01*
G01X2126152Y-5997080D01*
G01X2110478Y-6001320D01*
G01X2096182Y-6009020D01*
G01X2084015Y-6019773D01*
G01X2084015Y-5970088D01*
G01X2082031Y-5951207D01*
G01X2076164Y-5933151D01*
G01X2066671Y-5916709D01*
G01X2053968Y-5902601D01*
G01X2038608Y-5891441D01*
G01X2021265Y-5883719D01*
G01X2002694Y-5879772D01*
G01X1983709Y-5879772D01*
G01X1965138Y-5883719D01*
G01X1947795Y-5891441D01*
G01X1932435Y-5902601D01*
G01X1919732Y-5916709D01*
G01X1910239Y-5933151D01*
G01X1904372Y-5951207D01*
G01X1902388Y-5970088D01*
G01X51114Y-5970088D01*
G01X51114Y-5619284D01*
G01X66188Y-5649831D01*
G01X84790Y-5678367D01*
G01X106654Y-5704488D01*
G01X131471Y-5727822D01*
G01X158887Y-5748038D01*
G01X188514Y-5764848D01*
G01X219930Y-5778015D01*
G01X252689Y-5787350D01*
G01X286327Y-5792722D01*
G01X320364Y-5794054D01*
G01X354319Y-5791327D01*
G01X387708Y-5784579D01*
G01X420056Y-5773908D01*
G01X450906Y-5759463D01*
G01X479818Y-5741451D01*
G01X506382Y-5720127D01*
G01X530220Y-5695795D01*
G01X550994Y-5668799D01*
G01X568409Y-5639524D01*
G01X582217Y-5608384D01*
G01X592223Y-5575823D01*
G01X598284Y-5542303D01*
G01X600314Y-5508300D01*
G01X598284Y-5474297D01*
G01X592223Y-5440777D01*
G01X582217Y-5408215D01*
G01X568409Y-5377076D01*
G01X550994Y-5347801D01*
G01X530220Y-5320805D01*
G01X506382Y-5296472D01*
G01X479818Y-5275149D01*
G01X450906Y-5257137D01*
G01X420056Y-5242692D01*
G01X387708Y-5232021D01*
G01X354319Y-5225273D01*
G01X320364Y-5222546D01*
G01X286327Y-5223878D01*
G01X252689Y-5229249D01*
G01X219930Y-5238585D01*
G01X188514Y-5251751D01*
G01X158887Y-5268562D01*
G01X131471Y-5288778D01*
G01X106654Y-5312112D01*
G01X84790Y-5338232D01*
G01X66188Y-5366769D01*
G01X51114Y-5397315D01*
G01X51114Y-4557334D01*
G01X632686Y-3975761D01*
G01X632686Y-4424171D01*
G01X632655Y-4440177D01*
G01X636461Y-4455724D01*
G01X643880Y-4469906D01*
G01X654482Y-4481898D01*
G01X667648Y-4491000D01*
G01X682611Y-4496682D01*
G01X698500Y-4498614D01*
G01X714389Y-4496682D01*
G01X729352Y-4491000D01*
G01X742518Y-4481898D01*
G01X753120Y-4469906D01*
G01X760539Y-4455724D01*
G01X764345Y-4440177D01*
G01X764314Y-4424171D01*
G01X764314Y-3957525D01*
G01X769485Y-3942103D01*
G01X772622Y-3926143D01*
G01X773674Y-3909911D01*
G01X773674Y-3908029D01*
G01X822782Y-3908029D01*
G01X823736Y-3923356D01*
G01X828190Y-3938053D01*
G01X835906Y-3951331D01*
G01X846468Y-3962478D01*
G01X859311Y-3970897D01*
G01X873747Y-3976136D01*
G01X889000Y-3977914D01*
G01X904253Y-3976136D01*
G01X918689Y-3970897D01*
G01X931532Y-3962478D01*
G01X942094Y-3951331D01*
G01X949810Y-3938053D01*
G01X954264Y-3923356D01*
G01X955218Y-3908029D01*
G01X952621Y-3892894D01*
G01X946612Y-3878761D01*
G01X937514Y-3866390D01*
G01X937514Y-2953795D01*
G01X1381550Y-2509759D01*
G01X1389260Y-2499711D01*
G01X1394107Y-2488011D01*
G01X1395760Y-2475454D01*
G01X1395760Y-943346D01*
G01X1403114Y-932665D01*
G01X1408249Y-920757D01*
G01X1410968Y-908077D01*
G01X1894586Y-1391695D01*
G01X1894586Y-3231105D01*
G01X1756395Y-3369295D01*
G01X1748686Y-3379343D01*
G01X1743839Y-3391044D01*
G01X1742186Y-3403600D01*
G01X1742186Y-3855789D01*
G01X1730925Y-3864893D01*
G01X1721909Y-3876225D01*
G01X1715568Y-3889244D01*
G01X1712204Y-3903328D01*
G01X1711977Y-3917808D01*
G01X1714899Y-3931991D01*
G01X1720829Y-3945202D01*
G01X1729486Y-3956810D01*
G01X1729486Y-4005805D01*
G01X1299195Y-4436096D01*
G01X1291485Y-4446143D01*
G01X1286639Y-4457844D01*
G01X1284986Y-4470400D01*
G01X1284986Y-5443409D01*
G01X1266103Y-5453365D01*
G01X1249195Y-5466396D01*
G01X1234756Y-5482120D01*
G01X1223211Y-5500076D01*
G01X1214897Y-5519737D01*
G01X1210058Y-5540529D01*
G01X1208836Y-5561841D01*
G01X1211266Y-5583049D01*
G01X1217277Y-5603532D01*
G01X1226694Y-5622690D01*
G01X1239240Y-5639962D01*
G01X1254547Y-5654840D01*
G01X1272168Y-5666891D01*
G01X1291585Y-5675759D01*
G01X1312231Y-5681187D01*
G01X1333500Y-5683014D01*
G01X1354768Y-5681187D01*
G01X1375414Y-5675759D01*
G01X1394832Y-5666891D01*
G01X1412452Y-5654840D01*
G01X1427760Y-5639962D01*
G01X1440305Y-5622690D01*
G01X1449722Y-5603532D01*
G01X1455733Y-5583049D01*
G01X1458163Y-5561841D01*
G01X1458114Y-5560973D01*
G01X1462814Y-5560973D01*
G01X1465115Y-5582292D01*
G01X1471034Y-5602902D01*
G01X1480396Y-5622194D01*
G01X1492925Y-5639596D01*
G01X1508249Y-5654595D01*
G01X1525916Y-5666748D01*
G01X1545404Y-5675694D01*
G01X1566136Y-5681170D01*
G01X1587499Y-5683014D01*
G01X1608863Y-5681170D01*
G01X1629595Y-5675695D01*
G01X1649083Y-5666748D01*
G01X1666750Y-5654596D01*
G01X1682075Y-5639597D01*
G01X1694603Y-5622194D01*
G01X1703965Y-5602903D01*
G01X1709884Y-5582293D01*
G01X1712185Y-5560973D01*
G01X1712012Y-5558300D01*
G01X1716786Y-5558300D01*
G01X1718680Y-5579956D01*
G01X1724307Y-5600954D01*
G01X1733494Y-5620657D01*
G01X1745963Y-5638464D01*
G01X1761335Y-5653836D01*
G01X1779143Y-5666305D01*
G01X1798845Y-5675493D01*
G01X1819843Y-5681119D01*
G01X1841500Y-5683014D01*
G01X1841500Y-5683014D01*
G01X1863156Y-5681119D01*
G01X1884154Y-5675493D01*
G01X1903857Y-5666305D01*
G01X1921664Y-5653836D01*
G01X1937036Y-5638464D01*
G01X1949505Y-5620657D01*
G01X1958693Y-5600954D01*
G01X1964319Y-5579956D01*
G01X1966214Y-5558300D01*
G01X1964319Y-5536643D01*
G01X1958693Y-5515645D01*
G01X1949505Y-5495943D01*
G01X1937036Y-5478135D01*
G01X1928301Y-5469400D01*
G01X1970786Y-5469400D01*
G01X1970786Y-5647200D01*
G01X1972539Y-5658267D01*
G01X1977626Y-5668251D01*
G01X1985549Y-5676174D01*
G01X1995533Y-5681261D01*
G01X2006600Y-5683014D01*
G01X2184400Y-5683014D01*
G01X2195467Y-5681261D01*
G01X2205451Y-5676174D01*
G01X2213374Y-5668251D01*
G01X2218461Y-5658267D01*
G01X2220214Y-5647200D01*
G01X2220214Y-5469400D01*
G01X2220214Y-5469400D01*
G01X2218461Y-5458333D01*
G01X2213374Y-5448349D01*
G01X2205451Y-5440426D01*
G01X2195467Y-5435339D01*
G01X2184400Y-5433586D01*
G01X2006600Y-5433586D01*
G01X1995533Y-5435339D01*
G01X1985549Y-5440426D01*
G01X1977626Y-5448349D01*
G01X1972539Y-5458333D01*
G01X1970786Y-5469400D01*
G01X1928301Y-5469400D01*
G01X1921664Y-5462763D01*
G01X1903857Y-5450294D01*
G01X1884154Y-5441107D01*
G01X1863156Y-5435480D01*
G01X1841500Y-5433586D01*
G01X1819843Y-5435480D01*
G01X1798845Y-5441107D01*
G01X1779143Y-5450294D01*
G01X1761335Y-5462763D01*
G01X1745963Y-5478135D01*
G01X1733494Y-5495943D01*
G01X1724307Y-5515645D01*
G01X1718680Y-5536643D01*
G01X1716786Y-5558300D01*
G01X1712012Y-5558300D01*
G01X1710800Y-5539575D01*
G01X1705770Y-5518730D01*
G01X1697243Y-5499055D01*
G01X1685472Y-5481131D01*
G01X1670805Y-5465489D01*
G01X1653675Y-5452591D01*
G01X1653773Y-5450636D01*
G01X1672605Y-5431805D01*
G01X1680314Y-5421757D01*
G01X1685161Y-5410056D01*
G01X1686814Y-5397500D01*
G01X1686814Y-4920251D01*
G01X1750659Y-4920251D01*
G01X1752412Y-4931318D01*
G01X1757499Y-4941301D01*
G01X1765422Y-4949225D01*
G01X1775406Y-4954312D01*
G01X1786473Y-4956065D01*
G01X1899727Y-4956065D01*
G01X1910794Y-4954312D01*
G01X1920778Y-4949225D01*
G01X1928701Y-4941301D01*
G01X1933788Y-4931318D01*
G01X1935541Y-4920251D01*
G01X1935541Y-4782549D01*
G01X1933788Y-4771482D01*
G01X1928701Y-4761499D01*
G01X1920778Y-4753575D01*
G01X1910794Y-4748488D01*
G01X1899727Y-4746735D01*
G01X1786473Y-4746735D01*
G01X1775406Y-4748488D01*
G01X1765422Y-4753575D01*
G01X1757499Y-4761499D01*
G01X1752412Y-4771482D01*
G01X1750659Y-4782549D01*
G01X1750659Y-4920251D01*
G01X1750659Y-4920251D01*
G01X1686814Y-4920251D01*
G01X1686814Y-4666251D01*
G01X1750659Y-4666251D01*
G01X1752412Y-4677318D01*
G01X1757499Y-4687301D01*
G01X1765422Y-4695225D01*
G01X1775406Y-4700312D01*
G01X1786473Y-4702065D01*
G01X1899727Y-4702065D01*
G01X1910794Y-4700312D01*
G01X1920778Y-4695225D01*
G01X1928701Y-4687301D01*
G01X1933788Y-4677318D01*
G01X1935541Y-4666251D01*
G01X1935541Y-4528549D01*
G01X1950659Y-4528549D01*
G01X1950659Y-4666251D01*
G01X1952412Y-4677318D01*
G01X1957499Y-4687301D01*
G01X1965422Y-4695225D01*
G01X1975406Y-4700312D01*
G01X1986473Y-4702065D01*
G01X2079014Y-4702065D01*
G01X2084925Y-4707975D01*
G01X2094459Y-4715388D01*
G01X2105527Y-4720222D01*
G01X2079014Y-4746735D01*
G01X1986473Y-4746735D01*
G01X1975406Y-4748488D01*
G01X1965422Y-4753575D01*
G01X1957499Y-4761499D01*
G01X1952412Y-4771482D01*
G01X1950659Y-4782549D01*
G01X1950659Y-4920251D01*
G01X1952412Y-4931318D01*
G01X1957499Y-4941301D01*
G01X1965422Y-4949225D01*
G01X1975406Y-4954312D01*
G01X1986473Y-4956065D01*
G01X2099727Y-4956065D01*
G01X2110794Y-4954312D01*
G01X2120778Y-4949225D01*
G01X2128701Y-4941301D01*
G01X2133788Y-4931318D01*
G01X2135541Y-4920251D01*
G01X2135541Y-4827710D01*
G01X2202936Y-4760314D01*
G01X2398426Y-4760314D01*
G01X2390534Y-4773594D01*
G01X2385929Y-4788339D01*
G01X2384861Y-4803750D01*
G01X2387387Y-4818990D01*
G01X2393370Y-4833231D01*
G01X2402486Y-4845703D01*
G01X2402486Y-5334000D01*
G01X2402486Y-5334000D01*
G01X2404143Y-5346582D01*
G01X2408999Y-5358307D01*
G01X2416725Y-5368375D01*
G01X2674520Y-5626171D01*
G01X2488698Y-5811993D01*
G01X2480988Y-5822041D01*
G01X2476141Y-5833741D01*
G01X2474488Y-5846298D01*
G01X2474488Y-6150075D01*
G01X2473002Y-6150075D01*
G01X2461935Y-6151828D01*
G01X2451951Y-6156915D01*
G01X2444028Y-6164838D01*
G01X2438941Y-6174822D01*
G01X2437188Y-6185889D01*
G01X2437188Y-6310890D01*
G01X2438941Y-6321957D01*
G01X2444028Y-6331941D01*
G01X2451951Y-6339864D01*
G01X2461935Y-6344951D01*
G01X2473002Y-6346704D01*
G01X2573002Y-6346704D01*
G01X2584069Y-6344951D01*
G01X2594053Y-6339864D01*
G01X2601976Y-6331941D01*
G01X2607063Y-6321957D01*
G01X2608816Y-6310890D01*
G01X2608816Y-6185889D01*
G01X2607063Y-6174822D01*
G01X2601976Y-6164838D01*
G01X2594053Y-6156915D01*
G01X2584069Y-6151828D01*
G01X2573002Y-6150075D01*
G01X2571516Y-6150075D01*
G01X2571516Y-6059219D01*
G01X2644314Y-6059219D01*
G01X2644367Y-6075459D01*
G01X2644367Y-6075459D01*
G01X2648119Y-6091260D01*
G01X2655373Y-6105791D01*
G01X2665745Y-6118287D01*
G01X2678692Y-6128092D01*
G01X2693532Y-6134689D01*
G01X2709485Y-6137731D01*
G01X2725712Y-6137059D01*
G01X2741359Y-6132709D01*
G01X2755603Y-6124907D01*
G01X2767695Y-6114066D01*
G01X2776999Y-6100755D01*
G01X2787031Y-6116501D01*
G01X2800071Y-6129862D01*
G01X2815567Y-6140274D01*
G01X2832866Y-6147297D01*
G01X2851234Y-6150635D01*
G01X2869898Y-6150145D01*
G01X2888066Y-6145850D01*
G01X2904973Y-6137930D01*
G01X2919902Y-6126720D01*
G01X2932224Y-6112694D01*
G01X2941417Y-6096445D01*
G01X2947093Y-6078659D01*
G01X2949012Y-6060088D01*
G01X2949012Y-5970088D01*
G01X2947028Y-5951207D01*
G01X2941161Y-5933151D01*
G01X2931668Y-5916709D01*
G01X2918965Y-5902601D01*
G01X2903605Y-5891441D01*
G01X2886262Y-5883719D01*
G01X2867691Y-5879772D01*
G01X2848706Y-5879772D01*
G01X2830135Y-5883719D01*
G01X2812792Y-5891441D01*
G01X2797432Y-5902601D01*
G01X2784729Y-5916709D01*
G01X2775236Y-5933151D01*
G01X2769369Y-5951207D01*
G01X2767385Y-5970088D01*
G01X2767385Y-6019801D01*
G01X2755221Y-6009040D01*
G01X2740926Y-6001332D01*
G01X2725251Y-5997084D01*
G01X2709021Y-5996519D01*
G01X2693088Y-5999667D01*
G01X2678292Y-6006362D01*
G01X2665410Y-6016251D01*
G01X2655119Y-6028815D01*
G01X2647962Y-6043393D01*
G01X2644314Y-6059219D01*
G01X2571516Y-6059219D01*
G01X2571516Y-5866393D01*
G01X2743200Y-5694709D01*
G01X3050286Y-6001795D01*
G01X3050286Y-6086628D01*
G01X3029584Y-6092363D01*
G01X3010159Y-6101536D01*
G01X2992578Y-6113880D01*
G01X2977353Y-6129035D01*
G01X2964928Y-6146559D01*
G01X2955665Y-6165942D01*
G01X2949835Y-6186617D01*
G01X2947608Y-6207983D01*
G01X2949047Y-6229417D01*
G01X2954112Y-6250293D01*
G01X2962655Y-6270004D01*
G01X2974426Y-6287974D01*
G01X2989082Y-6303679D01*
G01X3006197Y-6316662D01*
G01X3025271Y-6326544D01*
G01X3045748Y-6333038D01*
G01X3067031Y-6335953D01*
G01X3088500Y-6335204D01*
G01X3109529Y-6330815D01*
G01X3129505Y-6322912D01*
G01X3147844Y-6311726D01*
G01X3164014Y-6297583D01*
G01X3177541Y-6280895D01*
G01X3188033Y-6262149D01*
G01X3195183Y-6241892D01*
G01X3198782Y-6220714D01*
G01X3198726Y-6199232D01*
G01X3195016Y-6178073D01*
G01X3187761Y-6157853D01*
G01X3177172Y-6139162D01*
G01X3163557Y-6122546D01*
G01X3147314Y-6108487D01*
G01X3147314Y-5981700D01*
G01X3145661Y-5969144D01*
G01X3140814Y-5957443D01*
G01X3133105Y-5947395D01*
G01X2809473Y-5623764D01*
G01X2807465Y-5609742D01*
G01X2802524Y-5596466D01*
G01X2794877Y-5584542D01*
G01X2784872Y-5574515D01*
G01X2772965Y-5566841D01*
G01X2759701Y-5561872D01*
G01X2745683Y-5559832D01*
G01X2499714Y-5313863D01*
G01X2499714Y-5020406D01*
G01X2755572Y-5020406D01*
G01X2755572Y-5039391D01*
G01X2759519Y-5057962D01*
G01X2767241Y-5075305D01*
G01X2778401Y-5090665D01*
G01X2792509Y-5103368D01*
G01X2808951Y-5112861D01*
G01X2827007Y-5118728D01*
G01X2845888Y-5120712D01*
G01X2935888Y-5120712D01*
G01X2954457Y-5118794D01*
G01X2972241Y-5113119D01*
G01X2988489Y-5103928D01*
G01X3002514Y-5091608D01*
G01X3013725Y-5076682D01*
G01X3021646Y-5059778D01*
G01X3025943Y-5041612D01*
G01X3026436Y-5022951D01*
G01X3023102Y-5004584D01*
G01X3016084Y-4987286D01*
G01X3005676Y-4971789D01*
G01X2992320Y-4958747D01*
G01X2976580Y-4948711D01*
G01X2989885Y-4939404D01*
G01X3000720Y-4927310D01*
G01X3008516Y-4913067D01*
G01X3012862Y-4897422D01*
G01X3013530Y-4881198D01*
G01X3010486Y-4865248D01*
G01X3003888Y-4850412D01*
G01X2994085Y-4837468D01*
G01X2981590Y-4827097D01*
G01X2967062Y-4819846D01*
G01X2951264Y-4816094D01*
G01X2935027Y-4816039D01*
G01X2919204Y-4819684D01*
G01X2904627Y-4826837D01*
G01X2892063Y-4837123D01*
G01X2882172Y-4850000D01*
G01X2875474Y-4864792D01*
G01X2872322Y-4880720D01*
G01X2872880Y-4896948D01*
G01X2877120Y-4912622D01*
G01X2884820Y-4926918D01*
G01X2895573Y-4939085D01*
G01X2845888Y-4939085D01*
G01X2845888Y-4939085D01*
G01X2827007Y-4941069D01*
G01X2808951Y-4946936D01*
G01X2792509Y-4956429D01*
G01X2778401Y-4969132D01*
G01X2767241Y-4984492D01*
G01X2759519Y-5001835D01*
G01X2755572Y-5020406D01*
G01X2499714Y-5020406D01*
G01X2499714Y-4845703D01*
G01X2508830Y-4833231D01*
G01X2514813Y-4818990D01*
G01X2517339Y-4803750D01*
G01X2516271Y-4788339D01*
G01X2511666Y-4773594D01*
G01X2503774Y-4760314D01*
G01X2639625Y-4760314D01*
G01X2643640Y-4774705D01*
G01X2650776Y-4787832D01*
G01X2660669Y-4799029D01*
G01X2672818Y-4807726D01*
G01X2686605Y-4813483D01*
G01X2701331Y-4816007D01*
G01X2716249Y-4815170D01*
G01X2730600Y-4811015D01*
G01X2743658Y-4803752D01*
G01X2754757Y-4793751D01*
G01X2763336Y-4781519D01*
G01X2768959Y-4767676D01*
G01X2771340Y-4752926D01*
G01X2770359Y-4738017D01*
G01X2766065Y-4723707D01*
G01X2758676Y-4710721D01*
G01X2748567Y-4699718D01*
G01X2736252Y-4691258D01*
G01X2722355Y-4685770D01*
G01X2707583Y-4683532D01*
G01X2701375Y-4677325D01*
G01X2691307Y-4669599D01*
G01X2679582Y-4664743D01*
G01X2667000Y-4663086D01*
G01X2644664Y-4663086D01*
G01X2739475Y-4568275D01*
G01X2745864Y-4560389D01*
G01X2750475Y-4551348D01*
G01X2753109Y-4541546D01*
G01X2762671Y-4528710D01*
G01X2768880Y-4513957D01*
G01X2771373Y-4498146D01*
G01X2770004Y-4482198D01*
G01X2764854Y-4467043D01*
G01X2756223Y-4453563D01*
G01X2744614Y-4442544D01*
G01X2730702Y-4434627D01*
G01X2715299Y-4430275D01*
G01X2699301Y-4429740D01*
G01X2683642Y-4433054D01*
G01X2669232Y-4440023D01*
G01X2656913Y-4450242D01*
G01X2647400Y-4463115D01*
G01X2641249Y-4477893D01*
G01X2638819Y-4493713D01*
G01X2640250Y-4509656D01*
G01X2645459Y-4524791D01*
G01X2545263Y-4624986D01*
G01X2139436Y-4624986D01*
G01X2135541Y-4621090D01*
G01X2135541Y-4528549D01*
G01X2133788Y-4517482D01*
G01X2128701Y-4507499D01*
G01X2120778Y-4499575D01*
G01X2110794Y-4494488D01*
G01X2099727Y-4492735D01*
G01X1986473Y-4492735D01*
G01X1975406Y-4494488D01*
G01X1965422Y-4499575D01*
G01X1957499Y-4507499D01*
G01X1952412Y-4517482D01*
G01X1950659Y-4528549D01*
G01X1935541Y-4528549D01*
G01X1933788Y-4517482D01*
G01X1928701Y-4507499D01*
G01X1920778Y-4499575D01*
G01X1910794Y-4494488D01*
G01X1899727Y-4492735D01*
G01X1786473Y-4492735D01*
G01X1775406Y-4494488D01*
G01X1765422Y-4499575D01*
G01X1757499Y-4507499D01*
G01X1752412Y-4517482D01*
G01X1750659Y-4528549D01*
G01X1750659Y-4666251D01*
G01X1750659Y-4666251D01*
G01X1686814Y-4666251D01*
G01X1686814Y-4439410D01*
G01X1695912Y-4427039D01*
G01X1701921Y-4412906D01*
G01X1704518Y-4397771D01*
G01X1703564Y-4382444D01*
G01X1699110Y-4367747D01*
G01X1691394Y-4354469D01*
G01X1680832Y-4343322D01*
G01X1667989Y-4334903D01*
G01X1653553Y-4329664D01*
G01X1638300Y-4327886D01*
G01X1623047Y-4329664D01*
G01X1608611Y-4334903D01*
G01X1595768Y-4343322D01*
G01X1585206Y-4354469D01*
G01X1577490Y-4367747D01*
G01X1573036Y-4382444D01*
G01X1572082Y-4397771D01*
G01X1574679Y-4412906D01*
G01X1580688Y-4427039D01*
G01X1589786Y-4439410D01*
G01X1589786Y-5377405D01*
G01X1585164Y-5382027D01*
G01X1585164Y-5382027D01*
G01X1570205Y-5384281D01*
G01X1556147Y-5389866D01*
G01X1543720Y-5398492D01*
G01X1533571Y-5409710D01*
G01X1526228Y-5422936D01*
G01X1522074Y-5437482D01*
G01X1521325Y-5452590D01*
G01X1504195Y-5465489D01*
G01X1489527Y-5481131D01*
G01X1477756Y-5499055D01*
G01X1469230Y-5518730D01*
G01X1464200Y-5539574D01*
G01X1462814Y-5560973D01*
G01X1458114Y-5560973D01*
G01X1456941Y-5540529D01*
G01X1452102Y-5519737D01*
G01X1443788Y-5500076D01*
G01X1432243Y-5482120D01*
G01X1417805Y-5466396D01*
G01X1400897Y-5453365D01*
G01X1382014Y-5443409D01*
G01X1382014Y-4490495D01*
G01X1584944Y-4287565D01*
G01X2256286Y-4287565D01*
G01X2259414Y-4302600D01*
G01X2265917Y-4316512D01*
G01X2275445Y-4328555D01*
G01X2287488Y-4338083D01*
G01X2301400Y-4344586D01*
G01X2316435Y-4347714D01*
G01X2331786Y-4347301D01*
G01X2346630Y-4343367D01*
G01X2360172Y-4336125D01*
G01X2371685Y-4325962D01*
G01X2380551Y-4313423D01*
G01X2386295Y-4299181D01*
G01X2388609Y-4284000D01*
G01X2542286Y-4130323D01*
G01X2542286Y-4285205D01*
G01X2499564Y-4327927D01*
G01X2484382Y-4330241D01*
G01X2470141Y-4335986D01*
G01X2457602Y-4344852D01*
G01X2447439Y-4356364D01*
G01X2440196Y-4369906D01*
G01X2436263Y-4384750D01*
G01X2435849Y-4400101D01*
G01X2438978Y-4415136D01*
G01X2445480Y-4429048D01*
G01X2455009Y-4441091D01*
G01X2467052Y-4450620D01*
G01X2480964Y-4457122D01*
G01X2495999Y-4460251D01*
G01X2511350Y-4459837D01*
G01X2526194Y-4455904D01*
G01X2539736Y-4448661D01*
G01X2551248Y-4438498D01*
G01X2560114Y-4425959D01*
G01X2565859Y-4411718D01*
G01X2568173Y-4396536D01*
G01X2625105Y-4339605D01*
G01X2632814Y-4329557D01*
G01X2637661Y-4317856D01*
G01X2639314Y-4305300D01*
G01X2639314Y-4155409D01*
G01X2755572Y-4155409D01*
G01X2755572Y-4174394D01*
G01X2759519Y-4192965D01*
G01X2767241Y-4210308D01*
G01X2778401Y-4225668D01*
G01X2792509Y-4238371D01*
G01X2808951Y-4247864D01*
G01X2827007Y-4253731D01*
G01X2845888Y-4255715D01*
G01X2895601Y-4255715D01*
G01X2884840Y-4267879D01*
G01X2877132Y-4282174D01*
G01X2872884Y-4297849D01*
G01X2872319Y-4314079D01*
G01X2875467Y-4330012D01*
G01X2882162Y-4344808D01*
G01X2892051Y-4357690D01*
G01X2904615Y-4367981D01*
G01X2919193Y-4375138D01*
G01X2935019Y-4378786D01*
G01X2951259Y-4378733D01*
G01X2967060Y-4374981D01*
G01X2981591Y-4367727D01*
G01X2994087Y-4357355D01*
G01X3003892Y-4344408D01*
G01X3010489Y-4329568D01*
G01X3013531Y-4313615D01*
G01X3012859Y-4297388D01*
G01X3008509Y-4281741D01*
G01X3000707Y-4267497D01*
G01X2989866Y-4255405D01*
G01X2976555Y-4246101D01*
G01X2992301Y-4236069D01*
G01X3005662Y-4223029D01*
G01X3016074Y-4207533D01*
G01X3023097Y-4190234D01*
G01X3026435Y-4171866D01*
G01X3025945Y-4153202D01*
G01X3021650Y-4135034D01*
G01X3013730Y-4118127D01*
G01X3002520Y-4103198D01*
G01X2988494Y-4090876D01*
G01X2972245Y-4081683D01*
G01X2954459Y-4076007D01*
G01X2935888Y-4074088D01*
G01X2935888Y-4074088D01*
G01X2845888Y-4074088D01*
G01X2827007Y-4076072D01*
G01X2808951Y-4081939D01*
G01X2792509Y-4091432D01*
G01X2778401Y-4104135D01*
G01X2767241Y-4119495D01*
G01X2759519Y-4136838D01*
G01X2755572Y-4155409D01*
G01X2639314Y-4155409D01*
G01X2639314Y-3974484D01*
G01X2653802Y-3976198D01*
G01X2668313Y-3974702D01*
G01X2682147Y-3970069D01*
G01X2694633Y-3962524D01*
G01X2705167Y-3952431D01*
G01X2713239Y-3940279D01*
G01X2718458Y-3926656D01*
G01X2720573Y-3912222D01*
G01X2808494Y-3824300D01*
G01X2874086Y-3824300D01*
G01X2874086Y-4024300D01*
G01X2875839Y-4035367D01*
G01X2880926Y-4045351D01*
G01X2888849Y-4053274D01*
G01X2898833Y-4058361D01*
G01X2909900Y-4060114D01*
G01X3109900Y-4060114D01*
G01X3120967Y-4058361D01*
G01X3130951Y-4053274D01*
G01X3138874Y-4045351D01*
G01X3143961Y-4035367D01*
G01X3145714Y-4024300D01*
G01X3145714Y-3991213D01*
G01X3158237Y-4009627D01*
G01X3173601Y-4025747D01*
G01X3191393Y-4039140D01*
G01X3211134Y-4049445D01*
G01X3232294Y-4056385D01*
G01X3254304Y-4059774D01*
G01X3276571Y-4059521D01*
G01X3298498Y-4055633D01*
G01X3319495Y-4048214D01*
G01X3338997Y-4037463D01*
G01X3356480Y-4023670D01*
G01X3371474Y-4007205D01*
G01X3383576Y-3988511D01*
G01X3392460Y-3968091D01*
G01X3397888Y-3946494D01*
G01X3399714Y-3924300D01*
G01X3397888Y-3902106D01*
G01X3392460Y-3880509D01*
G01X3383576Y-3860089D01*
G01X3371474Y-3841395D01*
G01X3356480Y-3824930D01*
G01X3338997Y-3811137D01*
G01X3319495Y-3800386D01*
G01X3298498Y-3792967D01*
G01X3276571Y-3789079D01*
G01X3254304Y-3788826D01*
G01X3232294Y-3792215D01*
G01X3211134Y-3799155D01*
G01X3191393Y-3809460D01*
G01X3173601Y-3822853D01*
G01X3158237Y-3838973D01*
G01X3145714Y-3857387D01*
G01X3145714Y-3824300D01*
G01X3145714Y-3824300D01*
G01X3143961Y-3813233D01*
G01X3138874Y-3803249D01*
G01X3130951Y-3795326D01*
G01X3120967Y-3790239D01*
G01X3109900Y-3788486D01*
G01X2909900Y-3788486D01*
G01X2898833Y-3790239D01*
G01X2888849Y-3795326D01*
G01X2880926Y-3803249D01*
G01X2875839Y-3813233D01*
G01X2874086Y-3824300D01*
G01X2808494Y-3824300D01*
G01X2904505Y-3728290D01*
G01X2912214Y-3718242D01*
G01X2917061Y-3706542D01*
G01X2918714Y-3693985D01*
G01X2918714Y-3529500D01*
G01X3138086Y-3529500D01*
G01X3138086Y-3709500D01*
G01X3139839Y-3720567D01*
G01X3144926Y-3730551D01*
G01X3152849Y-3738474D01*
G01X3162833Y-3743561D01*
G01X3173900Y-3745314D01*
G01X3353900Y-3745314D01*
G01X3364967Y-3743561D01*
G01X3374951Y-3738474D01*
G01X3382874Y-3730551D01*
G01X3387961Y-3720567D01*
G01X3389714Y-3709500D01*
G01X3389714Y-3529500D01*
G01X3389714Y-3529500D01*
G01X3387961Y-3518433D01*
G01X3382874Y-3508449D01*
G01X3374951Y-3500526D01*
G01X3364967Y-3495439D01*
G01X3353900Y-3493686D01*
G01X3173900Y-3493686D01*
G01X3162833Y-3495439D01*
G01X3152849Y-3500526D01*
G01X3144926Y-3508449D01*
G01X3139839Y-3518433D01*
G01X3138086Y-3529500D01*
G01X2918714Y-3529500D01*
G01X2918714Y-3365500D01*
G01X3138086Y-3365500D01*
G01X3139998Y-3387347D01*
G01X3145674Y-3408531D01*
G01X3154942Y-3428407D01*
G01X3167521Y-3446372D01*
G01X3183028Y-3461879D01*
G01X3200993Y-3474458D01*
G01X3220869Y-3483726D01*
G01X3242053Y-3489402D01*
G01X3263900Y-3491314D01*
G01X3263900Y-3491314D01*
G01X3285747Y-3489402D01*
G01X3306931Y-3483726D01*
G01X3326807Y-3474458D01*
G01X3344772Y-3461879D01*
G01X3360279Y-3446372D01*
G01X3372858Y-3428407D01*
G01X3382126Y-3408531D01*
G01X3387802Y-3387347D01*
G01X3389714Y-3365500D01*
G01X3387802Y-3343653D01*
G01X3382126Y-3322469D01*
G01X3372858Y-3302593D01*
G01X3360279Y-3284628D01*
G01X3344772Y-3269121D01*
G01X3326807Y-3256542D01*
G01X3306931Y-3247274D01*
G01X3285747Y-3241598D01*
G01X3263900Y-3239686D01*
G01X3242053Y-3241598D01*
G01X3220869Y-3247274D01*
G01X3200993Y-3256542D01*
G01X3183028Y-3269121D01*
G01X3167521Y-3284628D01*
G01X3154942Y-3302593D01*
G01X3145674Y-3322469D01*
G01X3139998Y-3343653D01*
G01X3138086Y-3365500D01*
G01X2918714Y-3365500D01*
G01X2918714Y-3182395D01*
G01X2989609Y-3111500D01*
G01X3138086Y-3111500D01*
G01X3139998Y-3133347D01*
G01X3145674Y-3154531D01*
G01X3154942Y-3174407D01*
G01X3167521Y-3192372D01*
G01X3183028Y-3207879D01*
G01X3200993Y-3220458D01*
G01X3220869Y-3229726D01*
G01X3242053Y-3235402D01*
G01X3263900Y-3237314D01*
G01X3263900Y-3237314D01*
G01X3285747Y-3235402D01*
G01X3306931Y-3229726D01*
G01X3326807Y-3220458D01*
G01X3344772Y-3207879D01*
G01X3360279Y-3192372D01*
G01X3372858Y-3174407D01*
G01X3382126Y-3154531D01*
G01X3387802Y-3133347D01*
G01X3389714Y-3111500D01*
G01X3387802Y-3089653D01*
G01X3382126Y-3068469D01*
G01X3372858Y-3048593D01*
G01X3360279Y-3030628D01*
G01X3344772Y-3015121D01*
G01X3326807Y-3002542D01*
G01X3306931Y-2993274D01*
G01X3285747Y-2987598D01*
G01X3263900Y-2985686D01*
G01X3242053Y-2987598D01*
G01X3220869Y-2993274D01*
G01X3200993Y-3002542D01*
G01X3183028Y-3015121D01*
G01X3167521Y-3030628D01*
G01X3154942Y-3048593D01*
G01X3145674Y-3068469D01*
G01X3139998Y-3089653D01*
G01X3138086Y-3111500D01*
G01X2989609Y-3111500D01*
G01X3082305Y-3018805D01*
G01X3090014Y-3008757D01*
G01X3094861Y-2997056D01*
G01X3096514Y-2984500D01*
G01X3096514Y-2857500D01*
G01X3138086Y-2857500D01*
G01X3139998Y-2879347D01*
G01X3145674Y-2900531D01*
G01X3154942Y-2920407D01*
G01X3167521Y-2938372D01*
G01X3183028Y-2953879D01*
G01X3200993Y-2966458D01*
G01X3220869Y-2975726D01*
G01X3242053Y-2981402D01*
G01X3263900Y-2983314D01*
G01X3263900Y-2983314D01*
G01X3285747Y-2981402D01*
G01X3306931Y-2975726D01*
G01X3326807Y-2966458D01*
G01X3344772Y-2953879D01*
G01X3360279Y-2938372D01*
G01X3372858Y-2920407D01*
G01X3382126Y-2900531D01*
G01X3387802Y-2879347D01*
G01X3389714Y-2857500D01*
G01X3387802Y-2835653D01*
G01X3382126Y-2814469D01*
G01X3372858Y-2794593D01*
G01X3360279Y-2776628D01*
G01X3344772Y-2761121D01*
G01X3326807Y-2748542D01*
G01X3306931Y-2739274D01*
G01X3285747Y-2733598D01*
G01X3263900Y-2731686D01*
G01X3242053Y-2733598D01*
G01X3220869Y-2739274D01*
G01X3200993Y-2748542D01*
G01X3183028Y-2761121D01*
G01X3167521Y-2776628D01*
G01X3154942Y-2794593D01*
G01X3145674Y-2814469D01*
G01X3139998Y-2835653D01*
G01X3138086Y-2857500D01*
G01X3096514Y-2857500D01*
G01X3096514Y-2763295D01*
G01X3171222Y-2688587D01*
G01X3187869Y-2703742D01*
G01X3206950Y-2715687D01*
G01X3227855Y-2724040D01*
G01X3249914Y-2728534D01*
G01X3272420Y-2729025D01*
G01X3294654Y-2725497D01*
G01X3315903Y-2718063D01*
G01X3335487Y-2706962D01*
G01X3352780Y-2692548D01*
G01X3367226Y-2675283D01*
G01X3378365Y-2655720D01*
G01X3385839Y-2634485D01*
G01X3389409Y-2612258D01*
G01X3388960Y-2589750D01*
G01X3384508Y-2567683D01*
G01X3376194Y-2546763D01*
G01X3364285Y-2527659D01*
G01X3349163Y-2510983D01*
G01X3331310Y-2497269D01*
G01X3311299Y-2486956D01*
G01X3289771Y-2480375D01*
G01X3267414Y-2477735D01*
G01X3244945Y-2479122D01*
G01X3223083Y-2484491D01*
G01X3202527Y-2493670D01*
G01X3183937Y-2506366D01*
G01X3167906Y-2522171D01*
G01X3154949Y-2540580D01*
G01X3145480Y-2561004D01*
G01X3139803Y-2582788D01*
G01X3013695Y-2708895D01*
G01X3005986Y-2718943D01*
G01X3001139Y-2730644D01*
G01X2999486Y-2743200D01*
G01X2999486Y-2964405D01*
G01X2855214Y-3108677D01*
G01X2855214Y-2324100D01*
G01X2853561Y-2311544D01*
G01X2848714Y-2299843D01*
G01X2841005Y-2289795D01*
G01X2733273Y-2182064D01*
G01X2732136Y-2171957D01*
G01X2729467Y-2162142D01*
G01X2988763Y-2421437D01*
G01X2998736Y-2429622D01*
G01X3010114Y-2435704D01*
G01X3022460Y-2439449D01*
G01X3035300Y-2440714D01*
G01X3177245Y-2440714D01*
G01X3194083Y-2454165D01*
G01X3212970Y-2464545D01*
G01X3233351Y-2471549D01*
G01X3254629Y-2474972D01*
G01X3276179Y-2474713D01*
G01X3297368Y-2470781D01*
G01X3317576Y-2463290D01*
G01X3336208Y-2452460D01*
G01X3352719Y-2438609D01*
G01X3366623Y-2422143D01*
G01X3377514Y-2403546D01*
G01X3385071Y-2383363D01*
G01X3389073Y-2362187D01*
G01X3389401Y-2340638D01*
G01X3386048Y-2319349D01*
G01X3379110Y-2298945D01*
G01X3368792Y-2280024D01*
G01X3355396Y-2263142D01*
G01X3339315Y-2248794D01*
G01X3321022Y-2237401D01*
G01X3301052Y-2229297D01*
G01X3279993Y-2224720D01*
G01X3258461Y-2223804D01*
G01X3237089Y-2226576D01*
G01X3216503Y-2232955D01*
G01X3197308Y-2242754D01*
G01X3180068Y-2255685D01*
G01X3165287Y-2271369D01*
G01X3153399Y-2289345D01*
G01X3144754Y-2309086D01*
G01X3062561Y-2309086D01*
G01X2656614Y-1903139D01*
G01X2656614Y-1683499D01*
G01X2812975Y-1683499D01*
G01X2814955Y-1708656D01*
G01X2820846Y-1733193D01*
G01X2830503Y-1756507D01*
G01X2843688Y-1778023D01*
G01X2860076Y-1797212D01*
G01X2879265Y-1813600D01*
G01X2900781Y-1826785D01*
G01X2924095Y-1836442D01*
G01X2948632Y-1842333D01*
G01X2973789Y-1844313D01*
G01X2998946Y-1842333D01*
G01X3023483Y-1836442D01*
G01X3046797Y-1826785D01*
G01X3068313Y-1813600D01*
G01X3087501Y-1797212D01*
G01X3103890Y-1778023D01*
G01X3117075Y-1756507D01*
G01X3126732Y-1733193D01*
G01X3132623Y-1708656D01*
G01X3134603Y-1683499D01*
G01X3132623Y-1658342D01*
G01X3126732Y-1633805D01*
G01X3117075Y-1610491D01*
G01X3103890Y-1588975D01*
G01X3087501Y-1569787D01*
G01X3068313Y-1553398D01*
G01X3059782Y-1548171D01*
G01X3112278Y-1548171D01*
G01X3112278Y-1568841D01*
G01X3116076Y-1589160D01*
G01X3123543Y-1608435D01*
G01X3134425Y-1626009D01*
G01X3148350Y-1641285D01*
G01X3164846Y-1653742D01*
G01X3183350Y-1662956D01*
G01X3203231Y-1668613D01*
G01X3223814Y-1670520D01*
G01X3223814Y-1670520D01*
G01X3244396Y-1668613D01*
G01X3264278Y-1662956D01*
G01X3282781Y-1653742D01*
G01X3299277Y-1641285D01*
G01X3313203Y-1626009D01*
G01X3324085Y-1608435D01*
G01X3331552Y-1589160D01*
G01X3335350Y-1568841D01*
G01X3335350Y-1548171D01*
G01X3331552Y-1527852D01*
G01X3324085Y-1508577D01*
G01X3313203Y-1491002D01*
G01X3299277Y-1475727D01*
G01X3282781Y-1463270D01*
G01X3264278Y-1454056D01*
G01X3244396Y-1448399D01*
G01X3223814Y-1446492D01*
G01X3203231Y-1448399D01*
G01X3183350Y-1454056D01*
G01X3164846Y-1463270D01*
G01X3148350Y-1475727D01*
G01X3134425Y-1491002D01*
G01X3123543Y-1508577D01*
G01X3116076Y-1527852D01*
G01X3112278Y-1548171D01*
G01X3059782Y-1548171D01*
G01X3046797Y-1540213D01*
G01X3023483Y-1530556D01*
G01X2998946Y-1524665D01*
G01X2973789Y-1522686D01*
G01X2948632Y-1524665D01*
G01X2924095Y-1530556D01*
G01X2900781Y-1540213D01*
G01X2879265Y-1553398D01*
G01X2860076Y-1569787D01*
G01X2843688Y-1588975D01*
G01X2830503Y-1610491D01*
G01X2820846Y-1633805D01*
G01X2814955Y-1658342D01*
G01X2812975Y-1683499D01*
G01X2812975Y-1683499D01*
G01X2656614Y-1683499D01*
G01X2656614Y-1384300D01*
G01X2655349Y-1371460D01*
G01X2651604Y-1359114D01*
G01X2645522Y-1347736D01*
G01X2637337Y-1337763D01*
G01X2528786Y-1229211D01*
G01X2517489Y-1217871D01*
G01X2503805Y-1209568D01*
G01X2488530Y-1204786D01*
G01X2472555Y-1203803D01*
G01X2456809Y-1206677D01*
G01X2442210Y-1213240D01*
G01X2429609Y-1223109D01*
G01X2419740Y-1235710D01*
G01X2413177Y-1250309D01*
G01X2410303Y-1266055D01*
G01X2411286Y-1282030D01*
G01X2416068Y-1297305D01*
G01X2424371Y-1310989D01*
G01X2435711Y-1322286D01*
G01X2524986Y-1411561D01*
G01X2524986Y-1930400D01*
G01X2526251Y-1943240D01*
G01X2529996Y-1955586D01*
G01X2536078Y-1966964D01*
G01X2544263Y-1976937D01*
G01X2689258Y-2121933D01*
G01X2673354Y-2118391D01*
G01X2657066Y-2118834D01*
G01X2641377Y-2123236D01*
G01X2627236Y-2131330D01*
G01X2615496Y-2142629D01*
G01X2606864Y-2156449D01*
G01X2601864Y-2171957D01*
G01X2600796Y-2188215D01*
G01X2603725Y-2204244D01*
G01X2610474Y-2219075D01*
G01X2620635Y-2231812D01*
G01X2633596Y-2241686D01*
G01X2648574Y-2248103D01*
G01X2664664Y-2250673D01*
G01X2758186Y-2344195D01*
G01X2758186Y-3612105D01*
G01X2575814Y-3794477D01*
G01X2575814Y-3794477D01*
G01X2575814Y-3646891D01*
G01X2590223Y-3642893D01*
G01X2603370Y-3635768D01*
G01X2614586Y-3625878D01*
G01X2623301Y-3613727D01*
G01X2629072Y-3599933D01*
G01X2631605Y-3585195D01*
G01X2630773Y-3570265D01*
G01X2626616Y-3555901D01*
G01X2619346Y-3542834D01*
G01X2609334Y-3531727D01*
G01X2597088Y-3523147D01*
G01X2583230Y-3517528D01*
G01X2568466Y-3515157D01*
G01X2553546Y-3516154D01*
G01X2539229Y-3520469D01*
G01X2526242Y-3527882D01*
G01X2515247Y-3538016D01*
G01X2506801Y-3550356D01*
G01X2501335Y-3564274D01*
G01X2499127Y-3579064D01*
G01X2492995Y-3585195D01*
G01X2485286Y-3595243D01*
G01X2480439Y-3606944D01*
G01X2478786Y-3619500D01*
G01X2478786Y-4056605D01*
G01X2320000Y-4215391D01*
G01X2304819Y-4217705D01*
G01X2290577Y-4223449D01*
G01X2278038Y-4232315D01*
G01X2267875Y-4243828D01*
G01X2260633Y-4257370D01*
G01X2256699Y-4272214D01*
G01X2256286Y-4287565D01*
G01X1584944Y-4287565D01*
G01X1812305Y-4060205D01*
G01X1820014Y-4050157D01*
G01X1824861Y-4038456D01*
G01X1826514Y-4025900D01*
G01X1826514Y-3956810D01*
G01X1834208Y-3946788D01*
G01X1839862Y-3935489D01*
G01X1843270Y-3923322D01*
G01X1844308Y-3910730D01*
G01X1842940Y-3898170D01*
G01X1839214Y-3886097D01*
G01X1839214Y-3423695D01*
G01X1977405Y-3285505D01*
G01X1983486Y-3278081D01*
G01X1983486Y-3345405D01*
G01X1883395Y-3445495D01*
G01X1875686Y-3455543D01*
G01X1870839Y-3467244D01*
G01X1869186Y-3479800D01*
G01X1869186Y-3866390D01*
G01X1860579Y-3877914D01*
G01X1854659Y-3891023D01*
G01X1851705Y-3905100D01*
G01X1851856Y-3919483D01*
G01X1855105Y-3933495D01*
G01X1861298Y-3946477D01*
G01X1870145Y-3957818D01*
G01X1881230Y-3966985D01*
G01X1894030Y-3973546D01*
G01X1907943Y-3977192D01*
G01X1922316Y-3977753D01*
G01X1936471Y-3975202D01*
G01X1949744Y-3969658D01*
G01X1961509Y-3961383D01*
G01X1971213Y-3950766D01*
G01X1978399Y-3938306D01*
G01X1980602Y-3954000D01*
G01X1986466Y-3968724D01*
G01X1995657Y-3981635D01*
G01X2007648Y-3991997D01*
G01X2021755Y-3999218D01*
G01X2037174Y-4002886D01*
G01X2053021Y-4002790D01*
G01X2068394Y-3998937D01*
G01X2082413Y-3991546D01*
G01X2094279Y-3981040D01*
G01X2103313Y-3968018D01*
G01X2108999Y-3953225D01*
G01X2120492Y-3963737D01*
G01X2134121Y-3971278D01*
G01X2149132Y-3975432D01*
G01X2164699Y-3975970D01*
G01X2179961Y-3972863D01*
G01X2194078Y-3966281D01*
G01X2206270Y-3956588D01*
G01X2215865Y-3944318D01*
G01X2222333Y-3930149D01*
G01X2228478Y-3944597D01*
G01X2237848Y-3957196D01*
G01X2249918Y-3967238D01*
G01X2264010Y-3974162D01*
G01X2279335Y-3977578D01*
G01X2295034Y-3977296D01*
G01X2310226Y-3973331D01*
G01X2324060Y-3965905D01*
G01X2335761Y-3955434D01*
G01X2344671Y-3942507D01*
G01X2350293Y-3927846D01*
G01X2352311Y-3912275D01*
G01X2357974Y-3899781D01*
G01X2359914Y-3886200D01*
G01X2359914Y-3283995D01*
G01X2434605Y-3209305D01*
G01X2442314Y-3199257D01*
G01X2447161Y-3187556D01*
G01X2448814Y-3175000D01*
G01X2448814Y-1854200D01*
G01X2447161Y-1841644D01*
G01X2442314Y-1829943D01*
G01X2434605Y-1819895D01*
G01X2334514Y-1719805D01*
G01X2334514Y-1181100D01*
G01X2332861Y-1168544D01*
G01X2328014Y-1156843D01*
G01X2320305Y-1146795D01*
G01X1889666Y-716157D01*
G01X1889666Y-373191D01*
G01X1908549Y-363234D01*
G01X1925457Y-350203D01*
G01X1939895Y-334479D01*
G01X1951440Y-316524D01*
G01X1959754Y-296862D01*
G01X1964593Y-276071D01*
G01X1965613Y-258300D01*
G01X1970438Y-258300D01*
G01X1972302Y-279783D01*
G01X1977840Y-300624D01*
G01X1986884Y-320200D01*
G01X1999166Y-337925D01*
G01X2014317Y-353270D01*
G01X2031885Y-365775D01*
G01X2051345Y-375067D01*
G01X2072114Y-380867D01*
G01X2093572Y-383004D01*
G01X2115078Y-381412D01*
G01X2135988Y-376139D01*
G01X2155676Y-367343D01*
G01X2173556Y-355287D01*
G01X2189091Y-340331D01*
G01X2201817Y-322923D01*
G01X2211355Y-303582D01*
G01X2217418Y-282888D01*
G01X2219826Y-261458D01*
G01X2222234Y-282888D01*
G01X2228297Y-303582D01*
G01X2237835Y-322923D01*
G01X2250561Y-340331D01*
G01X2266096Y-355287D01*
G01X2283976Y-367343D01*
G01X2303664Y-376139D01*
G01X2324574Y-381412D01*
G01X2346079Y-383004D01*
G01X2367537Y-380868D01*
G01X2388307Y-375067D01*
G01X2407767Y-365775D01*
G01X2425335Y-353270D01*
G01X2440486Y-337926D01*
G01X2452768Y-320201D01*
G01X2461812Y-300625D01*
G01X2467350Y-279784D01*
G01X2469214Y-258300D01*
G01X2469214Y-258300D01*
G01X2467350Y-236817D01*
G01X2461812Y-215975D01*
G01X2452768Y-196400D01*
G01X2440486Y-178674D01*
G01X2431328Y-169400D01*
G01X2478438Y-169400D01*
G01X2478438Y-347200D01*
G01X2480191Y-358267D01*
G01X2485278Y-368251D01*
G01X2493201Y-376174D01*
G01X2503185Y-381261D01*
G01X2514252Y-383014D01*
G01X2692052Y-383014D01*
G01X2703119Y-381261D01*
G01X2713103Y-376174D01*
G01X2721026Y-368251D01*
G01X2726113Y-358267D01*
G01X2727866Y-347200D01*
G01X2727866Y-169400D01*
G01X2726113Y-158333D01*
G01X2721026Y-148349D01*
G01X2713103Y-140426D01*
G01X2703119Y-135339D01*
G01X2692052Y-133586D01*
G01X2514252Y-133586D01*
G01X2514252Y-133586D01*
G01X2503185Y-135339D01*
G01X2493201Y-140426D01*
G01X2485278Y-148349D01*
G01X2480191Y-158333D01*
G01X2478438Y-169400D01*
G01X2431328Y-169400D01*
G01X2425335Y-163330D01*
G01X2407767Y-150825D01*
G01X2388307Y-141533D01*
G01X2367538Y-135732D01*
G01X2346080Y-133596D01*
G01X2324574Y-135188D01*
G01X2303665Y-140461D01*
G01X2283976Y-149257D01*
G01X2266097Y-161313D01*
G01X2250561Y-176269D01*
G01X2237835Y-193677D01*
G01X2228297Y-213018D01*
G01X2222234Y-233712D01*
G01X2219826Y-255141D01*
G01X2217418Y-233712D01*
G01X2211355Y-213018D01*
G01X2201817Y-193677D01*
G01X2189091Y-176269D01*
G01X2173556Y-161313D01*
G01X2155677Y-149257D01*
G01X2135988Y-140461D01*
G01X2115078Y-135188D01*
G01X2093573Y-133596D01*
G01X2072115Y-135732D01*
G01X2051345Y-141533D01*
G01X2031885Y-150824D01*
G01X2014317Y-163330D01*
G01X1999166Y-178674D01*
G01X1986884Y-196399D01*
G01X1977840Y-215975D01*
G01X1972302Y-236816D01*
G01X1970438Y-258300D01*
G01X1965613Y-258300D01*
G01X1965816Y-254759D01*
G01X1963386Y-233550D01*
G01X1957374Y-213067D01*
G01X1947958Y-193909D01*
G01X1935412Y-176638D01*
G01X1920105Y-161759D01*
G01X1902484Y-149709D01*
G01X1883066Y-140840D01*
G01X1862421Y-135413D01*
G01X1841152Y-133586D01*
G01X1819883Y-135413D01*
G01X1799238Y-140840D01*
G01X1779820Y-149709D01*
G01X1762199Y-161759D01*
G01X1746892Y-176638D01*
G01X1734346Y-193909D01*
G01X1724930Y-213067D01*
G01X1718918Y-233550D01*
G01X1716488Y-254759D01*
G01X1717711Y-276071D01*
G01X1722550Y-296862D01*
G01X1730864Y-316524D01*
G01X1742409Y-334479D01*
G01X1756847Y-350203D01*
G01X1773755Y-363234D01*
G01X1792638Y-373191D01*
G01X1792638Y-736252D01*
G01X1794291Y-748808D01*
G01X1799138Y-760509D01*
G01X1806847Y-770557D01*
G01X2237486Y-1201195D01*
G01X2237486Y-1739900D01*
G01X2239139Y-1752456D01*
G01X2243986Y-1764157D01*
G01X2251695Y-1774205D01*
G01X2351786Y-1874295D01*
G01X2351786Y-3154905D01*
G01X2277095Y-3229595D01*
G01X2269386Y-3239643D01*
G01X2264539Y-3251344D01*
G01X2262886Y-3263900D01*
G01X2262886Y-3849445D01*
G01X2249543Y-3856207D01*
G01X2238054Y-3865788D01*
G01X2229006Y-3877700D01*
G01X2222858Y-3891337D01*
G01X2216843Y-3877118D01*
G01X2207705Y-3864675D01*
G01X2207705Y-1320990D01*
G01X2206051Y-1308434D01*
G01X2201205Y-1296733D01*
G01X2193495Y-1286686D01*
G01X1635666Y-728857D01*
G01X1635666Y-373191D01*
G01X1654549Y-363234D01*
G01X1671457Y-350203D01*
G01X1685895Y-334479D01*
G01X1697440Y-316524D01*
G01X1705754Y-296862D01*
G01X1710593Y-276071D01*
G01X1711816Y-254759D01*
G01X1709386Y-233550D01*
G01X1703374Y-213067D01*
G01X1693958Y-193909D01*
G01X1681412Y-176638D01*
G01X1666105Y-161759D01*
G01X1648484Y-149709D01*
G01X1629066Y-140840D01*
G01X1608421Y-135413D01*
G01X1587152Y-133586D01*
G01X1565883Y-135413D01*
G01X1545238Y-140840D01*
G01X1525820Y-149709D01*
G01X1508199Y-161759D01*
G01X1492892Y-176638D01*
G01X1480346Y-193909D01*
G01X1470930Y-213067D01*
G01X1464918Y-233550D01*
G01X1462488Y-254759D01*
G01X1463711Y-276071D01*
G01X1468550Y-296862D01*
G01X1476864Y-316524D01*
G01X1488409Y-334479D01*
G01X1502847Y-350203D01*
G01X1519755Y-363234D01*
G01X1538638Y-373191D01*
G01X1538638Y-721797D01*
G01X1527871Y-710658D01*
G01X1514813Y-702321D01*
G01X1500177Y-697241D01*
G01X1484762Y-695696D01*
G01X1469409Y-697769D01*
G01X1454957Y-703348D01*
G01X1442193Y-712128D01*
G01X1431814Y-723630D01*
G01X1424387Y-737226D01*
G01X1420318Y-752175D01*
G01X1419828Y-767659D01*
G01X1422944Y-782835D01*
G01X1140714Y-500605D01*
G01X1140714Y-366760D01*
G01X1158292Y-354686D01*
G01X1173557Y-339794D01*
G01X1186061Y-322519D01*
G01X1195439Y-303366D01*
G01X1201417Y-282895D01*
G01X1203820Y-261705D01*
G01X1203621Y-258300D01*
G01X1208438Y-258300D01*
G01X1210333Y-279956D01*
G01X1215959Y-300954D01*
G01X1225147Y-320657D01*
G01X1237616Y-338464D01*
G01X1252987Y-353836D01*
G01X1270795Y-366305D01*
G01X1290497Y-375493D01*
G01X1311496Y-381119D01*
G01X1333152Y-383014D01*
G01X1354808Y-381119D01*
G01X1375807Y-375493D01*
G01X1395509Y-366305D01*
G01X1413317Y-353836D01*
G01X1428688Y-338464D01*
G01X1441158Y-320657D01*
G01X1450345Y-300954D01*
G01X1455971Y-279956D01*
G01X1457866Y-258300D01*
G01X1457866Y-258300D01*
G01X1455971Y-236643D01*
G01X1450345Y-215645D01*
G01X1441158Y-195943D01*
G01X1428688Y-178135D01*
G01X1413317Y-162763D01*
G01X1395509Y-150294D01*
G01X1375807Y-141107D01*
G01X1354808Y-135480D01*
G01X1333152Y-133586D01*
G01X1311496Y-135480D01*
G01X1290497Y-141107D01*
G01X1270795Y-150294D01*
G01X1252987Y-162763D01*
G01X1237616Y-178135D01*
G01X1225147Y-195943D01*
G01X1215959Y-215645D01*
G01X1210333Y-236643D01*
G01X1208438Y-258300D01*
G01X1203621Y-258300D01*
G01X1202577Y-240416D01*
G01X1197726Y-219649D01*
G01X1189407Y-200013D01*
G01X1177865Y-182081D01*
G01X1163437Y-166377D01*
G01X1146543Y-153362D01*
G01X1127680Y-143414D01*
G01X1107397Y-136826D01*
G01X1086289Y-133790D01*
G01X1064972Y-134394D01*
G01X1044069Y-138622D01*
G01X1024193Y-146349D01*
G01X1005923Y-157349D01*
G01X989795Y-171301D01*
G01X976279Y-187796D01*
G01X965771Y-206354D01*
G01X958579Y-226430D01*
G01X954912Y-247438D01*
G01X954878Y-268763D01*
G01X958477Y-289783D01*
G01X965605Y-309882D01*
G01X976054Y-328473D01*
G01X989516Y-345012D01*
G01X1005600Y-359016D01*
G01X1023834Y-370074D01*
G01X1043686Y-377865D01*
G01X1043686Y-520700D01*
G01X1045339Y-533256D01*
G01X1050186Y-544957D01*
G01X1057895Y-555005D01*
G01X1337581Y-834690D01*
G01X1323042Y-838033D01*
G01X1309618Y-844542D01*
G01X1297989Y-853887D01*
G01X1288744Y-865595D01*
G01X1282349Y-879073D01*
G01X1279129Y-893640D01*
G01X1279247Y-908557D01*
G01X1282696Y-923072D01*
G01X1289302Y-936447D01*
G01X1298732Y-948008D01*
G01X1298732Y-2455359D01*
G01X854695Y-2899395D01*
G01X846986Y-2909443D01*
G01X842139Y-2921144D01*
G01X840486Y-2933700D01*
G01X840486Y-3866390D01*
G01X840486Y-3866390D01*
G01X831388Y-3878761D01*
G01X825379Y-3892894D01*
G01X822782Y-3908029D01*
G01X773674Y-3908029D01*
G01X773674Y-2875401D01*
G01X935537Y-2713537D01*
G01X943722Y-2703564D01*
G01X949804Y-2692186D01*
G01X953549Y-2679840D01*
G01X954814Y-2667000D01*
G01X954814Y-2119460D01*
G01X955192Y-2103481D01*
G01X951735Y-2087875D01*
G01X944645Y-2073550D01*
G01X934332Y-2061337D01*
G01X921397Y-2051947D01*
G01X906591Y-2045924D01*
G01X890774Y-2043619D01*
G01X874865Y-2045166D01*
G01X859789Y-2050475D01*
G01X846420Y-2059237D01*
G01X835536Y-2070943D01*
G01X827770Y-2084913D01*
G01X823572Y-2100336D01*
G01X823186Y-2116315D01*
G01X823186Y-2639739D01*
G01X683702Y-2779223D01*
G01X683702Y-2114940D01*
G01X682482Y-2105671D01*
G01X678904Y-2097033D01*
G01X673212Y-2089616D01*
G01X51114Y-1467518D01*
G01X51114Y-419284D01*
G01X65639Y-448862D01*
G01X83471Y-476572D01*
G01X104375Y-502045D01*
G01X128071Y-524942D01*
G01X154245Y-544960D01*
G01X182550Y-561833D01*
G01X212608Y-575335D01*
G01X244021Y-585288D01*
G01X276370Y-591559D01*
G01X309227Y-594065D01*
G01X342153Y-592773D01*
G01X374712Y-587699D01*
G01X406471Y-578912D01*
G01X437007Y-566528D01*
G01X465914Y-550711D01*
G01X492809Y-531673D01*
G01X517334Y-509665D01*
G01X539163Y-484980D01*
G01X558006Y-457948D01*
G01X573612Y-428926D01*
G01X585774Y-398300D01*
G01X594330Y-366479D01*
G01X599166Y-333884D01*
G01X600219Y-300949D01*
G01X597474Y-268112D01*
G01X594785Y-254759D01*
G01X700488Y-254759D01*
G01X701711Y-276071D01*
G01X706550Y-296862D01*
G01X714864Y-316524D01*
G01X726409Y-334479D01*
G01X740847Y-350203D01*
G01X757755Y-363234D01*
G01X776638Y-373191D01*
G01X776638Y-685452D01*
G01X778291Y-698008D01*
G01X783138Y-709709D01*
G01X790847Y-719757D01*
G01X1132586Y-1061495D01*
G01X1132586Y-2324590D01*
G01X1132586Y-2324590D01*
G01X1123488Y-2336961D01*
G01X1117479Y-2351094D01*
G01X1114882Y-2366229D01*
G01X1115836Y-2381556D01*
G01X1120290Y-2396253D01*
G01X1128006Y-2409531D01*
G01X1138568Y-2420678D01*
G01X1151411Y-2429097D01*
G01X1165847Y-2434336D01*
G01X1181100Y-2436114D01*
G01X1196353Y-2434336D01*
G01X1210789Y-2429097D01*
G01X1223632Y-2420678D01*
G01X1234194Y-2409531D01*
G01X1241910Y-2396253D01*
G01X1246364Y-2381556D01*
G01X1247318Y-2366229D01*
G01X1244721Y-2351094D01*
G01X1238712Y-2336961D01*
G01X1229614Y-2324590D01*
G01X1229614Y-1041400D01*
G01X1227961Y-1028844D01*
G01X1223114Y-1017143D01*
G01X1215405Y-1007095D01*
G01X873666Y-665357D01*
G01X873666Y-373191D01*
G01X892549Y-363234D01*
G01X909457Y-350203D01*
G01X923895Y-334479D01*
G01X935440Y-316524D01*
G01X943754Y-296862D01*
G01X948593Y-276071D01*
G01X949816Y-254759D01*
G01X947386Y-233550D01*
G01X941374Y-213067D01*
G01X931958Y-193909D01*
G01X919412Y-176638D01*
G01X904105Y-161759D01*
G01X886484Y-149709D01*
G01X867066Y-140840D01*
G01X846421Y-135413D01*
G01X825152Y-133586D01*
G01X803883Y-135413D01*
G01X783238Y-140840D01*
G01X763820Y-149709D01*
G01X746199Y-161759D01*
G01X730892Y-176638D01*
G01X718346Y-193909D01*
G01X708930Y-213067D01*
G01X702918Y-233550D01*
G01X700488Y-254759D01*
G01X594785Y-254759D01*
G01X590968Y-235809D01*
G01X580787Y-204469D01*
G01X567066Y-174510D01*
G01X549989Y-146329D01*
G01X529781Y-120301D01*
G01X506711Y-96771D01*
G01X481087Y-76054D01*
G01X453249Y-58423D01*
G01X423566Y-44114D01*
G01X3055434Y-44114D01*
G01X3025643Y-58483D01*
G01X2997712Y-76198D01*
G01X2972014Y-97020D01*
G01X2948895Y-120673D01*
G01X2928662Y-146837D01*
G01X2911588Y-175164D01*
G01X2897900Y-205274D01*
G01X2887783Y-236764D01*
G01X2881371Y-269211D01*
G01X2878751Y-302182D01*
G01X2879958Y-335235D01*
G01X2884975Y-367927D01*
G01X2893735Y-399821D01*
G01X2906121Y-430489D01*
G01X2921968Y-459521D01*
G01X2941062Y-486528D01*
G01X2963148Y-511148D01*
G01X2987931Y-533051D01*
G01X3015078Y-551945D01*
G01X3044227Y-567576D01*
G01X3074986Y-579735D01*
G01X3106943Y-588259D01*
G01X3139672Y-593033D01*
G01X3172733Y-593995D01*
G01X3205683Y-591131D01*
G01X3238082Y-584480D01*
G01X3269496Y-574130D01*
G01X3299504Y-560220D01*
G01X3327704Y-542936D01*
G01X3353718Y-522510D01*
G01X3377198Y-499216D01*
G01X3397830Y-473365D01*
G01X3415338Y-445304D01*
G01X3429486Y-415408D01*
G01X3429486Y-600847D01*
G01X3427400Y-600786D01*
G01X3227400Y-600786D01*
G01X3216333Y-602539D01*
G01X3206349Y-607626D01*
G01X3198426Y-615549D01*
G01X3193339Y-625533D01*
G01X3191586Y-636600D01*
G01X3191586Y-669687D01*
G01X3178931Y-651110D01*
G01X3163386Y-634875D01*
G01X3145376Y-621427D01*
G01X3125394Y-611133D01*
G01X3103988Y-604276D01*
G01X3081745Y-601043D01*
G01X3059273Y-601523D01*
G01X3037187Y-605703D01*
G01X3016094Y-613468D01*
G01X2996570Y-624606D01*
G01X2979151Y-638812D01*
G01X2964313Y-655696D01*
G01X2952464Y-674796D01*
G01X2943926Y-695589D01*
G01X2938935Y-717505D01*
G01X2937627Y-739944D01*
G01X2940038Y-762292D01*
G01X2946102Y-783935D01*
G01X2955653Y-804283D01*
G01X2968428Y-822776D01*
G01X2944253Y-825423D01*
G01X2920752Y-831684D01*
G01X2898465Y-841418D01*
G01X2877901Y-854402D01*
G01X2859529Y-870338D01*
G01X2843771Y-888862D01*
G01X2830986Y-909551D01*
G01X2821468Y-931931D01*
G01X2815433Y-955491D01*
G01X2813020Y-979691D01*
G01X2814284Y-1003979D01*
G01X2819196Y-1027798D01*
G01X2827644Y-1050603D01*
G01X2839434Y-1071875D01*
G01X2854298Y-1091125D01*
G01X2871894Y-1107913D01*
G01X2891820Y-1121856D01*
G01X2913621Y-1132635D01*
G01X2936799Y-1140002D01*
G01X2960822Y-1143791D01*
G01X2985142Y-1143913D01*
G01X3009202Y-1140367D01*
G01X3032452Y-1133233D01*
G01X3054361Y-1122674D01*
G01X3074427Y-1108932D01*
G01X3085948Y-1098159D01*
G01X3112278Y-1098159D01*
G01X3112278Y-1118829D01*
G01X3116076Y-1139148D01*
G01X3123543Y-1158423D01*
G01X3134425Y-1175998D01*
G01X3148350Y-1191273D01*
G01X3164846Y-1203730D01*
G01X3183350Y-1212944D01*
G01X3203231Y-1218601D01*
G01X3223814Y-1220508D01*
G01X3223814Y-1220508D01*
G01X3244396Y-1218601D01*
G01X3264278Y-1212944D01*
G01X3282781Y-1203730D01*
G01X3299277Y-1191273D01*
G01X3313203Y-1175998D01*
G01X3324085Y-1158423D01*
G01X3331552Y-1139148D01*
G01X3335350Y-1118829D01*
G01X3335350Y-1098159D01*
G01X3331552Y-1077840D01*
G01X3324085Y-1058565D01*
G01X3313203Y-1040991D01*
G01X3299277Y-1025715D01*
G01X3282781Y-1013258D01*
G01X3264278Y-1004044D01*
G01X3244396Y-998387D01*
G01X3223814Y-996480D01*
G01X3203231Y-998387D01*
G01X3183350Y-1004044D01*
G01X3164846Y-1013258D01*
G01X3148350Y-1025715D01*
G01X3134425Y-1040991D01*
G01X3123543Y-1058565D01*
G01X3116076Y-1077840D01*
G01X3112278Y-1098159D01*
G01X3085948Y-1098159D01*
G01X3092191Y-1092322D01*
G01X3107247Y-1073222D01*
G01X3119251Y-1052071D01*
G01X3127928Y-1029351D01*
G01X3133079Y-1005583D01*
G01X3134588Y-981309D01*
G01X3132418Y-957086D01*
G01X3126621Y-933467D01*
G01X3117328Y-910992D01*
G01X3104753Y-890176D01*
G01X3089182Y-871494D01*
G01X3110017Y-867384D01*
G01X3129957Y-860077D01*
G01X3148514Y-849751D01*
G01X3165235Y-836659D01*
G01X3179710Y-821119D01*
G01X3191586Y-803513D01*
G01X3191586Y-836600D01*
G01X3193339Y-847667D01*
G01X3198426Y-857651D01*
G01X3206349Y-865574D01*
G01X3216333Y-870661D01*
G01X3227400Y-872414D01*
G01X3427400Y-872414D01*
G01X3429486Y-872353D01*
G01X3429486Y-4128387D01*
G01X3420645Y-4111784D01*
G01X3408731Y-4097228D01*
G01X3394202Y-4085281D01*
G01X3377620Y-4076402D01*
G01X3359622Y-4070934D01*
G01X3340903Y-4069088D01*
G01X3280903Y-4069088D01*
G01X3262210Y-4070929D01*
G01X3244236Y-4076381D01*
G01X3227671Y-4085235D01*
G01X3213152Y-4097151D01*
G01X3201236Y-4111670D01*
G01X3192382Y-4128235D01*
G01X3186930Y-4146209D01*
G01X3185089Y-4164901D01*
G01X3186930Y-4183594D01*
G01X3192382Y-4201568D01*
G01X3201236Y-4218133D01*
G01X3213152Y-4232652D01*
G01X3227671Y-4244568D01*
G01X3244236Y-4253422D01*
G01X3262210Y-4258874D01*
G01X3280903Y-4260715D01*
G01X3340903Y-4260715D01*
G01X3359622Y-4258869D01*
G01X3377620Y-4253401D01*
G01X3394202Y-4244522D01*
G01X3408731Y-4232575D01*
G01X3420645Y-4218019D01*
G01X3429486Y-4201416D01*
G01X3429486Y-4993384D01*
G01X3420645Y-4976781D01*
G01X3408731Y-4962225D01*
G01X3394202Y-4950278D01*
G01X3377620Y-4941399D01*
G01X3359622Y-4935931D01*
G01X3340903Y-4934085D01*
G01X3280903Y-4934085D01*
G01X3262210Y-4935926D01*
G01X3244236Y-4941378D01*
G01X3227671Y-4950232D01*
G01X3213152Y-4962148D01*
G01X3201236Y-4976667D01*
G01X3192382Y-4993232D01*
G01X3186930Y-5011206D01*
G01X3185089Y-5029898D01*
G01X3186930Y-5048591D01*
G01X3192382Y-5066565D01*
G01X3201236Y-5083130D01*
G01X3213152Y-5097649D01*
G01X3227671Y-5109565D01*
G01X3244236Y-5118419D01*
G01X3262210Y-5123871D01*
G01X3280903Y-5125712D01*
G01X3340903Y-5125712D01*
G01X3359622Y-5123866D01*
G01X3377620Y-5118398D01*
G01X3394202Y-5109519D01*
G01X3408731Y-5097572D01*
G01X3420645Y-5083016D01*
G01X3429486Y-5066413D01*
G01X3429486Y-5401192D01*
G01X3415460Y-5371520D01*
G01X3398124Y-5343651D01*
G01X3377708Y-5317953D01*
G01X3354481Y-5294766D01*
G01X3328749Y-5274394D01*
G01X3300850Y-5257106D01*
G01X3271154Y-5243131D01*
G01X3240051Y-5232652D01*
G01X3207952Y-5225808D01*
G01X3175280Y-5222689D01*
G01X3142466Y-5223336D01*
G01X3109943Y-5227741D01*
G01X3078139Y-5235845D01*
G01X3047473Y-5247542D01*
G01X3018351Y-5262678D01*
G01X2991156Y-5281052D01*
G01X2966247Y-5302423D01*
G01X2943952Y-5326508D01*
G01X2924565Y-5352991D01*
G01X2908342Y-5381521D01*
G01X2895497Y-5411724D01*
G01X2886199Y-5443199D01*
G01X2880570Y-5475534D01*
G01X2878686Y-5508300D01*
G01X2880570Y-5541066D01*
G01X2886199Y-5573400D01*
G01X2895497Y-5604876D01*
G01X2908342Y-5635078D01*
G01X2924565Y-5663609D01*
G01X2943952Y-5690092D01*
G01X2966247Y-5714177D01*
G01X2991156Y-5735548D01*
G01X3018351Y-5753922D01*
G01X3047473Y-5769057D01*
G01X3078139Y-5780754D01*
G01X3109943Y-5788859D01*
G01X3142466Y-5793263D01*
G01X3175280Y-5793911D01*
G01X3207952Y-5790792D01*
G01X3240051Y-5783948D01*
G01X3271154Y-5773469D01*
G01X3300850Y-5759494D01*
G01X3328749Y-5742206D01*
G01X3354481Y-5721834D01*
G01X3377708Y-5698646D01*
G01X3398124Y-5672949D01*
G01X3415460Y-5645080D01*
G01X3429486Y-5615408D01*
G01X3429486Y-6136764D01*
G01X3415768Y-6120745D01*
G01X3399568Y-6107242D01*
G01X3381340Y-6096635D01*
G01X3361596Y-6089222D01*
G01X3340891Y-6085212D01*
G01X3319807Y-6084716D01*
G01X3298936Y-6087748D01*
G01X3278866Y-6094224D01*
G01X3260159Y-6103962D01*
G01X3243341Y-6116688D01*
G01X3228885Y-6132044D01*
G01X3217198Y-6149599D01*
G01X3208607Y-6168860D01*
G01X3203354Y-6189285D01*
G01X3201586Y-6210300D01*
G01X3203354Y-6231315D01*
G01X3208607Y-6251740D01*
G01X3217198Y-6271001D01*
G01X3228885Y-6288556D01*
G01X3243341Y-6303912D01*
G01X3260159Y-6316638D01*
G01X3278866Y-6326376D01*
G01X3298936Y-6332852D01*
G01X3319807Y-6335884D01*
G01X3340891Y-6335388D01*
G01X3361596Y-6331378D01*
G01X3381340Y-6323965D01*
G01X3399568Y-6313358D01*
G01X3415768Y-6299855D01*
G01X3429486Y-6283836D01*
G01X3429486Y-6572486D01*
G01X51114Y-6572486D01*
G37*
G54D10*
G01X51114Y-6572486D02*
G01X51114Y-5619284D01*
G03X600314Y-5508300I263386J110985D01*
G03X51114Y-5397315I-285814J0D01*
G01X51114Y-4557334D01*
G01X632686Y-3975761D01*
G01X632686Y-4424171D01*
G03X698500Y-4498614I65814J-8129D01*
G03X764314Y-4424171I0J66314D01*
G01X764314Y-3957525D01*
G03X773674Y-3909911I-116426J47614D01*
G01X773674Y-2875401D01*
G01X935537Y-2713537D01*
G03X954814Y-2667000I-46537J46537D01*
G01X954814Y-2119460D01*
G03X890774Y-2043619I-65623J9546D01*
G03X823186Y-2116315I-1584J-66295D01*
G01X823186Y-2639739D01*
G01X683702Y-2779223D01*
G01X683702Y-2114940D01*
G03X673212Y-2089616I-35814J0D01*
G01X51114Y-1467518D01*
G01X51114Y-419284D01*
G03X517334Y-509665I263386J110985D01*
G03X423566Y-44114I-202835J201365D01*
G01X3055434Y-44114D01*
G03X2963148Y-511148I109066J-264186D01*
G03X3429486Y-415408I201352J202848D01*
G01X3429486Y-600847D01*
G01X3427400Y-600786D01*
G01X3227400Y-600786D01*
G03X3191586Y-636600I0J-35814D01*
G01X3191586Y-669687D01*
G03X2996570Y-624606I-118186J-66913D01*
G03X2968428Y-822776I76830J-111994D01*
G03X2913621Y-1132635I5360J-160724D01*
G03X3089182Y-871494I60168J149134D01*
G03X3191586Y-803513I-15782J134894D01*
G01X3191586Y-836600D01*
G03X3227400Y-872414I35814J0D01*
G01X3427400Y-872414D01*
G01X3429486Y-872353D01*
G01X3429486Y-4128387D01*
G03X3340903Y-4069088I-88583J-36514D01*
G01X3280903Y-4069088D01*
G03X3280903Y-4260715I0J-95814D01*
G01X3340903Y-4260715D01*
G03X3429486Y-4201416I0J95814D01*
G01X3429486Y-4993384D01*
G03X3340903Y-4934085I-88583J-36514D01*
G01X3280903Y-4934085D01*
G03X3280903Y-5125712I0J-95814D01*
G01X3340903Y-5125712D01*
G03X3429486Y-5066413I0J95814D01*
G01X3429486Y-5401192D01*
G03X2878686Y-5508300I-264986J-107108D01*
G03X3429486Y-5615408I285814J0D01*
G01X3429486Y-6136764D01*
G03X3201586Y-6210300I-102086J-73536D01*
G03X3429486Y-6283836I125814J0D01*
G01X3429486Y-6572486D01*
G01X51114Y-6572486D01*
G01X1132586Y-2324590D02*
G03X1181100Y-2436114I48514J-45210D01*
G03X1229614Y-2324590I0J66314D01*
G01X1229614Y-1041400D01*
G03X1215405Y-1007095I-48514J0D01*
G01X873666Y-665357D01*
G01X873666Y-373191D01*
G03X825152Y-133586I-48514J114891D01*
G03X776638Y-373191I0J-124714D01*
G01X776638Y-685452D01*
G03X790847Y-719757I48514J0D01*
G01X1132586Y-1061495D01*
G01X1132586Y-2324590D01*
G01X840486Y-3866390D02*
G03X889000Y-3977914I48514J-45210D01*
G03X937514Y-3866390I0J66314D01*
G01X937514Y-2953795D01*
G01X1381550Y-2509759D01*
G03X1395760Y-2475454I-34305J34305D01*
G01X1395760Y-943346D01*
G03X1410968Y-908077I-50681J42767D01*
G01X1894586Y-1391695D01*
G01X1894586Y-3231105D01*
G01X1756395Y-3369295D01*
G03X1742186Y-3403600I34305J-34305D01*
G01X1742186Y-3855789D01*
G03X1712204Y-3903328I35814J-55811D01*
G03X1729486Y-3956810I65796J-8272D01*
G01X1729486Y-4005805D01*
G01X1299195Y-4436096D01*
G03X1284986Y-4470400I34305J-34305D01*
G01X1284986Y-5443409D01*
G03X1333500Y-5683014I48514J-114891D01*
G03X1382014Y-5443409I0J124714D01*
G01X1382014Y-4490495D01*
G01X1812305Y-4060205D01*
G03X1826514Y-4025900I-34305J34305D01*
G01X1826514Y-3956810D01*
G03X1843270Y-3923322I-48514J45210D01*
G03X1839214Y-3886097I-65270J11722D01*
G01X1839214Y-3423695D01*
G01X1977405Y-3285505D01*
G03X1983486Y-3278081I-34305J34305D01*
G01X1983486Y-3345405D01*
G01X1883395Y-3445495D01*
G03X1869186Y-3479800I34305J-34305D01*
G01X1869186Y-3866390D01*
G03X1881230Y-3966985I48514J-45210D01*
G03X1978399Y-3938306I36470J55385D01*
G03X2037174Y-4002886I66301J1306D01*
G03X2108999Y-3953225I7526J65886D01*
G03X2222333Y-3930149I50192J43340D01*
G03X2295034Y-3977296I63667J18549D01*
G03X2352311Y-3912275I-9034J65696D01*
G03X2359914Y-3886200I-40911J26075D01*
G01X2359914Y-3283995D01*
G01X2434605Y-3209305D01*
G03X2448814Y-3175000I-34305J34305D01*
G01X2448814Y-1854200D01*
G03X2434605Y-1819895I-48514J0D01*
G01X2334514Y-1719805D01*
G01X2334514Y-1181100D01*
G03X2320305Y-1146795I-48514J0D01*
G01X1889666Y-716157D01*
G01X1889666Y-373191D01*
G03X1841152Y-133586I-48514J114891D01*
G03X1792638Y-373191I0J-124714D01*
G01X1792638Y-736252D01*
G03X1806847Y-770557I48514J0D01*
G01X2237486Y-1201195D01*
G01X2237486Y-1739900D01*
G03X2251695Y-1774205I48514J0D01*
G01X2351786Y-1874295D01*
G01X2351786Y-3154905D01*
G01X2277095Y-3229595D01*
G03X2262886Y-3263900I34305J-34305D01*
G01X2262886Y-3849445D01*
G03X2222858Y-3891337I23114J-62155D01*
G03X2207705Y-3864675I-63667J-18549D01*
G01X2207705Y-1320990D01*
G03X2193495Y-1286686I-48514J0D01*
G01X1635666Y-728857D01*
G01X1635666Y-373191D01*
G03X1587152Y-133586I-48514J114891D01*
G03X1538638Y-373191I0J-124714D01*
G01X1538638Y-721797D01*
G03X1454957Y-703348I-52738J-40203D01*
G03X1422944Y-782835I30943J-58652D01*
G01X1140714Y-500605D01*
G01X1140714Y-366760D01*
G03X1064972Y-134394I-61562J108461D01*
G03X1043686Y-377865I14180J-123905D01*
G01X1043686Y-520700D01*
G03X1057895Y-555005I48514J0D01*
G01X1337581Y-834690D01*
G03X1282349Y-879073I7498J-65889D01*
G03X1298732Y-948008I62730J-21506D01*
G01X1298732Y-2455359D01*
G01X854695Y-2899395D01*
G03X840486Y-2933700I34305J-34305D01*
G01X840486Y-3866390D01*
G01X1457866Y-258300D02*
G03X1208438Y-258300I-124714J0D01*
G03X1457866Y-258300I124714J0D01*
G01X1585164Y-5382027D02*
G03X1521325Y-5452590I2336J-66273D01*
G03X1587499Y-5683014I66175J-105709D01*
G03X1653675Y-5452591I0J124714D01*
G01X1653773Y-5450636D01*
G01X1672605Y-5431805D01*
G03X1686814Y-5397500I-34305J34305D01*
G01X1686814Y-4439410D01*
G03X1638300Y-4327886I-48514J45210D01*
G03X1589786Y-4439410I0J-66314D01*
G01X1589786Y-5377405D01*
G01X1585164Y-5382027D01*
G01X1841500Y-5683014D02*
G03X1841500Y-5433586I0J124714D01*
G03X1841500Y-5683014I0J-124714D01*
G01X1750659Y-4920251D02*
G03X1786473Y-4956065I35814J0D01*
G01X1899727Y-4956065D01*
G03X1935541Y-4920251I0J35814D01*
G01X1935541Y-4782549D01*
G03X1899727Y-4746735I-35814J0D01*
G01X1786473Y-4746735D01*
G03X1750659Y-4782549I0J-35814D01*
G01X1750659Y-4920251D01*
G01X1750659Y-4666251D02*
G03X1786473Y-4702065I35814J0D01*
G01X1899727Y-4702065D01*
G03X1935541Y-4666251I0J35814D01*
G01X1935541Y-4528549D01*
G03X1899727Y-4492735I-35814J0D01*
G01X1786473Y-4492735D01*
G03X1750659Y-4528549I0J-35814D01*
G01X1750659Y-4666251D01*
G01X2089015Y-6465103D02*
G01X2089015Y-6405103D01*
G03X1897388Y-6405103I-95814J0D01*
G01X1897388Y-6465103D01*
G03X2089015Y-6465103I95814J0D01*
G01X2207006Y-6075464D02*
G03X2084015Y-6019773I-70320J8357D01*
G01X2084015Y-5970088D01*
G03X1902388Y-5970088I-90814J0D01*
G01X1902388Y-6060088D01*
G03X2074389Y-6100780I90814J0D01*
G03X2207006Y-6075464I62297J33672D01*
G01X2402486Y-5334000D02*
G03X2416725Y-5368375I48614J0D01*
G01X2674520Y-5626171D01*
G01X2488698Y-5811993D01*
G03X2474488Y-5846298I34305J-34305D01*
G01X2474488Y-6150075D01*
G01X2473002Y-6150075D01*
G03X2437188Y-6185889I0J-35814D01*
G01X2437188Y-6310890D01*
G03X2473002Y-6346704I35814J0D01*
G01X2573002Y-6346704D01*
G03X2608816Y-6310890I0J35814D01*
G01X2608816Y-6185889D01*
G03X2573002Y-6150075I-35814J0D01*
G01X2571516Y-6150075D01*
G01X2571516Y-5866393D01*
G01X2743200Y-5694709D01*
G01X3050286Y-6001795D01*
G01X3050286Y-6086628D01*
G03X3045748Y-6333038I23114J-123672D01*
G03X3147314Y-6108487I27652J122738D01*
G01X3147314Y-5981700D01*
G03X3133105Y-5947395I-48514J0D01*
G01X2809473Y-5623764D01*
G03X2745683Y-5559832I-66273J-2336D01*
G01X2499714Y-5313863D01*
G01X2499714Y-4845703D01*
G03X2503774Y-4760314I-48614J45103D01*
G01X2639625Y-4760314D01*
G03X2754757Y-4793751I65475J10514D01*
G03X2707583Y-4683532I-49657J43951D01*
G01X2701375Y-4677325D01*
G03X2667000Y-4663086I-34375J-34375D01*
G01X2644664Y-4663086D01*
G01X2739475Y-4568275D01*
G03X2753109Y-4541546I-34375J34375D01*
G03X2715299Y-4430275I-48009J45746D01*
G03X2645459Y-4524791I-10199J-65525D01*
G01X2545263Y-4624986D01*
G01X2139436Y-4624986D01*
G01X2135541Y-4621090D01*
G01X2135541Y-4528549D01*
G03X2099727Y-4492735I-35814J0D01*
G01X1986473Y-4492735D01*
G03X1950659Y-4528549I0J-35814D01*
G01X1950659Y-4666251D01*
G03X1986473Y-4702065I35814J0D01*
G01X2079014Y-4702065D01*
G01X2084925Y-4707975D01*
G03X2105527Y-4720222I34375J34375D01*
G01X2079014Y-4746735D01*
G01X1986473Y-4746735D01*
G03X1950659Y-4782549I0J-35814D01*
G01X1950659Y-4920251D01*
G03X1986473Y-4956065I35814J0D01*
G01X2099727Y-4956065D01*
G03X2135541Y-4920251I0J35814D01*
G01X2135541Y-4827710D01*
G01X2202936Y-4760314D01*
G01X2398426Y-4760314D01*
G03X2402486Y-4845703I52674J-40286D01*
G01X2402486Y-5334000D01*
G01X2469214Y-258300D02*
G03X2219826Y-255141I-124714J0D01*
G03X1970438Y-258300I-124674J-3158D01*
G03X2219826Y-261458I124714J0D01*
G03X2469214Y-258300I124674J3158D01*
G01X2220214Y-5469400D02*
G03X2184400Y-5433586I-35814J0D01*
G01X2006600Y-5433586D01*
G03X1970786Y-5469400I0J-35814D01*
G01X1970786Y-5647200D01*
G03X2006600Y-5683014I35814J0D01*
G01X2184400Y-5683014D01*
G03X2220214Y-5647200I0J35814D01*
G01X2220214Y-5469400D01*
G01X2388801Y-6185889D02*
G03X2352987Y-6150075I-35814J0D01*
G01X2252988Y-6150075D01*
G03X2217174Y-6185889I0J-35814D01*
G01X2217174Y-6310890D01*
G03X2252988Y-6346704I35814J0D01*
G01X2352987Y-6346704D01*
G03X2388801Y-6310890I0J35814D01*
G01X2388801Y-6185889D01*
G01X2575814Y-3794477D02*
G01X2575814Y-3646891D01*
G03X2609334Y-3531727I-10414J65491D01*
G03X2499127Y-3579064I-43934J-49673D01*
G01X2492995Y-3585195D01*
G03X2478786Y-3619500I34305J-34305D01*
G01X2478786Y-4056605D01*
G01X2320000Y-4215391D01*
G03X2275445Y-4328555I2336J-66273D01*
G03X2388609Y-4284000I46891J46891D01*
G01X2542286Y-4130323D01*
G01X2542286Y-4285205D01*
G01X2499564Y-4327927D01*
G03X2455009Y-4441091I2336J-66273D01*
G03X2568173Y-4396536I46891J46891D01*
G01X2625105Y-4339605D01*
G03X2639314Y-4305300I-34305J34305D01*
G01X2639314Y-3974484D01*
G03X2694633Y-3962524I14986J64599D01*
G03X2720573Y-3912222I-40333J52639D01*
G01X2904505Y-3728290D01*
G03X2918714Y-3693985I-34305J34305D01*
G01X2918714Y-3182395D01*
G01X3082305Y-3018805D01*
G03X3096514Y-2984500I-34305J34305D01*
G01X3096514Y-2763295D01*
G01X3171222Y-2688587D01*
G03X3384508Y-2567683I92678J85087D01*
G03X3139803Y-2582788I-120608J-35817D01*
G01X3013695Y-2708895D01*
G03X2999486Y-2743200I34305J-34305D01*
G01X2999486Y-2964405D01*
G01X2855214Y-3108677D01*
G01X2855214Y-2324100D01*
G03X2841005Y-2289795I-48514J0D01*
G01X2733273Y-2182064D01*
G03X2729467Y-2162142I-66273J-2336D01*
G01X2988763Y-2421437D01*
G03X3035300Y-2440714I46537J46537D01*
G01X3177245Y-2440714D01*
G03X3386048Y-2319349I86655J91214D01*
G03X3144754Y-2309086I-122148J-30151D01*
G01X3062561Y-2309086D01*
G01X2656614Y-1903139D01*
G01X2656614Y-1384300D01*
G03X2637337Y-1337763I-65814J0D01*
G01X2528786Y-1229211D01*
G03X2429609Y-1223109I-52286J-40789D01*
G03X2435711Y-1322286I46891J-46891D01*
G01X2524986Y-1411561D01*
G01X2524986Y-1930400D01*
G03X2544263Y-1976937I65814J0D01*
G01X2689258Y-2121933D01*
G03X2601864Y-2171957I-22258J-62467D01*
G03X2664664Y-2250673I65136J-12443D01*
G01X2758186Y-2344195D01*
G01X2758186Y-3612105D01*
G01X2575814Y-3794477D01*
G01X2514252Y-133586D02*
G03X2478438Y-169400I0J-35814D01*
G01X2478438Y-347200D01*
G03X2514252Y-383014I35814J0D01*
G01X2692052Y-383014D01*
G03X2727866Y-347200I0J35814D01*
G01X2727866Y-169400D01*
G03X2692052Y-133586I-35814J0D01*
G01X2514252Y-133586D01*
G01X2644367Y-6075459D02*
G03X2776999Y-6100755I70321J8352D01*
G03X2949012Y-6060088I81199J40667D01*
G01X2949012Y-5970088D01*
G03X2767385Y-5970088I-90814J0D01*
G01X2767385Y-6019801D01*
G03X2644367Y-6075459I-52696J-47307D01*
G01X2935888Y-4074088D02*
G01X2845888Y-4074088D01*
G03X2845888Y-4255715I0J-90814D01*
G01X2895601Y-4255715D01*
G03X2951259Y-4378733I47307J-52696D01*
G03X2976555Y-4246101I-8352J70321D01*
G03X2935888Y-4074088I-40667J81199D01*
G01X2845888Y-4939085D02*
G03X2845888Y-5120712I0J-90814D01*
G01X2935888Y-5120712D01*
G03X2976580Y-4948711I0J90814D01*
G03X2951264Y-4816094I-33672J62297D01*
G03X2895573Y-4939085I-8357J-70320D01*
G01X2845888Y-4939085D01*
G01X2954012Y-6465103D02*
G01X2954012Y-6405103D01*
G03X2762385Y-6405103I-95814J0D01*
G01X2762385Y-6465103D01*
G03X2954012Y-6465103I95814J0D01*
G01X2812975Y-1683499D02*
G03X3134603Y-1683499I160814J0D01*
G03X2812975Y-1683499I-160814J0D01*
G01X3145714Y-3824300D02*
G03X3109900Y-3788486I-35814J0D01*
G01X2909900Y-3788486D01*
G03X2874086Y-3824300I0J-35814D01*
G01X2874086Y-4024300D01*
G03X2909900Y-4060114I35814J0D01*
G01X3109900Y-4060114D01*
G03X3145714Y-4024300I0J35814D01*
G01X3145714Y-3991213D01*
G03X3399714Y-3924300I118186J66913D01*
G03X3145714Y-3857387I-135814J0D01*
G01X3145714Y-3824300D01*
G01X3223814Y-1670520D02*
G03X3223814Y-1446492I0J112014D01*
G03X3223814Y-1670520I0J-112014D01*
G01X3223814Y-1220508D02*
G03X3223814Y-996480I0J112014D01*
G03X3223814Y-1220508I0J-112014D01*
G01X3263900Y-2983314D02*
G03X3263900Y-2731686I0J125814D01*
G03X3263900Y-2983314I0J-125814D01*
G01X3263900Y-3237314D02*
G03X3263900Y-2985686I0J125814D01*
G03X3263900Y-3237314I0J-125814D01*
G01X3263900Y-3491314D02*
G03X3263900Y-3239686I0J125814D01*
G03X3263900Y-3491314I0J-125814D01*
G01X3389714Y-3529500D02*
G03X3353900Y-3493686I-35814J0D01*
G01X3173900Y-3493686D01*
G03X3138086Y-3529500I0J-35814D01*
G01X3138086Y-3709500D01*
G03X3173900Y-3745314I35814J0D01*
G01X3353900Y-3745314D01*
G03X3389714Y-3709500I0J35814D01*
G01X3389714Y-3529500D01*
G54D11*
G01X3310903Y-5029898D02*
G01X3310903Y-4944245D01*
G01X3310903Y-5029898D02*
G01X3310903Y-5115552D01*
G01X3310903Y-5029898D02*
G01X3195249Y-5029898D01*
G01X3310903Y-4164901D02*
G01X3310903Y-4079248D01*
G01X3310903Y-4164901D02*
G01X3310903Y-4250555D01*
G01X3310903Y-4164901D02*
G01X3195249Y-4164901D01*
G01X3327400Y-6210300D02*
G01X3211746Y-6210300D01*
G01X3327400Y-6210300D02*
G01X3327400Y-6325954D01*
G01X3327400Y-6210300D02*
G01X3327400Y-6094646D01*
G01X3223814Y-1558506D02*
G01X3223814Y-1660360D01*
G01X3223814Y-1558506D02*
G01X3223814Y-1456652D01*
G01X3223814Y-1558506D02*
G01X3121960Y-1558506D01*
G01X3223814Y-1558506D02*
G01X3325668Y-1558506D01*
G01X3263900Y-3619500D02*
G01X3263900Y-3735154D01*
G01X3263900Y-3619500D02*
G01X3263900Y-3503846D01*
G01X3263900Y-3619500D02*
G01X3148246Y-3619500D01*
G01X3263900Y-3619500D02*
G01X3379554Y-3619500D01*
G01X3263900Y-3924300D02*
G01X3389554Y-3924300D01*
G01X3263900Y-3924300D02*
G01X3263900Y-3798646D01*
G01X3263900Y-3924300D02*
G01X3263900Y-4049954D01*
G01X3073400Y-736600D02*
G01X2947746Y-736600D01*
G01X3073400Y-736600D02*
G01X3073400Y-610946D01*
G01X2858199Y-6435103D02*
G01X2943852Y-6435103D01*
G01X2858199Y-6435103D02*
G01X2772545Y-6435103D01*
G01X2858199Y-6435103D02*
G01X2858199Y-6550757D01*
G01X2858199Y-6435103D02*
G01X2858199Y-6319449D01*
G01X1993202Y-6435103D02*
G01X2078855Y-6435103D01*
G01X1993202Y-6435103D02*
G01X1907548Y-6435103D01*
G01X1993202Y-6435103D02*
G01X1993202Y-6550757D01*
G01X1993202Y-6435103D02*
G01X1993202Y-6319449D01*
G01X1993202Y-6015088D02*
G01X2073855Y-6015088D01*
G01X1993202Y-6015088D02*
G01X1912548Y-6015088D01*
G01X1993202Y-6015088D02*
G01X1993202Y-6140742D01*
G01X1993202Y-6015088D02*
G01X1993202Y-5889434D01*
G01X2344500Y-258300D02*
G01X2459054Y-258300D01*
G01X2344500Y-258300D02*
G01X2344500Y-372854D01*
G01X2344500Y-258300D02*
G01X2344500Y-143746D01*
G01X2858199Y-6015088D02*
G01X2938852Y-6015088D01*
G01X2858199Y-6015088D02*
G01X2777545Y-6015088D01*
G01X2858199Y-6015088D02*
G01X2858199Y-6140742D01*
G01X2858199Y-6015088D02*
G01X2858199Y-5889434D01*
G01X2890888Y-5029898D02*
G01X2890888Y-4949245D01*
G01X2890888Y-5029898D02*
G01X2890888Y-5110552D01*
G01X2890888Y-5029898D02*
G01X3016542Y-5029898D01*
G01X2890888Y-5029898D02*
G01X2765235Y-5029898D01*
G01X2890888Y-4164901D02*
G01X2890888Y-4084248D01*
G01X2890888Y-4164901D02*
G01X2890888Y-4245555D01*
G01X2890888Y-4164901D02*
G01X3016542Y-4164901D01*
G01X2890888Y-4164901D02*
G01X2765235Y-4164901D01*
G01X2973789Y-983501D02*
G01X2823135Y-983501D01*
G01X2973789Y-983501D02*
G01X3124443Y-983501D01*
G01X2973789Y-983501D02*
G01X2973789Y-1134154D01*
G01X2973789Y-1683499D02*
G01X2823135Y-1683499D01*
G01X2973789Y-1683499D02*
G01X3124443Y-1683499D01*
G01X2973789Y-1683499D02*
G01X2973789Y-1532846D01*
G01X2973789Y-1683499D02*
G01X2973789Y-1834153D01*
G01X1843100Y-4851400D02*
G01X1760819Y-4851400D01*
G01X1843100Y-4851400D02*
G01X1925381Y-4851400D01*
G01X1843100Y-4851400D02*
G01X1843100Y-4756895D01*
G01X1843100Y-4851400D02*
G01X1843100Y-4945905D01*
G01X1843100Y-4597400D02*
G01X1760819Y-4597400D01*
G01X1843100Y-4597400D02*
G01X1925381Y-4597400D01*
G01X1843100Y-4597400D02*
G01X1843100Y-4502895D01*
G01X1843100Y-4597400D02*
G01X1843100Y-4691905D01*
G01X2302988Y-6248390D02*
G01X2378641Y-6248390D01*
G01X2302988Y-6248390D02*
G01X2227334Y-6248390D01*
G01X2302988Y-6248390D02*
G01X2302988Y-6336544D01*
G01X2302988Y-6248390D02*
G01X2302988Y-6160235D01*
G04 Copper End*

G04 Pad Start*
G54D12*
G01X3263900Y-2349500D03*
G01X3263900Y-2603500D03*
G01X3263900Y-2857500D03*
G01X3263900Y-3111500D03*
G01X3263900Y-3365500D03*
G54D13*
G01X3263900Y-3619500D03*
G54D14*
G01X2523002Y-6248390D03*
G01X2302988Y-6248390D03*
G54D16*
G01X2973789Y-983501D03*
G01X2973789Y-1683499D03*
G54D17*
G01X3223814Y-1108494D03*
G01X3223814Y-1558506D03*
G54D18*
G01X2858199Y-6015088D03*
G01X1993202Y-6015088D03*
G54D19*
G01X2858199Y-6435103D03*
G01X1993202Y-6435103D03*
G54D20*
G01X314500Y-5508300D03*
G01X3164500Y-5508300D03*
G01X3164500Y-308300D03*
G01X314500Y-308300D03*
G54D21*
G01X2095500Y-5558300D03*
G54D22*
G01X1841500Y-5558300D03*
G01X1587500Y-5558300D03*
G01X1333500Y-5558300D03*
G54D21*
G01X2603152Y-258300D03*
G54D22*
G01X2344500Y-258300D03*
G01X2095152Y-258300D03*
G01X1841152Y-258300D03*
G01X1587152Y-258300D03*
G01X1333152Y-258300D03*
G01X1079152Y-258300D03*
G01X825152Y-258300D03*
G54D12*
G01X3073400Y-6210300D03*
G01X3327400Y-6210300D03*
G54D23*
G01X2043100Y-4597400D03*
G01X1843100Y-4597400D03*
G01X2043100Y-4851400D03*
G01X1843100Y-4851400D03*
G54D24*
G01X2890888Y-4164901D03*
G01X2890888Y-5029898D03*
G54D25*
G01X3310903Y-4164901D03*
G01X3310903Y-5029898D03*
G54D26*
G01X3009900Y-3924300D03*
G54D27*
G01X3263900Y-3924300D03*
G54D26*
G01X3327400Y-736600D03*
G54D27*
G01X3073400Y-736600D03*
G04 Pad End*

G04 Via Start*
G54D28*
G01X2743200Y-5626100D03*
G01X2565400Y-3581400D03*
G01X1308100Y-2692400D03*
G01X1308100Y-2857500D03*
G01X1308100Y-3022600D03*
G01X1391055Y-2769119D03*
G01X1391055Y-2938242D03*
G01X1391055Y-3106797D03*
G01X1473200Y-2862203D03*
G01X1473200Y-2697103D03*
G01X1473200Y-3027303D03*
G01X1549400Y-2773822D03*
G01X1549400Y-2942945D03*
G01X1549400Y-3111500D03*
G01X1625600Y-2862203D03*
G01X1625600Y-2697103D03*
G01X1625600Y-3027303D03*
G01X1701800Y-2773822D03*
G01X1701800Y-2942945D03*
G01X1701800Y-3111500D03*
G01X2654300Y-3909885D03*
G01X1778000Y-3911600D03*
G01X1638300Y-4394200D03*
G01X889000Y-3911600D03*
G01X1917700Y-3911600D03*
G01X2159191Y-3909885D03*
G01X2286000Y-3911600D03*
G01X2276764Y-6306447D03*
G01X889191Y-2109914D03*
G01X2476500Y-1270000D03*
G01X752259Y-2099881D03*
G01X1288846Y-1816101D03*
G01X1345079Y-900579D03*
G01X1587500Y-5448300D03*
G01X1181100Y-2369800D03*
G01X1993900Y-3556000D03*
G01X2044700Y-3937000D03*
G01X1485900Y-762000D03*
G01X2667000Y-2184400D03*
G01X698500Y-4432300D03*
G01X2705100Y-4495800D03*
G01X2705100Y-4749800D03*
G01X2451100Y-4800600D03*
G01X2322336Y-4281664D03*
G01X2501900Y-4394200D03*
G04 Via End*

G04 Track Start*
G54D29*
G01X2590800Y-1930400D02*
G01X2590800Y-1384300D01*
G01X2476500Y-1270000D01*
G54D11*
G01X1079152Y-258300D02*
G01X1092200Y-271348D01*
G01X1092200Y-520700D01*
G01X1943100Y-1371600D01*
G01X1943100Y-3251200D02*
G01X1790700Y-3403600D01*
G01X1790700Y-3898900D01*
G01X1778000Y-3911600D01*
G01X1943100Y-1371600D02*
G01X1943100Y-3251200D01*
G01X889000Y-3911600D02*
G01X889000Y-2933700D01*
G01X1587500Y-5448300D02*
G01X1638300Y-5397500D01*
G01X1638300Y-4394200D01*
G01X1333500Y-5558300D02*
G01X1333500Y-4470400D01*
G01X1778000Y-4025900D01*
G01X1778000Y-3911600D01*
G01X825152Y-258300D02*
G01X825152Y-685452D01*
G01X1993900Y-3556000D02*
G01X2044700Y-3606800D01*
G01X2044700Y-3937000D01*
G01X2159191Y-3909885D02*
G01X2159191Y-1320990D01*
G01X1587152Y-748952D02*
G01X1587152Y-258300D01*
G01X2159191Y-1320990D02*
G01X1587152Y-748952D01*
G01X1841152Y-258300D02*
G01X1841152Y-736252D01*
G01X2286000Y-1181100D01*
G01X2286000Y-1739900D01*
G01X2400300Y-1854200D01*
G01X2400300Y-3175000D01*
G01X2311400Y-3263900D01*
G01X2311400Y-3886200D01*
G01X2286000Y-3911600D01*
G01X1917700Y-3911600D02*
G01X1917700Y-3479800D01*
G01X2032000Y-3365500D01*
G01X2667000Y-2184400D02*
G01X2806700Y-2324100D01*
G01X2806700Y-3632200D01*
G01X2565400Y-3581400D02*
G01X2527300Y-3619500D01*
G01X2590800Y-3848100D02*
G01X2806700Y-3632200D01*
G54D29*
G01X698500Y-4432300D02*
G01X698500Y-3942083D01*
G03X707860Y-3909911I-50612J32172D01*
G01X707860Y-2848140D01*
G01X889000Y-2667000D01*
G01X889000Y-2110105D01*
G01X889191Y-2109914D01*
G54D11*
G01X825152Y-685452D02*
G01X1181100Y-1041400D01*
G01X1181100Y-2369800D01*
G01X889000Y-2933700D02*
G01X1347246Y-2475454D01*
G01X1347246Y-902746D01*
G01X1345079Y-900579D01*
G01X2032000Y-3365500D02*
G01X2032000Y-1308100D01*
G01X1485900Y-762000D01*
G01X2743200Y-5626100D02*
G01X2523002Y-5846298D01*
G01X2523002Y-6248390D01*
G01X3098800Y-6210300D02*
G01X3098800Y-5981700D01*
G01X2743200Y-5626100D01*
G01X2527300Y-3619500D02*
G01X2527300Y-4076700D01*
G54D30*
G01X2705100Y-4533900D02*
G01X2705100Y-4495800D01*
G01X2705100Y-4749800D02*
G01X2667000Y-4711700D01*
G01X2182800Y-4711700D01*
G01X2043100Y-4851400D01*
G01X2043100Y-4597400D02*
G01X2119300Y-4673600D01*
G01X2565400Y-4673600D01*
G01X2705100Y-4533900D01*
G01X2743200Y-5626100D02*
G01X2451100Y-5334000D01*
G01X2451100Y-4800600D01*
G54D11*
G01X2527300Y-4076700D02*
G01X2322336Y-4281664D01*
G01X2590800Y-4305300D02*
G01X2501900Y-4394200D01*
G01X2590800Y-4305300D02*
G01X2590800Y-3848100D01*
G01X2654300Y-3909885D02*
G01X2870200Y-3693985D01*
G01X2870200Y-3162300D01*
G54D29*
G01X3035300Y-2374900D02*
G01X2590800Y-1930400D01*
G01X3263900Y-2349500D02*
G01X3238500Y-2374900D01*
G01X3035300Y-2374900D01*
G54D11*
G01X2870200Y-3162300D02*
G01X3048000Y-2984500D01*
G01X3048000Y-2743200D01*
G01X3187700Y-2603500D01*
G01X3263900Y-2603500D01*
G04 Track End*

M02*

