G04 Layer: DrillDrawingLayer*
G04 EasyEDA Pro v3.2.149, 2026-09-26 09:59:38*
G04 Gerber Generator version 0.3*
G04 Scale: 100 percent, Rotated: No, Reflected: No*
G04 Dimensions in millimeters*
G04 Leading zeros omitted, absolute positions, 4 integers and 5 decimals*
G04 Generated by one-click*
G04 Object Configs: Pad,Via,Track,Text,Image,Dimension,BoardOutline,BoardCutout,CopperFilled,SolidRegion,FPCStiffener,Line,PlaneZone,ComponentProperty,ComponentSilkscreen,TearDrop*
G04 Layer Configs: 1,2,3,4,5,6,7,8,9,10,11,13,14,56*
G04 Copper Areas: 0*
%FSLAX45Y45*%
%MOMM*%
%AMIconRect*4,1,4,0.28,-0.28,-0.28,-0.28,-0.28,0.28,0.28,0.28,0.28,-0.28,0*4,0,4,0.233333,-0.233333,0.233333,0.233333,-0.233333,0.233333,-0.233333,-0.233333,0.233333,-0.233333,0*%
%AMIconTriangle*4,1,3,-0.339593,0.240473,0.339593,0.240473,0,-0.37884,-0.339593,0.240473,0*4,0,3,-0.265673,0.19404,0,-0.27342,0.266233,0.19404,-0.265673,0.19404,0*%
%AMIconStar6*4,1,12,0.12068,0.20888,0.298527,0.172713,0.241313,0,0.298527,-0.17206,0.12068,-0.208227,0,-0.344073,-0.120073,-0.208227,-0.298573,-0.17206,-0.240707,0,-0.298573,0.17206,-0.120073,0.20888,0,0.344073,0.12068,0.20888,0*4,0,12,-0.000467,0.273467,-0.090067,0.171733,-0.237533,0.136733,-0.193667,-0.007467,-0.237533,-0.1372,-0.090067,-0.171733,-0.000467,-0.273933,0.090067,-0.171733,0.237533,-0.1372,0.194133,0.007,0.237533,0.1372,0.090067,0.171267,-0.000467,0.273467,0*%
%AMIconStar4*4,1,8,-0.311733,0.311733,0,0.202533,0.311733,0.311733,0.202533,0,0.311733,-0.311733,0,-0.202533,-0.304407,-0.311733,-0.202533,0,-0.311733,0.311733,0*4,0,8,0.233333,-0.233333,0.1512,0,0.233333,0.233333,0,0.1512,-0.233333,0.233333,-0.1512,0,-0.233333,-0.233333,0,-0.1512,0.233333,-0.233333,0*%
%AMIconPlus*4,1,12,0.1736,-0.28,-0.1736,-0.28,-0.1736,-0.1736,-0.28,-0.1736,-0.28,0.1736,-0.1736,0.1736,-0.1736,0.28,0.1736,0.28,0.1736,0.1736,0.28,0.1736,0.28,-0.1736,0.1736,-0.1736,0.1736,-0.28,0*4,0,12,0.126933,-0.233333,0.126933,-0.126933,0.233333,-0.126933,0.233333,0.126933,0.126933,0.126933,0.126933,0.233333,-0.126933,0.233333,-0.126933,0.126933,-0.233333,0.126933,-0.233333,-0.126933,-0.126933,-0.126933,-0.126933,-0.233333,0.126933,-0.233333,0*%
%AMIconX*4,1,16,0.28,-0.28,0.076347,-0.28,0,-0.203653,-0.076347,-0.28,-0.28,-0.28,-0.28,-0.076347,-0.203653,0,-0.28,0.076347,-0.28,0.28,-0.076347,0.28,0,0.203653,0.076347,0.28,0.28,0.28,0.28,0.076347,0.203653,0,0.28,-0.076347,0.28,-0.28,0*4,0,16,0.23352,-0.23296,0.23352,-0.095853,0.137107,0.000093,0.23352,0.095853,0.23352,0.2331,0.095853,0.2331,0,0.137107,-0.095853,0.2331,-0.23352,0.2331,-0.23352,0.095853,-0.137107,0.000093,-0.23352,-0.095853,-0.23352,-0.23296,-0.095853,-0.23296,0,-0.137107,0.095853,-0.23296,0.23352,-0.23296,0*%
%AMIconDiamond*4,1,4,0,-0.364,-0.364,0,0,0.364,0.364,0,0,-0.364,0*4,0,4,0,-0.284807,0.284807,0,0,0.28504,-0.284807,0,0,-0.284807,0*%
%AMIconRect2*4,1,6,0.28,-0.28,-0.28,-0.28,-0.28,0.28,-0.23352,0.2331,-0.233333,-0.233333,0.23352,-0.233333,0.28,-0.28,0*4,1,6,0.28,-0.28,0.23352,-0.233333,0.23352,0.2331,-0.23352,0.2331,-0.28,0.28,0.28,0.28,0.28,-0.28,0*4,1,6,0.186853,-0.186667,-0.186667,-0.186667,-0.186667,0.186853,-0.14,0.140187,-0.14,-0.14,0.140187,-0.14,0.186853,-0.186667,0*4,1,6,0.186853,-0.186667,0.140187,-0.14,0.140187,0.140187,-0.14,0.140187,-0.186667,0.186853,0.186853,0.186853,0.186853,-0.186667,0*%
%ADD10IconRect*%
%ADD11C,0.616X0.522667*%
%ADD12IconTriangle*%
%ADD13IconStar6*%
%ADD14IconStar4*%
%ADD15IconPlus*%
%ADD16IconX*%
%ADD17IconDiamond*%
%ADD18IconRect2*%
%ADD19C,0.2032*%
%ADD20C,0.254*%
G75*


G04 Drill Drawing Start*
G54D10*
G01X2973784Y-1683512D03*
G01X2973784Y-983513D03*
G54D11*
G01X3073400Y-6210300D03*
G01X3223814Y-1558506D03*
G01X3223814Y-1108504D03*
G01X3327400Y-6210300D03*
G54D12*
G01X1993191Y-6015098D03*
G01X2858193Y-6015096D03*
G01X2890896Y-4164907D03*
G01X2890898Y-5029909D03*
G54D13*
G01X1993191Y-6435098D03*
G01X2858193Y-6435098D03*
G01X3310898Y-5029909D03*
G01X3310898Y-4164907D03*
G54D14*
G01X314500Y-5508300D03*
G01X314500Y-308300D03*
G01X3164500Y-5508300D03*
G01X3164500Y-308300D03*
G54D15*
G01X2136686Y-6067107D03*
G01X2714689Y-6067107D03*
G01X2942908Y-4886414D03*
G01X2942908Y-4308411D03*
G54D16*
G01X3009900Y-3924300D03*
G01X3073400Y-736600D03*
G01X3263900Y-3924300D03*
G01X3263900Y-3619500D03*
G01X3263900Y-3365500D03*
G01X3263900Y-3111500D03*
G01X3263900Y-2857500D03*
G01X3263900Y-2603500D03*
G01X3263900Y-2349500D03*
G01X3327400Y-736600D03*
G54D17*
G01X825152Y-258300D03*
G01X1079152Y-258300D03*
G01X1333152Y-258300D03*
G01X1333500Y-5558300D03*
G01X1587152Y-258300D03*
G01X1587500Y-5558300D03*
G01X1841152Y-258300D03*
G01X1841500Y-5558300D03*
G01X2095152Y-258300D03*
G01X2095500Y-5558300D03*
G01X2344500Y-258300D03*
G01X2603152Y-258300D03*
G54D18*
G01X698500Y-4432300D03*
G01X752259Y-2099881D03*
G01X889000Y-3911600D03*
G01X889191Y-2109914D03*
G01X1181100Y-2369800D03*
G01X1288846Y-1816101D03*
G01X1308100Y-3022600D03*
G01X1308100Y-2857500D03*
G01X1308100Y-2692400D03*
G01X1345079Y-900579D03*
G01X1391055Y-3106797D03*
G01X1391055Y-2938242D03*
G01X1391055Y-2769119D03*
G01X1473200Y-3027303D03*
G01X1473200Y-2862203D03*
G01X1473200Y-2697103D03*
G01X1485900Y-762000D03*
G01X1549400Y-3111500D03*
G01X1549400Y-2942945D03*
G01X1549400Y-2773822D03*
G01X1587500Y-5448300D03*
G01X1625600Y-3027303D03*
G01X1625600Y-2862203D03*
G01X1625600Y-2697103D03*
G01X1638300Y-4394200D03*
G01X1701800Y-3111500D03*
G01X1701800Y-2942945D03*
G01X1701800Y-2773822D03*
G01X1778000Y-3911600D03*
G01X1917700Y-3911600D03*
G01X1993900Y-3556000D03*
G01X2044700Y-3937000D03*
G01X2159191Y-3909885D03*
G01X2276764Y-6306447D03*
G01X2286000Y-3911600D03*
G01X2322336Y-4281664D03*
G01X2451100Y-4800600D03*
G01X2476500Y-1270000D03*
G01X2501900Y-4394200D03*
G01X2565400Y-3581400D03*
G01X2654300Y-3909885D03*
G01X2667000Y-2184400D03*
G01X2705100Y-4749800D03*
G01X2705100Y-4495800D03*
G01X2743200Y-5626100D03*
G04 Drill Drawing End*

G04 Text Start*
G54D19*
G01X5765746Y-230005D02*
G01X5765746Y-350147D01*
G01X5765746Y-230005D02*
G01X5811466Y-350147D01*
G01X5857186Y-230005D02*
G01X5811466Y-350147D01*
G01X5857186Y-230005D02*
G01X5857186Y-350147D01*
G01X5973518Y-270137D02*
G01X5973518Y-350147D01*
G01X5973518Y-287155D02*
G01X5962088Y-275725D01*
G01X5950658Y-270137D01*
G01X5933640Y-270137D01*
G01X5922210Y-275725D01*
G01X5910780Y-287155D01*
G01X5904938Y-304427D01*
G01X5904938Y-315857D01*
G01X5910780Y-332875D01*
G01X5922210Y-344305D01*
G01X5933640Y-350147D01*
G01X5950658Y-350147D01*
G01X5962088Y-344305D01*
G01X5973518Y-332875D01*
G01X6021270Y-270137D02*
G01X6021270Y-350147D01*
G01X6021270Y-304427D02*
G01X6027112Y-287155D01*
G01X6038542Y-275725D01*
G01X6049972Y-270137D01*
G01X6066990Y-270137D01*
G01X6114742Y-230005D02*
G01X6114742Y-350147D01*
G01X6171892Y-270137D02*
G01X6114742Y-327287D01*
G01X6137602Y-304427D02*
G01X6177734Y-350147D01*
G01X7303026Y-258707D02*
G01X7297184Y-247277D01*
G01X7285754Y-235847D01*
G01X7274324Y-230005D01*
G01X7251464Y-230005D01*
G01X7240034Y-235847D01*
G01X7228604Y-247277D01*
G01X7223016Y-258707D01*
G01X7217174Y-275725D01*
G01X7217174Y-304427D01*
G01X7223016Y-321445D01*
G01X7228604Y-332875D01*
G01X7240034Y-344305D01*
G01X7251464Y-350147D01*
G01X7274324Y-350147D01*
G01X7285754Y-344305D01*
G01X7297184Y-332875D01*
G01X7303026Y-321445D01*
G01X7379480Y-270137D02*
G01X7368050Y-275725D01*
G01X7356620Y-287155D01*
G01X7350778Y-304427D01*
G01X7350778Y-315857D01*
G01X7356620Y-332875D01*
G01X7368050Y-344305D01*
G01X7379480Y-350147D01*
G01X7396498Y-350147D01*
G01X7407928Y-344305D01*
G01X7419358Y-332875D01*
G01X7425200Y-315857D01*
G01X7425200Y-304427D01*
G01X7419358Y-287155D01*
G01X7407928Y-275725D01*
G01X7396498Y-270137D01*
G01X7379480Y-270137D01*
G01X7472952Y-270137D02*
G01X7472952Y-327287D01*
G01X7478794Y-344305D01*
G01X7490224Y-350147D01*
G01X7507242Y-350147D01*
G01X7518672Y-344305D01*
G01X7535944Y-327287D01*
G01X7535944Y-270137D02*
G01X7535944Y-350147D01*
G01X7583696Y-270137D02*
G01X7583696Y-350147D01*
G01X7583696Y-292997D02*
G01X7600968Y-275725D01*
G01X7612398Y-270137D01*
G01X7629416Y-270137D01*
G01X7640846Y-275725D01*
G01X7646688Y-292997D01*
G01X7646688Y-350147D01*
G01X7711712Y-230005D02*
G01X7711712Y-327287D01*
G01X7717300Y-344305D01*
G01X7728730Y-350147D01*
G01X7740160Y-350147D01*
G01X7694440Y-270137D02*
G01X7734572Y-270137D01*
G01X8711347Y-247277D02*
G01X8699917Y-235847D01*
G01X8682899Y-230005D01*
G01X8660039Y-230005D01*
G01X8642767Y-235847D01*
G01X8631337Y-247277D01*
G01X8631337Y-258707D01*
G01X8637179Y-270137D01*
G01X8642767Y-275725D01*
G01X8654197Y-281567D01*
G01X8688487Y-292997D01*
G01X8699917Y-298585D01*
G01X8705759Y-304427D01*
G01X8711347Y-315857D01*
G01X8711347Y-332875D01*
G01X8699917Y-344305D01*
G01X8682899Y-350147D01*
G01X8660039Y-350147D01*
G01X8642767Y-344305D01*
G01X8631337Y-332875D01*
G01X8759099Y-230005D02*
G01X8764941Y-235847D01*
G01X8770529Y-230005D01*
G01X8764941Y-224417D01*
G01X8759099Y-230005D01*
G01X8764941Y-270137D02*
G01X8764941Y-350147D01*
G01X8881273Y-270137D02*
G01X8818281Y-350147D01*
G01X8818281Y-270137D02*
G01X8881273Y-270137D01*
G01X8818281Y-350147D02*
G01X8881273Y-350147D01*
G01X8929025Y-304427D02*
G01X8997605Y-304427D01*
G01X8997605Y-292997D01*
G01X8992017Y-281567D01*
G01X8986175Y-275725D01*
G01X8974745Y-270137D01*
G01X8957727Y-270137D01*
G01X8946297Y-275725D01*
G01X8934867Y-287155D01*
G01X8929025Y-304427D01*
G01X8929025Y-315857D01*
G01X8934867Y-332875D01*
G01X8946297Y-344305D01*
G01X8957727Y-350147D01*
G01X8974745Y-350147D01*
G01X8986175Y-344305D01*
G01X8997605Y-332875D01*
G01X12666526Y-230005D02*
G01X12666526Y-350147D01*
G01X12666526Y-230005D02*
G01X12718088Y-230005D01*
G01X12735106Y-235847D01*
G01X12740948Y-241435D01*
G01X12746536Y-252865D01*
G01X12746536Y-270137D01*
G01X12740948Y-281567D01*
G01X12735106Y-287155D01*
G01X12718088Y-292997D01*
G01X12666526Y-292997D01*
G01X12794288Y-230005D02*
G01X12794288Y-350147D01*
G01X12910620Y-270137D02*
G01X12910620Y-350147D01*
G01X12910620Y-287155D02*
G01X12899190Y-275725D01*
G01X12887760Y-270137D01*
G01X12870742Y-270137D01*
G01X12859312Y-275725D01*
G01X12847882Y-287155D01*
G01X12842040Y-304427D01*
G01X12842040Y-315857D01*
G01X12847882Y-332875D01*
G01X12859312Y-344305D01*
G01X12870742Y-350147D01*
G01X12887760Y-350147D01*
G01X12899190Y-344305D01*
G01X12910620Y-332875D01*
G01X12975644Y-230005D02*
G01X12975644Y-327287D01*
G01X12981232Y-344305D01*
G01X12992662Y-350147D01*
G01X13004092Y-350147D01*
G01X12958372Y-270137D02*
G01X12998504Y-270137D01*
G01X13051844Y-304427D02*
G01X13120424Y-304427D01*
G01X13120424Y-292997D01*
G01X13114836Y-281567D01*
G01X13108994Y-275725D01*
G01X13097564Y-270137D01*
G01X13080546Y-270137D01*
G01X13069116Y-275725D01*
G01X13057686Y-287155D01*
G01X13051844Y-304427D01*
G01X13051844Y-315857D01*
G01X13057686Y-332875D01*
G01X13069116Y-344305D01*
G01X13080546Y-350147D01*
G01X13097564Y-350147D01*
G01X13108994Y-344305D01*
G01X13120424Y-332875D01*
G01X13236756Y-230005D02*
G01X13236756Y-350147D01*
G01X13236756Y-287155D02*
G01X13225326Y-275725D01*
G01X13213896Y-270137D01*
G01X13196878Y-270137D01*
G01X13185448Y-275725D01*
G01X13174018Y-287155D01*
G01X13168176Y-304427D01*
G01X13168176Y-315857D01*
G01X13174018Y-332875D01*
G01X13185448Y-344305D01*
G01X13196878Y-350147D01*
G01X13213896Y-350147D01*
G01X13225326Y-344305D01*
G01X13236756Y-332875D01*
G01X14207944Y-247277D02*
G01X14196514Y-235847D01*
G01X14179496Y-230005D01*
G01X14156636Y-230005D01*
G01X14139364Y-235847D01*
G01X14127934Y-247277D01*
G01X14127934Y-258707D01*
G01X14133776Y-270137D01*
G01X14139364Y-275725D01*
G01X14150794Y-281567D01*
G01X14185084Y-292997D01*
G01X14196514Y-298585D01*
G01X14202356Y-304427D01*
G01X14207944Y-315857D01*
G01X14207944Y-332875D01*
G01X14196514Y-344305D01*
G01X14179496Y-350147D01*
G01X14156636Y-350147D01*
G01X14139364Y-344305D01*
G01X14127934Y-332875D01*
G01X14255696Y-230005D02*
G01X14255696Y-350147D01*
G01X14255696Y-292997D02*
G01X14272968Y-275725D01*
G01X14284398Y-270137D01*
G01X14301416Y-270137D01*
G01X14312846Y-275725D01*
G01X14318688Y-292997D01*
G01X14318688Y-350147D01*
G01X14435020Y-270137D02*
G01X14435020Y-350147D01*
G01X14435020Y-287155D02*
G01X14423590Y-275725D01*
G01X14412160Y-270137D01*
G01X14395142Y-270137D01*
G01X14383712Y-275725D01*
G01X14372282Y-287155D01*
G01X14366440Y-304427D01*
G01X14366440Y-315857D01*
G01X14372282Y-332875D01*
G01X14383712Y-344305D01*
G01X14395142Y-350147D01*
G01X14412160Y-350147D01*
G01X14423590Y-344305D01*
G01X14435020Y-332875D01*
G01X14482772Y-270137D02*
G01X14482772Y-390025D01*
G01X14482772Y-287155D02*
G01X14494202Y-275725D01*
G01X14505632Y-270137D01*
G01X14522904Y-270137D01*
G01X14534334Y-275725D01*
G01X14545764Y-287155D01*
G01X14551352Y-304427D01*
G01X14551352Y-315857D01*
G01X14545764Y-332875D01*
G01X14534334Y-344305D01*
G01X14522904Y-350147D01*
G01X14505632Y-350147D01*
G01X14494202Y-344305D01*
G01X14482772Y-332875D01*
G01X14599104Y-304427D02*
G01X14667684Y-304427D01*
G01X14667684Y-292997D01*
G01X14662096Y-281567D01*
G01X14656254Y-275725D01*
G01X14644824Y-270137D01*
G01X14627806Y-270137D01*
G01X14616376Y-275725D01*
G01X14604946Y-287155D01*
G01X14599104Y-304427D01*
G01X14599104Y-315857D01*
G01X14604946Y-332875D01*
G01X14616376Y-344305D01*
G01X14627806Y-350147D01*
G01X14644824Y-350147D01*
G01X14656254Y-344305D01*
G01X14667684Y-332875D01*
G01X15559115Y-230005D02*
G01X15604835Y-350147D01*
G01X15650555Y-230005D02*
G01X15604835Y-350147D01*
G01X15698307Y-230005D02*
G01X15704149Y-235847D01*
G01X15709737Y-230005D01*
G01X15704149Y-224417D01*
G01X15698307Y-230005D01*
G01X15704149Y-270137D02*
G01X15704149Y-350147D01*
G01X15826069Y-270137D02*
G01X15826069Y-350147D01*
G01X15826069Y-287155D02*
G01X15814639Y-275725D01*
G01X15803209Y-270137D01*
G01X15786191Y-270137D01*
G01X15774761Y-275725D01*
G01X15763331Y-287155D01*
G01X15757489Y-304427D01*
G01X15757489Y-315857D01*
G01X15763331Y-332875D01*
G01X15774761Y-344305D01*
G01X15786191Y-350147D01*
G01X15803209Y-350147D01*
G01X15814639Y-344305D01*
G01X15826069Y-332875D01*
G01X15976691Y-207145D02*
G01X15873821Y-390025D01*
G01X16024443Y-230005D02*
G01X16024443Y-350147D01*
G01X16024443Y-230005D02*
G01X16076005Y-230005D01*
G01X16093023Y-235847D01*
G01X16098865Y-241435D01*
G01X16104453Y-252865D01*
G01X16104453Y-270137D01*
G01X16098865Y-281567D01*
G01X16093023Y-287155D01*
G01X16076005Y-292997D01*
G01X16024443Y-292997D01*
G01X16220785Y-270137D02*
G01X16220785Y-350147D01*
G01X16220785Y-287155D02*
G01X16209355Y-275725D01*
G01X16197925Y-270137D01*
G01X16180907Y-270137D01*
G01X16169477Y-275725D01*
G01X16158047Y-287155D01*
G01X16152205Y-304427D01*
G01X16152205Y-315857D01*
G01X16158047Y-332875D01*
G01X16169477Y-344305D01*
G01X16180907Y-350147D01*
G01X16197925Y-350147D01*
G01X16209355Y-344305D01*
G01X16220785Y-332875D01*
G01X16337117Y-230005D02*
G01X16337117Y-350147D01*
G01X16337117Y-287155D02*
G01X16325687Y-275725D01*
G01X16314257Y-270137D01*
G01X16297239Y-270137D01*
G01X16285809Y-275725D01*
G01X16274379Y-287155D01*
G01X16268537Y-304427D01*
G01X16268537Y-315857D01*
G01X16274379Y-332875D01*
G01X16285809Y-344305D01*
G01X16297239Y-350147D01*
G01X16314257Y-350147D01*
G01X16325687Y-344305D01*
G01X16337117Y-332875D01*
G01X17228294Y-230005D02*
G01X17228294Y-350147D01*
G01X17228294Y-230005D02*
G01X17279856Y-230005D01*
G01X17296874Y-235847D01*
G01X17302716Y-241435D01*
G01X17308304Y-252865D01*
G01X17308304Y-270137D01*
G01X17302716Y-281567D01*
G01X17296874Y-287155D01*
G01X17279856Y-292997D01*
G01X17228294Y-292997D01*
G01X17424636Y-270137D02*
G01X17424636Y-350147D01*
G01X17424636Y-287155D02*
G01X17413206Y-275725D01*
G01X17401776Y-270137D01*
G01X17384758Y-270137D01*
G01X17373328Y-275725D01*
G01X17361898Y-287155D01*
G01X17356056Y-304427D01*
G01X17356056Y-315857D01*
G01X17361898Y-332875D01*
G01X17373328Y-344305D01*
G01X17384758Y-350147D01*
G01X17401776Y-350147D01*
G01X17413206Y-344305D01*
G01X17424636Y-332875D01*
G01X17540968Y-230005D02*
G01X17540968Y-350147D01*
G01X17540968Y-287155D02*
G01X17529538Y-275725D01*
G01X17518108Y-270137D01*
G01X17501090Y-270137D01*
G01X17489660Y-275725D01*
G01X17478230Y-287155D01*
G01X17472388Y-304427D01*
G01X17472388Y-315857D01*
G01X17478230Y-332875D01*
G01X17489660Y-344305D01*
G01X17501090Y-350147D01*
G01X17518108Y-350147D01*
G01X17529538Y-344305D01*
G01X17540968Y-332875D01*
G01X17796746Y-247277D02*
G01X17785316Y-235847D01*
G01X17768298Y-230005D01*
G01X17745438Y-230005D01*
G01X17728166Y-235847D01*
G01X17716736Y-247277D01*
G01X17716736Y-258707D01*
G01X17722578Y-270137D01*
G01X17728166Y-275725D01*
G01X17739596Y-281567D01*
G01X17773886Y-292997D01*
G01X17785316Y-298585D01*
G01X17791158Y-304427D01*
G01X17796746Y-315857D01*
G01X17796746Y-332875D01*
G01X17785316Y-344305D01*
G01X17768298Y-350147D01*
G01X17745438Y-350147D01*
G01X17728166Y-344305D01*
G01X17716736Y-332875D01*
G01X17844498Y-230005D02*
G01X17844498Y-350147D01*
G01X17844498Y-292997D02*
G01X17861770Y-275725D01*
G01X17873200Y-270137D01*
G01X17890218Y-270137D01*
G01X17901648Y-275725D01*
G01X17907490Y-292997D01*
G01X17907490Y-350147D01*
G01X18023822Y-270137D02*
G01X18023822Y-350147D01*
G01X18023822Y-287155D02*
G01X18012392Y-275725D01*
G01X18000962Y-270137D01*
G01X17983944Y-270137D01*
G01X17972514Y-275725D01*
G01X17961084Y-287155D01*
G01X17955242Y-304427D01*
G01X17955242Y-315857D01*
G01X17961084Y-332875D01*
G01X17972514Y-344305D01*
G01X17983944Y-350147D01*
G01X18000962Y-350147D01*
G01X18012392Y-344305D01*
G01X18023822Y-332875D01*
G01X18071574Y-270137D02*
G01X18071574Y-390025D01*
G01X18071574Y-287155D02*
G01X18083004Y-275725D01*
G01X18094434Y-270137D01*
G01X18111706Y-270137D01*
G01X18123136Y-275725D01*
G01X18134566Y-287155D01*
G01X18140154Y-304427D01*
G01X18140154Y-315857D01*
G01X18134566Y-332875D01*
G01X18123136Y-344305D01*
G01X18111706Y-350147D01*
G01X18094434Y-350147D01*
G01X18083004Y-344305D01*
G01X18071574Y-332875D01*
G01X18187906Y-304427D02*
G01X18256486Y-304427D01*
G01X18256486Y-292997D01*
G01X18250898Y-281567D01*
G01X18245056Y-275725D01*
G01X18233626Y-270137D01*
G01X18216608Y-270137D01*
G01X18205178Y-275725D01*
G01X18193748Y-287155D01*
G01X18187906Y-304427D01*
G01X18187906Y-315857D01*
G01X18193748Y-332875D01*
G01X18205178Y-344305D01*
G01X18216608Y-350147D01*
G01X18233626Y-350147D01*
G01X18245056Y-344305D01*
G01X18256486Y-332875D01*
G01X19147663Y-230005D02*
G01X19147663Y-350147D01*
G01X19147663Y-350147D02*
G01X19216243Y-350147D01*
G01X19332575Y-270137D02*
G01X19332575Y-350147D01*
G01X19332575Y-287155D02*
G01X19321145Y-275725D01*
G01X19309715Y-270137D01*
G01X19292697Y-270137D01*
G01X19281267Y-275725D01*
G01X19269837Y-287155D01*
G01X19263995Y-304427D01*
G01X19263995Y-315857D01*
G01X19269837Y-332875D01*
G01X19281267Y-344305D01*
G01X19292697Y-350147D01*
G01X19309715Y-350147D01*
G01X19321145Y-344305D01*
G01X19332575Y-332875D01*
G01X19386169Y-270137D02*
G01X19420459Y-350147D01*
G01X19454749Y-270137D02*
G01X19420459Y-350147D01*
G01X19409029Y-373007D01*
G01X19397599Y-384437D01*
G01X19386169Y-390025D01*
G01X19380327Y-390025D01*
G01X19502501Y-304427D02*
G01X19571081Y-304427D01*
G01X19571081Y-292997D01*
G01X19565493Y-281567D01*
G01X19559651Y-275725D01*
G01X19548221Y-270137D01*
G01X19531203Y-270137D01*
G01X19519773Y-275725D01*
G01X19508343Y-287155D01*
G01X19502501Y-304427D01*
G01X19502501Y-315857D01*
G01X19508343Y-332875D01*
G01X19519773Y-344305D01*
G01X19531203Y-350147D01*
G01X19548221Y-350147D01*
G01X19559651Y-344305D01*
G01X19571081Y-332875D01*
G01X19618833Y-270137D02*
G01X19618833Y-350147D01*
G01X19618833Y-304427D02*
G01X19624675Y-287155D01*
G01X19636105Y-275725D01*
G01X19647535Y-270137D01*
G01X19664553Y-270137D01*
G01X19840321Y-230005D02*
G01X19840321Y-350147D01*
G01X19840321Y-230005D02*
G01X19891883Y-230005D01*
G01X19908901Y-235847D01*
G01X19914743Y-241435D01*
G01X19920331Y-252865D01*
G01X19920331Y-270137D01*
G01X19914743Y-281567D01*
G01X19908901Y-287155D01*
G01X19891883Y-292997D01*
G01X19840321Y-292997D01*
G01X20036663Y-270137D02*
G01X20036663Y-350147D01*
G01X20036663Y-287155D02*
G01X20025233Y-275725D01*
G01X20013803Y-270137D01*
G01X19996785Y-270137D01*
G01X19985355Y-275725D01*
G01X19973925Y-287155D01*
G01X19968083Y-304427D01*
G01X19968083Y-315857D01*
G01X19973925Y-332875D01*
G01X19985355Y-344305D01*
G01X19996785Y-350147D01*
G01X20013803Y-350147D01*
G01X20025233Y-344305D01*
G01X20036663Y-332875D01*
G01X20084415Y-230005D02*
G01X20090257Y-235847D01*
G01X20095845Y-230005D01*
G01X20090257Y-224417D01*
G01X20084415Y-230005D01*
G01X20090257Y-270137D02*
G01X20090257Y-350147D01*
G01X20143597Y-270137D02*
G01X20143597Y-350147D01*
G01X20143597Y-304427D02*
G01X20149439Y-287155D01*
G01X20160869Y-275725D01*
G01X20172299Y-270137D01*
G01X20189317Y-270137D01*
G01X7223016Y-839279D02*
G01X7223016Y-833437D01*
G01X7228604Y-822007D01*
G01X7234446Y-816419D01*
G01X7245876Y-810577D01*
G01X7268736Y-810577D01*
G01X7280166Y-816419D01*
G01X7285754Y-822007D01*
G01X7291596Y-833437D01*
G01X7291596Y-844867D01*
G01X7285754Y-856297D01*
G01X7274324Y-873569D01*
G01X7217174Y-930719D01*
G01X7297184Y-930719D01*
G01X8699917Y-810577D02*
G01X8642767Y-810577D01*
G01X8637179Y-862139D01*
G01X8642767Y-856297D01*
G01X8660039Y-850709D01*
G01X8677057Y-850709D01*
G01X8694329Y-856297D01*
G01X8705759Y-867727D01*
G01X8711347Y-884999D01*
G01X8711347Y-896429D01*
G01X8705759Y-913447D01*
G01X8694329Y-924877D01*
G01X8677057Y-930719D01*
G01X8660039Y-930719D01*
G01X8642767Y-924877D01*
G01X8637179Y-919289D01*
G01X8631337Y-907859D01*
G01X8833521Y-850709D02*
G01X8827679Y-867727D01*
G01X8816249Y-879157D01*
G01X8799231Y-884999D01*
G01X8793389Y-884999D01*
G01X8776371Y-879157D01*
G01X8764941Y-867727D01*
G01X8759099Y-850709D01*
G01X8759099Y-844867D01*
G01X8764941Y-827849D01*
G01X8776371Y-816419D01*
G01X8793389Y-810577D01*
G01X8799231Y-810577D01*
G01X8816249Y-816419D01*
G01X8827679Y-827849D01*
G01X8833521Y-850709D01*
G01X8833521Y-879157D01*
G01X8827679Y-907859D01*
G01X8816249Y-924877D01*
G01X8799231Y-930719D01*
G01X8787801Y-930719D01*
G01X8770529Y-924877D01*
G01X8764941Y-913447D01*
G01X8887115Y-902017D02*
G01X8881273Y-907859D01*
G01X8887115Y-913447D01*
G01X8892703Y-907859D01*
G01X8887115Y-902017D01*
G01X8940455Y-833437D02*
G01X8951885Y-827849D01*
G01X8969157Y-810577D01*
G01X8969157Y-930719D01*
G01X9016909Y-850709D02*
G01X9079901Y-930719D01*
G01X9079901Y-850709D02*
G01X9016909Y-930719D01*
G01X9196233Y-810577D02*
G01X9139083Y-810577D01*
G01X9133495Y-862139D01*
G01X9139083Y-856297D01*
G01X9156355Y-850709D01*
G01X9173373Y-850709D01*
G01X9190645Y-856297D01*
G01X9202075Y-867727D01*
G01X9207663Y-884999D01*
G01X9207663Y-896429D01*
G01X9202075Y-913447D01*
G01X9190645Y-924877D01*
G01X9173373Y-930719D01*
G01X9156355Y-930719D01*
G01X9139083Y-924877D01*
G01X9133495Y-919289D01*
G01X9127653Y-907859D01*
G01X9329837Y-850709D02*
G01X9323995Y-867727D01*
G01X9312565Y-879157D01*
G01X9295547Y-884999D01*
G01X9289705Y-884999D01*
G01X9272687Y-879157D01*
G01X9261257Y-867727D01*
G01X9255415Y-850709D01*
G01X9255415Y-844867D01*
G01X9261257Y-827849D01*
G01X9272687Y-816419D01*
G01X9289705Y-810577D01*
G01X9295547Y-810577D01*
G01X9312565Y-816419D01*
G01X9323995Y-827849D01*
G01X9329837Y-850709D01*
G01X9329837Y-879157D01*
G01X9323995Y-907859D01*
G01X9312565Y-924877D01*
G01X9295547Y-930719D01*
G01X9284117Y-930719D01*
G01X9266845Y-924877D01*
G01X9261257Y-913447D01*
G01X9383431Y-902017D02*
G01X9377589Y-907859D01*
G01X9383431Y-913447D01*
G01X9389019Y-907859D01*
G01X9383431Y-902017D01*
G01X9436771Y-833437D02*
G01X9448201Y-827849D01*
G01X9465473Y-810577D01*
G01X9465473Y-930719D01*
G01X9513225Y-850709D02*
G01X9513225Y-930719D01*
G01X9513225Y-873569D02*
G01X9530497Y-856297D01*
G01X9541927Y-850709D01*
G01X9558945Y-850709D01*
G01X9570375Y-856297D01*
G01X9576217Y-873569D01*
G01X9576217Y-930719D01*
G01X9576217Y-873569D02*
G01X9593235Y-856297D01*
G01X9604665Y-850709D01*
G01X9621937Y-850709D01*
G01X9633367Y-856297D01*
G01X9638955Y-873569D01*
G01X9638955Y-930719D01*
G01X9686707Y-810577D02*
G01X9692549Y-816419D01*
G01X9698137Y-810577D01*
G01X9692549Y-804989D01*
G01X9686707Y-810577D01*
G01X9692549Y-850709D02*
G01X9692549Y-930719D01*
G01X9745889Y-810577D02*
G01X9745889Y-930719D01*
G01X9833773Y-787717D02*
G01X9822343Y-799147D01*
G01X9810913Y-816419D01*
G01X9799483Y-839279D01*
G01X9793641Y-867727D01*
G01X9793641Y-890587D01*
G01X9799483Y-919289D01*
G01X9810913Y-942149D01*
G01X9822343Y-959167D01*
G01X9833773Y-970597D01*
G01X9881525Y-833437D02*
G01X9892955Y-827849D01*
G01X9910227Y-810577D01*
G01X9910227Y-930719D01*
G01X9963821Y-902017D02*
G01X9957979Y-907859D01*
G01X9963821Y-913447D01*
G01X9969409Y-907859D01*
G01X9963821Y-902017D01*
G01X10085741Y-810577D02*
G01X10028591Y-810577D01*
G01X10023003Y-862139D01*
G01X10028591Y-856297D01*
G01X10045863Y-850709D01*
G01X10062881Y-850709D01*
G01X10080153Y-856297D01*
G01X10091583Y-867727D01*
G01X10097171Y-884999D01*
G01X10097171Y-896429D01*
G01X10091583Y-913447D01*
G01X10080153Y-924877D01*
G01X10062881Y-930719D01*
G01X10045863Y-930719D01*
G01X10028591Y-924877D01*
G01X10023003Y-919289D01*
G01X10017161Y-907859D01*
G01X10179213Y-810577D02*
G01X10162195Y-816419D01*
G01X10150765Y-833437D01*
G01X10144923Y-862139D01*
G01X10144923Y-879157D01*
G01X10150765Y-907859D01*
G01X10162195Y-924877D01*
G01X10179213Y-930719D01*
G01X10190643Y-930719D01*
G01X10207915Y-924877D01*
G01X10219345Y-907859D01*
G01X10224933Y-879157D01*
G01X10224933Y-862139D01*
G01X10219345Y-833437D01*
G01X10207915Y-816419D01*
G01X10190643Y-810577D01*
G01X10179213Y-810577D01*
G01X10306975Y-810577D02*
G01X10289957Y-816419D01*
G01X10278527Y-833437D01*
G01X10272685Y-862139D01*
G01X10272685Y-879157D01*
G01X10278527Y-907859D01*
G01X10289957Y-924877D01*
G01X10306975Y-930719D01*
G01X10318405Y-930719D01*
G01X10335677Y-924877D01*
G01X10347107Y-907859D01*
G01X10352695Y-879157D01*
G01X10352695Y-862139D01*
G01X10347107Y-833437D01*
G01X10335677Y-816419D01*
G01X10318405Y-810577D01*
G01X10306975Y-810577D01*
G01X10400447Y-850709D02*
G01X10463439Y-930719D01*
G01X10463439Y-850709D02*
G01X10400447Y-930719D01*
G01X10511191Y-833437D02*
G01X10522621Y-827849D01*
G01X10539893Y-810577D01*
G01X10539893Y-930719D01*
G01X10593487Y-902017D02*
G01X10587645Y-907859D01*
G01X10593487Y-913447D01*
G01X10599075Y-907859D01*
G01X10593487Y-902017D01*
G01X10715407Y-810577D02*
G01X10658257Y-810577D01*
G01X10652669Y-862139D01*
G01X10658257Y-856297D01*
G01X10675529Y-850709D01*
G01X10692547Y-850709D01*
G01X10709819Y-856297D01*
G01X10721249Y-867727D01*
G01X10726837Y-884999D01*
G01X10726837Y-896429D01*
G01X10721249Y-913447D01*
G01X10709819Y-924877D01*
G01X10692547Y-930719D01*
G01X10675529Y-930719D01*
G01X10658257Y-924877D01*
G01X10652669Y-919289D01*
G01X10646827Y-907859D01*
G01X10808879Y-810577D02*
G01X10791861Y-816419D01*
G01X10780431Y-833437D01*
G01X10774589Y-862139D01*
G01X10774589Y-879157D01*
G01X10780431Y-907859D01*
G01X10791861Y-924877D01*
G01X10808879Y-930719D01*
G01X10820309Y-930719D01*
G01X10837581Y-924877D01*
G01X10849011Y-907859D01*
G01X10854599Y-879157D01*
G01X10854599Y-862139D01*
G01X10849011Y-833437D01*
G01X10837581Y-816419D01*
G01X10820309Y-810577D01*
G01X10808879Y-810577D01*
G01X10936641Y-810577D02*
G01X10919623Y-816419D01*
G01X10908193Y-833437D01*
G01X10902351Y-862139D01*
G01X10902351Y-879157D01*
G01X10908193Y-907859D01*
G01X10919623Y-924877D01*
G01X10936641Y-930719D01*
G01X10948071Y-930719D01*
G01X10965343Y-924877D01*
G01X10976773Y-907859D01*
G01X10982361Y-879157D01*
G01X10982361Y-862139D01*
G01X10976773Y-833437D01*
G01X10965343Y-816419D01*
G01X10948071Y-810577D01*
G01X10936641Y-810577D01*
G01X11030113Y-850709D02*
G01X11030113Y-930719D01*
G01X11030113Y-873569D02*
G01X11047385Y-856297D01*
G01X11058815Y-850709D01*
G01X11075833Y-850709D01*
G01X11087263Y-856297D01*
G01X11093105Y-873569D01*
G01X11093105Y-930719D01*
G01X11093105Y-873569D02*
G01X11110123Y-856297D01*
G01X11121553Y-850709D01*
G01X11138825Y-850709D01*
G01X11150255Y-856297D01*
G01X11155843Y-873569D01*
G01X11155843Y-930719D01*
G01X11203595Y-850709D02*
G01X11203595Y-930719D01*
G01X11203595Y-873569D02*
G01X11220867Y-856297D01*
G01X11232297Y-850709D01*
G01X11249315Y-850709D01*
G01X11260745Y-856297D01*
G01X11266587Y-873569D01*
G01X11266587Y-930719D01*
G01X11266587Y-873569D02*
G01X11283605Y-856297D01*
G01X11295035Y-850709D01*
G01X11312307Y-850709D01*
G01X11323737Y-856297D01*
G01X11329325Y-873569D01*
G01X11329325Y-930719D01*
G01X11377077Y-787717D02*
G01X11388507Y-799147D01*
G01X11399937Y-816419D01*
G01X11411367Y-839279D01*
G01X11417209Y-867727D01*
G01X11417209Y-890587D01*
G01X11411367Y-919289D01*
G01X11399937Y-942149D01*
G01X11388507Y-959167D01*
G01X11377077Y-970597D01*
G01X12666526Y-810577D02*
G01X12666526Y-930719D01*
G01X12666526Y-810577D02*
G01X12718088Y-810577D01*
G01X12735106Y-816419D01*
G01X12740948Y-822007D01*
G01X12746536Y-833437D01*
G01X12746536Y-850709D01*
G01X12740948Y-862139D01*
G01X12735106Y-867727D01*
G01X12718088Y-873569D01*
G01X12666526Y-873569D01*
G01X12834420Y-810577D02*
G01X12834420Y-930719D01*
G01X12794288Y-810577D02*
G01X12874298Y-810577D01*
G01X12922050Y-810577D02*
G01X12922050Y-930719D01*
G01X13002060Y-810577D02*
G01X13002060Y-930719D01*
G01X12922050Y-867727D02*
G01X13002060Y-867727D01*
G01X14127934Y-810577D02*
G01X14127934Y-930719D01*
G01X14127934Y-810577D02*
G01X14179496Y-810577D01*
G01X14196514Y-816419D01*
G01X14202356Y-822007D01*
G01X14207944Y-833437D01*
G01X14207944Y-844867D01*
G01X14202356Y-856297D01*
G01X14196514Y-862139D01*
G01X14179496Y-867727D01*
G01X14127934Y-867727D01*
G01X14168066Y-867727D02*
G01X14207944Y-930719D01*
G01X14284398Y-850709D02*
G01X14272968Y-856297D01*
G01X14261538Y-867727D01*
G01X14255696Y-884999D01*
G01X14255696Y-896429D01*
G01X14261538Y-913447D01*
G01X14272968Y-924877D01*
G01X14284398Y-930719D01*
G01X14301416Y-930719D01*
G01X14312846Y-924877D01*
G01X14324276Y-913447D01*
G01X14330118Y-896429D01*
G01X14330118Y-884999D01*
G01X14324276Y-867727D01*
G01X14312846Y-856297D01*
G01X14301416Y-850709D01*
G01X14284398Y-850709D01*
G01X14377870Y-850709D02*
G01X14377870Y-907859D01*
G01X14383712Y-924877D01*
G01X14395142Y-930719D01*
G01X14412160Y-930719D01*
G01X14423590Y-924877D01*
G01X14440862Y-907859D01*
G01X14440862Y-850709D02*
G01X14440862Y-930719D01*
G01X14488614Y-850709D02*
G01X14488614Y-930719D01*
G01X14488614Y-873569D02*
G01X14505886Y-856297D01*
G01X14517316Y-850709D01*
G01X14534334Y-850709D01*
G01X14545764Y-856297D01*
G01X14551606Y-873569D01*
G01X14551606Y-930719D01*
G01X14667938Y-810577D02*
G01X14667938Y-930719D01*
G01X14667938Y-867727D02*
G01X14656508Y-856297D01*
G01X14645078Y-850709D01*
G01X14628060Y-850709D01*
G01X14616630Y-856297D01*
G01X14605200Y-867727D01*
G01X14599358Y-884999D01*
G01X14599358Y-896429D01*
G01X14605200Y-913447D01*
G01X14616630Y-924877D01*
G01X14628060Y-930719D01*
G01X14645078Y-930719D01*
G01X14656508Y-924877D01*
G01X14667938Y-913447D01*
G01X15559115Y-810577D02*
G01X15559115Y-930719D01*
G01X15559115Y-810577D02*
G01X15610677Y-810577D01*
G01X15627695Y-816419D01*
G01X15633537Y-822007D01*
G01X15639125Y-833437D01*
G01X15639125Y-850709D01*
G01X15633537Y-862139D01*
G01X15627695Y-867727D01*
G01X15610677Y-873569D01*
G01X15559115Y-873569D01*
G01X15755457Y-850709D02*
G01X15755457Y-930719D01*
G01X15755457Y-867727D02*
G01X15744027Y-856297D01*
G01X15732597Y-850709D01*
G01X15715579Y-850709D01*
G01X15704149Y-856297D01*
G01X15692719Y-867727D01*
G01X15686877Y-884999D01*
G01X15686877Y-896429D01*
G01X15692719Y-913447D01*
G01X15704149Y-924877D01*
G01X15715579Y-930719D01*
G01X15732597Y-930719D01*
G01X15744027Y-924877D01*
G01X15755457Y-913447D01*
G01X15871789Y-810577D02*
G01X15871789Y-930719D01*
G01X15871789Y-867727D02*
G01X15860359Y-856297D01*
G01X15848929Y-850709D01*
G01X15831911Y-850709D01*
G01X15820481Y-856297D01*
G01X15809051Y-867727D01*
G01X15803209Y-884999D01*
G01X15803209Y-896429D01*
G01X15809051Y-913447D01*
G01X15820481Y-924877D01*
G01X15831911Y-930719D01*
G01X15848929Y-930719D01*
G01X15860359Y-924877D01*
G01X15871789Y-913447D01*
G01X17228294Y-810577D02*
G01X17228294Y-930719D01*
G01X17228294Y-810577D02*
G01X17279856Y-810577D01*
G01X17296874Y-816419D01*
G01X17302716Y-822007D01*
G01X17308304Y-833437D01*
G01X17308304Y-844867D01*
G01X17302716Y-856297D01*
G01X17296874Y-862139D01*
G01X17279856Y-867727D01*
G01X17228294Y-867727D01*
G01X17268426Y-867727D02*
G01X17308304Y-930719D01*
G01X17384758Y-850709D02*
G01X17373328Y-856297D01*
G01X17361898Y-867727D01*
G01X17356056Y-884999D01*
G01X17356056Y-896429D01*
G01X17361898Y-913447D01*
G01X17373328Y-924877D01*
G01X17384758Y-930719D01*
G01X17401776Y-930719D01*
G01X17413206Y-924877D01*
G01X17424636Y-913447D01*
G01X17430478Y-896429D01*
G01X17430478Y-884999D01*
G01X17424636Y-867727D01*
G01X17413206Y-856297D01*
G01X17401776Y-850709D01*
G01X17384758Y-850709D01*
G01X17478230Y-850709D02*
G01X17478230Y-907859D01*
G01X17484072Y-924877D01*
G01X17495502Y-930719D01*
G01X17512520Y-930719D01*
G01X17523950Y-924877D01*
G01X17541222Y-907859D01*
G01X17541222Y-850709D02*
G01X17541222Y-930719D01*
G01X17588974Y-850709D02*
G01X17588974Y-930719D01*
G01X17588974Y-873569D02*
G01X17606246Y-856297D01*
G01X17617676Y-850709D01*
G01X17634694Y-850709D01*
G01X17646124Y-856297D01*
G01X17651966Y-873569D01*
G01X17651966Y-930719D01*
G01X17768298Y-810577D02*
G01X17768298Y-930719D01*
G01X17768298Y-867727D02*
G01X17756868Y-856297D01*
G01X17745438Y-850709D01*
G01X17728420Y-850709D01*
G01X17716990Y-856297D01*
G01X17705560Y-867727D01*
G01X17699718Y-884999D01*
G01X17699718Y-896429D01*
G01X17705560Y-913447D01*
G01X17716990Y-924877D01*
G01X17728420Y-930719D01*
G01X17745438Y-930719D01*
G01X17756868Y-924877D01*
G01X17768298Y-913447D01*
G01X19187795Y-810577D02*
G01X19187795Y-930719D01*
G01X19147663Y-810577D02*
G01X19227673Y-810577D01*
G01X19304127Y-850709D02*
G01X19292697Y-856297D01*
G01X19281267Y-867727D01*
G01X19275425Y-884999D01*
G01X19275425Y-896429D01*
G01X19281267Y-913447D01*
G01X19292697Y-924877D01*
G01X19304127Y-930719D01*
G01X19321145Y-930719D01*
G01X19332575Y-924877D01*
G01X19344005Y-913447D01*
G01X19349847Y-896429D01*
G01X19349847Y-884999D01*
G01X19344005Y-867727D01*
G01X19332575Y-856297D01*
G01X19321145Y-850709D01*
G01X19304127Y-850709D01*
G01X19397599Y-850709D02*
G01X19397599Y-970597D01*
G01X19397599Y-867727D02*
G01X19409029Y-856297D01*
G01X19420459Y-850709D01*
G01X19437731Y-850709D01*
G01X19449161Y-856297D01*
G01X19460591Y-867727D01*
G01X19466179Y-884999D01*
G01X19466179Y-896429D01*
G01X19460591Y-913447D01*
G01X19449161Y-924877D01*
G01X19437731Y-930719D01*
G01X19420459Y-930719D01*
G01X19409029Y-924877D01*
G01X19397599Y-913447D01*
G01X19641947Y-810577D02*
G01X19641947Y-930719D01*
G01X19641947Y-930719D02*
G01X19710527Y-930719D01*
G01X19826859Y-850709D02*
G01X19826859Y-930719D01*
G01X19826859Y-867727D02*
G01X19815429Y-856297D01*
G01X19803999Y-850709D01*
G01X19786981Y-850709D01*
G01X19775551Y-856297D01*
G01X19764121Y-867727D01*
G01X19758279Y-884999D01*
G01X19758279Y-896429D01*
G01X19764121Y-913447D01*
G01X19775551Y-924877D01*
G01X19786981Y-930719D01*
G01X19803999Y-930719D01*
G01X19815429Y-924877D01*
G01X19826859Y-913447D01*
G01X19880453Y-850709D02*
G01X19914743Y-930719D01*
G01X19949033Y-850709D02*
G01X19914743Y-930719D01*
G01X19903313Y-953579D01*
G01X19891883Y-965009D01*
G01X19880453Y-970597D01*
G01X19874611Y-970597D01*
G01X19996785Y-884999D02*
G01X20065365Y-884999D01*
G01X20065365Y-873569D01*
G01X20059777Y-862139D01*
G01X20053935Y-856297D01*
G01X20042505Y-850709D01*
G01X20025487Y-850709D01*
G01X20014057Y-856297D01*
G01X20002627Y-867727D01*
G01X19996785Y-884999D01*
G01X19996785Y-896429D01*
G01X20002627Y-913447D01*
G01X20014057Y-924877D01*
G01X20025487Y-930719D01*
G01X20042505Y-930719D01*
G01X20053935Y-924877D01*
G01X20065365Y-913447D01*
G01X20113117Y-850709D02*
G01X20113117Y-930719D01*
G01X20113117Y-884999D02*
G01X20118959Y-867727D01*
G01X20130389Y-856297D01*
G01X20141819Y-850709D01*
G01X20158837Y-850709D01*
G01X20206589Y-879157D02*
G01X20309459Y-879157D01*
G01X20357211Y-810577D02*
G01X20357211Y-930719D01*
G01X20357211Y-810577D02*
G01X20408773Y-810577D01*
G01X20425791Y-816419D01*
G01X20431633Y-822007D01*
G01X20437221Y-833437D01*
G01X20437221Y-844867D01*
G01X20431633Y-856297D01*
G01X20425791Y-862139D01*
G01X20408773Y-867727D01*
G01X20357211Y-867727D02*
G01X20408773Y-867727D01*
G01X20425791Y-873569D01*
G01X20431633Y-879157D01*
G01X20437221Y-890587D01*
G01X20437221Y-907859D01*
G01X20431633Y-919289D01*
G01X20425791Y-924877D01*
G01X20408773Y-930719D01*
G01X20357211Y-930719D01*
G01X20513675Y-850709D02*
G01X20502245Y-856297D01*
G01X20490815Y-867727D01*
G01X20484973Y-884999D01*
G01X20484973Y-896429D01*
G01X20490815Y-913447D01*
G01X20502245Y-924877D01*
G01X20513675Y-930719D01*
G01X20530693Y-930719D01*
G01X20542123Y-924877D01*
G01X20553553Y-913447D01*
G01X20559395Y-896429D01*
G01X20559395Y-884999D01*
G01X20553553Y-867727D01*
G01X20542123Y-856297D01*
G01X20530693Y-850709D01*
G01X20513675Y-850709D01*
G01X20624419Y-810577D02*
G01X20624419Y-907859D01*
G01X20630007Y-924877D01*
G01X20641437Y-930719D01*
G01X20652867Y-930719D01*
G01X20607147Y-850709D02*
G01X20647279Y-850709D01*
G01X20717891Y-810577D02*
G01X20717891Y-907859D01*
G01X20723479Y-924877D01*
G01X20734909Y-930719D01*
G01X20746339Y-930719D01*
G01X20700619Y-850709D02*
G01X20740751Y-850709D01*
G01X20822793Y-850709D02*
G01X20811363Y-856297D01*
G01X20799933Y-867727D01*
G01X20794091Y-884999D01*
G01X20794091Y-896429D01*
G01X20799933Y-913447D01*
G01X20811363Y-924877D01*
G01X20822793Y-930719D01*
G01X20839811Y-930719D01*
G01X20851241Y-924877D01*
G01X20862671Y-913447D01*
G01X20868513Y-896429D01*
G01X20868513Y-884999D01*
G01X20862671Y-867727D01*
G01X20851241Y-856297D01*
G01X20839811Y-850709D01*
G01X20822793Y-850709D01*
G01X20916265Y-850709D02*
G01X20916265Y-930719D01*
G01X20916265Y-873569D02*
G01X20933537Y-856297D01*
G01X20944967Y-850709D01*
G01X20961985Y-850709D01*
G01X20973415Y-856297D01*
G01X20979257Y-873569D01*
G01X20979257Y-930719D01*
G01X20979257Y-873569D02*
G01X20996275Y-856297D01*
G01X21007705Y-850709D01*
G01X21024977Y-850709D01*
G01X21036407Y-856297D01*
G01X21041995Y-873569D01*
G01X21041995Y-930719D01*
G01X21217763Y-810577D02*
G01X21217763Y-930719D01*
G01X21217763Y-930719D02*
G01X21286343Y-930719D01*
G01X21402675Y-850709D02*
G01X21402675Y-930719D01*
G01X21402675Y-867727D02*
G01X21391245Y-856297D01*
G01X21379815Y-850709D01*
G01X21362797Y-850709D01*
G01X21351367Y-856297D01*
G01X21339937Y-867727D01*
G01X21334095Y-884999D01*
G01X21334095Y-896429D01*
G01X21339937Y-913447D01*
G01X21351367Y-924877D01*
G01X21362797Y-930719D01*
G01X21379815Y-930719D01*
G01X21391245Y-924877D01*
G01X21402675Y-913447D01*
G01X21456269Y-850709D02*
G01X21490559Y-930719D01*
G01X21524849Y-850709D02*
G01X21490559Y-930719D01*
G01X21479129Y-953579D01*
G01X21467699Y-965009D01*
G01X21456269Y-970597D01*
G01X21450427Y-970597D01*
G01X21572601Y-884999D02*
G01X21641181Y-884999D01*
G01X21641181Y-873569D01*
G01X21635593Y-862139D01*
G01X21629751Y-856297D01*
G01X21618321Y-850709D01*
G01X21601303Y-850709D01*
G01X21589873Y-856297D01*
G01X21578443Y-867727D01*
G01X21572601Y-884999D01*
G01X21572601Y-896429D01*
G01X21578443Y-913447D01*
G01X21589873Y-924877D01*
G01X21601303Y-930719D01*
G01X21618321Y-930719D01*
G01X21629751Y-924877D01*
G01X21641181Y-913447D01*
G01X21688933Y-850709D02*
G01X21688933Y-930719D01*
G01X21688933Y-884999D02*
G01X21694775Y-867727D01*
G01X21706205Y-856297D01*
G01X21717635Y-850709D01*
G01X21734653Y-850709D01*
G01X7274324Y-1391148D02*
G01X7217174Y-1471158D01*
G01X7303026Y-1471158D01*
G01X7274324Y-1391148D02*
G01X7274324Y-1511290D01*
G01X8642767Y-1391148D02*
G01X8705759Y-1391148D01*
G01X8671469Y-1436868D01*
G01X8688487Y-1436868D01*
G01X8699917Y-1442710D01*
G01X8705759Y-1448298D01*
G01X8711347Y-1465570D01*
G01X8711347Y-1477000D01*
G01X8705759Y-1494018D01*
G01X8694329Y-1505448D01*
G01X8677057Y-1511290D01*
G01X8660039Y-1511290D01*
G01X8642767Y-1505448D01*
G01X8637179Y-1499860D01*
G01X8631337Y-1488430D01*
G01X8833521Y-1431280D02*
G01X8827679Y-1448298D01*
G01X8816249Y-1459728D01*
G01X8799231Y-1465570D01*
G01X8793389Y-1465570D01*
G01X8776371Y-1459728D01*
G01X8764941Y-1448298D01*
G01X8759099Y-1431280D01*
G01X8759099Y-1425438D01*
G01X8764941Y-1408420D01*
G01X8776371Y-1396990D01*
G01X8793389Y-1391148D01*
G01X8799231Y-1391148D01*
G01X8816249Y-1396990D01*
G01X8827679Y-1408420D01*
G01X8833521Y-1431280D01*
G01X8833521Y-1459728D01*
G01X8827679Y-1488430D01*
G01X8816249Y-1505448D01*
G01X8799231Y-1511290D01*
G01X8787801Y-1511290D01*
G01X8770529Y-1505448D01*
G01X8764941Y-1494018D01*
G01X8887115Y-1482588D02*
G01X8881273Y-1488430D01*
G01X8887115Y-1494018D01*
G01X8892703Y-1488430D01*
G01X8887115Y-1482588D01*
G01X8997605Y-1391148D02*
G01X8940455Y-1471158D01*
G01X9026307Y-1471158D01*
G01X8997605Y-1391148D02*
G01X8997605Y-1511290D01*
G01X9074059Y-1431280D02*
G01X9137051Y-1511290D01*
G01X9137051Y-1431280D02*
G01X9074059Y-1511290D01*
G01X9196233Y-1391148D02*
G01X9259225Y-1391148D01*
G01X9224935Y-1436868D01*
G01X9241953Y-1436868D01*
G01X9253383Y-1442710D01*
G01X9259225Y-1448298D01*
G01X9264813Y-1465570D01*
G01X9264813Y-1477000D01*
G01X9259225Y-1494018D01*
G01X9247795Y-1505448D01*
G01X9230523Y-1511290D01*
G01X9213505Y-1511290D01*
G01X9196233Y-1505448D01*
G01X9190645Y-1499860D01*
G01X9184803Y-1488430D01*
G01X9386987Y-1431280D02*
G01X9381145Y-1448298D01*
G01X9369715Y-1459728D01*
G01X9352697Y-1465570D01*
G01X9346855Y-1465570D01*
G01X9329837Y-1459728D01*
G01X9318407Y-1448298D01*
G01X9312565Y-1431280D01*
G01X9312565Y-1425438D01*
G01X9318407Y-1408420D01*
G01X9329837Y-1396990D01*
G01X9346855Y-1391148D01*
G01X9352697Y-1391148D01*
G01X9369715Y-1396990D01*
G01X9381145Y-1408420D01*
G01X9386987Y-1431280D01*
G01X9386987Y-1459728D01*
G01X9381145Y-1488430D01*
G01X9369715Y-1505448D01*
G01X9352697Y-1511290D01*
G01X9341267Y-1511290D01*
G01X9323995Y-1505448D01*
G01X9318407Y-1494018D01*
G01X9440581Y-1482588D02*
G01X9434739Y-1488430D01*
G01X9440581Y-1494018D01*
G01X9446169Y-1488430D01*
G01X9440581Y-1482588D01*
G01X9551071Y-1391148D02*
G01X9493921Y-1471158D01*
G01X9579773Y-1471158D01*
G01X9551071Y-1391148D02*
G01X9551071Y-1511290D01*
G01X9627525Y-1431280D02*
G01X9627525Y-1511290D01*
G01X9627525Y-1454140D02*
G01X9644797Y-1436868D01*
G01X9656227Y-1431280D01*
G01X9673245Y-1431280D01*
G01X9684675Y-1436868D01*
G01X9690517Y-1454140D01*
G01X9690517Y-1511290D01*
G01X9690517Y-1454140D02*
G01X9707535Y-1436868D01*
G01X9718965Y-1431280D01*
G01X9736237Y-1431280D01*
G01X9747667Y-1436868D01*
G01X9753255Y-1454140D01*
G01X9753255Y-1511290D01*
G01X9801007Y-1391148D02*
G01X9806849Y-1396990D01*
G01X9812437Y-1391148D01*
G01X9806849Y-1385560D01*
G01X9801007Y-1391148D01*
G01X9806849Y-1431280D02*
G01X9806849Y-1511290D01*
G01X9860189Y-1391148D02*
G01X9860189Y-1511290D01*
G01X9948073Y-1368288D02*
G01X9936643Y-1379718D01*
G01X9925213Y-1396990D01*
G01X9913783Y-1419850D01*
G01X9907941Y-1448298D01*
G01X9907941Y-1471158D01*
G01X9913783Y-1499860D01*
G01X9925213Y-1522720D01*
G01X9936643Y-1539738D01*
G01X9948073Y-1551168D01*
G01X9995825Y-1414008D02*
G01X10007255Y-1408420D01*
G01X10024527Y-1391148D01*
G01X10024527Y-1511290D01*
G01X10078121Y-1482588D02*
G01X10072279Y-1488430D01*
G01X10078121Y-1494018D01*
G01X10083709Y-1488430D01*
G01X10078121Y-1482588D01*
G01X10165751Y-1391148D02*
G01X10148733Y-1396990D01*
G01X10137303Y-1414008D01*
G01X10131461Y-1442710D01*
G01X10131461Y-1459728D01*
G01X10137303Y-1488430D01*
G01X10148733Y-1505448D01*
G01X10165751Y-1511290D01*
G01X10177181Y-1511290D01*
G01X10194453Y-1505448D01*
G01X10205883Y-1488430D01*
G01X10211471Y-1459728D01*
G01X10211471Y-1442710D01*
G01X10205883Y-1414008D01*
G01X10194453Y-1396990D01*
G01X10177181Y-1391148D01*
G01X10165751Y-1391148D01*
G01X10293513Y-1391148D02*
G01X10276495Y-1396990D01*
G01X10265065Y-1414008D01*
G01X10259223Y-1442710D01*
G01X10259223Y-1459728D01*
G01X10265065Y-1488430D01*
G01X10276495Y-1505448D01*
G01X10293513Y-1511290D01*
G01X10304943Y-1511290D01*
G01X10322215Y-1505448D01*
G01X10333645Y-1488430D01*
G01X10339233Y-1459728D01*
G01X10339233Y-1442710D01*
G01X10333645Y-1414008D01*
G01X10322215Y-1396990D01*
G01X10304943Y-1391148D01*
G01X10293513Y-1391148D01*
G01X10421275Y-1391148D02*
G01X10404257Y-1396990D01*
G01X10392827Y-1414008D01*
G01X10386985Y-1442710D01*
G01X10386985Y-1459728D01*
G01X10392827Y-1488430D01*
G01X10404257Y-1505448D01*
G01X10421275Y-1511290D01*
G01X10432705Y-1511290D01*
G01X10449977Y-1505448D01*
G01X10461407Y-1488430D01*
G01X10466995Y-1459728D01*
G01X10466995Y-1442710D01*
G01X10461407Y-1414008D01*
G01X10449977Y-1396990D01*
G01X10432705Y-1391148D01*
G01X10421275Y-1391148D01*
G01X10514747Y-1431280D02*
G01X10577739Y-1511290D01*
G01X10577739Y-1431280D02*
G01X10514747Y-1511290D01*
G01X10625491Y-1414008D02*
G01X10636921Y-1408420D01*
G01X10654193Y-1391148D01*
G01X10654193Y-1511290D01*
G01X10707787Y-1482588D02*
G01X10701945Y-1488430D01*
G01X10707787Y-1494018D01*
G01X10713375Y-1488430D01*
G01X10707787Y-1482588D01*
G01X10795417Y-1391148D02*
G01X10778399Y-1396990D01*
G01X10766969Y-1414008D01*
G01X10761127Y-1442710D01*
G01X10761127Y-1459728D01*
G01X10766969Y-1488430D01*
G01X10778399Y-1505448D01*
G01X10795417Y-1511290D01*
G01X10806847Y-1511290D01*
G01X10824119Y-1505448D01*
G01X10835549Y-1488430D01*
G01X10841137Y-1459728D01*
G01X10841137Y-1442710D01*
G01X10835549Y-1414008D01*
G01X10824119Y-1396990D01*
G01X10806847Y-1391148D01*
G01X10795417Y-1391148D01*
G01X10923179Y-1391148D02*
G01X10906161Y-1396990D01*
G01X10894731Y-1414008D01*
G01X10888889Y-1442710D01*
G01X10888889Y-1459728D01*
G01X10894731Y-1488430D01*
G01X10906161Y-1505448D01*
G01X10923179Y-1511290D01*
G01X10934609Y-1511290D01*
G01X10951881Y-1505448D01*
G01X10963311Y-1488430D01*
G01X10968899Y-1459728D01*
G01X10968899Y-1442710D01*
G01X10963311Y-1414008D01*
G01X10951881Y-1396990D01*
G01X10934609Y-1391148D01*
G01X10923179Y-1391148D01*
G01X11050941Y-1391148D02*
G01X11033923Y-1396990D01*
G01X11022493Y-1414008D01*
G01X11016651Y-1442710D01*
G01X11016651Y-1459728D01*
G01X11022493Y-1488430D01*
G01X11033923Y-1505448D01*
G01X11050941Y-1511290D01*
G01X11062371Y-1511290D01*
G01X11079643Y-1505448D01*
G01X11091073Y-1488430D01*
G01X11096661Y-1459728D01*
G01X11096661Y-1442710D01*
G01X11091073Y-1414008D01*
G01X11079643Y-1396990D01*
G01X11062371Y-1391148D01*
G01X11050941Y-1391148D01*
G01X11144413Y-1431280D02*
G01X11144413Y-1511290D01*
G01X11144413Y-1454140D02*
G01X11161685Y-1436868D01*
G01X11173115Y-1431280D01*
G01X11190133Y-1431280D01*
G01X11201563Y-1436868D01*
G01X11207405Y-1454140D01*
G01X11207405Y-1511290D01*
G01X11207405Y-1454140D02*
G01X11224423Y-1436868D01*
G01X11235853Y-1431280D01*
G01X11253125Y-1431280D01*
G01X11264555Y-1436868D01*
G01X11270143Y-1454140D01*
G01X11270143Y-1511290D01*
G01X11317895Y-1431280D02*
G01X11317895Y-1511290D01*
G01X11317895Y-1454140D02*
G01X11335167Y-1436868D01*
G01X11346597Y-1431280D01*
G01X11363615Y-1431280D01*
G01X11375045Y-1436868D01*
G01X11380887Y-1454140D01*
G01X11380887Y-1511290D01*
G01X11380887Y-1454140D02*
G01X11397905Y-1436868D01*
G01X11409335Y-1431280D01*
G01X11426607Y-1431280D01*
G01X11438037Y-1436868D01*
G01X11443625Y-1454140D01*
G01X11443625Y-1511290D01*
G01X11491377Y-1368288D02*
G01X11502807Y-1379718D01*
G01X11514237Y-1396990D01*
G01X11525667Y-1419850D01*
G01X11531509Y-1448298D01*
G01X11531509Y-1471158D01*
G01X11525667Y-1499860D01*
G01X11514237Y-1522720D01*
G01X11502807Y-1539738D01*
G01X11491377Y-1551168D01*
G01X12666526Y-1391148D02*
G01X12666526Y-1511290D01*
G01X12666526Y-1391148D02*
G01X12718088Y-1391148D01*
G01X12735106Y-1396990D01*
G01X12740948Y-1402578D01*
G01X12746536Y-1414008D01*
G01X12746536Y-1431280D01*
G01X12740948Y-1442710D01*
G01X12735106Y-1448298D01*
G01X12718088Y-1454140D01*
G01X12666526Y-1454140D01*
G01X12834420Y-1391148D02*
G01X12834420Y-1511290D01*
G01X12794288Y-1391148D02*
G01X12874298Y-1391148D01*
G01X12922050Y-1391148D02*
G01X12922050Y-1511290D01*
G01X13002060Y-1391148D02*
G01X13002060Y-1511290D01*
G01X12922050Y-1448298D02*
G01X13002060Y-1448298D01*
G01X14127934Y-1391148D02*
G01X14127934Y-1511290D01*
G01X14127934Y-1391148D02*
G01X14179496Y-1391148D01*
G01X14196514Y-1396990D01*
G01X14202356Y-1402578D01*
G01X14207944Y-1414008D01*
G01X14207944Y-1425438D01*
G01X14202356Y-1436868D01*
G01X14196514Y-1442710D01*
G01X14179496Y-1448298D01*
G01X14127934Y-1448298D01*
G01X14168066Y-1448298D02*
G01X14207944Y-1511290D01*
G01X14284398Y-1431280D02*
G01X14272968Y-1436868D01*
G01X14261538Y-1448298D01*
G01X14255696Y-1465570D01*
G01X14255696Y-1477000D01*
G01X14261538Y-1494018D01*
G01X14272968Y-1505448D01*
G01X14284398Y-1511290D01*
G01X14301416Y-1511290D01*
G01X14312846Y-1505448D01*
G01X14324276Y-1494018D01*
G01X14330118Y-1477000D01*
G01X14330118Y-1465570D01*
G01X14324276Y-1448298D01*
G01X14312846Y-1436868D01*
G01X14301416Y-1431280D01*
G01X14284398Y-1431280D01*
G01X14377870Y-1431280D02*
G01X14377870Y-1488430D01*
G01X14383712Y-1505448D01*
G01X14395142Y-1511290D01*
G01X14412160Y-1511290D01*
G01X14423590Y-1505448D01*
G01X14440862Y-1488430D01*
G01X14440862Y-1431280D02*
G01X14440862Y-1511290D01*
G01X14488614Y-1431280D02*
G01X14488614Y-1511290D01*
G01X14488614Y-1454140D02*
G01X14505886Y-1436868D01*
G01X14517316Y-1431280D01*
G01X14534334Y-1431280D01*
G01X14545764Y-1436868D01*
G01X14551606Y-1454140D01*
G01X14551606Y-1511290D01*
G01X14667938Y-1391148D02*
G01X14667938Y-1511290D01*
G01X14667938Y-1448298D02*
G01X14656508Y-1436868D01*
G01X14645078Y-1431280D01*
G01X14628060Y-1431280D01*
G01X14616630Y-1436868D01*
G01X14605200Y-1448298D01*
G01X14599358Y-1465570D01*
G01X14599358Y-1477000D01*
G01X14605200Y-1494018D01*
G01X14616630Y-1505448D01*
G01X14628060Y-1511290D01*
G01X14645078Y-1511290D01*
G01X14656508Y-1505448D01*
G01X14667938Y-1494018D01*
G01X15559115Y-1391148D02*
G01X15559115Y-1511290D01*
G01X15559115Y-1391148D02*
G01X15610677Y-1391148D01*
G01X15627695Y-1396990D01*
G01X15633537Y-1402578D01*
G01X15639125Y-1414008D01*
G01X15639125Y-1431280D01*
G01X15633537Y-1442710D01*
G01X15627695Y-1448298D01*
G01X15610677Y-1454140D01*
G01X15559115Y-1454140D01*
G01X15755457Y-1431280D02*
G01X15755457Y-1511290D01*
G01X15755457Y-1448298D02*
G01X15744027Y-1436868D01*
G01X15732597Y-1431280D01*
G01X15715579Y-1431280D01*
G01X15704149Y-1436868D01*
G01X15692719Y-1448298D01*
G01X15686877Y-1465570D01*
G01X15686877Y-1477000D01*
G01X15692719Y-1494018D01*
G01X15704149Y-1505448D01*
G01X15715579Y-1511290D01*
G01X15732597Y-1511290D01*
G01X15744027Y-1505448D01*
G01X15755457Y-1494018D01*
G01X15871789Y-1391148D02*
G01X15871789Y-1511290D01*
G01X15871789Y-1448298D02*
G01X15860359Y-1436868D01*
G01X15848929Y-1431280D01*
G01X15831911Y-1431280D01*
G01X15820481Y-1436868D01*
G01X15809051Y-1448298D01*
G01X15803209Y-1465570D01*
G01X15803209Y-1477000D01*
G01X15809051Y-1494018D01*
G01X15820481Y-1505448D01*
G01X15831911Y-1511290D01*
G01X15848929Y-1511290D01*
G01X15860359Y-1505448D01*
G01X15871789Y-1494018D01*
G01X17228294Y-1391148D02*
G01X17228294Y-1511290D01*
G01X17228294Y-1391148D02*
G01X17279856Y-1391148D01*
G01X17296874Y-1396990D01*
G01X17302716Y-1402578D01*
G01X17308304Y-1414008D01*
G01X17308304Y-1425438D01*
G01X17302716Y-1436868D01*
G01X17296874Y-1442710D01*
G01X17279856Y-1448298D01*
G01X17228294Y-1448298D01*
G01X17268426Y-1448298D02*
G01X17308304Y-1511290D01*
G01X17384758Y-1431280D02*
G01X17373328Y-1436868D01*
G01X17361898Y-1448298D01*
G01X17356056Y-1465570D01*
G01X17356056Y-1477000D01*
G01X17361898Y-1494018D01*
G01X17373328Y-1505448D01*
G01X17384758Y-1511290D01*
G01X17401776Y-1511290D01*
G01X17413206Y-1505448D01*
G01X17424636Y-1494018D01*
G01X17430478Y-1477000D01*
G01X17430478Y-1465570D01*
G01X17424636Y-1448298D01*
G01X17413206Y-1436868D01*
G01X17401776Y-1431280D01*
G01X17384758Y-1431280D01*
G01X17478230Y-1431280D02*
G01X17478230Y-1488430D01*
G01X17484072Y-1505448D01*
G01X17495502Y-1511290D01*
G01X17512520Y-1511290D01*
G01X17523950Y-1505448D01*
G01X17541222Y-1488430D01*
G01X17541222Y-1431280D02*
G01X17541222Y-1511290D01*
G01X17588974Y-1431280D02*
G01X17588974Y-1511290D01*
G01X17588974Y-1454140D02*
G01X17606246Y-1436868D01*
G01X17617676Y-1431280D01*
G01X17634694Y-1431280D01*
G01X17646124Y-1436868D01*
G01X17651966Y-1454140D01*
G01X17651966Y-1511290D01*
G01X17768298Y-1391148D02*
G01X17768298Y-1511290D01*
G01X17768298Y-1448298D02*
G01X17756868Y-1436868D01*
G01X17745438Y-1431280D01*
G01X17728420Y-1431280D01*
G01X17716990Y-1436868D01*
G01X17705560Y-1448298D01*
G01X17699718Y-1465570D01*
G01X17699718Y-1477000D01*
G01X17705560Y-1494018D01*
G01X17716990Y-1505448D01*
G01X17728420Y-1511290D01*
G01X17745438Y-1511290D01*
G01X17756868Y-1505448D01*
G01X17768298Y-1494018D01*
G01X19187795Y-1391148D02*
G01X19187795Y-1511290D01*
G01X19147663Y-1391148D02*
G01X19227673Y-1391148D01*
G01X19304127Y-1431280D02*
G01X19292697Y-1436868D01*
G01X19281267Y-1448298D01*
G01X19275425Y-1465570D01*
G01X19275425Y-1477000D01*
G01X19281267Y-1494018D01*
G01X19292697Y-1505448D01*
G01X19304127Y-1511290D01*
G01X19321145Y-1511290D01*
G01X19332575Y-1505448D01*
G01X19344005Y-1494018D01*
G01X19349847Y-1477000D01*
G01X19349847Y-1465570D01*
G01X19344005Y-1448298D01*
G01X19332575Y-1436868D01*
G01X19321145Y-1431280D01*
G01X19304127Y-1431280D01*
G01X19397599Y-1431280D02*
G01X19397599Y-1551168D01*
G01X19397599Y-1448298D02*
G01X19409029Y-1436868D01*
G01X19420459Y-1431280D01*
G01X19437731Y-1431280D01*
G01X19449161Y-1436868D01*
G01X19460591Y-1448298D01*
G01X19466179Y-1465570D01*
G01X19466179Y-1477000D01*
G01X19460591Y-1494018D01*
G01X19449161Y-1505448D01*
G01X19437731Y-1511290D01*
G01X19420459Y-1511290D01*
G01X19409029Y-1505448D01*
G01X19397599Y-1494018D01*
G01X19641947Y-1391148D02*
G01X19641947Y-1511290D01*
G01X19641947Y-1511290D02*
G01X19710527Y-1511290D01*
G01X19826859Y-1431280D02*
G01X19826859Y-1511290D01*
G01X19826859Y-1448298D02*
G01X19815429Y-1436868D01*
G01X19803999Y-1431280D01*
G01X19786981Y-1431280D01*
G01X19775551Y-1436868D01*
G01X19764121Y-1448298D01*
G01X19758279Y-1465570D01*
G01X19758279Y-1477000D01*
G01X19764121Y-1494018D01*
G01X19775551Y-1505448D01*
G01X19786981Y-1511290D01*
G01X19803999Y-1511290D01*
G01X19815429Y-1505448D01*
G01X19826859Y-1494018D01*
G01X19880453Y-1431280D02*
G01X19914743Y-1511290D01*
G01X19949033Y-1431280D02*
G01X19914743Y-1511290D01*
G01X19903313Y-1534150D01*
G01X19891883Y-1545580D01*
G01X19880453Y-1551168D01*
G01X19874611Y-1551168D01*
G01X19996785Y-1465570D02*
G01X20065365Y-1465570D01*
G01X20065365Y-1454140D01*
G01X20059777Y-1442710D01*
G01X20053935Y-1436868D01*
G01X20042505Y-1431280D01*
G01X20025487Y-1431280D01*
G01X20014057Y-1436868D01*
G01X20002627Y-1448298D01*
G01X19996785Y-1465570D01*
G01X19996785Y-1477000D01*
G01X20002627Y-1494018D01*
G01X20014057Y-1505448D01*
G01X20025487Y-1511290D01*
G01X20042505Y-1511290D01*
G01X20053935Y-1505448D01*
G01X20065365Y-1494018D01*
G01X20113117Y-1431280D02*
G01X20113117Y-1511290D01*
G01X20113117Y-1465570D02*
G01X20118959Y-1448298D01*
G01X20130389Y-1436868D01*
G01X20141819Y-1431280D01*
G01X20158837Y-1431280D01*
G01X20206589Y-1459728D02*
G01X20309459Y-1459728D01*
G01X20357211Y-1391148D02*
G01X20357211Y-1511290D01*
G01X20357211Y-1391148D02*
G01X20408773Y-1391148D01*
G01X20425791Y-1396990D01*
G01X20431633Y-1402578D01*
G01X20437221Y-1414008D01*
G01X20437221Y-1425438D01*
G01X20431633Y-1436868D01*
G01X20425791Y-1442710D01*
G01X20408773Y-1448298D01*
G01X20357211Y-1448298D02*
G01X20408773Y-1448298D01*
G01X20425791Y-1454140D01*
G01X20431633Y-1459728D01*
G01X20437221Y-1471158D01*
G01X20437221Y-1488430D01*
G01X20431633Y-1499860D01*
G01X20425791Y-1505448D01*
G01X20408773Y-1511290D01*
G01X20357211Y-1511290D01*
G01X20513675Y-1431280D02*
G01X20502245Y-1436868D01*
G01X20490815Y-1448298D01*
G01X20484973Y-1465570D01*
G01X20484973Y-1477000D01*
G01X20490815Y-1494018D01*
G01X20502245Y-1505448D01*
G01X20513675Y-1511290D01*
G01X20530693Y-1511290D01*
G01X20542123Y-1505448D01*
G01X20553553Y-1494018D01*
G01X20559395Y-1477000D01*
G01X20559395Y-1465570D01*
G01X20553553Y-1448298D01*
G01X20542123Y-1436868D01*
G01X20530693Y-1431280D01*
G01X20513675Y-1431280D01*
G01X20624419Y-1391148D02*
G01X20624419Y-1488430D01*
G01X20630007Y-1505448D01*
G01X20641437Y-1511290D01*
G01X20652867Y-1511290D01*
G01X20607147Y-1431280D02*
G01X20647279Y-1431280D01*
G01X20717891Y-1391148D02*
G01X20717891Y-1488430D01*
G01X20723479Y-1505448D01*
G01X20734909Y-1511290D01*
G01X20746339Y-1511290D01*
G01X20700619Y-1431280D02*
G01X20740751Y-1431280D01*
G01X20822793Y-1431280D02*
G01X20811363Y-1436868D01*
G01X20799933Y-1448298D01*
G01X20794091Y-1465570D01*
G01X20794091Y-1477000D01*
G01X20799933Y-1494018D01*
G01X20811363Y-1505448D01*
G01X20822793Y-1511290D01*
G01X20839811Y-1511290D01*
G01X20851241Y-1505448D01*
G01X20862671Y-1494018D01*
G01X20868513Y-1477000D01*
G01X20868513Y-1465570D01*
G01X20862671Y-1448298D01*
G01X20851241Y-1436868D01*
G01X20839811Y-1431280D01*
G01X20822793Y-1431280D01*
G01X20916265Y-1431280D02*
G01X20916265Y-1511290D01*
G01X20916265Y-1454140D02*
G01X20933537Y-1436868D01*
G01X20944967Y-1431280D01*
G01X20961985Y-1431280D01*
G01X20973415Y-1436868D01*
G01X20979257Y-1454140D01*
G01X20979257Y-1511290D01*
G01X20979257Y-1454140D02*
G01X20996275Y-1436868D01*
G01X21007705Y-1431280D01*
G01X21024977Y-1431280D01*
G01X21036407Y-1436868D01*
G01X21041995Y-1454140D01*
G01X21041995Y-1511290D01*
G01X21217763Y-1391148D02*
G01X21217763Y-1511290D01*
G01X21217763Y-1511290D02*
G01X21286343Y-1511290D01*
G01X21402675Y-1431280D02*
G01X21402675Y-1511290D01*
G01X21402675Y-1448298D02*
G01X21391245Y-1436868D01*
G01X21379815Y-1431280D01*
G01X21362797Y-1431280D01*
G01X21351367Y-1436868D01*
G01X21339937Y-1448298D01*
G01X21334095Y-1465570D01*
G01X21334095Y-1477000D01*
G01X21339937Y-1494018D01*
G01X21351367Y-1505448D01*
G01X21362797Y-1511290D01*
G01X21379815Y-1511290D01*
G01X21391245Y-1505448D01*
G01X21402675Y-1494018D01*
G01X21456269Y-1431280D02*
G01X21490559Y-1511290D01*
G01X21524849Y-1431280D02*
G01X21490559Y-1511290D01*
G01X21479129Y-1534150D01*
G01X21467699Y-1545580D01*
G01X21456269Y-1551168D01*
G01X21450427Y-1551168D01*
G01X21572601Y-1465570D02*
G01X21641181Y-1465570D01*
G01X21641181Y-1454140D01*
G01X21635593Y-1442710D01*
G01X21629751Y-1436868D01*
G01X21618321Y-1431280D01*
G01X21601303Y-1431280D01*
G01X21589873Y-1436868D01*
G01X21578443Y-1448298D01*
G01X21572601Y-1465570D01*
G01X21572601Y-1477000D01*
G01X21578443Y-1494018D01*
G01X21589873Y-1505448D01*
G01X21601303Y-1511290D01*
G01X21618321Y-1511290D01*
G01X21629751Y-1505448D01*
G01X21641181Y-1494018D01*
G01X21688933Y-1431280D02*
G01X21688933Y-1511290D01*
G01X21688933Y-1465570D02*
G01X21694775Y-1448298D01*
G01X21706205Y-1436868D01*
G01X21717635Y-1431280D01*
G01X21734653Y-1431280D01*
G01X7274324Y-1971720D02*
G01X7217174Y-2051730D01*
G01X7303026Y-2051730D01*
G01X7274324Y-1971720D02*
G01X7274324Y-2091862D01*
G01X8637179Y-2000422D02*
G01X8637179Y-1994580D01*
G01X8642767Y-1983150D01*
G01X8648609Y-1977562D01*
G01X8660039Y-1971720D01*
G01X8682899Y-1971720D01*
G01X8694329Y-1977562D01*
G01X8699917Y-1983150D01*
G01X8705759Y-1994580D01*
G01X8705759Y-2006010D01*
G01X8699917Y-2017440D01*
G01X8688487Y-2034712D01*
G01X8631337Y-2091862D01*
G01X8711347Y-2091862D01*
G01X8770529Y-1971720D02*
G01X8833521Y-1971720D01*
G01X8799231Y-2017440D01*
G01X8816249Y-2017440D01*
G01X8827679Y-2023282D01*
G01X8833521Y-2028870D01*
G01X8839109Y-2046142D01*
G01X8839109Y-2057572D01*
G01X8833521Y-2074590D01*
G01X8822091Y-2086020D01*
G01X8804819Y-2091862D01*
G01X8787801Y-2091862D01*
G01X8770529Y-2086020D01*
G01X8764941Y-2080432D01*
G01X8759099Y-2069002D01*
G01X8892703Y-2063160D02*
G01X8886861Y-2069002D01*
G01X8892703Y-2074590D01*
G01X8898291Y-2069002D01*
G01X8892703Y-2063160D01*
G01X9014623Y-1988992D02*
G01X9009035Y-1977562D01*
G01X8991763Y-1971720D01*
G01X8980333Y-1971720D01*
G01X8963315Y-1977562D01*
G01X8951885Y-1994580D01*
G01X8946043Y-2023282D01*
G01X8946043Y-2051730D01*
G01X8951885Y-2074590D01*
G01X8963315Y-2086020D01*
G01X8980333Y-2091862D01*
G01X8986175Y-2091862D01*
G01X9003193Y-2086020D01*
G01X9014623Y-2074590D01*
G01X9020465Y-2057572D01*
G01X9020465Y-2051730D01*
G01X9014623Y-2034712D01*
G01X9003193Y-2023282D01*
G01X8986175Y-2017440D01*
G01X8980333Y-2017440D01*
G01X8963315Y-2023282D01*
G01X8951885Y-2034712D01*
G01X8946043Y-2051730D01*
G01X9068217Y-2011852D02*
G01X9131209Y-2091862D01*
G01X9131209Y-2011852D02*
G01X9068217Y-2091862D01*
G01X9247541Y-1971720D02*
G01X9190391Y-1971720D01*
G01X9184803Y-2023282D01*
G01X9190391Y-2017440D01*
G01X9207663Y-2011852D01*
G01X9224681Y-2011852D01*
G01X9241953Y-2017440D01*
G01X9253383Y-2028870D01*
G01X9258971Y-2046142D01*
G01X9258971Y-2057572D01*
G01X9253383Y-2074590D01*
G01X9241953Y-2086020D01*
G01X9224681Y-2091862D01*
G01X9207663Y-2091862D01*
G01X9190391Y-2086020D01*
G01X9184803Y-2080432D01*
G01X9178961Y-2069002D01*
G01X9381145Y-2011852D02*
G01X9375303Y-2028870D01*
G01X9363873Y-2040300D01*
G01X9346855Y-2046142D01*
G01X9341013Y-2046142D01*
G01X9323995Y-2040300D01*
G01X9312565Y-2028870D01*
G01X9306723Y-2011852D01*
G01X9306723Y-2006010D01*
G01X9312565Y-1988992D01*
G01X9323995Y-1977562D01*
G01X9341013Y-1971720D01*
G01X9346855Y-1971720D01*
G01X9363873Y-1977562D01*
G01X9375303Y-1988992D01*
G01X9381145Y-2011852D01*
G01X9381145Y-2040300D01*
G01X9375303Y-2069002D01*
G01X9363873Y-2086020D01*
G01X9346855Y-2091862D01*
G01X9335425Y-2091862D01*
G01X9318153Y-2086020D01*
G01X9312565Y-2074590D01*
G01X9434739Y-2063160D02*
G01X9428897Y-2069002D01*
G01X9434739Y-2074590D01*
G01X9440327Y-2069002D01*
G01X9434739Y-2063160D01*
G01X9488079Y-1994580D02*
G01X9499509Y-1988992D01*
G01X9516781Y-1971720D01*
G01X9516781Y-2091862D01*
G01X9564533Y-2011852D02*
G01X9564533Y-2091862D01*
G01X9564533Y-2034712D02*
G01X9581805Y-2017440D01*
G01X9593235Y-2011852D01*
G01X9610253Y-2011852D01*
G01X9621683Y-2017440D01*
G01X9627525Y-2034712D01*
G01X9627525Y-2091862D01*
G01X9627525Y-2034712D02*
G01X9644543Y-2017440D01*
G01X9655973Y-2011852D01*
G01X9673245Y-2011852D01*
G01X9684675Y-2017440D01*
G01X9690263Y-2034712D01*
G01X9690263Y-2091862D01*
G01X9738015Y-1971720D02*
G01X9743857Y-1977562D01*
G01X9749445Y-1971720D01*
G01X9743857Y-1966132D01*
G01X9738015Y-1971720D01*
G01X9743857Y-2011852D02*
G01X9743857Y-2091862D01*
G01X9797197Y-1971720D02*
G01X9797197Y-2091862D01*
G01X9885081Y-1948860D02*
G01X9873651Y-1960290D01*
G01X9862221Y-1977562D01*
G01X9850791Y-2000422D01*
G01X9844949Y-2028870D01*
G01X9844949Y-2051730D01*
G01X9850791Y-2080432D01*
G01X9862221Y-2103292D01*
G01X9873651Y-2120310D01*
G01X9885081Y-2131740D01*
G01X9967123Y-1971720D02*
G01X9950105Y-1977562D01*
G01X9938675Y-1994580D01*
G01X9932833Y-2023282D01*
G01X9932833Y-2040300D01*
G01X9938675Y-2069002D01*
G01X9950105Y-2086020D01*
G01X9967123Y-2091862D01*
G01X9978553Y-2091862D01*
G01X9995825Y-2086020D01*
G01X10007255Y-2069002D01*
G01X10012843Y-2040300D01*
G01X10012843Y-2023282D01*
G01X10007255Y-1994580D01*
G01X9995825Y-1977562D01*
G01X9978553Y-1971720D01*
G01X9967123Y-1971720D01*
G01X10066437Y-2063160D02*
G01X10060595Y-2069002D01*
G01X10066437Y-2074590D01*
G01X10072025Y-2069002D01*
G01X10066437Y-2063160D01*
G01X10188357Y-1988992D02*
G01X10182769Y-1977562D01*
G01X10165497Y-1971720D01*
G01X10154067Y-1971720D01*
G01X10137049Y-1977562D01*
G01X10125619Y-1994580D01*
G01X10119777Y-2023282D01*
G01X10119777Y-2051730D01*
G01X10125619Y-2074590D01*
G01X10137049Y-2086020D01*
G01X10154067Y-2091862D01*
G01X10159909Y-2091862D01*
G01X10176927Y-2086020D01*
G01X10188357Y-2074590D01*
G01X10194199Y-2057572D01*
G01X10194199Y-2051730D01*
G01X10188357Y-2034712D01*
G01X10176927Y-2023282D01*
G01X10159909Y-2017440D01*
G01X10154067Y-2017440D01*
G01X10137049Y-2023282D01*
G01X10125619Y-2034712D01*
G01X10119777Y-2051730D01*
G01X10276241Y-1971720D02*
G01X10259223Y-1977562D01*
G01X10247793Y-1994580D01*
G01X10241951Y-2023282D01*
G01X10241951Y-2040300D01*
G01X10247793Y-2069002D01*
G01X10259223Y-2086020D01*
G01X10276241Y-2091862D01*
G01X10287671Y-2091862D01*
G01X10304943Y-2086020D01*
G01X10316373Y-2069002D01*
G01X10321961Y-2040300D01*
G01X10321961Y-2023282D01*
G01X10316373Y-1994580D01*
G01X10304943Y-1977562D01*
G01X10287671Y-1971720D01*
G01X10276241Y-1971720D01*
G01X10404003Y-1971720D02*
G01X10386985Y-1977562D01*
G01X10375555Y-1994580D01*
G01X10369713Y-2023282D01*
G01X10369713Y-2040300D01*
G01X10375555Y-2069002D01*
G01X10386985Y-2086020D01*
G01X10404003Y-2091862D01*
G01X10415433Y-2091862D01*
G01X10432705Y-2086020D01*
G01X10444135Y-2069002D01*
G01X10449723Y-2040300D01*
G01X10449723Y-2023282D01*
G01X10444135Y-1994580D01*
G01X10432705Y-1977562D01*
G01X10415433Y-1971720D01*
G01X10404003Y-1971720D01*
G01X10497475Y-2011852D02*
G01X10560467Y-2091862D01*
G01X10560467Y-2011852D02*
G01X10497475Y-2091862D01*
G01X10608219Y-1994580D02*
G01X10619649Y-1988992D01*
G01X10636921Y-1971720D01*
G01X10636921Y-2091862D01*
G01X10690515Y-2063160D02*
G01X10684673Y-2069002D01*
G01X10690515Y-2074590D01*
G01X10696103Y-2069002D01*
G01X10690515Y-2063160D01*
G01X10812435Y-1971720D02*
G01X10755285Y-1971720D01*
G01X10749697Y-2023282D01*
G01X10755285Y-2017440D01*
G01X10772557Y-2011852D01*
G01X10789575Y-2011852D01*
G01X10806847Y-2017440D01*
G01X10818277Y-2028870D01*
G01X10823865Y-2046142D01*
G01X10823865Y-2057572D01*
G01X10818277Y-2074590D01*
G01X10806847Y-2086020D01*
G01X10789575Y-2091862D01*
G01X10772557Y-2091862D01*
G01X10755285Y-2086020D01*
G01X10749697Y-2080432D01*
G01X10743855Y-2069002D01*
G01X10905907Y-1971720D02*
G01X10888889Y-1977562D01*
G01X10877459Y-1994580D01*
G01X10871617Y-2023282D01*
G01X10871617Y-2040300D01*
G01X10877459Y-2069002D01*
G01X10888889Y-2086020D01*
G01X10905907Y-2091862D01*
G01X10917337Y-2091862D01*
G01X10934609Y-2086020D01*
G01X10946039Y-2069002D01*
G01X10951627Y-2040300D01*
G01X10951627Y-2023282D01*
G01X10946039Y-1994580D01*
G01X10934609Y-1977562D01*
G01X10917337Y-1971720D01*
G01X10905907Y-1971720D01*
G01X11033669Y-1971720D02*
G01X11016651Y-1977562D01*
G01X11005221Y-1994580D01*
G01X10999379Y-2023282D01*
G01X10999379Y-2040300D01*
G01X11005221Y-2069002D01*
G01X11016651Y-2086020D01*
G01X11033669Y-2091862D01*
G01X11045099Y-2091862D01*
G01X11062371Y-2086020D01*
G01X11073801Y-2069002D01*
G01X11079389Y-2040300D01*
G01X11079389Y-2023282D01*
G01X11073801Y-1994580D01*
G01X11062371Y-1977562D01*
G01X11045099Y-1971720D01*
G01X11033669Y-1971720D01*
G01X11127141Y-2011852D02*
G01X11127141Y-2091862D01*
G01X11127141Y-2034712D02*
G01X11144413Y-2017440D01*
G01X11155843Y-2011852D01*
G01X11172861Y-2011852D01*
G01X11184291Y-2017440D01*
G01X11190133Y-2034712D01*
G01X11190133Y-2091862D01*
G01X11190133Y-2034712D02*
G01X11207151Y-2017440D01*
G01X11218581Y-2011852D01*
G01X11235853Y-2011852D01*
G01X11247283Y-2017440D01*
G01X11252871Y-2034712D01*
G01X11252871Y-2091862D01*
G01X11300623Y-2011852D02*
G01X11300623Y-2091862D01*
G01X11300623Y-2034712D02*
G01X11317895Y-2017440D01*
G01X11329325Y-2011852D01*
G01X11346343Y-2011852D01*
G01X11357773Y-2017440D01*
G01X11363615Y-2034712D01*
G01X11363615Y-2091862D01*
G01X11363615Y-2034712D02*
G01X11380633Y-2017440D01*
G01X11392063Y-2011852D01*
G01X11409335Y-2011852D01*
G01X11420765Y-2017440D01*
G01X11426353Y-2034712D01*
G01X11426353Y-2091862D01*
G01X11474105Y-1948860D02*
G01X11485535Y-1960290D01*
G01X11496965Y-1977562D01*
G01X11508395Y-2000422D01*
G01X11514237Y-2028870D01*
G01X11514237Y-2051730D01*
G01X11508395Y-2080432D01*
G01X11496965Y-2103292D01*
G01X11485535Y-2120310D01*
G01X11474105Y-2131740D01*
G01X12666526Y-1971720D02*
G01X12666526Y-2091862D01*
G01X12666526Y-1971720D02*
G01X12718088Y-1971720D01*
G01X12735106Y-1977562D01*
G01X12740948Y-1983150D01*
G01X12746536Y-1994580D01*
G01X12746536Y-2011852D01*
G01X12740948Y-2023282D01*
G01X12735106Y-2028870D01*
G01X12718088Y-2034712D01*
G01X12666526Y-2034712D01*
G01X12834420Y-1971720D02*
G01X12834420Y-2091862D01*
G01X12794288Y-1971720D02*
G01X12874298Y-1971720D01*
G01X12922050Y-1971720D02*
G01X12922050Y-2091862D01*
G01X13002060Y-1971720D02*
G01X13002060Y-2091862D01*
G01X12922050Y-2028870D02*
G01X13002060Y-2028870D01*
G01X14207944Y-1988992D02*
G01X14196514Y-1977562D01*
G01X14179496Y-1971720D01*
G01X14156636Y-1971720D01*
G01X14139364Y-1977562D01*
G01X14127934Y-1988992D01*
G01X14127934Y-2000422D01*
G01X14133776Y-2011852D01*
G01X14139364Y-2017440D01*
G01X14150794Y-2023282D01*
G01X14185084Y-2034712D01*
G01X14196514Y-2040300D01*
G01X14202356Y-2046142D01*
G01X14207944Y-2057572D01*
G01X14207944Y-2074590D01*
G01X14196514Y-2086020D01*
G01X14179496Y-2091862D01*
G01X14156636Y-2091862D01*
G01X14139364Y-2086020D01*
G01X14127934Y-2074590D01*
G01X14255696Y-1971720D02*
G01X14255696Y-2091862D01*
G01X14332150Y-2011852D02*
G01X14320720Y-2017440D01*
G01X14309290Y-2028870D01*
G01X14303448Y-2046142D01*
G01X14303448Y-2057572D01*
G01X14309290Y-2074590D01*
G01X14320720Y-2086020D01*
G01X14332150Y-2091862D01*
G01X14349168Y-2091862D01*
G01X14360598Y-2086020D01*
G01X14372028Y-2074590D01*
G01X14377870Y-2057572D01*
G01X14377870Y-2046142D01*
G01X14372028Y-2028870D01*
G01X14360598Y-2017440D01*
G01X14349168Y-2011852D01*
G01X14332150Y-2011852D01*
G01X14442894Y-1971720D02*
G01X14442894Y-2069002D01*
G01X14448482Y-2086020D01*
G01X14459912Y-2091862D01*
G01X14471342Y-2091862D01*
G01X14425622Y-2011852D02*
G01X14465754Y-2011852D01*
G01X15559115Y-1971720D02*
G01X15559115Y-2091862D01*
G01X15559115Y-1971720D02*
G01X15610677Y-1971720D01*
G01X15627695Y-1977562D01*
G01X15633537Y-1983150D01*
G01X15639125Y-1994580D01*
G01X15639125Y-2011852D01*
G01X15633537Y-2023282D01*
G01X15627695Y-2028870D01*
G01X15610677Y-2034712D01*
G01X15559115Y-2034712D01*
G01X15755457Y-2011852D02*
G01X15755457Y-2091862D01*
G01X15755457Y-2028870D02*
G01X15744027Y-2017440D01*
G01X15732597Y-2011852D01*
G01X15715579Y-2011852D01*
G01X15704149Y-2017440D01*
G01X15692719Y-2028870D01*
G01X15686877Y-2046142D01*
G01X15686877Y-2057572D01*
G01X15692719Y-2074590D01*
G01X15704149Y-2086020D01*
G01X15715579Y-2091862D01*
G01X15732597Y-2091862D01*
G01X15744027Y-2086020D01*
G01X15755457Y-2074590D01*
G01X15871789Y-1971720D02*
G01X15871789Y-2091862D01*
G01X15871789Y-2028870D02*
G01X15860359Y-2017440D01*
G01X15848929Y-2011852D01*
G01X15831911Y-2011852D01*
G01X15820481Y-2017440D01*
G01X15809051Y-2028870D01*
G01X15803209Y-2046142D01*
G01X15803209Y-2057572D01*
G01X15809051Y-2074590D01*
G01X15820481Y-2086020D01*
G01X15831911Y-2091862D01*
G01X15848929Y-2091862D01*
G01X15860359Y-2086020D01*
G01X15871789Y-2074590D01*
G01X17262584Y-1971720D02*
G01X17251154Y-1977562D01*
G01X17239724Y-1988992D01*
G01X17234136Y-2000422D01*
G01X17228294Y-2017440D01*
G01X17228294Y-2046142D01*
G01X17234136Y-2063160D01*
G01X17239724Y-2074590D01*
G01X17251154Y-2086020D01*
G01X17262584Y-2091862D01*
G01X17285444Y-2091862D01*
G01X17296874Y-2086020D01*
G01X17308304Y-2074590D01*
G01X17314146Y-2063160D01*
G01X17319734Y-2046142D01*
G01X17319734Y-2017440D01*
G01X17314146Y-2000422D01*
G01X17308304Y-1988992D01*
G01X17296874Y-1977562D01*
G01X17285444Y-1971720D01*
G01X17262584Y-1971720D01*
G01X17367486Y-2011852D02*
G01X17401776Y-2091862D01*
G01X17436066Y-2011852D02*
G01X17401776Y-2091862D01*
G01X17552398Y-2011852D02*
G01X17552398Y-2091862D01*
G01X17552398Y-2028870D02*
G01X17540968Y-2017440D01*
G01X17529538Y-2011852D01*
G01X17512520Y-2011852D01*
G01X17501090Y-2017440D01*
G01X17489660Y-2028870D01*
G01X17483818Y-2046142D01*
G01X17483818Y-2057572D01*
G01X17489660Y-2074590D01*
G01X17501090Y-2086020D01*
G01X17512520Y-2091862D01*
G01X17529538Y-2091862D01*
G01X17540968Y-2086020D01*
G01X17552398Y-2074590D01*
G01X17600150Y-1971720D02*
G01X17600150Y-2091862D01*
G01X19187795Y-1971720D02*
G01X19187795Y-2091862D01*
G01X19147663Y-1971720D02*
G01X19227673Y-1971720D01*
G01X19304127Y-2011852D02*
G01X19292697Y-2017440D01*
G01X19281267Y-2028870D01*
G01X19275425Y-2046142D01*
G01X19275425Y-2057572D01*
G01X19281267Y-2074590D01*
G01X19292697Y-2086020D01*
G01X19304127Y-2091862D01*
G01X19321145Y-2091862D01*
G01X19332575Y-2086020D01*
G01X19344005Y-2074590D01*
G01X19349847Y-2057572D01*
G01X19349847Y-2046142D01*
G01X19344005Y-2028870D01*
G01X19332575Y-2017440D01*
G01X19321145Y-2011852D01*
G01X19304127Y-2011852D01*
G01X19397599Y-2011852D02*
G01X19397599Y-2131740D01*
G01X19397599Y-2028870D02*
G01X19409029Y-2017440D01*
G01X19420459Y-2011852D01*
G01X19437731Y-2011852D01*
G01X19449161Y-2017440D01*
G01X19460591Y-2028870D01*
G01X19466179Y-2046142D01*
G01X19466179Y-2057572D01*
G01X19460591Y-2074590D01*
G01X19449161Y-2086020D01*
G01X19437731Y-2091862D01*
G01X19420459Y-2091862D01*
G01X19409029Y-2086020D01*
G01X19397599Y-2074590D01*
G01X19641947Y-1971720D02*
G01X19641947Y-2091862D01*
G01X19641947Y-2091862D02*
G01X19710527Y-2091862D01*
G01X19826859Y-2011852D02*
G01X19826859Y-2091862D01*
G01X19826859Y-2028870D02*
G01X19815429Y-2017440D01*
G01X19803999Y-2011852D01*
G01X19786981Y-2011852D01*
G01X19775551Y-2017440D01*
G01X19764121Y-2028870D01*
G01X19758279Y-2046142D01*
G01X19758279Y-2057572D01*
G01X19764121Y-2074590D01*
G01X19775551Y-2086020D01*
G01X19786981Y-2091862D01*
G01X19803999Y-2091862D01*
G01X19815429Y-2086020D01*
G01X19826859Y-2074590D01*
G01X19880453Y-2011852D02*
G01X19914743Y-2091862D01*
G01X19949033Y-2011852D02*
G01X19914743Y-2091862D01*
G01X19903313Y-2114722D01*
G01X19891883Y-2126152D01*
G01X19880453Y-2131740D01*
G01X19874611Y-2131740D01*
G01X19996785Y-2046142D02*
G01X20065365Y-2046142D01*
G01X20065365Y-2034712D01*
G01X20059777Y-2023282D01*
G01X20053935Y-2017440D01*
G01X20042505Y-2011852D01*
G01X20025487Y-2011852D01*
G01X20014057Y-2017440D01*
G01X20002627Y-2028870D01*
G01X19996785Y-2046142D01*
G01X19996785Y-2057572D01*
G01X20002627Y-2074590D01*
G01X20014057Y-2086020D01*
G01X20025487Y-2091862D01*
G01X20042505Y-2091862D01*
G01X20053935Y-2086020D01*
G01X20065365Y-2074590D01*
G01X20113117Y-2011852D02*
G01X20113117Y-2091862D01*
G01X20113117Y-2046142D02*
G01X20118959Y-2028870D01*
G01X20130389Y-2017440D01*
G01X20141819Y-2011852D01*
G01X20158837Y-2011852D01*
G01X20206589Y-2040300D02*
G01X20309459Y-2040300D01*
G01X20357211Y-1971720D02*
G01X20357211Y-2091862D01*
G01X20357211Y-1971720D02*
G01X20408773Y-1971720D01*
G01X20425791Y-1977562D01*
G01X20431633Y-1983150D01*
G01X20437221Y-1994580D01*
G01X20437221Y-2006010D01*
G01X20431633Y-2017440D01*
G01X20425791Y-2023282D01*
G01X20408773Y-2028870D01*
G01X20357211Y-2028870D02*
G01X20408773Y-2028870D01*
G01X20425791Y-2034712D01*
G01X20431633Y-2040300D01*
G01X20437221Y-2051730D01*
G01X20437221Y-2069002D01*
G01X20431633Y-2080432D01*
G01X20425791Y-2086020D01*
G01X20408773Y-2091862D01*
G01X20357211Y-2091862D01*
G01X20513675Y-2011852D02*
G01X20502245Y-2017440D01*
G01X20490815Y-2028870D01*
G01X20484973Y-2046142D01*
G01X20484973Y-2057572D01*
G01X20490815Y-2074590D01*
G01X20502245Y-2086020D01*
G01X20513675Y-2091862D01*
G01X20530693Y-2091862D01*
G01X20542123Y-2086020D01*
G01X20553553Y-2074590D01*
G01X20559395Y-2057572D01*
G01X20559395Y-2046142D01*
G01X20553553Y-2028870D01*
G01X20542123Y-2017440D01*
G01X20530693Y-2011852D01*
G01X20513675Y-2011852D01*
G01X20624419Y-1971720D02*
G01X20624419Y-2069002D01*
G01X20630007Y-2086020D01*
G01X20641437Y-2091862D01*
G01X20652867Y-2091862D01*
G01X20607147Y-2011852D02*
G01X20647279Y-2011852D01*
G01X20717891Y-1971720D02*
G01X20717891Y-2069002D01*
G01X20723479Y-2086020D01*
G01X20734909Y-2091862D01*
G01X20746339Y-2091862D01*
G01X20700619Y-2011852D02*
G01X20740751Y-2011852D01*
G01X20822793Y-2011852D02*
G01X20811363Y-2017440D01*
G01X20799933Y-2028870D01*
G01X20794091Y-2046142D01*
G01X20794091Y-2057572D01*
G01X20799933Y-2074590D01*
G01X20811363Y-2086020D01*
G01X20822793Y-2091862D01*
G01X20839811Y-2091862D01*
G01X20851241Y-2086020D01*
G01X20862671Y-2074590D01*
G01X20868513Y-2057572D01*
G01X20868513Y-2046142D01*
G01X20862671Y-2028870D01*
G01X20851241Y-2017440D01*
G01X20839811Y-2011852D01*
G01X20822793Y-2011852D01*
G01X20916265Y-2011852D02*
G01X20916265Y-2091862D01*
G01X20916265Y-2034712D02*
G01X20933537Y-2017440D01*
G01X20944967Y-2011852D01*
G01X20961985Y-2011852D01*
G01X20973415Y-2017440D01*
G01X20979257Y-2034712D01*
G01X20979257Y-2091862D01*
G01X20979257Y-2034712D02*
G01X20996275Y-2017440D01*
G01X21007705Y-2011852D01*
G01X21024977Y-2011852D01*
G01X21036407Y-2017440D01*
G01X21041995Y-2034712D01*
G01X21041995Y-2091862D01*
G01X21217763Y-1971720D02*
G01X21217763Y-2091862D01*
G01X21217763Y-2091862D02*
G01X21286343Y-2091862D01*
G01X21402675Y-2011852D02*
G01X21402675Y-2091862D01*
G01X21402675Y-2028870D02*
G01X21391245Y-2017440D01*
G01X21379815Y-2011852D01*
G01X21362797Y-2011852D01*
G01X21351367Y-2017440D01*
G01X21339937Y-2028870D01*
G01X21334095Y-2046142D01*
G01X21334095Y-2057572D01*
G01X21339937Y-2074590D01*
G01X21351367Y-2086020D01*
G01X21362797Y-2091862D01*
G01X21379815Y-2091862D01*
G01X21391245Y-2086020D01*
G01X21402675Y-2074590D01*
G01X21456269Y-2011852D02*
G01X21490559Y-2091862D01*
G01X21524849Y-2011852D02*
G01X21490559Y-2091862D01*
G01X21479129Y-2114722D01*
G01X21467699Y-2126152D01*
G01X21456269Y-2131740D01*
G01X21450427Y-2131740D01*
G01X21572601Y-2046142D02*
G01X21641181Y-2046142D01*
G01X21641181Y-2034712D01*
G01X21635593Y-2023282D01*
G01X21629751Y-2017440D01*
G01X21618321Y-2011852D01*
G01X21601303Y-2011852D01*
G01X21589873Y-2017440D01*
G01X21578443Y-2028870D01*
G01X21572601Y-2046142D01*
G01X21572601Y-2057572D01*
G01X21578443Y-2074590D01*
G01X21589873Y-2086020D01*
G01X21601303Y-2091862D01*
G01X21618321Y-2091862D01*
G01X21629751Y-2086020D01*
G01X21641181Y-2074590D01*
G01X21688933Y-2011852D02*
G01X21688933Y-2091862D01*
G01X21688933Y-2046142D02*
G01X21694775Y-2028870D01*
G01X21706205Y-2017440D01*
G01X21717635Y-2011852D01*
G01X21734653Y-2011852D01*
G01X7274324Y-2552291D02*
G01X7217174Y-2632301D01*
G01X7303026Y-2632301D01*
G01X7274324Y-2552291D02*
G01X7274324Y-2672433D01*
G01X8637179Y-2580993D02*
G01X8637179Y-2575151D01*
G01X8642767Y-2563721D01*
G01X8648609Y-2558133D01*
G01X8660039Y-2552291D01*
G01X8682899Y-2552291D01*
G01X8694329Y-2558133D01*
G01X8699917Y-2563721D01*
G01X8705759Y-2575151D01*
G01X8705759Y-2586581D01*
G01X8699917Y-2598011D01*
G01X8688487Y-2615283D01*
G01X8631337Y-2672433D01*
G01X8711347Y-2672433D01*
G01X8770529Y-2552291D02*
G01X8833521Y-2552291D01*
G01X8799231Y-2598011D01*
G01X8816249Y-2598011D01*
G01X8827679Y-2603853D01*
G01X8833521Y-2609441D01*
G01X8839109Y-2626713D01*
G01X8839109Y-2638143D01*
G01X8833521Y-2655161D01*
G01X8822091Y-2666591D01*
G01X8804819Y-2672433D01*
G01X8787801Y-2672433D01*
G01X8770529Y-2666591D01*
G01X8764941Y-2661003D01*
G01X8759099Y-2649573D01*
G01X8892703Y-2643731D02*
G01X8886861Y-2649573D01*
G01X8892703Y-2655161D01*
G01X8898291Y-2649573D01*
G01X8892703Y-2643731D01*
G01X9014623Y-2569563D02*
G01X9009035Y-2558133D01*
G01X8991763Y-2552291D01*
G01X8980333Y-2552291D01*
G01X8963315Y-2558133D01*
G01X8951885Y-2575151D01*
G01X8946043Y-2603853D01*
G01X8946043Y-2632301D01*
G01X8951885Y-2655161D01*
G01X8963315Y-2666591D01*
G01X8980333Y-2672433D01*
G01X8986175Y-2672433D01*
G01X9003193Y-2666591D01*
G01X9014623Y-2655161D01*
G01X9020465Y-2638143D01*
G01X9020465Y-2632301D01*
G01X9014623Y-2615283D01*
G01X9003193Y-2603853D01*
G01X8986175Y-2598011D01*
G01X8980333Y-2598011D01*
G01X8963315Y-2603853D01*
G01X8951885Y-2615283D01*
G01X8946043Y-2632301D01*
G01X9068217Y-2592423D02*
G01X9131209Y-2672433D01*
G01X9131209Y-2592423D02*
G01X9068217Y-2672433D01*
G01X9236111Y-2552291D02*
G01X9178961Y-2632301D01*
G01X9264813Y-2632301D01*
G01X9236111Y-2552291D02*
G01X9236111Y-2672433D01*
G01X9392575Y-2552291D02*
G01X9335425Y-2672433D01*
G01X9312565Y-2552291D02*
G01X9392575Y-2552291D01*
G01X9446169Y-2643731D02*
G01X9440327Y-2649573D01*
G01X9446169Y-2655161D01*
G01X9451757Y-2649573D01*
G01X9446169Y-2643731D01*
G01X9505351Y-2580993D02*
G01X9505351Y-2575151D01*
G01X9510939Y-2563721D01*
G01X9516781Y-2558133D01*
G01X9528211Y-2552291D01*
G01X9551071Y-2552291D01*
G01X9562501Y-2558133D01*
G01X9568089Y-2563721D01*
G01X9573931Y-2575151D01*
G01X9573931Y-2586581D01*
G01X9568089Y-2598011D01*
G01X9556659Y-2615283D01*
G01X9499509Y-2672433D01*
G01X9579519Y-2672433D01*
G01X9627271Y-2592423D02*
G01X9627271Y-2672433D01*
G01X9627271Y-2615283D02*
G01X9644543Y-2598011D01*
G01X9655973Y-2592423D01*
G01X9672991Y-2592423D01*
G01X9684421Y-2598011D01*
G01X9690263Y-2615283D01*
G01X9690263Y-2672433D01*
G01X9690263Y-2615283D02*
G01X9707281Y-2598011D01*
G01X9718711Y-2592423D01*
G01X9735983Y-2592423D01*
G01X9747413Y-2598011D01*
G01X9753001Y-2615283D01*
G01X9753001Y-2672433D01*
G01X9800753Y-2552291D02*
G01X9806595Y-2558133D01*
G01X9812183Y-2552291D01*
G01X9806595Y-2546703D01*
G01X9800753Y-2552291D01*
G01X9806595Y-2592423D02*
G01X9806595Y-2672433D01*
G01X9859935Y-2552291D02*
G01X9859935Y-2672433D01*
G01X9947819Y-2529431D02*
G01X9936389Y-2540861D01*
G01X9924959Y-2558133D01*
G01X9913529Y-2580993D01*
G01X9907687Y-2609441D01*
G01X9907687Y-2632301D01*
G01X9913529Y-2661003D01*
G01X9924959Y-2683863D01*
G01X9936389Y-2700881D01*
G01X9947819Y-2712311D01*
G01X10029861Y-2552291D02*
G01X10012843Y-2558133D01*
G01X10001413Y-2575151D01*
G01X9995571Y-2603853D01*
G01X9995571Y-2620871D01*
G01X10001413Y-2649573D01*
G01X10012843Y-2666591D01*
G01X10029861Y-2672433D01*
G01X10041291Y-2672433D01*
G01X10058563Y-2666591D01*
G01X10069993Y-2649573D01*
G01X10075581Y-2620871D01*
G01X10075581Y-2603853D01*
G01X10069993Y-2575151D01*
G01X10058563Y-2558133D01*
G01X10041291Y-2552291D01*
G01X10029861Y-2552291D01*
G01X10129175Y-2643731D02*
G01X10123333Y-2649573D01*
G01X10129175Y-2655161D01*
G01X10134763Y-2649573D01*
G01X10129175Y-2643731D01*
G01X10251095Y-2569563D02*
G01X10245507Y-2558133D01*
G01X10228235Y-2552291D01*
G01X10216805Y-2552291D01*
G01X10199787Y-2558133D01*
G01X10188357Y-2575151D01*
G01X10182515Y-2603853D01*
G01X10182515Y-2632301D01*
G01X10188357Y-2655161D01*
G01X10199787Y-2666591D01*
G01X10216805Y-2672433D01*
G01X10222647Y-2672433D01*
G01X10239665Y-2666591D01*
G01X10251095Y-2655161D01*
G01X10256937Y-2638143D01*
G01X10256937Y-2632301D01*
G01X10251095Y-2615283D01*
G01X10239665Y-2603853D01*
G01X10222647Y-2598011D01*
G01X10216805Y-2598011D01*
G01X10199787Y-2603853D01*
G01X10188357Y-2615283D01*
G01X10182515Y-2632301D01*
G01X10338979Y-2552291D02*
G01X10321961Y-2558133D01*
G01X10310531Y-2575151D01*
G01X10304689Y-2603853D01*
G01X10304689Y-2620871D01*
G01X10310531Y-2649573D01*
G01X10321961Y-2666591D01*
G01X10338979Y-2672433D01*
G01X10350409Y-2672433D01*
G01X10367681Y-2666591D01*
G01X10379111Y-2649573D01*
G01X10384699Y-2620871D01*
G01X10384699Y-2603853D01*
G01X10379111Y-2575151D01*
G01X10367681Y-2558133D01*
G01X10350409Y-2552291D01*
G01X10338979Y-2552291D01*
G01X10466741Y-2552291D02*
G01X10449723Y-2558133D01*
G01X10438293Y-2575151D01*
G01X10432451Y-2603853D01*
G01X10432451Y-2620871D01*
G01X10438293Y-2649573D01*
G01X10449723Y-2666591D01*
G01X10466741Y-2672433D01*
G01X10478171Y-2672433D01*
G01X10495443Y-2666591D01*
G01X10506873Y-2649573D01*
G01X10512461Y-2620871D01*
G01X10512461Y-2603853D01*
G01X10506873Y-2575151D01*
G01X10495443Y-2558133D01*
G01X10478171Y-2552291D01*
G01X10466741Y-2552291D01*
G01X10560213Y-2592423D02*
G01X10623205Y-2672433D01*
G01X10623205Y-2592423D02*
G01X10560213Y-2672433D01*
G01X10670957Y-2575151D02*
G01X10682387Y-2569563D01*
G01X10699659Y-2552291D01*
G01X10699659Y-2672433D01*
G01X10753253Y-2643731D02*
G01X10747411Y-2649573D01*
G01X10753253Y-2655161D01*
G01X10758841Y-2649573D01*
G01X10753253Y-2643731D01*
G01X10812435Y-2580993D02*
G01X10812435Y-2575151D01*
G01X10818023Y-2563721D01*
G01X10823865Y-2558133D01*
G01X10835295Y-2552291D01*
G01X10858155Y-2552291D01*
G01X10869585Y-2558133D01*
G01X10875173Y-2563721D01*
G01X10881015Y-2575151D01*
G01X10881015Y-2586581D01*
G01X10875173Y-2598011D01*
G01X10863743Y-2615283D01*
G01X10806593Y-2672433D01*
G01X10886603Y-2672433D01*
G01X10968645Y-2552291D02*
G01X10951627Y-2558133D01*
G01X10940197Y-2575151D01*
G01X10934355Y-2603853D01*
G01X10934355Y-2620871D01*
G01X10940197Y-2649573D01*
G01X10951627Y-2666591D01*
G01X10968645Y-2672433D01*
G01X10980075Y-2672433D01*
G01X10997347Y-2666591D01*
G01X11008777Y-2649573D01*
G01X11014365Y-2620871D01*
G01X11014365Y-2603853D01*
G01X11008777Y-2575151D01*
G01X10997347Y-2558133D01*
G01X10980075Y-2552291D01*
G01X10968645Y-2552291D01*
G01X11096407Y-2552291D02*
G01X11079389Y-2558133D01*
G01X11067959Y-2575151D01*
G01X11062117Y-2603853D01*
G01X11062117Y-2620871D01*
G01X11067959Y-2649573D01*
G01X11079389Y-2666591D01*
G01X11096407Y-2672433D01*
G01X11107837Y-2672433D01*
G01X11125109Y-2666591D01*
G01X11136539Y-2649573D01*
G01X11142127Y-2620871D01*
G01X11142127Y-2603853D01*
G01X11136539Y-2575151D01*
G01X11125109Y-2558133D01*
G01X11107837Y-2552291D01*
G01X11096407Y-2552291D01*
G01X11189879Y-2592423D02*
G01X11189879Y-2672433D01*
G01X11189879Y-2615283D02*
G01X11207151Y-2598011D01*
G01X11218581Y-2592423D01*
G01X11235599Y-2592423D01*
G01X11247029Y-2598011D01*
G01X11252871Y-2615283D01*
G01X11252871Y-2672433D01*
G01X11252871Y-2615283D02*
G01X11269889Y-2598011D01*
G01X11281319Y-2592423D01*
G01X11298591Y-2592423D01*
G01X11310021Y-2598011D01*
G01X11315609Y-2615283D01*
G01X11315609Y-2672433D01*
G01X11363361Y-2592423D02*
G01X11363361Y-2672433D01*
G01X11363361Y-2615283D02*
G01X11380633Y-2598011D01*
G01X11392063Y-2592423D01*
G01X11409081Y-2592423D01*
G01X11420511Y-2598011D01*
G01X11426353Y-2615283D01*
G01X11426353Y-2672433D01*
G01X11426353Y-2615283D02*
G01X11443371Y-2598011D01*
G01X11454801Y-2592423D01*
G01X11472073Y-2592423D01*
G01X11483503Y-2598011D01*
G01X11489091Y-2615283D01*
G01X11489091Y-2672433D01*
G01X11536843Y-2529431D02*
G01X11548273Y-2540861D01*
G01X11559703Y-2558133D01*
G01X11571133Y-2580993D01*
G01X11576975Y-2609441D01*
G01X11576975Y-2632301D01*
G01X11571133Y-2661003D01*
G01X11559703Y-2683863D01*
G01X11548273Y-2700881D01*
G01X11536843Y-2712311D01*
G01X12666526Y-2552291D02*
G01X12666526Y-2672433D01*
G01X12666526Y-2552291D02*
G01X12718088Y-2552291D01*
G01X12735106Y-2558133D01*
G01X12740948Y-2563721D01*
G01X12746536Y-2575151D01*
G01X12746536Y-2592423D01*
G01X12740948Y-2603853D01*
G01X12735106Y-2609441D01*
G01X12718088Y-2615283D01*
G01X12666526Y-2615283D01*
G01X12834420Y-2552291D02*
G01X12834420Y-2672433D01*
G01X12794288Y-2552291D02*
G01X12874298Y-2552291D01*
G01X12922050Y-2552291D02*
G01X12922050Y-2672433D01*
G01X13002060Y-2552291D02*
G01X13002060Y-2672433D01*
G01X12922050Y-2609441D02*
G01X13002060Y-2609441D01*
G01X14207944Y-2569563D02*
G01X14196514Y-2558133D01*
G01X14179496Y-2552291D01*
G01X14156636Y-2552291D01*
G01X14139364Y-2558133D01*
G01X14127934Y-2569563D01*
G01X14127934Y-2580993D01*
G01X14133776Y-2592423D01*
G01X14139364Y-2598011D01*
G01X14150794Y-2603853D01*
G01X14185084Y-2615283D01*
G01X14196514Y-2620871D01*
G01X14202356Y-2626713D01*
G01X14207944Y-2638143D01*
G01X14207944Y-2655161D01*
G01X14196514Y-2666591D01*
G01X14179496Y-2672433D01*
G01X14156636Y-2672433D01*
G01X14139364Y-2666591D01*
G01X14127934Y-2655161D01*
G01X14255696Y-2552291D02*
G01X14255696Y-2672433D01*
G01X14332150Y-2592423D02*
G01X14320720Y-2598011D01*
G01X14309290Y-2609441D01*
G01X14303448Y-2626713D01*
G01X14303448Y-2638143D01*
G01X14309290Y-2655161D01*
G01X14320720Y-2666591D01*
G01X14332150Y-2672433D01*
G01X14349168Y-2672433D01*
G01X14360598Y-2666591D01*
G01X14372028Y-2655161D01*
G01X14377870Y-2638143D01*
G01X14377870Y-2626713D01*
G01X14372028Y-2609441D01*
G01X14360598Y-2598011D01*
G01X14349168Y-2592423D01*
G01X14332150Y-2592423D01*
G01X14442894Y-2552291D02*
G01X14442894Y-2649573D01*
G01X14448482Y-2666591D01*
G01X14459912Y-2672433D01*
G01X14471342Y-2672433D01*
G01X14425622Y-2592423D02*
G01X14465754Y-2592423D01*
G01X15559115Y-2552291D02*
G01X15559115Y-2672433D01*
G01X15559115Y-2552291D02*
G01X15610677Y-2552291D01*
G01X15627695Y-2558133D01*
G01X15633537Y-2563721D01*
G01X15639125Y-2575151D01*
G01X15639125Y-2592423D01*
G01X15633537Y-2603853D01*
G01X15627695Y-2609441D01*
G01X15610677Y-2615283D01*
G01X15559115Y-2615283D01*
G01X15755457Y-2592423D02*
G01X15755457Y-2672433D01*
G01X15755457Y-2609441D02*
G01X15744027Y-2598011D01*
G01X15732597Y-2592423D01*
G01X15715579Y-2592423D01*
G01X15704149Y-2598011D01*
G01X15692719Y-2609441D01*
G01X15686877Y-2626713D01*
G01X15686877Y-2638143D01*
G01X15692719Y-2655161D01*
G01X15704149Y-2666591D01*
G01X15715579Y-2672433D01*
G01X15732597Y-2672433D01*
G01X15744027Y-2666591D01*
G01X15755457Y-2655161D01*
G01X15871789Y-2552291D02*
G01X15871789Y-2672433D01*
G01X15871789Y-2609441D02*
G01X15860359Y-2598011D01*
G01X15848929Y-2592423D01*
G01X15831911Y-2592423D01*
G01X15820481Y-2598011D01*
G01X15809051Y-2609441D01*
G01X15803209Y-2626713D01*
G01X15803209Y-2638143D01*
G01X15809051Y-2655161D01*
G01X15820481Y-2666591D01*
G01X15831911Y-2672433D01*
G01X15848929Y-2672433D01*
G01X15860359Y-2666591D01*
G01X15871789Y-2655161D01*
G01X17262584Y-2552291D02*
G01X17251154Y-2558133D01*
G01X17239724Y-2569563D01*
G01X17234136Y-2580993D01*
G01X17228294Y-2598011D01*
G01X17228294Y-2626713D01*
G01X17234136Y-2643731D01*
G01X17239724Y-2655161D01*
G01X17251154Y-2666591D01*
G01X17262584Y-2672433D01*
G01X17285444Y-2672433D01*
G01X17296874Y-2666591D01*
G01X17308304Y-2655161D01*
G01X17314146Y-2643731D01*
G01X17319734Y-2626713D01*
G01X17319734Y-2598011D01*
G01X17314146Y-2580993D01*
G01X17308304Y-2569563D01*
G01X17296874Y-2558133D01*
G01X17285444Y-2552291D01*
G01X17262584Y-2552291D01*
G01X17367486Y-2592423D02*
G01X17401776Y-2672433D01*
G01X17436066Y-2592423D02*
G01X17401776Y-2672433D01*
G01X17552398Y-2592423D02*
G01X17552398Y-2672433D01*
G01X17552398Y-2609441D02*
G01X17540968Y-2598011D01*
G01X17529538Y-2592423D01*
G01X17512520Y-2592423D01*
G01X17501090Y-2598011D01*
G01X17489660Y-2609441D01*
G01X17483818Y-2626713D01*
G01X17483818Y-2638143D01*
G01X17489660Y-2655161D01*
G01X17501090Y-2666591D01*
G01X17512520Y-2672433D01*
G01X17529538Y-2672433D01*
G01X17540968Y-2666591D01*
G01X17552398Y-2655161D01*
G01X17600150Y-2552291D02*
G01X17600150Y-2672433D01*
G01X19187795Y-2552291D02*
G01X19187795Y-2672433D01*
G01X19147663Y-2552291D02*
G01X19227673Y-2552291D01*
G01X19304127Y-2592423D02*
G01X19292697Y-2598011D01*
G01X19281267Y-2609441D01*
G01X19275425Y-2626713D01*
G01X19275425Y-2638143D01*
G01X19281267Y-2655161D01*
G01X19292697Y-2666591D01*
G01X19304127Y-2672433D01*
G01X19321145Y-2672433D01*
G01X19332575Y-2666591D01*
G01X19344005Y-2655161D01*
G01X19349847Y-2638143D01*
G01X19349847Y-2626713D01*
G01X19344005Y-2609441D01*
G01X19332575Y-2598011D01*
G01X19321145Y-2592423D01*
G01X19304127Y-2592423D01*
G01X19397599Y-2592423D02*
G01X19397599Y-2712311D01*
G01X19397599Y-2609441D02*
G01X19409029Y-2598011D01*
G01X19420459Y-2592423D01*
G01X19437731Y-2592423D01*
G01X19449161Y-2598011D01*
G01X19460591Y-2609441D01*
G01X19466179Y-2626713D01*
G01X19466179Y-2638143D01*
G01X19460591Y-2655161D01*
G01X19449161Y-2666591D01*
G01X19437731Y-2672433D01*
G01X19420459Y-2672433D01*
G01X19409029Y-2666591D01*
G01X19397599Y-2655161D01*
G01X19641947Y-2552291D02*
G01X19641947Y-2672433D01*
G01X19641947Y-2672433D02*
G01X19710527Y-2672433D01*
G01X19826859Y-2592423D02*
G01X19826859Y-2672433D01*
G01X19826859Y-2609441D02*
G01X19815429Y-2598011D01*
G01X19803999Y-2592423D01*
G01X19786981Y-2592423D01*
G01X19775551Y-2598011D01*
G01X19764121Y-2609441D01*
G01X19758279Y-2626713D01*
G01X19758279Y-2638143D01*
G01X19764121Y-2655161D01*
G01X19775551Y-2666591D01*
G01X19786981Y-2672433D01*
G01X19803999Y-2672433D01*
G01X19815429Y-2666591D01*
G01X19826859Y-2655161D01*
G01X19880453Y-2592423D02*
G01X19914743Y-2672433D01*
G01X19949033Y-2592423D02*
G01X19914743Y-2672433D01*
G01X19903313Y-2695293D01*
G01X19891883Y-2706723D01*
G01X19880453Y-2712311D01*
G01X19874611Y-2712311D01*
G01X19996785Y-2626713D02*
G01X20065365Y-2626713D01*
G01X20065365Y-2615283D01*
G01X20059777Y-2603853D01*
G01X20053935Y-2598011D01*
G01X20042505Y-2592423D01*
G01X20025487Y-2592423D01*
G01X20014057Y-2598011D01*
G01X20002627Y-2609441D01*
G01X19996785Y-2626713D01*
G01X19996785Y-2638143D01*
G01X20002627Y-2655161D01*
G01X20014057Y-2666591D01*
G01X20025487Y-2672433D01*
G01X20042505Y-2672433D01*
G01X20053935Y-2666591D01*
G01X20065365Y-2655161D01*
G01X20113117Y-2592423D02*
G01X20113117Y-2672433D01*
G01X20113117Y-2626713D02*
G01X20118959Y-2609441D01*
G01X20130389Y-2598011D01*
G01X20141819Y-2592423D01*
G01X20158837Y-2592423D01*
G01X20206589Y-2620871D02*
G01X20309459Y-2620871D01*
G01X20357211Y-2552291D02*
G01X20357211Y-2672433D01*
G01X20357211Y-2552291D02*
G01X20408773Y-2552291D01*
G01X20425791Y-2558133D01*
G01X20431633Y-2563721D01*
G01X20437221Y-2575151D01*
G01X20437221Y-2586581D01*
G01X20431633Y-2598011D01*
G01X20425791Y-2603853D01*
G01X20408773Y-2609441D01*
G01X20357211Y-2609441D02*
G01X20408773Y-2609441D01*
G01X20425791Y-2615283D01*
G01X20431633Y-2620871D01*
G01X20437221Y-2632301D01*
G01X20437221Y-2649573D01*
G01X20431633Y-2661003D01*
G01X20425791Y-2666591D01*
G01X20408773Y-2672433D01*
G01X20357211Y-2672433D01*
G01X20513675Y-2592423D02*
G01X20502245Y-2598011D01*
G01X20490815Y-2609441D01*
G01X20484973Y-2626713D01*
G01X20484973Y-2638143D01*
G01X20490815Y-2655161D01*
G01X20502245Y-2666591D01*
G01X20513675Y-2672433D01*
G01X20530693Y-2672433D01*
G01X20542123Y-2666591D01*
G01X20553553Y-2655161D01*
G01X20559395Y-2638143D01*
G01X20559395Y-2626713D01*
G01X20553553Y-2609441D01*
G01X20542123Y-2598011D01*
G01X20530693Y-2592423D01*
G01X20513675Y-2592423D01*
G01X20624419Y-2552291D02*
G01X20624419Y-2649573D01*
G01X20630007Y-2666591D01*
G01X20641437Y-2672433D01*
G01X20652867Y-2672433D01*
G01X20607147Y-2592423D02*
G01X20647279Y-2592423D01*
G01X20717891Y-2552291D02*
G01X20717891Y-2649573D01*
G01X20723479Y-2666591D01*
G01X20734909Y-2672433D01*
G01X20746339Y-2672433D01*
G01X20700619Y-2592423D02*
G01X20740751Y-2592423D01*
G01X20822793Y-2592423D02*
G01X20811363Y-2598011D01*
G01X20799933Y-2609441D01*
G01X20794091Y-2626713D01*
G01X20794091Y-2638143D01*
G01X20799933Y-2655161D01*
G01X20811363Y-2666591D01*
G01X20822793Y-2672433D01*
G01X20839811Y-2672433D01*
G01X20851241Y-2666591D01*
G01X20862671Y-2655161D01*
G01X20868513Y-2638143D01*
G01X20868513Y-2626713D01*
G01X20862671Y-2609441D01*
G01X20851241Y-2598011D01*
G01X20839811Y-2592423D01*
G01X20822793Y-2592423D01*
G01X20916265Y-2592423D02*
G01X20916265Y-2672433D01*
G01X20916265Y-2615283D02*
G01X20933537Y-2598011D01*
G01X20944967Y-2592423D01*
G01X20961985Y-2592423D01*
G01X20973415Y-2598011D01*
G01X20979257Y-2615283D01*
G01X20979257Y-2672433D01*
G01X20979257Y-2615283D02*
G01X20996275Y-2598011D01*
G01X21007705Y-2592423D01*
G01X21024977Y-2592423D01*
G01X21036407Y-2598011D01*
G01X21041995Y-2615283D01*
G01X21041995Y-2672433D01*
G01X21217763Y-2552291D02*
G01X21217763Y-2672433D01*
G01X21217763Y-2672433D02*
G01X21286343Y-2672433D01*
G01X21402675Y-2592423D02*
G01X21402675Y-2672433D01*
G01X21402675Y-2609441D02*
G01X21391245Y-2598011D01*
G01X21379815Y-2592423D01*
G01X21362797Y-2592423D01*
G01X21351367Y-2598011D01*
G01X21339937Y-2609441D01*
G01X21334095Y-2626713D01*
G01X21334095Y-2638143D01*
G01X21339937Y-2655161D01*
G01X21351367Y-2666591D01*
G01X21362797Y-2672433D01*
G01X21379815Y-2672433D01*
G01X21391245Y-2666591D01*
G01X21402675Y-2655161D01*
G01X21456269Y-2592423D02*
G01X21490559Y-2672433D01*
G01X21524849Y-2592423D02*
G01X21490559Y-2672433D01*
G01X21479129Y-2695293D01*
G01X21467699Y-2706723D01*
G01X21456269Y-2712311D01*
G01X21450427Y-2712311D01*
G01X21572601Y-2626713D02*
G01X21641181Y-2626713D01*
G01X21641181Y-2615283D01*
G01X21635593Y-2603853D01*
G01X21629751Y-2598011D01*
G01X21618321Y-2592423D01*
G01X21601303Y-2592423D01*
G01X21589873Y-2598011D01*
G01X21578443Y-2609441D01*
G01X21572601Y-2626713D01*
G01X21572601Y-2638143D01*
G01X21578443Y-2655161D01*
G01X21589873Y-2666591D01*
G01X21601303Y-2672433D01*
G01X21618321Y-2672433D01*
G01X21629751Y-2666591D01*
G01X21641181Y-2655161D01*
G01X21688933Y-2592423D02*
G01X21688933Y-2672433D01*
G01X21688933Y-2626713D02*
G01X21694775Y-2609441D01*
G01X21706205Y-2598011D01*
G01X21717635Y-2592423D01*
G01X21734653Y-2592423D01*
G01X7274324Y-3132863D02*
G01X7217174Y-3212873D01*
G01X7303026Y-3212873D01*
G01X7274324Y-3132863D02*
G01X7274324Y-3253005D01*
G01X8631337Y-3155723D02*
G01X8642767Y-3150135D01*
G01X8660039Y-3132863D01*
G01X8660039Y-3253005D01*
G01X8713633Y-3161565D02*
G01X8713633Y-3155723D01*
G01X8719221Y-3144293D01*
G01X8725063Y-3138705D01*
G01X8736493Y-3132863D01*
G01X8759353Y-3132863D01*
G01X8770783Y-3138705D01*
G01X8776371Y-3144293D01*
G01X8782213Y-3155723D01*
G01X8782213Y-3167153D01*
G01X8776371Y-3178583D01*
G01X8764941Y-3195855D01*
G01X8707791Y-3253005D01*
G01X8787801Y-3253005D01*
G01X8904133Y-3150135D02*
G01X8898545Y-3138705D01*
G01X8881273Y-3132863D01*
G01X8869843Y-3132863D01*
G01X8852825Y-3138705D01*
G01X8841395Y-3155723D01*
G01X8835553Y-3184425D01*
G01X8835553Y-3212873D01*
G01X8841395Y-3235733D01*
G01X8852825Y-3247163D01*
G01X8869843Y-3253005D01*
G01X8875685Y-3253005D01*
G01X8892703Y-3247163D01*
G01X8904133Y-3235733D01*
G01X8909975Y-3218715D01*
G01X8909975Y-3212873D01*
G01X8904133Y-3195855D01*
G01X8892703Y-3184425D01*
G01X8875685Y-3178583D01*
G01X8869843Y-3178583D01*
G01X8852825Y-3184425D01*
G01X8841395Y-3195855D01*
G01X8835553Y-3212873D01*
G01X8963569Y-3224303D02*
G01X8957727Y-3230145D01*
G01X8963569Y-3235733D01*
G01X8969157Y-3230145D01*
G01X8963569Y-3224303D01*
G01X9051199Y-3132863D02*
G01X9034181Y-3138705D01*
G01X9022751Y-3155723D01*
G01X9016909Y-3184425D01*
G01X9016909Y-3201443D01*
G01X9022751Y-3230145D01*
G01X9034181Y-3247163D01*
G01X9051199Y-3253005D01*
G01X9062629Y-3253005D01*
G01X9079901Y-3247163D01*
G01X9091331Y-3230145D01*
G01X9096919Y-3201443D01*
G01X9096919Y-3184425D01*
G01X9091331Y-3155723D01*
G01X9079901Y-3138705D01*
G01X9062629Y-3132863D01*
G01X9051199Y-3132863D01*
G01X9144671Y-3172995D02*
G01X9207663Y-3253005D01*
G01X9207663Y-3172995D02*
G01X9144671Y-3253005D01*
G01X9255415Y-3155723D02*
G01X9266845Y-3150135D01*
G01X9284117Y-3132863D01*
G01X9284117Y-3253005D01*
G01X9337711Y-3161565D02*
G01X9337711Y-3155723D01*
G01X9343299Y-3144293D01*
G01X9349141Y-3138705D01*
G01X9360571Y-3132863D01*
G01X9383431Y-3132863D01*
G01X9394861Y-3138705D01*
G01X9400449Y-3144293D01*
G01X9406291Y-3155723D01*
G01X9406291Y-3167153D01*
G01X9400449Y-3178583D01*
G01X9389019Y-3195855D01*
G01X9331869Y-3253005D01*
G01X9411879Y-3253005D01*
G01X9528211Y-3150135D02*
G01X9522623Y-3138705D01*
G01X9505351Y-3132863D01*
G01X9493921Y-3132863D01*
G01X9476903Y-3138705D01*
G01X9465473Y-3155723D01*
G01X9459631Y-3184425D01*
G01X9459631Y-3212873D01*
G01X9465473Y-3235733D01*
G01X9476903Y-3247163D01*
G01X9493921Y-3253005D01*
G01X9499763Y-3253005D01*
G01X9516781Y-3247163D01*
G01X9528211Y-3235733D01*
G01X9534053Y-3218715D01*
G01X9534053Y-3212873D01*
G01X9528211Y-3195855D01*
G01X9516781Y-3184425D01*
G01X9499763Y-3178583D01*
G01X9493921Y-3178583D01*
G01X9476903Y-3184425D01*
G01X9465473Y-3195855D01*
G01X9459631Y-3212873D01*
G01X9587647Y-3224303D02*
G01X9581805Y-3230145D01*
G01X9587647Y-3235733D01*
G01X9593235Y-3230145D01*
G01X9587647Y-3224303D01*
G01X9675277Y-3132863D02*
G01X9658259Y-3138705D01*
G01X9646829Y-3155723D01*
G01X9640987Y-3184425D01*
G01X9640987Y-3201443D01*
G01X9646829Y-3230145D01*
G01X9658259Y-3247163D01*
G01X9675277Y-3253005D01*
G01X9686707Y-3253005D01*
G01X9703979Y-3247163D01*
G01X9715409Y-3230145D01*
G01X9720997Y-3201443D01*
G01X9720997Y-3184425D01*
G01X9715409Y-3155723D01*
G01X9703979Y-3138705D01*
G01X9686707Y-3132863D01*
G01X9675277Y-3132863D01*
G01X9768749Y-3172995D02*
G01X9768749Y-3253005D01*
G01X9768749Y-3195855D02*
G01X9786021Y-3178583D01*
G01X9797451Y-3172995D01*
G01X9814469Y-3172995D01*
G01X9825899Y-3178583D01*
G01X9831741Y-3195855D01*
G01X9831741Y-3253005D01*
G01X9831741Y-3195855D02*
G01X9848759Y-3178583D01*
G01X9860189Y-3172995D01*
G01X9877461Y-3172995D01*
G01X9888891Y-3178583D01*
G01X9894479Y-3195855D01*
G01X9894479Y-3253005D01*
G01X9942231Y-3132863D02*
G01X9948073Y-3138705D01*
G01X9953661Y-3132863D01*
G01X9948073Y-3127275D01*
G01X9942231Y-3132863D01*
G01X9948073Y-3172995D02*
G01X9948073Y-3253005D01*
G01X10001413Y-3132863D02*
G01X10001413Y-3253005D01*
G01X10089297Y-3110003D02*
G01X10077867Y-3121433D01*
G01X10066437Y-3138705D01*
G01X10055007Y-3161565D01*
G01X10049165Y-3190013D01*
G01X10049165Y-3212873D01*
G01X10055007Y-3241575D01*
G01X10066437Y-3264435D01*
G01X10077867Y-3281453D01*
G01X10089297Y-3292883D01*
G01X10148479Y-3132863D02*
G01X10211471Y-3132863D01*
G01X10177181Y-3178583D01*
G01X10194199Y-3178583D01*
G01X10205629Y-3184425D01*
G01X10211471Y-3190013D01*
G01X10217059Y-3207285D01*
G01X10217059Y-3218715D01*
G01X10211471Y-3235733D01*
G01X10200041Y-3247163D01*
G01X10182769Y-3253005D01*
G01X10165751Y-3253005D01*
G01X10148479Y-3247163D01*
G01X10142891Y-3241575D01*
G01X10137049Y-3230145D01*
G01X10270653Y-3224303D02*
G01X10264811Y-3230145D01*
G01X10270653Y-3235733D01*
G01X10276241Y-3230145D01*
G01X10270653Y-3224303D01*
G01X10329835Y-3161565D02*
G01X10329835Y-3155723D01*
G01X10335423Y-3144293D01*
G01X10341265Y-3138705D01*
G01X10352695Y-3132863D01*
G01X10375555Y-3132863D01*
G01X10386985Y-3138705D01*
G01X10392573Y-3144293D01*
G01X10398415Y-3155723D01*
G01X10398415Y-3167153D01*
G01X10392573Y-3178583D01*
G01X10381143Y-3195855D01*
G01X10323993Y-3253005D01*
G01X10404003Y-3253005D01*
G01X10486045Y-3132863D02*
G01X10469027Y-3138705D01*
G01X10457597Y-3155723D01*
G01X10451755Y-3184425D01*
G01X10451755Y-3201443D01*
G01X10457597Y-3230145D01*
G01X10469027Y-3247163D01*
G01X10486045Y-3253005D01*
G01X10497475Y-3253005D01*
G01X10514747Y-3247163D01*
G01X10526177Y-3230145D01*
G01X10531765Y-3201443D01*
G01X10531765Y-3184425D01*
G01X10526177Y-3155723D01*
G01X10514747Y-3138705D01*
G01X10497475Y-3132863D01*
G01X10486045Y-3132863D01*
G01X10613807Y-3132863D02*
G01X10596789Y-3138705D01*
G01X10585359Y-3155723D01*
G01X10579517Y-3184425D01*
G01X10579517Y-3201443D01*
G01X10585359Y-3230145D01*
G01X10596789Y-3247163D01*
G01X10613807Y-3253005D01*
G01X10625237Y-3253005D01*
G01X10642509Y-3247163D01*
G01X10653939Y-3230145D01*
G01X10659527Y-3201443D01*
G01X10659527Y-3184425D01*
G01X10653939Y-3155723D01*
G01X10642509Y-3138705D01*
G01X10625237Y-3132863D01*
G01X10613807Y-3132863D01*
G01X10707279Y-3172995D02*
G01X10770271Y-3253005D01*
G01X10770271Y-3172995D02*
G01X10707279Y-3253005D01*
G01X10829453Y-3132863D02*
G01X10892445Y-3132863D01*
G01X10858155Y-3178583D01*
G01X10875173Y-3178583D01*
G01X10886603Y-3184425D01*
G01X10892445Y-3190013D01*
G01X10898033Y-3207285D01*
G01X10898033Y-3218715D01*
G01X10892445Y-3235733D01*
G01X10881015Y-3247163D01*
G01X10863743Y-3253005D01*
G01X10846725Y-3253005D01*
G01X10829453Y-3247163D01*
G01X10823865Y-3241575D01*
G01X10818023Y-3230145D01*
G01X10951627Y-3224303D02*
G01X10945785Y-3230145D01*
G01X10951627Y-3235733D01*
G01X10957215Y-3230145D01*
G01X10951627Y-3224303D01*
G01X11010809Y-3161565D02*
G01X11010809Y-3155723D01*
G01X11016397Y-3144293D01*
G01X11022239Y-3138705D01*
G01X11033669Y-3132863D01*
G01X11056529Y-3132863D01*
G01X11067959Y-3138705D01*
G01X11073547Y-3144293D01*
G01X11079389Y-3155723D01*
G01X11079389Y-3167153D01*
G01X11073547Y-3178583D01*
G01X11062117Y-3195855D01*
G01X11004967Y-3253005D01*
G01X11084977Y-3253005D01*
G01X11167019Y-3132863D02*
G01X11150001Y-3138705D01*
G01X11138571Y-3155723D01*
G01X11132729Y-3184425D01*
G01X11132729Y-3201443D01*
G01X11138571Y-3230145D01*
G01X11150001Y-3247163D01*
G01X11167019Y-3253005D01*
G01X11178449Y-3253005D01*
G01X11195721Y-3247163D01*
G01X11207151Y-3230145D01*
G01X11212739Y-3201443D01*
G01X11212739Y-3184425D01*
G01X11207151Y-3155723D01*
G01X11195721Y-3138705D01*
G01X11178449Y-3132863D01*
G01X11167019Y-3132863D01*
G01X11294781Y-3132863D02*
G01X11277763Y-3138705D01*
G01X11266333Y-3155723D01*
G01X11260491Y-3184425D01*
G01X11260491Y-3201443D01*
G01X11266333Y-3230145D01*
G01X11277763Y-3247163D01*
G01X11294781Y-3253005D01*
G01X11306211Y-3253005D01*
G01X11323483Y-3247163D01*
G01X11334913Y-3230145D01*
G01X11340501Y-3201443D01*
G01X11340501Y-3184425D01*
G01X11334913Y-3155723D01*
G01X11323483Y-3138705D01*
G01X11306211Y-3132863D01*
G01X11294781Y-3132863D01*
G01X11388253Y-3172995D02*
G01X11388253Y-3253005D01*
G01X11388253Y-3195855D02*
G01X11405525Y-3178583D01*
G01X11416955Y-3172995D01*
G01X11433973Y-3172995D01*
G01X11445403Y-3178583D01*
G01X11451245Y-3195855D01*
G01X11451245Y-3253005D01*
G01X11451245Y-3195855D02*
G01X11468263Y-3178583D01*
G01X11479693Y-3172995D01*
G01X11496965Y-3172995D01*
G01X11508395Y-3178583D01*
G01X11513983Y-3195855D01*
G01X11513983Y-3253005D01*
G01X11561735Y-3172995D02*
G01X11561735Y-3253005D01*
G01X11561735Y-3195855D02*
G01X11579007Y-3178583D01*
G01X11590437Y-3172995D01*
G01X11607455Y-3172995D01*
G01X11618885Y-3178583D01*
G01X11624727Y-3195855D01*
G01X11624727Y-3253005D01*
G01X11624727Y-3195855D02*
G01X11641745Y-3178583D01*
G01X11653175Y-3172995D01*
G01X11670447Y-3172995D01*
G01X11681877Y-3178583D01*
G01X11687465Y-3195855D01*
G01X11687465Y-3253005D01*
G01X11735217Y-3110003D02*
G01X11746647Y-3121433D01*
G01X11758077Y-3138705D01*
G01X11769507Y-3161565D01*
G01X11775349Y-3190013D01*
G01X11775349Y-3212873D01*
G01X11769507Y-3241575D01*
G01X11758077Y-3264435D01*
G01X11746647Y-3281453D01*
G01X11735217Y-3292883D01*
G01X12666526Y-3132863D02*
G01X12666526Y-3253005D01*
G01X12666526Y-3132863D02*
G01X12718088Y-3132863D01*
G01X12735106Y-3138705D01*
G01X12740948Y-3144293D01*
G01X12746536Y-3155723D01*
G01X12746536Y-3172995D01*
G01X12740948Y-3184425D01*
G01X12735106Y-3190013D01*
G01X12718088Y-3195855D01*
G01X12666526Y-3195855D01*
G01X12834420Y-3132863D02*
G01X12834420Y-3253005D01*
G01X12794288Y-3132863D02*
G01X12874298Y-3132863D01*
G01X12922050Y-3132863D02*
G01X12922050Y-3253005D01*
G01X13002060Y-3132863D02*
G01X13002060Y-3253005D01*
G01X12922050Y-3190013D02*
G01X13002060Y-3190013D01*
G01X14127934Y-3132863D02*
G01X14127934Y-3253005D01*
G01X14127934Y-3132863D02*
G01X14179496Y-3132863D01*
G01X14196514Y-3138705D01*
G01X14202356Y-3144293D01*
G01X14207944Y-3155723D01*
G01X14207944Y-3167153D01*
G01X14202356Y-3178583D01*
G01X14196514Y-3184425D01*
G01X14179496Y-3190013D01*
G01X14127934Y-3190013D01*
G01X14168066Y-3190013D02*
G01X14207944Y-3253005D01*
G01X14284398Y-3172995D02*
G01X14272968Y-3178583D01*
G01X14261538Y-3190013D01*
G01X14255696Y-3207285D01*
G01X14255696Y-3218715D01*
G01X14261538Y-3235733D01*
G01X14272968Y-3247163D01*
G01X14284398Y-3253005D01*
G01X14301416Y-3253005D01*
G01X14312846Y-3247163D01*
G01X14324276Y-3235733D01*
G01X14330118Y-3218715D01*
G01X14330118Y-3207285D01*
G01X14324276Y-3190013D01*
G01X14312846Y-3178583D01*
G01X14301416Y-3172995D01*
G01X14284398Y-3172995D01*
G01X14377870Y-3172995D02*
G01X14377870Y-3230145D01*
G01X14383712Y-3247163D01*
G01X14395142Y-3253005D01*
G01X14412160Y-3253005D01*
G01X14423590Y-3247163D01*
G01X14440862Y-3230145D01*
G01X14440862Y-3172995D02*
G01X14440862Y-3253005D01*
G01X14488614Y-3172995D02*
G01X14488614Y-3253005D01*
G01X14488614Y-3195855D02*
G01X14505886Y-3178583D01*
G01X14517316Y-3172995D01*
G01X14534334Y-3172995D01*
G01X14545764Y-3178583D01*
G01X14551606Y-3195855D01*
G01X14551606Y-3253005D01*
G01X14667938Y-3132863D02*
G01X14667938Y-3253005D01*
G01X14667938Y-3190013D02*
G01X14656508Y-3178583D01*
G01X14645078Y-3172995D01*
G01X14628060Y-3172995D01*
G01X14616630Y-3178583D01*
G01X14605200Y-3190013D01*
G01X14599358Y-3207285D01*
G01X14599358Y-3218715D01*
G01X14605200Y-3235733D01*
G01X14616630Y-3247163D01*
G01X14628060Y-3253005D01*
G01X14645078Y-3253005D01*
G01X14656508Y-3247163D01*
G01X14667938Y-3235733D01*
G01X15559115Y-3132863D02*
G01X15559115Y-3253005D01*
G01X15559115Y-3132863D02*
G01X15610677Y-3132863D01*
G01X15627695Y-3138705D01*
G01X15633537Y-3144293D01*
G01X15639125Y-3155723D01*
G01X15639125Y-3172995D01*
G01X15633537Y-3184425D01*
G01X15627695Y-3190013D01*
G01X15610677Y-3195855D01*
G01X15559115Y-3195855D01*
G01X15755457Y-3172995D02*
G01X15755457Y-3253005D01*
G01X15755457Y-3190013D02*
G01X15744027Y-3178583D01*
G01X15732597Y-3172995D01*
G01X15715579Y-3172995D01*
G01X15704149Y-3178583D01*
G01X15692719Y-3190013D01*
G01X15686877Y-3207285D01*
G01X15686877Y-3218715D01*
G01X15692719Y-3235733D01*
G01X15704149Y-3247163D01*
G01X15715579Y-3253005D01*
G01X15732597Y-3253005D01*
G01X15744027Y-3247163D01*
G01X15755457Y-3235733D01*
G01X15871789Y-3132863D02*
G01X15871789Y-3253005D01*
G01X15871789Y-3190013D02*
G01X15860359Y-3178583D01*
G01X15848929Y-3172995D01*
G01X15831911Y-3172995D01*
G01X15820481Y-3178583D01*
G01X15809051Y-3190013D01*
G01X15803209Y-3207285D01*
G01X15803209Y-3218715D01*
G01X15809051Y-3235733D01*
G01X15820481Y-3247163D01*
G01X15831911Y-3253005D01*
G01X15848929Y-3253005D01*
G01X15860359Y-3247163D01*
G01X15871789Y-3235733D01*
G01X17228294Y-3132863D02*
G01X17228294Y-3253005D01*
G01X17228294Y-3132863D02*
G01X17279856Y-3132863D01*
G01X17296874Y-3138705D01*
G01X17302716Y-3144293D01*
G01X17308304Y-3155723D01*
G01X17308304Y-3167153D01*
G01X17302716Y-3178583D01*
G01X17296874Y-3184425D01*
G01X17279856Y-3190013D01*
G01X17228294Y-3190013D01*
G01X17268426Y-3190013D02*
G01X17308304Y-3253005D01*
G01X17384758Y-3172995D02*
G01X17373328Y-3178583D01*
G01X17361898Y-3190013D01*
G01X17356056Y-3207285D01*
G01X17356056Y-3218715D01*
G01X17361898Y-3235733D01*
G01X17373328Y-3247163D01*
G01X17384758Y-3253005D01*
G01X17401776Y-3253005D01*
G01X17413206Y-3247163D01*
G01X17424636Y-3235733D01*
G01X17430478Y-3218715D01*
G01X17430478Y-3207285D01*
G01X17424636Y-3190013D01*
G01X17413206Y-3178583D01*
G01X17401776Y-3172995D01*
G01X17384758Y-3172995D01*
G01X17478230Y-3172995D02*
G01X17478230Y-3230145D01*
G01X17484072Y-3247163D01*
G01X17495502Y-3253005D01*
G01X17512520Y-3253005D01*
G01X17523950Y-3247163D01*
G01X17541222Y-3230145D01*
G01X17541222Y-3172995D02*
G01X17541222Y-3253005D01*
G01X17588974Y-3172995D02*
G01X17588974Y-3253005D01*
G01X17588974Y-3195855D02*
G01X17606246Y-3178583D01*
G01X17617676Y-3172995D01*
G01X17634694Y-3172995D01*
G01X17646124Y-3178583D01*
G01X17651966Y-3195855D01*
G01X17651966Y-3253005D01*
G01X17768298Y-3132863D02*
G01X17768298Y-3253005D01*
G01X17768298Y-3190013D02*
G01X17756868Y-3178583D01*
G01X17745438Y-3172995D01*
G01X17728420Y-3172995D01*
G01X17716990Y-3178583D01*
G01X17705560Y-3190013D01*
G01X17699718Y-3207285D01*
G01X17699718Y-3218715D01*
G01X17705560Y-3235733D01*
G01X17716990Y-3247163D01*
G01X17728420Y-3253005D01*
G01X17745438Y-3253005D01*
G01X17756868Y-3247163D01*
G01X17768298Y-3235733D01*
G01X19187795Y-3132863D02*
G01X19187795Y-3253005D01*
G01X19147663Y-3132863D02*
G01X19227673Y-3132863D01*
G01X19304127Y-3172995D02*
G01X19292697Y-3178583D01*
G01X19281267Y-3190013D01*
G01X19275425Y-3207285D01*
G01X19275425Y-3218715D01*
G01X19281267Y-3235733D01*
G01X19292697Y-3247163D01*
G01X19304127Y-3253005D01*
G01X19321145Y-3253005D01*
G01X19332575Y-3247163D01*
G01X19344005Y-3235733D01*
G01X19349847Y-3218715D01*
G01X19349847Y-3207285D01*
G01X19344005Y-3190013D01*
G01X19332575Y-3178583D01*
G01X19321145Y-3172995D01*
G01X19304127Y-3172995D01*
G01X19397599Y-3172995D02*
G01X19397599Y-3292883D01*
G01X19397599Y-3190013D02*
G01X19409029Y-3178583D01*
G01X19420459Y-3172995D01*
G01X19437731Y-3172995D01*
G01X19449161Y-3178583D01*
G01X19460591Y-3190013D01*
G01X19466179Y-3207285D01*
G01X19466179Y-3218715D01*
G01X19460591Y-3235733D01*
G01X19449161Y-3247163D01*
G01X19437731Y-3253005D01*
G01X19420459Y-3253005D01*
G01X19409029Y-3247163D01*
G01X19397599Y-3235733D01*
G01X19641947Y-3132863D02*
G01X19641947Y-3253005D01*
G01X19641947Y-3253005D02*
G01X19710527Y-3253005D01*
G01X19826859Y-3172995D02*
G01X19826859Y-3253005D01*
G01X19826859Y-3190013D02*
G01X19815429Y-3178583D01*
G01X19803999Y-3172995D01*
G01X19786981Y-3172995D01*
G01X19775551Y-3178583D01*
G01X19764121Y-3190013D01*
G01X19758279Y-3207285D01*
G01X19758279Y-3218715D01*
G01X19764121Y-3235733D01*
G01X19775551Y-3247163D01*
G01X19786981Y-3253005D01*
G01X19803999Y-3253005D01*
G01X19815429Y-3247163D01*
G01X19826859Y-3235733D01*
G01X19880453Y-3172995D02*
G01X19914743Y-3253005D01*
G01X19949033Y-3172995D02*
G01X19914743Y-3253005D01*
G01X19903313Y-3275865D01*
G01X19891883Y-3287295D01*
G01X19880453Y-3292883D01*
G01X19874611Y-3292883D01*
G01X19996785Y-3207285D02*
G01X20065365Y-3207285D01*
G01X20065365Y-3195855D01*
G01X20059777Y-3184425D01*
G01X20053935Y-3178583D01*
G01X20042505Y-3172995D01*
G01X20025487Y-3172995D01*
G01X20014057Y-3178583D01*
G01X20002627Y-3190013D01*
G01X19996785Y-3207285D01*
G01X19996785Y-3218715D01*
G01X20002627Y-3235733D01*
G01X20014057Y-3247163D01*
G01X20025487Y-3253005D01*
G01X20042505Y-3253005D01*
G01X20053935Y-3247163D01*
G01X20065365Y-3235733D01*
G01X20113117Y-3172995D02*
G01X20113117Y-3253005D01*
G01X20113117Y-3207285D02*
G01X20118959Y-3190013D01*
G01X20130389Y-3178583D01*
G01X20141819Y-3172995D01*
G01X20158837Y-3172995D01*
G01X20206589Y-3201443D02*
G01X20309459Y-3201443D01*
G01X20357211Y-3132863D02*
G01X20357211Y-3253005D01*
G01X20357211Y-3132863D02*
G01X20408773Y-3132863D01*
G01X20425791Y-3138705D01*
G01X20431633Y-3144293D01*
G01X20437221Y-3155723D01*
G01X20437221Y-3167153D01*
G01X20431633Y-3178583D01*
G01X20425791Y-3184425D01*
G01X20408773Y-3190013D01*
G01X20357211Y-3190013D02*
G01X20408773Y-3190013D01*
G01X20425791Y-3195855D01*
G01X20431633Y-3201443D01*
G01X20437221Y-3212873D01*
G01X20437221Y-3230145D01*
G01X20431633Y-3241575D01*
G01X20425791Y-3247163D01*
G01X20408773Y-3253005D01*
G01X20357211Y-3253005D01*
G01X20513675Y-3172995D02*
G01X20502245Y-3178583D01*
G01X20490815Y-3190013D01*
G01X20484973Y-3207285D01*
G01X20484973Y-3218715D01*
G01X20490815Y-3235733D01*
G01X20502245Y-3247163D01*
G01X20513675Y-3253005D01*
G01X20530693Y-3253005D01*
G01X20542123Y-3247163D01*
G01X20553553Y-3235733D01*
G01X20559395Y-3218715D01*
G01X20559395Y-3207285D01*
G01X20553553Y-3190013D01*
G01X20542123Y-3178583D01*
G01X20530693Y-3172995D01*
G01X20513675Y-3172995D01*
G01X20624419Y-3132863D02*
G01X20624419Y-3230145D01*
G01X20630007Y-3247163D01*
G01X20641437Y-3253005D01*
G01X20652867Y-3253005D01*
G01X20607147Y-3172995D02*
G01X20647279Y-3172995D01*
G01X20717891Y-3132863D02*
G01X20717891Y-3230145D01*
G01X20723479Y-3247163D01*
G01X20734909Y-3253005D01*
G01X20746339Y-3253005D01*
G01X20700619Y-3172995D02*
G01X20740751Y-3172995D01*
G01X20822793Y-3172995D02*
G01X20811363Y-3178583D01*
G01X20799933Y-3190013D01*
G01X20794091Y-3207285D01*
G01X20794091Y-3218715D01*
G01X20799933Y-3235733D01*
G01X20811363Y-3247163D01*
G01X20822793Y-3253005D01*
G01X20839811Y-3253005D01*
G01X20851241Y-3247163D01*
G01X20862671Y-3235733D01*
G01X20868513Y-3218715D01*
G01X20868513Y-3207285D01*
G01X20862671Y-3190013D01*
G01X20851241Y-3178583D01*
G01X20839811Y-3172995D01*
G01X20822793Y-3172995D01*
G01X20916265Y-3172995D02*
G01X20916265Y-3253005D01*
G01X20916265Y-3195855D02*
G01X20933537Y-3178583D01*
G01X20944967Y-3172995D01*
G01X20961985Y-3172995D01*
G01X20973415Y-3178583D01*
G01X20979257Y-3195855D01*
G01X20979257Y-3253005D01*
G01X20979257Y-3195855D02*
G01X20996275Y-3178583D01*
G01X21007705Y-3172995D01*
G01X21024977Y-3172995D01*
G01X21036407Y-3178583D01*
G01X21041995Y-3195855D01*
G01X21041995Y-3253005D01*
G01X21217763Y-3132863D02*
G01X21217763Y-3253005D01*
G01X21217763Y-3253005D02*
G01X21286343Y-3253005D01*
G01X21402675Y-3172995D02*
G01X21402675Y-3253005D01*
G01X21402675Y-3190013D02*
G01X21391245Y-3178583D01*
G01X21379815Y-3172995D01*
G01X21362797Y-3172995D01*
G01X21351367Y-3178583D01*
G01X21339937Y-3190013D01*
G01X21334095Y-3207285D01*
G01X21334095Y-3218715D01*
G01X21339937Y-3235733D01*
G01X21351367Y-3247163D01*
G01X21362797Y-3253005D01*
G01X21379815Y-3253005D01*
G01X21391245Y-3247163D01*
G01X21402675Y-3235733D01*
G01X21456269Y-3172995D02*
G01X21490559Y-3253005D01*
G01X21524849Y-3172995D02*
G01X21490559Y-3253005D01*
G01X21479129Y-3275865D01*
G01X21467699Y-3287295D01*
G01X21456269Y-3292883D01*
G01X21450427Y-3292883D01*
G01X21572601Y-3207285D02*
G01X21641181Y-3207285D01*
G01X21641181Y-3195855D01*
G01X21635593Y-3184425D01*
G01X21629751Y-3178583D01*
G01X21618321Y-3172995D01*
G01X21601303Y-3172995D01*
G01X21589873Y-3178583D01*
G01X21578443Y-3190013D01*
G01X21572601Y-3207285D01*
G01X21572601Y-3218715D01*
G01X21578443Y-3235733D01*
G01X21589873Y-3247163D01*
G01X21601303Y-3253005D01*
G01X21618321Y-3253005D01*
G01X21629751Y-3247163D01*
G01X21641181Y-3235733D01*
G01X21688933Y-3172995D02*
G01X21688933Y-3253005D01*
G01X21688933Y-3207285D02*
G01X21694775Y-3190013D01*
G01X21706205Y-3178583D01*
G01X21717635Y-3172995D01*
G01X21734653Y-3172995D01*
G01X7274324Y-3713434D02*
G01X7217174Y-3793444D01*
G01X7303026Y-3793444D01*
G01X7274324Y-3713434D02*
G01X7274324Y-3833576D01*
G01X8637179Y-3742136D02*
G01X8637179Y-3736294D01*
G01X8642767Y-3724864D01*
G01X8648609Y-3719276D01*
G01X8660039Y-3713434D01*
G01X8682899Y-3713434D01*
G01X8694329Y-3719276D01*
G01X8699917Y-3724864D01*
G01X8705759Y-3736294D01*
G01X8705759Y-3747724D01*
G01X8699917Y-3759154D01*
G01X8688487Y-3776426D01*
G01X8631337Y-3833576D01*
G01X8711347Y-3833576D01*
G01X8839109Y-3713434D02*
G01X8781959Y-3833576D01*
G01X8759099Y-3713434D02*
G01X8839109Y-3713434D01*
G01X8892703Y-3804874D02*
G01X8886861Y-3810716D01*
G01X8892703Y-3816304D01*
G01X8898291Y-3810716D01*
G01X8892703Y-3804874D01*
G01X9014623Y-3730706D02*
G01X9009035Y-3719276D01*
G01X8991763Y-3713434D01*
G01X8980333Y-3713434D01*
G01X8963315Y-3719276D01*
G01X8951885Y-3736294D01*
G01X8946043Y-3764996D01*
G01X8946043Y-3793444D01*
G01X8951885Y-3816304D01*
G01X8963315Y-3827734D01*
G01X8980333Y-3833576D01*
G01X8986175Y-3833576D01*
G01X9003193Y-3827734D01*
G01X9014623Y-3816304D01*
G01X9020465Y-3799286D01*
G01X9020465Y-3793444D01*
G01X9014623Y-3776426D01*
G01X9003193Y-3764996D01*
G01X8986175Y-3759154D01*
G01X8980333Y-3759154D01*
G01X8963315Y-3764996D01*
G01X8951885Y-3776426D01*
G01X8946043Y-3793444D01*
G01X9068217Y-3753566D02*
G01X9068217Y-3833576D01*
G01X9068217Y-3776426D02*
G01X9085489Y-3759154D01*
G01X9096919Y-3753566D01*
G01X9113937Y-3753566D01*
G01X9125367Y-3759154D01*
G01X9131209Y-3776426D01*
G01X9131209Y-3833576D01*
G01X9131209Y-3776426D02*
G01X9148227Y-3759154D01*
G01X9159657Y-3753566D01*
G01X9176929Y-3753566D01*
G01X9188359Y-3759154D01*
G01X9193947Y-3776426D01*
G01X9193947Y-3833576D01*
G01X9241699Y-3713434D02*
G01X9247541Y-3719276D01*
G01X9253129Y-3713434D01*
G01X9247541Y-3707846D01*
G01X9241699Y-3713434D01*
G01X9247541Y-3753566D02*
G01X9247541Y-3833576D01*
G01X9300881Y-3713434D02*
G01X9300881Y-3833576D01*
G01X9388765Y-3690574D02*
G01X9377335Y-3702004D01*
G01X9365905Y-3719276D01*
G01X9354475Y-3742136D01*
G01X9348633Y-3770584D01*
G01X9348633Y-3793444D01*
G01X9354475Y-3822146D01*
G01X9365905Y-3845006D01*
G01X9377335Y-3862024D01*
G01X9388765Y-3873454D01*
G01X9470807Y-3713434D02*
G01X9453789Y-3719276D01*
G01X9442359Y-3736294D01*
G01X9436517Y-3764996D01*
G01X9436517Y-3782014D01*
G01X9442359Y-3810716D01*
G01X9453789Y-3827734D01*
G01X9470807Y-3833576D01*
G01X9482237Y-3833576D01*
G01X9499509Y-3827734D01*
G01X9510939Y-3810716D01*
G01X9516527Y-3782014D01*
G01X9516527Y-3764996D01*
G01X9510939Y-3736294D01*
G01X9499509Y-3719276D01*
G01X9482237Y-3713434D01*
G01X9470807Y-3713434D01*
G01X9570121Y-3804874D02*
G01X9564279Y-3810716D01*
G01X9570121Y-3816304D01*
G01X9575709Y-3810716D01*
G01X9570121Y-3804874D01*
G01X9703471Y-3713434D02*
G01X9646321Y-3833576D01*
G01X9623461Y-3713434D02*
G01X9703471Y-3713434D01*
G01X9785513Y-3713434D02*
G01X9768495Y-3719276D01*
G01X9757065Y-3736294D01*
G01X9751223Y-3764996D01*
G01X9751223Y-3782014D01*
G01X9757065Y-3810716D01*
G01X9768495Y-3827734D01*
G01X9785513Y-3833576D01*
G01X9796943Y-3833576D01*
G01X9814215Y-3827734D01*
G01X9825645Y-3810716D01*
G01X9831233Y-3782014D01*
G01X9831233Y-3764996D01*
G01X9825645Y-3736294D01*
G01X9814215Y-3719276D01*
G01X9796943Y-3713434D01*
G01X9785513Y-3713434D01*
G01X9913275Y-3713434D02*
G01X9896257Y-3719276D01*
G01X9884827Y-3736294D01*
G01X9878985Y-3764996D01*
G01X9878985Y-3782014D01*
G01X9884827Y-3810716D01*
G01X9896257Y-3827734D01*
G01X9913275Y-3833576D01*
G01X9924705Y-3833576D01*
G01X9941977Y-3827734D01*
G01X9953407Y-3810716D01*
G01X9958995Y-3782014D01*
G01X9958995Y-3764996D01*
G01X9953407Y-3736294D01*
G01X9941977Y-3719276D01*
G01X9924705Y-3713434D01*
G01X9913275Y-3713434D01*
G01X10006747Y-3753566D02*
G01X10006747Y-3833576D01*
G01X10006747Y-3776426D02*
G01X10024019Y-3759154D01*
G01X10035449Y-3753566D01*
G01X10052467Y-3753566D01*
G01X10063897Y-3759154D01*
G01X10069739Y-3776426D01*
G01X10069739Y-3833576D01*
G01X10069739Y-3776426D02*
G01X10086757Y-3759154D01*
G01X10098187Y-3753566D01*
G01X10115459Y-3753566D01*
G01X10126889Y-3759154D01*
G01X10132477Y-3776426D01*
G01X10132477Y-3833576D01*
G01X10180229Y-3753566D02*
G01X10180229Y-3833576D01*
G01X10180229Y-3776426D02*
G01X10197501Y-3759154D01*
G01X10208931Y-3753566D01*
G01X10225949Y-3753566D01*
G01X10237379Y-3759154D01*
G01X10243221Y-3776426D01*
G01X10243221Y-3833576D01*
G01X10243221Y-3776426D02*
G01X10260239Y-3759154D01*
G01X10271669Y-3753566D01*
G01X10288941Y-3753566D01*
G01X10300371Y-3759154D01*
G01X10305959Y-3776426D01*
G01X10305959Y-3833576D01*
G01X10353711Y-3690574D02*
G01X10365141Y-3702004D01*
G01X10376571Y-3719276D01*
G01X10388001Y-3742136D01*
G01X10393843Y-3770584D01*
G01X10393843Y-3793444D01*
G01X10388001Y-3822146D01*
G01X10376571Y-3845006D01*
G01X10365141Y-3862024D01*
G01X10353711Y-3873454D01*
G01X12666526Y-3713434D02*
G01X12666526Y-3833576D01*
G01X12666526Y-3713434D02*
G01X12746536Y-3833576D01*
G01X12746536Y-3713434D02*
G01X12746536Y-3833576D01*
G01X12794288Y-3713434D02*
G01X12794288Y-3833576D01*
G01X12794288Y-3713434D02*
G01X12845850Y-3713434D01*
G01X12862868Y-3719276D01*
G01X12868710Y-3724864D01*
G01X12874298Y-3736294D01*
G01X12874298Y-3753566D01*
G01X12868710Y-3764996D01*
G01X12862868Y-3770584D01*
G01X12845850Y-3776426D01*
G01X12794288Y-3776426D01*
G01X12962182Y-3713434D02*
G01X12962182Y-3833576D01*
G01X12922050Y-3713434D02*
G01X13002060Y-3713434D01*
G01X13049812Y-3713434D02*
G01X13049812Y-3833576D01*
G01X13129822Y-3713434D02*
G01X13129822Y-3833576D01*
G01X13049812Y-3770584D02*
G01X13129822Y-3770584D01*
G01X14127934Y-3713434D02*
G01X14127934Y-3833576D01*
G01X14127934Y-3713434D02*
G01X14179496Y-3713434D01*
G01X14196514Y-3719276D01*
G01X14202356Y-3724864D01*
G01X14207944Y-3736294D01*
G01X14207944Y-3747724D01*
G01X14202356Y-3759154D01*
G01X14196514Y-3764996D01*
G01X14179496Y-3770584D01*
G01X14127934Y-3770584D01*
G01X14168066Y-3770584D02*
G01X14207944Y-3833576D01*
G01X14284398Y-3753566D02*
G01X14272968Y-3759154D01*
G01X14261538Y-3770584D01*
G01X14255696Y-3787856D01*
G01X14255696Y-3799286D01*
G01X14261538Y-3816304D01*
G01X14272968Y-3827734D01*
G01X14284398Y-3833576D01*
G01X14301416Y-3833576D01*
G01X14312846Y-3827734D01*
G01X14324276Y-3816304D01*
G01X14330118Y-3799286D01*
G01X14330118Y-3787856D01*
G01X14324276Y-3770584D01*
G01X14312846Y-3759154D01*
G01X14301416Y-3753566D01*
G01X14284398Y-3753566D01*
G01X14377870Y-3753566D02*
G01X14377870Y-3810716D01*
G01X14383712Y-3827734D01*
G01X14395142Y-3833576D01*
G01X14412160Y-3833576D01*
G01X14423590Y-3827734D01*
G01X14440862Y-3810716D01*
G01X14440862Y-3753566D02*
G01X14440862Y-3833576D01*
G01X14488614Y-3753566D02*
G01X14488614Y-3833576D01*
G01X14488614Y-3776426D02*
G01X14505886Y-3759154D01*
G01X14517316Y-3753566D01*
G01X14534334Y-3753566D01*
G01X14545764Y-3759154D01*
G01X14551606Y-3776426D01*
G01X14551606Y-3833576D01*
G01X14667938Y-3713434D02*
G01X14667938Y-3833576D01*
G01X14667938Y-3770584D02*
G01X14656508Y-3759154D01*
G01X14645078Y-3753566D01*
G01X14628060Y-3753566D01*
G01X14616630Y-3759154D01*
G01X14605200Y-3770584D01*
G01X14599358Y-3787856D01*
G01X14599358Y-3799286D01*
G01X14605200Y-3816304D01*
G01X14616630Y-3827734D01*
G01X14628060Y-3833576D01*
G01X14645078Y-3833576D01*
G01X14656508Y-3827734D01*
G01X14667938Y-3816304D01*
G01X15559115Y-3713434D02*
G01X15604835Y-3833576D01*
G01X15650555Y-3713434D02*
G01X15604835Y-3833576D01*
G01X15698307Y-3713434D02*
G01X15704149Y-3719276D01*
G01X15709737Y-3713434D01*
G01X15704149Y-3707846D01*
G01X15698307Y-3713434D01*
G01X15704149Y-3753566D02*
G01X15704149Y-3833576D01*
G01X15826069Y-3753566D02*
G01X15826069Y-3833576D01*
G01X15826069Y-3770584D02*
G01X15814639Y-3759154D01*
G01X15803209Y-3753566D01*
G01X15786191Y-3753566D01*
G01X15774761Y-3759154D01*
G01X15763331Y-3770584D01*
G01X15757489Y-3787856D01*
G01X15757489Y-3799286D01*
G01X15763331Y-3816304D01*
G01X15774761Y-3827734D01*
G01X15786191Y-3833576D01*
G01X15803209Y-3833576D01*
G01X15814639Y-3827734D01*
G01X15826069Y-3816304D01*
G01X19187795Y-3713434D02*
G01X19187795Y-3833576D01*
G01X19147663Y-3713434D02*
G01X19227673Y-3713434D01*
G01X19304127Y-3753566D02*
G01X19292697Y-3759154D01*
G01X19281267Y-3770584D01*
G01X19275425Y-3787856D01*
G01X19275425Y-3799286D01*
G01X19281267Y-3816304D01*
G01X19292697Y-3827734D01*
G01X19304127Y-3833576D01*
G01X19321145Y-3833576D01*
G01X19332575Y-3827734D01*
G01X19344005Y-3816304D01*
G01X19349847Y-3799286D01*
G01X19349847Y-3787856D01*
G01X19344005Y-3770584D01*
G01X19332575Y-3759154D01*
G01X19321145Y-3753566D01*
G01X19304127Y-3753566D01*
G01X19397599Y-3753566D02*
G01X19397599Y-3873454D01*
G01X19397599Y-3770584D02*
G01X19409029Y-3759154D01*
G01X19420459Y-3753566D01*
G01X19437731Y-3753566D01*
G01X19449161Y-3759154D01*
G01X19460591Y-3770584D01*
G01X19466179Y-3787856D01*
G01X19466179Y-3799286D01*
G01X19460591Y-3816304D01*
G01X19449161Y-3827734D01*
G01X19437731Y-3833576D01*
G01X19420459Y-3833576D01*
G01X19409029Y-3827734D01*
G01X19397599Y-3816304D01*
G01X19641947Y-3713434D02*
G01X19641947Y-3833576D01*
G01X19641947Y-3833576D02*
G01X19710527Y-3833576D01*
G01X19826859Y-3753566D02*
G01X19826859Y-3833576D01*
G01X19826859Y-3770584D02*
G01X19815429Y-3759154D01*
G01X19803999Y-3753566D01*
G01X19786981Y-3753566D01*
G01X19775551Y-3759154D01*
G01X19764121Y-3770584D01*
G01X19758279Y-3787856D01*
G01X19758279Y-3799286D01*
G01X19764121Y-3816304D01*
G01X19775551Y-3827734D01*
G01X19786981Y-3833576D01*
G01X19803999Y-3833576D01*
G01X19815429Y-3827734D01*
G01X19826859Y-3816304D01*
G01X19880453Y-3753566D02*
G01X19914743Y-3833576D01*
G01X19949033Y-3753566D02*
G01X19914743Y-3833576D01*
G01X19903313Y-3856436D01*
G01X19891883Y-3867866D01*
G01X19880453Y-3873454D01*
G01X19874611Y-3873454D01*
G01X19996785Y-3787856D02*
G01X20065365Y-3787856D01*
G01X20065365Y-3776426D01*
G01X20059777Y-3764996D01*
G01X20053935Y-3759154D01*
G01X20042505Y-3753566D01*
G01X20025487Y-3753566D01*
G01X20014057Y-3759154D01*
G01X20002627Y-3770584D01*
G01X19996785Y-3787856D01*
G01X19996785Y-3799286D01*
G01X20002627Y-3816304D01*
G01X20014057Y-3827734D01*
G01X20025487Y-3833576D01*
G01X20042505Y-3833576D01*
G01X20053935Y-3827734D01*
G01X20065365Y-3816304D01*
G01X20113117Y-3753566D02*
G01X20113117Y-3833576D01*
G01X20113117Y-3787856D02*
G01X20118959Y-3770584D01*
G01X20130389Y-3759154D01*
G01X20141819Y-3753566D01*
G01X20158837Y-3753566D01*
G01X20206589Y-3782014D02*
G01X20309459Y-3782014D01*
G01X20357211Y-3713434D02*
G01X20357211Y-3833576D01*
G01X20357211Y-3713434D02*
G01X20408773Y-3713434D01*
G01X20425791Y-3719276D01*
G01X20431633Y-3724864D01*
G01X20437221Y-3736294D01*
G01X20437221Y-3747724D01*
G01X20431633Y-3759154D01*
G01X20425791Y-3764996D01*
G01X20408773Y-3770584D01*
G01X20357211Y-3770584D02*
G01X20408773Y-3770584D01*
G01X20425791Y-3776426D01*
G01X20431633Y-3782014D01*
G01X20437221Y-3793444D01*
G01X20437221Y-3810716D01*
G01X20431633Y-3822146D01*
G01X20425791Y-3827734D01*
G01X20408773Y-3833576D01*
G01X20357211Y-3833576D01*
G01X20513675Y-3753566D02*
G01X20502245Y-3759154D01*
G01X20490815Y-3770584D01*
G01X20484973Y-3787856D01*
G01X20484973Y-3799286D01*
G01X20490815Y-3816304D01*
G01X20502245Y-3827734D01*
G01X20513675Y-3833576D01*
G01X20530693Y-3833576D01*
G01X20542123Y-3827734D01*
G01X20553553Y-3816304D01*
G01X20559395Y-3799286D01*
G01X20559395Y-3787856D01*
G01X20553553Y-3770584D01*
G01X20542123Y-3759154D01*
G01X20530693Y-3753566D01*
G01X20513675Y-3753566D01*
G01X20624419Y-3713434D02*
G01X20624419Y-3810716D01*
G01X20630007Y-3827734D01*
G01X20641437Y-3833576D01*
G01X20652867Y-3833576D01*
G01X20607147Y-3753566D02*
G01X20647279Y-3753566D01*
G01X20717891Y-3713434D02*
G01X20717891Y-3810716D01*
G01X20723479Y-3827734D01*
G01X20734909Y-3833576D01*
G01X20746339Y-3833576D01*
G01X20700619Y-3753566D02*
G01X20740751Y-3753566D01*
G01X20822793Y-3753566D02*
G01X20811363Y-3759154D01*
G01X20799933Y-3770584D01*
G01X20794091Y-3787856D01*
G01X20794091Y-3799286D01*
G01X20799933Y-3816304D01*
G01X20811363Y-3827734D01*
G01X20822793Y-3833576D01*
G01X20839811Y-3833576D01*
G01X20851241Y-3827734D01*
G01X20862671Y-3816304D01*
G01X20868513Y-3799286D01*
G01X20868513Y-3787856D01*
G01X20862671Y-3770584D01*
G01X20851241Y-3759154D01*
G01X20839811Y-3753566D01*
G01X20822793Y-3753566D01*
G01X20916265Y-3753566D02*
G01X20916265Y-3833576D01*
G01X20916265Y-3776426D02*
G01X20933537Y-3759154D01*
G01X20944967Y-3753566D01*
G01X20961985Y-3753566D01*
G01X20973415Y-3759154D01*
G01X20979257Y-3776426D01*
G01X20979257Y-3833576D01*
G01X20979257Y-3776426D02*
G01X20996275Y-3759154D01*
G01X21007705Y-3753566D01*
G01X21024977Y-3753566D01*
G01X21036407Y-3759154D01*
G01X21041995Y-3776426D01*
G01X21041995Y-3833576D01*
G01X21217763Y-3713434D02*
G01X21217763Y-3833576D01*
G01X21217763Y-3833576D02*
G01X21286343Y-3833576D01*
G01X21402675Y-3753566D02*
G01X21402675Y-3833576D01*
G01X21402675Y-3770584D02*
G01X21391245Y-3759154D01*
G01X21379815Y-3753566D01*
G01X21362797Y-3753566D01*
G01X21351367Y-3759154D01*
G01X21339937Y-3770584D01*
G01X21334095Y-3787856D01*
G01X21334095Y-3799286D01*
G01X21339937Y-3816304D01*
G01X21351367Y-3827734D01*
G01X21362797Y-3833576D01*
G01X21379815Y-3833576D01*
G01X21391245Y-3827734D01*
G01X21402675Y-3816304D01*
G01X21456269Y-3753566D02*
G01X21490559Y-3833576D01*
G01X21524849Y-3753566D02*
G01X21490559Y-3833576D01*
G01X21479129Y-3856436D01*
G01X21467699Y-3867866D01*
G01X21456269Y-3873454D01*
G01X21450427Y-3873454D01*
G01X21572601Y-3787856D02*
G01X21641181Y-3787856D01*
G01X21641181Y-3776426D01*
G01X21635593Y-3764996D01*
G01X21629751Y-3759154D01*
G01X21618321Y-3753566D01*
G01X21601303Y-3753566D01*
G01X21589873Y-3759154D01*
G01X21578443Y-3770584D01*
G01X21572601Y-3787856D01*
G01X21572601Y-3799286D01*
G01X21578443Y-3816304D01*
G01X21589873Y-3827734D01*
G01X21601303Y-3833576D01*
G01X21618321Y-3833576D01*
G01X21629751Y-3827734D01*
G01X21641181Y-3816304D01*
G01X21688933Y-3753566D02*
G01X21688933Y-3833576D01*
G01X21688933Y-3787856D02*
G01X21694775Y-3770584D01*
G01X21706205Y-3759154D01*
G01X21717635Y-3753566D01*
G01X21734653Y-3753566D01*
G01X7217174Y-4316865D02*
G01X7228604Y-4311277D01*
G01X7245876Y-4294005D01*
G01X7245876Y-4414147D01*
G01X7327918Y-4294005D02*
G01X7310900Y-4299847D01*
G01X7299470Y-4316865D01*
G01X7293628Y-4345567D01*
G01X7293628Y-4362585D01*
G01X7299470Y-4391287D01*
G01X7310900Y-4408305D01*
G01X7327918Y-4414147D01*
G01X7339348Y-4414147D01*
G01X7356620Y-4408305D01*
G01X7368050Y-4391287D01*
G01X7373638Y-4362585D01*
G01X7373638Y-4345567D01*
G01X7368050Y-4316865D01*
G01X7356620Y-4299847D01*
G01X7339348Y-4294005D01*
G01X7327918Y-4294005D01*
G01X8688487Y-4294005D02*
G01X8631337Y-4374015D01*
G01X8717189Y-4374015D01*
G01X8688487Y-4294005D02*
G01X8688487Y-4414147D01*
G01X8844951Y-4294005D02*
G01X8787801Y-4414147D01*
G01X8764941Y-4294005D02*
G01X8844951Y-4294005D01*
G01X8898545Y-4385445D02*
G01X8892703Y-4391287D01*
G01X8898545Y-4396875D01*
G01X8904133Y-4391287D01*
G01X8898545Y-4385445D01*
G01X8957727Y-4322707D02*
G01X8957727Y-4316865D01*
G01X8963315Y-4305435D01*
G01X8969157Y-4299847D01*
G01X8980587Y-4294005D01*
G01X9003447Y-4294005D01*
G01X9014877Y-4299847D01*
G01X9020465Y-4305435D01*
G01X9026307Y-4316865D01*
G01X9026307Y-4328295D01*
G01X9020465Y-4339725D01*
G01X9009035Y-4356997D01*
G01X8951885Y-4414147D01*
G01X9031895Y-4414147D01*
G01X9079647Y-4334137D02*
G01X9142639Y-4414147D01*
G01X9142639Y-4334137D02*
G01X9079647Y-4414147D01*
G01X9247541Y-4294005D02*
G01X9190391Y-4374015D01*
G01X9276243Y-4374015D01*
G01X9247541Y-4294005D02*
G01X9247541Y-4414147D01*
G01X9404005Y-4294005D02*
G01X9346855Y-4414147D01*
G01X9323995Y-4294005D02*
G01X9404005Y-4294005D01*
G01X9457599Y-4385445D02*
G01X9451757Y-4391287D01*
G01X9457599Y-4396875D01*
G01X9463187Y-4391287D01*
G01X9457599Y-4385445D01*
G01X9516781Y-4322707D02*
G01X9516781Y-4316865D01*
G01X9522369Y-4305435D01*
G01X9528211Y-4299847D01*
G01X9539641Y-4294005D01*
G01X9562501Y-4294005D01*
G01X9573931Y-4299847D01*
G01X9579519Y-4305435D01*
G01X9585361Y-4316865D01*
G01X9585361Y-4328295D01*
G01X9579519Y-4339725D01*
G01X9568089Y-4356997D01*
G01X9510939Y-4414147D01*
G01X9590949Y-4414147D01*
G01X9638701Y-4334137D02*
G01X9638701Y-4414147D01*
G01X9638701Y-4356997D02*
G01X9655973Y-4339725D01*
G01X9667403Y-4334137D01*
G01X9684421Y-4334137D01*
G01X9695851Y-4339725D01*
G01X9701693Y-4356997D01*
G01X9701693Y-4414147D01*
G01X9701693Y-4356997D02*
G01X9718711Y-4339725D01*
G01X9730141Y-4334137D01*
G01X9747413Y-4334137D01*
G01X9758843Y-4339725D01*
G01X9764431Y-4356997D01*
G01X9764431Y-4414147D01*
G01X9812183Y-4294005D02*
G01X9818025Y-4299847D01*
G01X9823613Y-4294005D01*
G01X9818025Y-4288417D01*
G01X9812183Y-4294005D01*
G01X9818025Y-4334137D02*
G01X9818025Y-4414147D01*
G01X9871365Y-4294005D02*
G01X9871365Y-4414147D01*
G01X9959249Y-4271145D02*
G01X9947819Y-4282575D01*
G01X9936389Y-4299847D01*
G01X9924959Y-4322707D01*
G01X9919117Y-4351155D01*
G01X9919117Y-4374015D01*
G01X9924959Y-4402717D01*
G01X9936389Y-4425577D01*
G01X9947819Y-4442595D01*
G01X9959249Y-4454025D01*
G01X10007001Y-4316865D02*
G01X10018431Y-4311277D01*
G01X10035703Y-4294005D01*
G01X10035703Y-4414147D01*
G01X10089297Y-4385445D02*
G01X10083455Y-4391287D01*
G01X10089297Y-4396875D01*
G01X10094885Y-4391287D01*
G01X10089297Y-4385445D01*
G01X10148479Y-4322707D02*
G01X10148479Y-4316865D01*
G01X10154067Y-4305435D01*
G01X10159909Y-4299847D01*
G01X10171339Y-4294005D01*
G01X10194199Y-4294005D01*
G01X10205629Y-4299847D01*
G01X10211217Y-4305435D01*
G01X10217059Y-4316865D01*
G01X10217059Y-4328295D01*
G01X10211217Y-4339725D01*
G01X10199787Y-4356997D01*
G01X10142637Y-4414147D01*
G01X10222647Y-4414147D01*
G01X10304689Y-4294005D02*
G01X10287671Y-4299847D01*
G01X10276241Y-4316865D01*
G01X10270399Y-4345567D01*
G01X10270399Y-4362585D01*
G01X10276241Y-4391287D01*
G01X10287671Y-4408305D01*
G01X10304689Y-4414147D01*
G01X10316119Y-4414147D01*
G01X10333391Y-4408305D01*
G01X10344821Y-4391287D01*
G01X10350409Y-4362585D01*
G01X10350409Y-4345567D01*
G01X10344821Y-4316865D01*
G01X10333391Y-4299847D01*
G01X10316119Y-4294005D01*
G01X10304689Y-4294005D01*
G01X10432451Y-4294005D02*
G01X10415433Y-4299847D01*
G01X10404003Y-4316865D01*
G01X10398161Y-4345567D01*
G01X10398161Y-4362585D01*
G01X10404003Y-4391287D01*
G01X10415433Y-4408305D01*
G01X10432451Y-4414147D01*
G01X10443881Y-4414147D01*
G01X10461153Y-4408305D01*
G01X10472583Y-4391287D01*
G01X10478171Y-4362585D01*
G01X10478171Y-4345567D01*
G01X10472583Y-4316865D01*
G01X10461153Y-4299847D01*
G01X10443881Y-4294005D01*
G01X10432451Y-4294005D01*
G01X10525923Y-4334137D02*
G01X10588915Y-4414147D01*
G01X10588915Y-4334137D02*
G01X10525923Y-4414147D01*
G01X10636667Y-4316865D02*
G01X10648097Y-4311277D01*
G01X10665369Y-4294005D01*
G01X10665369Y-4414147D01*
G01X10718963Y-4385445D02*
G01X10713121Y-4391287D01*
G01X10718963Y-4396875D01*
G01X10724551Y-4391287D01*
G01X10718963Y-4385445D01*
G01X10778145Y-4322707D02*
G01X10778145Y-4316865D01*
G01X10783733Y-4305435D01*
G01X10789575Y-4299847D01*
G01X10801005Y-4294005D01*
G01X10823865Y-4294005D01*
G01X10835295Y-4299847D01*
G01X10840883Y-4305435D01*
G01X10846725Y-4316865D01*
G01X10846725Y-4328295D01*
G01X10840883Y-4339725D01*
G01X10829453Y-4356997D01*
G01X10772303Y-4414147D01*
G01X10852313Y-4414147D01*
G01X10934355Y-4294005D02*
G01X10917337Y-4299847D01*
G01X10905907Y-4316865D01*
G01X10900065Y-4345567D01*
G01X10900065Y-4362585D01*
G01X10905907Y-4391287D01*
G01X10917337Y-4408305D01*
G01X10934355Y-4414147D01*
G01X10945785Y-4414147D01*
G01X10963057Y-4408305D01*
G01X10974487Y-4391287D01*
G01X10980075Y-4362585D01*
G01X10980075Y-4345567D01*
G01X10974487Y-4316865D01*
G01X10963057Y-4299847D01*
G01X10945785Y-4294005D01*
G01X10934355Y-4294005D01*
G01X11062117Y-4294005D02*
G01X11045099Y-4299847D01*
G01X11033669Y-4316865D01*
G01X11027827Y-4345567D01*
G01X11027827Y-4362585D01*
G01X11033669Y-4391287D01*
G01X11045099Y-4408305D01*
G01X11062117Y-4414147D01*
G01X11073547Y-4414147D01*
G01X11090819Y-4408305D01*
G01X11102249Y-4391287D01*
G01X11107837Y-4362585D01*
G01X11107837Y-4345567D01*
G01X11102249Y-4316865D01*
G01X11090819Y-4299847D01*
G01X11073547Y-4294005D01*
G01X11062117Y-4294005D01*
G01X11155589Y-4334137D02*
G01X11155589Y-4414147D01*
G01X11155589Y-4356997D02*
G01X11172861Y-4339725D01*
G01X11184291Y-4334137D01*
G01X11201309Y-4334137D01*
G01X11212739Y-4339725D01*
G01X11218581Y-4356997D01*
G01X11218581Y-4414147D01*
G01X11218581Y-4356997D02*
G01X11235599Y-4339725D01*
G01X11247029Y-4334137D01*
G01X11264301Y-4334137D01*
G01X11275731Y-4339725D01*
G01X11281319Y-4356997D01*
G01X11281319Y-4414147D01*
G01X11329071Y-4334137D02*
G01X11329071Y-4414147D01*
G01X11329071Y-4356997D02*
G01X11346343Y-4339725D01*
G01X11357773Y-4334137D01*
G01X11374791Y-4334137D01*
G01X11386221Y-4339725D01*
G01X11392063Y-4356997D01*
G01X11392063Y-4414147D01*
G01X11392063Y-4356997D02*
G01X11409081Y-4339725D01*
G01X11420511Y-4334137D01*
G01X11437783Y-4334137D01*
G01X11449213Y-4339725D01*
G01X11454801Y-4356997D01*
G01X11454801Y-4414147D01*
G01X11502553Y-4271145D02*
G01X11513983Y-4282575D01*
G01X11525413Y-4299847D01*
G01X11536843Y-4322707D01*
G01X11542685Y-4351155D01*
G01X11542685Y-4374015D01*
G01X11536843Y-4402717D01*
G01X11525413Y-4425577D01*
G01X11513983Y-4442595D01*
G01X11502553Y-4454025D01*
G01X12666526Y-4294005D02*
G01X12666526Y-4414147D01*
G01X12666526Y-4294005D02*
G01X12718088Y-4294005D01*
G01X12735106Y-4299847D01*
G01X12740948Y-4305435D01*
G01X12746536Y-4316865D01*
G01X12746536Y-4334137D01*
G01X12740948Y-4345567D01*
G01X12735106Y-4351155D01*
G01X12718088Y-4356997D01*
G01X12666526Y-4356997D01*
G01X12834420Y-4294005D02*
G01X12834420Y-4414147D01*
G01X12794288Y-4294005D02*
G01X12874298Y-4294005D01*
G01X12922050Y-4294005D02*
G01X12922050Y-4414147D01*
G01X13002060Y-4294005D02*
G01X13002060Y-4414147D01*
G01X12922050Y-4351155D02*
G01X13002060Y-4351155D01*
G01X14127934Y-4294005D02*
G01X14127934Y-4414147D01*
G01X14127934Y-4294005D02*
G01X14179496Y-4294005D01*
G01X14196514Y-4299847D01*
G01X14202356Y-4305435D01*
G01X14207944Y-4316865D01*
G01X14207944Y-4328295D01*
G01X14202356Y-4339725D01*
G01X14196514Y-4345567D01*
G01X14179496Y-4351155D01*
G01X14127934Y-4351155D01*
G01X14168066Y-4351155D02*
G01X14207944Y-4414147D01*
G01X14284398Y-4334137D02*
G01X14272968Y-4339725D01*
G01X14261538Y-4351155D01*
G01X14255696Y-4368427D01*
G01X14255696Y-4379857D01*
G01X14261538Y-4396875D01*
G01X14272968Y-4408305D01*
G01X14284398Y-4414147D01*
G01X14301416Y-4414147D01*
G01X14312846Y-4408305D01*
G01X14324276Y-4396875D01*
G01X14330118Y-4379857D01*
G01X14330118Y-4368427D01*
G01X14324276Y-4351155D01*
G01X14312846Y-4339725D01*
G01X14301416Y-4334137D01*
G01X14284398Y-4334137D01*
G01X14377870Y-4334137D02*
G01X14377870Y-4391287D01*
G01X14383712Y-4408305D01*
G01X14395142Y-4414147D01*
G01X14412160Y-4414147D01*
G01X14423590Y-4408305D01*
G01X14440862Y-4391287D01*
G01X14440862Y-4334137D02*
G01X14440862Y-4414147D01*
G01X14488614Y-4334137D02*
G01X14488614Y-4414147D01*
G01X14488614Y-4356997D02*
G01X14505886Y-4339725D01*
G01X14517316Y-4334137D01*
G01X14534334Y-4334137D01*
G01X14545764Y-4339725D01*
G01X14551606Y-4356997D01*
G01X14551606Y-4414147D01*
G01X14667938Y-4294005D02*
G01X14667938Y-4414147D01*
G01X14667938Y-4351155D02*
G01X14656508Y-4339725D01*
G01X14645078Y-4334137D01*
G01X14628060Y-4334137D01*
G01X14616630Y-4339725D01*
G01X14605200Y-4351155D01*
G01X14599358Y-4368427D01*
G01X14599358Y-4379857D01*
G01X14605200Y-4396875D01*
G01X14616630Y-4408305D01*
G01X14628060Y-4414147D01*
G01X14645078Y-4414147D01*
G01X14656508Y-4408305D01*
G01X14667938Y-4396875D01*
G01X15559115Y-4294005D02*
G01X15559115Y-4414147D01*
G01X15559115Y-4294005D02*
G01X15610677Y-4294005D01*
G01X15627695Y-4299847D01*
G01X15633537Y-4305435D01*
G01X15639125Y-4316865D01*
G01X15639125Y-4334137D01*
G01X15633537Y-4345567D01*
G01X15627695Y-4351155D01*
G01X15610677Y-4356997D01*
G01X15559115Y-4356997D01*
G01X15755457Y-4334137D02*
G01X15755457Y-4414147D01*
G01X15755457Y-4351155D02*
G01X15744027Y-4339725D01*
G01X15732597Y-4334137D01*
G01X15715579Y-4334137D01*
G01X15704149Y-4339725D01*
G01X15692719Y-4351155D01*
G01X15686877Y-4368427D01*
G01X15686877Y-4379857D01*
G01X15692719Y-4396875D01*
G01X15704149Y-4408305D01*
G01X15715579Y-4414147D01*
G01X15732597Y-4414147D01*
G01X15744027Y-4408305D01*
G01X15755457Y-4396875D01*
G01X15871789Y-4294005D02*
G01X15871789Y-4414147D01*
G01X15871789Y-4351155D02*
G01X15860359Y-4339725D01*
G01X15848929Y-4334137D01*
G01X15831911Y-4334137D01*
G01X15820481Y-4339725D01*
G01X15809051Y-4351155D01*
G01X15803209Y-4368427D01*
G01X15803209Y-4379857D01*
G01X15809051Y-4396875D01*
G01X15820481Y-4408305D01*
G01X15831911Y-4414147D01*
G01X15848929Y-4414147D01*
G01X15860359Y-4408305D01*
G01X15871789Y-4396875D01*
G01X17268426Y-4271145D02*
G01X17256996Y-4282575D01*
G01X17245566Y-4299847D01*
G01X17234136Y-4322707D01*
G01X17228294Y-4351155D01*
G01X17228294Y-4374015D01*
G01X17234136Y-4402717D01*
G01X17245566Y-4425577D01*
G01X17256996Y-4442595D01*
G01X17268426Y-4454025D01*
G01X17316178Y-4294005D02*
G01X17316178Y-4414147D01*
G01X17316178Y-4294005D02*
G01X17361898Y-4414147D01*
G01X17407618Y-4294005D02*
G01X17361898Y-4414147D01*
G01X17407618Y-4294005D02*
G01X17407618Y-4414147D01*
G01X17455370Y-4294005D02*
G01X17461212Y-4299847D01*
G01X17466800Y-4294005D01*
G01X17461212Y-4288417D01*
G01X17455370Y-4294005D01*
G01X17461212Y-4334137D02*
G01X17461212Y-4414147D01*
G01X17514552Y-4334137D02*
G01X17577544Y-4414147D01*
G01X17577544Y-4334137D02*
G01X17514552Y-4414147D01*
G01X17625296Y-4368427D02*
G01X17693876Y-4368427D01*
G01X17693876Y-4356997D01*
G01X17688288Y-4345567D01*
G01X17682446Y-4339725D01*
G01X17671016Y-4334137D01*
G01X17653998Y-4334137D01*
G01X17642568Y-4339725D01*
G01X17631138Y-4351155D01*
G01X17625296Y-4368427D01*
G01X17625296Y-4379857D01*
G01X17631138Y-4396875D01*
G01X17642568Y-4408305D01*
G01X17653998Y-4414147D01*
G01X17671016Y-4414147D01*
G01X17682446Y-4408305D01*
G01X17693876Y-4396875D01*
G01X17810208Y-4294005D02*
G01X17810208Y-4414147D01*
G01X17810208Y-4351155D02*
G01X17798778Y-4339725D01*
G01X17787348Y-4334137D01*
G01X17770330Y-4334137D01*
G01X17758900Y-4339725D01*
G01X17747470Y-4351155D01*
G01X17741628Y-4368427D01*
G01X17741628Y-4379857D01*
G01X17747470Y-4396875D01*
G01X17758900Y-4408305D01*
G01X17770330Y-4414147D01*
G01X17787348Y-4414147D01*
G01X17798778Y-4408305D01*
G01X17810208Y-4396875D01*
G01X17857960Y-4271145D02*
G01X17869390Y-4282575D01*
G01X17880820Y-4299847D01*
G01X17892250Y-4322707D01*
G01X17898092Y-4351155D01*
G01X17898092Y-4374015D01*
G01X17892250Y-4402717D01*
G01X17880820Y-4425577D01*
G01X17869390Y-4442595D01*
G01X17857960Y-4454025D01*
G01X19187795Y-4294005D02*
G01X19187795Y-4414147D01*
G01X19147663Y-4294005D02*
G01X19227673Y-4294005D01*
G01X19304127Y-4334137D02*
G01X19292697Y-4339725D01*
G01X19281267Y-4351155D01*
G01X19275425Y-4368427D01*
G01X19275425Y-4379857D01*
G01X19281267Y-4396875D01*
G01X19292697Y-4408305D01*
G01X19304127Y-4414147D01*
G01X19321145Y-4414147D01*
G01X19332575Y-4408305D01*
G01X19344005Y-4396875D01*
G01X19349847Y-4379857D01*
G01X19349847Y-4368427D01*
G01X19344005Y-4351155D01*
G01X19332575Y-4339725D01*
G01X19321145Y-4334137D01*
G01X19304127Y-4334137D01*
G01X19397599Y-4334137D02*
G01X19397599Y-4454025D01*
G01X19397599Y-4351155D02*
G01X19409029Y-4339725D01*
G01X19420459Y-4334137D01*
G01X19437731Y-4334137D01*
G01X19449161Y-4339725D01*
G01X19460591Y-4351155D01*
G01X19466179Y-4368427D01*
G01X19466179Y-4379857D01*
G01X19460591Y-4396875D01*
G01X19449161Y-4408305D01*
G01X19437731Y-4414147D01*
G01X19420459Y-4414147D01*
G01X19409029Y-4408305D01*
G01X19397599Y-4396875D01*
G01X19641947Y-4294005D02*
G01X19641947Y-4414147D01*
G01X19641947Y-4414147D02*
G01X19710527Y-4414147D01*
G01X19826859Y-4334137D02*
G01X19826859Y-4414147D01*
G01X19826859Y-4351155D02*
G01X19815429Y-4339725D01*
G01X19803999Y-4334137D01*
G01X19786981Y-4334137D01*
G01X19775551Y-4339725D01*
G01X19764121Y-4351155D01*
G01X19758279Y-4368427D01*
G01X19758279Y-4379857D01*
G01X19764121Y-4396875D01*
G01X19775551Y-4408305D01*
G01X19786981Y-4414147D01*
G01X19803999Y-4414147D01*
G01X19815429Y-4408305D01*
G01X19826859Y-4396875D01*
G01X19880453Y-4334137D02*
G01X19914743Y-4414147D01*
G01X19949033Y-4334137D02*
G01X19914743Y-4414147D01*
G01X19903313Y-4437007D01*
G01X19891883Y-4448437D01*
G01X19880453Y-4454025D01*
G01X19874611Y-4454025D01*
G01X19996785Y-4368427D02*
G01X20065365Y-4368427D01*
G01X20065365Y-4356997D01*
G01X20059777Y-4345567D01*
G01X20053935Y-4339725D01*
G01X20042505Y-4334137D01*
G01X20025487Y-4334137D01*
G01X20014057Y-4339725D01*
G01X20002627Y-4351155D01*
G01X19996785Y-4368427D01*
G01X19996785Y-4379857D01*
G01X20002627Y-4396875D01*
G01X20014057Y-4408305D01*
G01X20025487Y-4414147D01*
G01X20042505Y-4414147D01*
G01X20053935Y-4408305D01*
G01X20065365Y-4396875D01*
G01X20113117Y-4334137D02*
G01X20113117Y-4414147D01*
G01X20113117Y-4368427D02*
G01X20118959Y-4351155D01*
G01X20130389Y-4339725D01*
G01X20141819Y-4334137D01*
G01X20158837Y-4334137D01*
G01X20206589Y-4362585D02*
G01X20309459Y-4362585D01*
G01X20357211Y-4294005D02*
G01X20357211Y-4414147D01*
G01X20357211Y-4294005D02*
G01X20408773Y-4294005D01*
G01X20425791Y-4299847D01*
G01X20431633Y-4305435D01*
G01X20437221Y-4316865D01*
G01X20437221Y-4328295D01*
G01X20431633Y-4339725D01*
G01X20425791Y-4345567D01*
G01X20408773Y-4351155D01*
G01X20357211Y-4351155D02*
G01X20408773Y-4351155D01*
G01X20425791Y-4356997D01*
G01X20431633Y-4362585D01*
G01X20437221Y-4374015D01*
G01X20437221Y-4391287D01*
G01X20431633Y-4402717D01*
G01X20425791Y-4408305D01*
G01X20408773Y-4414147D01*
G01X20357211Y-4414147D01*
G01X20513675Y-4334137D02*
G01X20502245Y-4339725D01*
G01X20490815Y-4351155D01*
G01X20484973Y-4368427D01*
G01X20484973Y-4379857D01*
G01X20490815Y-4396875D01*
G01X20502245Y-4408305D01*
G01X20513675Y-4414147D01*
G01X20530693Y-4414147D01*
G01X20542123Y-4408305D01*
G01X20553553Y-4396875D01*
G01X20559395Y-4379857D01*
G01X20559395Y-4368427D01*
G01X20553553Y-4351155D01*
G01X20542123Y-4339725D01*
G01X20530693Y-4334137D01*
G01X20513675Y-4334137D01*
G01X20624419Y-4294005D02*
G01X20624419Y-4391287D01*
G01X20630007Y-4408305D01*
G01X20641437Y-4414147D01*
G01X20652867Y-4414147D01*
G01X20607147Y-4334137D02*
G01X20647279Y-4334137D01*
G01X20717891Y-4294005D02*
G01X20717891Y-4391287D01*
G01X20723479Y-4408305D01*
G01X20734909Y-4414147D01*
G01X20746339Y-4414147D01*
G01X20700619Y-4334137D02*
G01X20740751Y-4334137D01*
G01X20822793Y-4334137D02*
G01X20811363Y-4339725D01*
G01X20799933Y-4351155D01*
G01X20794091Y-4368427D01*
G01X20794091Y-4379857D01*
G01X20799933Y-4396875D01*
G01X20811363Y-4408305D01*
G01X20822793Y-4414147D01*
G01X20839811Y-4414147D01*
G01X20851241Y-4408305D01*
G01X20862671Y-4396875D01*
G01X20868513Y-4379857D01*
G01X20868513Y-4368427D01*
G01X20862671Y-4351155D01*
G01X20851241Y-4339725D01*
G01X20839811Y-4334137D01*
G01X20822793Y-4334137D01*
G01X20916265Y-4334137D02*
G01X20916265Y-4414147D01*
G01X20916265Y-4356997D02*
G01X20933537Y-4339725D01*
G01X20944967Y-4334137D01*
G01X20961985Y-4334137D01*
G01X20973415Y-4339725D01*
G01X20979257Y-4356997D01*
G01X20979257Y-4414147D01*
G01X20979257Y-4356997D02*
G01X20996275Y-4339725D01*
G01X21007705Y-4334137D01*
G01X21024977Y-4334137D01*
G01X21036407Y-4339725D01*
G01X21041995Y-4356997D01*
G01X21041995Y-4414147D01*
G01X21217763Y-4294005D02*
G01X21217763Y-4414147D01*
G01X21217763Y-4414147D02*
G01X21286343Y-4414147D01*
G01X21402675Y-4334137D02*
G01X21402675Y-4414147D01*
G01X21402675Y-4351155D02*
G01X21391245Y-4339725D01*
G01X21379815Y-4334137D01*
G01X21362797Y-4334137D01*
G01X21351367Y-4339725D01*
G01X21339937Y-4351155D01*
G01X21334095Y-4368427D01*
G01X21334095Y-4379857D01*
G01X21339937Y-4396875D01*
G01X21351367Y-4408305D01*
G01X21362797Y-4414147D01*
G01X21379815Y-4414147D01*
G01X21391245Y-4408305D01*
G01X21402675Y-4396875D01*
G01X21456269Y-4334137D02*
G01X21490559Y-4414147D01*
G01X21524849Y-4334137D02*
G01X21490559Y-4414147D01*
G01X21479129Y-4437007D01*
G01X21467699Y-4448437D01*
G01X21456269Y-4454025D01*
G01X21450427Y-4454025D01*
G01X21572601Y-4368427D02*
G01X21641181Y-4368427D01*
G01X21641181Y-4356997D01*
G01X21635593Y-4345567D01*
G01X21629751Y-4339725D01*
G01X21618321Y-4334137D01*
G01X21601303Y-4334137D01*
G01X21589873Y-4339725D01*
G01X21578443Y-4351155D01*
G01X21572601Y-4368427D01*
G01X21572601Y-4379857D01*
G01X21578443Y-4396875D01*
G01X21589873Y-4408305D01*
G01X21601303Y-4414147D01*
G01X21618321Y-4414147D01*
G01X21629751Y-4408305D01*
G01X21641181Y-4396875D01*
G01X21688933Y-4334137D02*
G01X21688933Y-4414147D01*
G01X21688933Y-4368427D02*
G01X21694775Y-4351155D01*
G01X21706205Y-4339725D01*
G01X21717635Y-4334137D01*
G01X21734653Y-4334137D01*
G01X7217174Y-4897437D02*
G01X7228604Y-4891849D01*
G01X7245876Y-4874577D01*
G01X7245876Y-4994719D01*
G01X7299470Y-4903279D02*
G01X7299470Y-4897437D01*
G01X7305058Y-4886007D01*
G01X7310900Y-4880419D01*
G01X7322330Y-4874577D01*
G01X7345190Y-4874577D01*
G01X7356620Y-4880419D01*
G01X7362208Y-4886007D01*
G01X7368050Y-4897437D01*
G01X7368050Y-4908867D01*
G01X7362208Y-4920297D01*
G01X7350778Y-4937569D01*
G01X7293628Y-4994719D01*
G01X7373638Y-4994719D01*
G01X8688487Y-4874577D02*
G01X8631337Y-4954587D01*
G01X8717189Y-4954587D01*
G01X8688487Y-4874577D02*
G01X8688487Y-4994719D01*
G01X8776371Y-4874577D02*
G01X8839363Y-4874577D01*
G01X8805073Y-4920297D01*
G01X8822091Y-4920297D01*
G01X8833521Y-4926139D01*
G01X8839363Y-4931727D01*
G01X8844951Y-4948999D01*
G01X8844951Y-4960429D01*
G01X8839363Y-4977447D01*
G01X8827933Y-4988877D01*
G01X8810661Y-4994719D01*
G01X8793643Y-4994719D01*
G01X8776371Y-4988877D01*
G01X8770783Y-4983289D01*
G01X8764941Y-4971859D01*
G01X8898545Y-4966017D02*
G01X8892703Y-4971859D01*
G01X8898545Y-4977447D01*
G01X8904133Y-4971859D01*
G01X8898545Y-4966017D01*
G01X8963315Y-4874577D02*
G01X9026307Y-4874577D01*
G01X8992017Y-4920297D01*
G01X9009035Y-4920297D01*
G01X9020465Y-4926139D01*
G01X9026307Y-4931727D01*
G01X9031895Y-4948999D01*
G01X9031895Y-4960429D01*
G01X9026307Y-4977447D01*
G01X9014877Y-4988877D01*
G01X8997605Y-4994719D01*
G01X8980587Y-4994719D01*
G01X8963315Y-4988877D01*
G01X8957727Y-4983289D01*
G01X8951885Y-4971859D01*
G01X9079647Y-4914709D02*
G01X9142639Y-4994719D01*
G01X9142639Y-4914709D02*
G01X9079647Y-4994719D01*
G01X9247541Y-4874577D02*
G01X9190391Y-4954587D01*
G01X9276243Y-4954587D01*
G01X9247541Y-4874577D02*
G01X9247541Y-4994719D01*
G01X9335425Y-4874577D02*
G01X9398417Y-4874577D01*
G01X9364127Y-4920297D01*
G01X9381145Y-4920297D01*
G01X9392575Y-4926139D01*
G01X9398417Y-4931727D01*
G01X9404005Y-4948999D01*
G01X9404005Y-4960429D01*
G01X9398417Y-4977447D01*
G01X9386987Y-4988877D01*
G01X9369715Y-4994719D01*
G01X9352697Y-4994719D01*
G01X9335425Y-4988877D01*
G01X9329837Y-4983289D01*
G01X9323995Y-4971859D01*
G01X9457599Y-4966017D02*
G01X9451757Y-4971859D01*
G01X9457599Y-4977447D01*
G01X9463187Y-4971859D01*
G01X9457599Y-4966017D01*
G01X9522369Y-4874577D02*
G01X9585361Y-4874577D01*
G01X9551071Y-4920297D01*
G01X9568089Y-4920297D01*
G01X9579519Y-4926139D01*
G01X9585361Y-4931727D01*
G01X9590949Y-4948999D01*
G01X9590949Y-4960429D01*
G01X9585361Y-4977447D01*
G01X9573931Y-4988877D01*
G01X9556659Y-4994719D01*
G01X9539641Y-4994719D01*
G01X9522369Y-4988877D01*
G01X9516781Y-4983289D01*
G01X9510939Y-4971859D01*
G01X9638701Y-4914709D02*
G01X9638701Y-4994719D01*
G01X9638701Y-4937569D02*
G01X9655973Y-4920297D01*
G01X9667403Y-4914709D01*
G01X9684421Y-4914709D01*
G01X9695851Y-4920297D01*
G01X9701693Y-4937569D01*
G01X9701693Y-4994719D01*
G01X9701693Y-4937569D02*
G01X9718711Y-4920297D01*
G01X9730141Y-4914709D01*
G01X9747413Y-4914709D01*
G01X9758843Y-4920297D01*
G01X9764431Y-4937569D01*
G01X9764431Y-4994719D01*
G01X9812183Y-4874577D02*
G01X9818025Y-4880419D01*
G01X9823613Y-4874577D01*
G01X9818025Y-4868989D01*
G01X9812183Y-4874577D01*
G01X9818025Y-4914709D02*
G01X9818025Y-4994719D01*
G01X9871365Y-4874577D02*
G01X9871365Y-4994719D01*
G01X9959249Y-4851717D02*
G01X9947819Y-4863147D01*
G01X9936389Y-4880419D01*
G01X9924959Y-4903279D01*
G01X9919117Y-4931727D01*
G01X9919117Y-4954587D01*
G01X9924959Y-4983289D01*
G01X9936389Y-5006149D01*
G01X9947819Y-5023167D01*
G01X9959249Y-5034597D01*
G01X10007001Y-4897437D02*
G01X10018431Y-4891849D01*
G01X10035703Y-4874577D01*
G01X10035703Y-4994719D01*
G01X10089297Y-4966017D02*
G01X10083455Y-4971859D01*
G01X10089297Y-4977447D01*
G01X10094885Y-4971859D01*
G01X10089297Y-4966017D01*
G01X10142637Y-4897437D02*
G01X10154067Y-4891849D01*
G01X10171339Y-4874577D01*
G01X10171339Y-4994719D01*
G01X10253381Y-4874577D02*
G01X10236363Y-4880419D01*
G01X10224933Y-4897437D01*
G01X10219091Y-4926139D01*
G01X10219091Y-4943157D01*
G01X10224933Y-4971859D01*
G01X10236363Y-4988877D01*
G01X10253381Y-4994719D01*
G01X10264811Y-4994719D01*
G01X10282083Y-4988877D01*
G01X10293513Y-4971859D01*
G01X10299101Y-4943157D01*
G01X10299101Y-4926139D01*
G01X10293513Y-4897437D01*
G01X10282083Y-4880419D01*
G01X10264811Y-4874577D01*
G01X10253381Y-4874577D01*
G01X10381143Y-4874577D02*
G01X10364125Y-4880419D01*
G01X10352695Y-4897437D01*
G01X10346853Y-4926139D01*
G01X10346853Y-4943157D01*
G01X10352695Y-4971859D01*
G01X10364125Y-4988877D01*
G01X10381143Y-4994719D01*
G01X10392573Y-4994719D01*
G01X10409845Y-4988877D01*
G01X10421275Y-4971859D01*
G01X10426863Y-4943157D01*
G01X10426863Y-4926139D01*
G01X10421275Y-4897437D01*
G01X10409845Y-4880419D01*
G01X10392573Y-4874577D01*
G01X10381143Y-4874577D01*
G01X10474615Y-4914709D02*
G01X10537607Y-4994719D01*
G01X10537607Y-4914709D02*
G01X10474615Y-4994719D01*
G01X10585359Y-4897437D02*
G01X10596789Y-4891849D01*
G01X10614061Y-4874577D01*
G01X10614061Y-4994719D01*
G01X10667655Y-4966017D02*
G01X10661813Y-4971859D01*
G01X10667655Y-4977447D01*
G01X10673243Y-4971859D01*
G01X10667655Y-4966017D01*
G01X10720995Y-4897437D02*
G01X10732425Y-4891849D01*
G01X10749697Y-4874577D01*
G01X10749697Y-4994719D01*
G01X10831739Y-4874577D02*
G01X10814721Y-4880419D01*
G01X10803291Y-4897437D01*
G01X10797449Y-4926139D01*
G01X10797449Y-4943157D01*
G01X10803291Y-4971859D01*
G01X10814721Y-4988877D01*
G01X10831739Y-4994719D01*
G01X10843169Y-4994719D01*
G01X10860441Y-4988877D01*
G01X10871871Y-4971859D01*
G01X10877459Y-4943157D01*
G01X10877459Y-4926139D01*
G01X10871871Y-4897437D01*
G01X10860441Y-4880419D01*
G01X10843169Y-4874577D01*
G01X10831739Y-4874577D01*
G01X10959501Y-4874577D02*
G01X10942483Y-4880419D01*
G01X10931053Y-4897437D01*
G01X10925211Y-4926139D01*
G01X10925211Y-4943157D01*
G01X10931053Y-4971859D01*
G01X10942483Y-4988877D01*
G01X10959501Y-4994719D01*
G01X10970931Y-4994719D01*
G01X10988203Y-4988877D01*
G01X10999633Y-4971859D01*
G01X11005221Y-4943157D01*
G01X11005221Y-4926139D01*
G01X10999633Y-4897437D01*
G01X10988203Y-4880419D01*
G01X10970931Y-4874577D01*
G01X10959501Y-4874577D01*
G01X11052973Y-4914709D02*
G01X11052973Y-4994719D01*
G01X11052973Y-4937569D02*
G01X11070245Y-4920297D01*
G01X11081675Y-4914709D01*
G01X11098693Y-4914709D01*
G01X11110123Y-4920297D01*
G01X11115965Y-4937569D01*
G01X11115965Y-4994719D01*
G01X11115965Y-4937569D02*
G01X11132983Y-4920297D01*
G01X11144413Y-4914709D01*
G01X11161685Y-4914709D01*
G01X11173115Y-4920297D01*
G01X11178703Y-4937569D01*
G01X11178703Y-4994719D01*
G01X11226455Y-4914709D02*
G01X11226455Y-4994719D01*
G01X11226455Y-4937569D02*
G01X11243727Y-4920297D01*
G01X11255157Y-4914709D01*
G01X11272175Y-4914709D01*
G01X11283605Y-4920297D01*
G01X11289447Y-4937569D01*
G01X11289447Y-4994719D01*
G01X11289447Y-4937569D02*
G01X11306465Y-4920297D01*
G01X11317895Y-4914709D01*
G01X11335167Y-4914709D01*
G01X11346597Y-4920297D01*
G01X11352185Y-4937569D01*
G01X11352185Y-4994719D01*
G01X11399937Y-4851717D02*
G01X11411367Y-4863147D01*
G01X11422797Y-4880419D01*
G01X11434227Y-4903279D01*
G01X11440069Y-4931727D01*
G01X11440069Y-4954587D01*
G01X11434227Y-4983289D01*
G01X11422797Y-5006149D01*
G01X11411367Y-5023167D01*
G01X11399937Y-5034597D01*
G01X12666526Y-4874577D02*
G01X12666526Y-4994719D01*
G01X12666526Y-4874577D02*
G01X12718088Y-4874577D01*
G01X12735106Y-4880419D01*
G01X12740948Y-4886007D01*
G01X12746536Y-4897437D01*
G01X12746536Y-4914709D01*
G01X12740948Y-4926139D01*
G01X12735106Y-4931727D01*
G01X12718088Y-4937569D01*
G01X12666526Y-4937569D01*
G01X12834420Y-4874577D02*
G01X12834420Y-4994719D01*
G01X12794288Y-4874577D02*
G01X12874298Y-4874577D01*
G01X12922050Y-4874577D02*
G01X12922050Y-4994719D01*
G01X13002060Y-4874577D02*
G01X13002060Y-4994719D01*
G01X12922050Y-4931727D02*
G01X13002060Y-4931727D01*
G01X14127934Y-4874577D02*
G01X14127934Y-4994719D01*
G01X14127934Y-4874577D02*
G01X14179496Y-4874577D01*
G01X14196514Y-4880419D01*
G01X14202356Y-4886007D01*
G01X14207944Y-4897437D01*
G01X14207944Y-4908867D01*
G01X14202356Y-4920297D01*
G01X14196514Y-4926139D01*
G01X14179496Y-4931727D01*
G01X14127934Y-4931727D01*
G01X14168066Y-4931727D02*
G01X14207944Y-4994719D01*
G01X14284398Y-4914709D02*
G01X14272968Y-4920297D01*
G01X14261538Y-4931727D01*
G01X14255696Y-4948999D01*
G01X14255696Y-4960429D01*
G01X14261538Y-4977447D01*
G01X14272968Y-4988877D01*
G01X14284398Y-4994719D01*
G01X14301416Y-4994719D01*
G01X14312846Y-4988877D01*
G01X14324276Y-4977447D01*
G01X14330118Y-4960429D01*
G01X14330118Y-4948999D01*
G01X14324276Y-4931727D01*
G01X14312846Y-4920297D01*
G01X14301416Y-4914709D01*
G01X14284398Y-4914709D01*
G01X14377870Y-4914709D02*
G01X14377870Y-4971859D01*
G01X14383712Y-4988877D01*
G01X14395142Y-4994719D01*
G01X14412160Y-4994719D01*
G01X14423590Y-4988877D01*
G01X14440862Y-4971859D01*
G01X14440862Y-4914709D02*
G01X14440862Y-4994719D01*
G01X14488614Y-4914709D02*
G01X14488614Y-4994719D01*
G01X14488614Y-4937569D02*
G01X14505886Y-4920297D01*
G01X14517316Y-4914709D01*
G01X14534334Y-4914709D01*
G01X14545764Y-4920297D01*
G01X14551606Y-4937569D01*
G01X14551606Y-4994719D01*
G01X14667938Y-4874577D02*
G01X14667938Y-4994719D01*
G01X14667938Y-4931727D02*
G01X14656508Y-4920297D01*
G01X14645078Y-4914709D01*
G01X14628060Y-4914709D01*
G01X14616630Y-4920297D01*
G01X14605200Y-4931727D01*
G01X14599358Y-4948999D01*
G01X14599358Y-4960429D01*
G01X14605200Y-4977447D01*
G01X14616630Y-4988877D01*
G01X14628060Y-4994719D01*
G01X14645078Y-4994719D01*
G01X14656508Y-4988877D01*
G01X14667938Y-4977447D01*
G01X15559115Y-4874577D02*
G01X15559115Y-4994719D01*
G01X15559115Y-4874577D02*
G01X15610677Y-4874577D01*
G01X15627695Y-4880419D01*
G01X15633537Y-4886007D01*
G01X15639125Y-4897437D01*
G01X15639125Y-4914709D01*
G01X15633537Y-4926139D01*
G01X15627695Y-4931727D01*
G01X15610677Y-4937569D01*
G01X15559115Y-4937569D01*
G01X15755457Y-4914709D02*
G01X15755457Y-4994719D01*
G01X15755457Y-4931727D02*
G01X15744027Y-4920297D01*
G01X15732597Y-4914709D01*
G01X15715579Y-4914709D01*
G01X15704149Y-4920297D01*
G01X15692719Y-4931727D01*
G01X15686877Y-4948999D01*
G01X15686877Y-4960429D01*
G01X15692719Y-4977447D01*
G01X15704149Y-4988877D01*
G01X15715579Y-4994719D01*
G01X15732597Y-4994719D01*
G01X15744027Y-4988877D01*
G01X15755457Y-4977447D01*
G01X15871789Y-4874577D02*
G01X15871789Y-4994719D01*
G01X15871789Y-4931727D02*
G01X15860359Y-4920297D01*
G01X15848929Y-4914709D01*
G01X15831911Y-4914709D01*
G01X15820481Y-4920297D01*
G01X15809051Y-4931727D01*
G01X15803209Y-4948999D01*
G01X15803209Y-4960429D01*
G01X15809051Y-4977447D01*
G01X15820481Y-4988877D01*
G01X15831911Y-4994719D01*
G01X15848929Y-4994719D01*
G01X15860359Y-4988877D01*
G01X15871789Y-4977447D01*
G01X17268426Y-4851717D02*
G01X17256996Y-4863147D01*
G01X17245566Y-4880419D01*
G01X17234136Y-4903279D01*
G01X17228294Y-4931727D01*
G01X17228294Y-4954587D01*
G01X17234136Y-4983289D01*
G01X17245566Y-5006149D01*
G01X17256996Y-5023167D01*
G01X17268426Y-5034597D01*
G01X17316178Y-4874577D02*
G01X17316178Y-4994719D01*
G01X17316178Y-4874577D02*
G01X17361898Y-4994719D01*
G01X17407618Y-4874577D02*
G01X17361898Y-4994719D01*
G01X17407618Y-4874577D02*
G01X17407618Y-4994719D01*
G01X17455370Y-4874577D02*
G01X17461212Y-4880419D01*
G01X17466800Y-4874577D01*
G01X17461212Y-4868989D01*
G01X17455370Y-4874577D01*
G01X17461212Y-4914709D02*
G01X17461212Y-4994719D01*
G01X17514552Y-4914709D02*
G01X17577544Y-4994719D01*
G01X17577544Y-4914709D02*
G01X17514552Y-4994719D01*
G01X17625296Y-4948999D02*
G01X17693876Y-4948999D01*
G01X17693876Y-4937569D01*
G01X17688288Y-4926139D01*
G01X17682446Y-4920297D01*
G01X17671016Y-4914709D01*
G01X17653998Y-4914709D01*
G01X17642568Y-4920297D01*
G01X17631138Y-4931727D01*
G01X17625296Y-4948999D01*
G01X17625296Y-4960429D01*
G01X17631138Y-4977447D01*
G01X17642568Y-4988877D01*
G01X17653998Y-4994719D01*
G01X17671016Y-4994719D01*
G01X17682446Y-4988877D01*
G01X17693876Y-4977447D01*
G01X17810208Y-4874577D02*
G01X17810208Y-4994719D01*
G01X17810208Y-4931727D02*
G01X17798778Y-4920297D01*
G01X17787348Y-4914709D01*
G01X17770330Y-4914709D01*
G01X17758900Y-4920297D01*
G01X17747470Y-4931727D01*
G01X17741628Y-4948999D01*
G01X17741628Y-4960429D01*
G01X17747470Y-4977447D01*
G01X17758900Y-4988877D01*
G01X17770330Y-4994719D01*
G01X17787348Y-4994719D01*
G01X17798778Y-4988877D01*
G01X17810208Y-4977447D01*
G01X17857960Y-4851717D02*
G01X17869390Y-4863147D01*
G01X17880820Y-4880419D01*
G01X17892250Y-4903279D01*
G01X17898092Y-4931727D01*
G01X17898092Y-4954587D01*
G01X17892250Y-4983289D01*
G01X17880820Y-5006149D01*
G01X17869390Y-5023167D01*
G01X17857960Y-5034597D01*
G01X19187795Y-4874577D02*
G01X19187795Y-4994719D01*
G01X19147663Y-4874577D02*
G01X19227673Y-4874577D01*
G01X19304127Y-4914709D02*
G01X19292697Y-4920297D01*
G01X19281267Y-4931727D01*
G01X19275425Y-4948999D01*
G01X19275425Y-4960429D01*
G01X19281267Y-4977447D01*
G01X19292697Y-4988877D01*
G01X19304127Y-4994719D01*
G01X19321145Y-4994719D01*
G01X19332575Y-4988877D01*
G01X19344005Y-4977447D01*
G01X19349847Y-4960429D01*
G01X19349847Y-4948999D01*
G01X19344005Y-4931727D01*
G01X19332575Y-4920297D01*
G01X19321145Y-4914709D01*
G01X19304127Y-4914709D01*
G01X19397599Y-4914709D02*
G01X19397599Y-5034597D01*
G01X19397599Y-4931727D02*
G01X19409029Y-4920297D01*
G01X19420459Y-4914709D01*
G01X19437731Y-4914709D01*
G01X19449161Y-4920297D01*
G01X19460591Y-4931727D01*
G01X19466179Y-4948999D01*
G01X19466179Y-4960429D01*
G01X19460591Y-4977447D01*
G01X19449161Y-4988877D01*
G01X19437731Y-4994719D01*
G01X19420459Y-4994719D01*
G01X19409029Y-4988877D01*
G01X19397599Y-4977447D01*
G01X19641947Y-4874577D02*
G01X19641947Y-4994719D01*
G01X19641947Y-4994719D02*
G01X19710527Y-4994719D01*
G01X19826859Y-4914709D02*
G01X19826859Y-4994719D01*
G01X19826859Y-4931727D02*
G01X19815429Y-4920297D01*
G01X19803999Y-4914709D01*
G01X19786981Y-4914709D01*
G01X19775551Y-4920297D01*
G01X19764121Y-4931727D01*
G01X19758279Y-4948999D01*
G01X19758279Y-4960429D01*
G01X19764121Y-4977447D01*
G01X19775551Y-4988877D01*
G01X19786981Y-4994719D01*
G01X19803999Y-4994719D01*
G01X19815429Y-4988877D01*
G01X19826859Y-4977447D01*
G01X19880453Y-4914709D02*
G01X19914743Y-4994719D01*
G01X19949033Y-4914709D02*
G01X19914743Y-4994719D01*
G01X19903313Y-5017579D01*
G01X19891883Y-5029009D01*
G01X19880453Y-5034597D01*
G01X19874611Y-5034597D01*
G01X19996785Y-4948999D02*
G01X20065365Y-4948999D01*
G01X20065365Y-4937569D01*
G01X20059777Y-4926139D01*
G01X20053935Y-4920297D01*
G01X20042505Y-4914709D01*
G01X20025487Y-4914709D01*
G01X20014057Y-4920297D01*
G01X20002627Y-4931727D01*
G01X19996785Y-4948999D01*
G01X19996785Y-4960429D01*
G01X20002627Y-4977447D01*
G01X20014057Y-4988877D01*
G01X20025487Y-4994719D01*
G01X20042505Y-4994719D01*
G01X20053935Y-4988877D01*
G01X20065365Y-4977447D01*
G01X20113117Y-4914709D02*
G01X20113117Y-4994719D01*
G01X20113117Y-4948999D02*
G01X20118959Y-4931727D01*
G01X20130389Y-4920297D01*
G01X20141819Y-4914709D01*
G01X20158837Y-4914709D01*
G01X20206589Y-4943157D02*
G01X20309459Y-4943157D01*
G01X20357211Y-4874577D02*
G01X20357211Y-4994719D01*
G01X20357211Y-4874577D02*
G01X20408773Y-4874577D01*
G01X20425791Y-4880419D01*
G01X20431633Y-4886007D01*
G01X20437221Y-4897437D01*
G01X20437221Y-4908867D01*
G01X20431633Y-4920297D01*
G01X20425791Y-4926139D01*
G01X20408773Y-4931727D01*
G01X20357211Y-4931727D02*
G01X20408773Y-4931727D01*
G01X20425791Y-4937569D01*
G01X20431633Y-4943157D01*
G01X20437221Y-4954587D01*
G01X20437221Y-4971859D01*
G01X20431633Y-4983289D01*
G01X20425791Y-4988877D01*
G01X20408773Y-4994719D01*
G01X20357211Y-4994719D01*
G01X20513675Y-4914709D02*
G01X20502245Y-4920297D01*
G01X20490815Y-4931727D01*
G01X20484973Y-4948999D01*
G01X20484973Y-4960429D01*
G01X20490815Y-4977447D01*
G01X20502245Y-4988877D01*
G01X20513675Y-4994719D01*
G01X20530693Y-4994719D01*
G01X20542123Y-4988877D01*
G01X20553553Y-4977447D01*
G01X20559395Y-4960429D01*
G01X20559395Y-4948999D01*
G01X20553553Y-4931727D01*
G01X20542123Y-4920297D01*
G01X20530693Y-4914709D01*
G01X20513675Y-4914709D01*
G01X20624419Y-4874577D02*
G01X20624419Y-4971859D01*
G01X20630007Y-4988877D01*
G01X20641437Y-4994719D01*
G01X20652867Y-4994719D01*
G01X20607147Y-4914709D02*
G01X20647279Y-4914709D01*
G01X20717891Y-4874577D02*
G01X20717891Y-4971859D01*
G01X20723479Y-4988877D01*
G01X20734909Y-4994719D01*
G01X20746339Y-4994719D01*
G01X20700619Y-4914709D02*
G01X20740751Y-4914709D01*
G01X20822793Y-4914709D02*
G01X20811363Y-4920297D01*
G01X20799933Y-4931727D01*
G01X20794091Y-4948999D01*
G01X20794091Y-4960429D01*
G01X20799933Y-4977447D01*
G01X20811363Y-4988877D01*
G01X20822793Y-4994719D01*
G01X20839811Y-4994719D01*
G01X20851241Y-4988877D01*
G01X20862671Y-4977447D01*
G01X20868513Y-4960429D01*
G01X20868513Y-4948999D01*
G01X20862671Y-4931727D01*
G01X20851241Y-4920297D01*
G01X20839811Y-4914709D01*
G01X20822793Y-4914709D01*
G01X20916265Y-4914709D02*
G01X20916265Y-4994719D01*
G01X20916265Y-4937569D02*
G01X20933537Y-4920297D01*
G01X20944967Y-4914709D01*
G01X20961985Y-4914709D01*
G01X20973415Y-4920297D01*
G01X20979257Y-4937569D01*
G01X20979257Y-4994719D01*
G01X20979257Y-4937569D02*
G01X20996275Y-4920297D01*
G01X21007705Y-4914709D01*
G01X21024977Y-4914709D01*
G01X21036407Y-4920297D01*
G01X21041995Y-4937569D01*
G01X21041995Y-4994719D01*
G01X21217763Y-4874577D02*
G01X21217763Y-4994719D01*
G01X21217763Y-4994719D02*
G01X21286343Y-4994719D01*
G01X21402675Y-4914709D02*
G01X21402675Y-4994719D01*
G01X21402675Y-4931727D02*
G01X21391245Y-4920297D01*
G01X21379815Y-4914709D01*
G01X21362797Y-4914709D01*
G01X21351367Y-4920297D01*
G01X21339937Y-4931727D01*
G01X21334095Y-4948999D01*
G01X21334095Y-4960429D01*
G01X21339937Y-4977447D01*
G01X21351367Y-4988877D01*
G01X21362797Y-4994719D01*
G01X21379815Y-4994719D01*
G01X21391245Y-4988877D01*
G01X21402675Y-4977447D01*
G01X21456269Y-4914709D02*
G01X21490559Y-4994719D01*
G01X21524849Y-4914709D02*
G01X21490559Y-4994719D01*
G01X21479129Y-5017579D01*
G01X21467699Y-5029009D01*
G01X21456269Y-5034597D01*
G01X21450427Y-5034597D01*
G01X21572601Y-4948999D02*
G01X21641181Y-4948999D01*
G01X21641181Y-4937569D01*
G01X21635593Y-4926139D01*
G01X21629751Y-4920297D01*
G01X21618321Y-4914709D01*
G01X21601303Y-4914709D01*
G01X21589873Y-4920297D01*
G01X21578443Y-4931727D01*
G01X21572601Y-4948999D01*
G01X21572601Y-4960429D01*
G01X21578443Y-4977447D01*
G01X21589873Y-4988877D01*
G01X21601303Y-4994719D01*
G01X21618321Y-4994719D01*
G01X21629751Y-4988877D01*
G01X21641181Y-4977447D01*
G01X21688933Y-4914709D02*
G01X21688933Y-4994719D01*
G01X21688933Y-4948999D02*
G01X21694775Y-4931727D01*
G01X21706205Y-4920297D01*
G01X21717635Y-4914709D01*
G01X21734653Y-4914709D01*
G01X7274324Y-5455148D02*
G01X7217174Y-5535158D01*
G01X7303026Y-5535158D01*
G01X7274324Y-5455148D02*
G01X7274324Y-5575290D01*
G01X7419358Y-5455148D02*
G01X7362208Y-5455148D01*
G01X7356620Y-5506710D01*
G01X7362208Y-5500868D01*
G01X7379480Y-5495280D01*
G01X7396498Y-5495280D01*
G01X7413770Y-5500868D01*
G01X7425200Y-5512298D01*
G01X7430788Y-5529570D01*
G01X7430788Y-5541000D01*
G01X7425200Y-5558018D01*
G01X7413770Y-5569448D01*
G01X7396498Y-5575290D01*
G01X7379480Y-5575290D01*
G01X7362208Y-5569448D01*
G01X7356620Y-5563860D01*
G01X7350778Y-5552430D01*
G01X8631337Y-5478008D02*
G01X8642767Y-5472420D01*
G01X8660039Y-5455148D01*
G01X8660039Y-5575290D01*
G01X8713633Y-5483850D02*
G01X8713633Y-5478008D01*
G01X8719221Y-5466578D01*
G01X8725063Y-5460990D01*
G01X8736493Y-5455148D01*
G01X8759353Y-5455148D01*
G01X8770783Y-5460990D01*
G01X8776371Y-5466578D01*
G01X8782213Y-5478008D01*
G01X8782213Y-5489438D01*
G01X8776371Y-5500868D01*
G01X8764941Y-5518140D01*
G01X8707791Y-5575290D01*
G01X8787801Y-5575290D01*
G01X8841395Y-5546588D02*
G01X8835553Y-5552430D01*
G01X8841395Y-5558018D01*
G01X8846983Y-5552430D01*
G01X8841395Y-5546588D01*
G01X8929025Y-5455148D02*
G01X8912007Y-5460990D01*
G01X8900577Y-5478008D01*
G01X8894735Y-5506710D01*
G01X8894735Y-5523728D01*
G01X8900577Y-5552430D01*
G01X8912007Y-5569448D01*
G01X8929025Y-5575290D01*
G01X8940455Y-5575290D01*
G01X8957727Y-5569448D01*
G01X8969157Y-5552430D01*
G01X8974745Y-5523728D01*
G01X8974745Y-5506710D01*
G01X8969157Y-5478008D01*
G01X8957727Y-5460990D01*
G01X8940455Y-5455148D01*
G01X8929025Y-5455148D01*
G01X9022497Y-5495280D02*
G01X9022497Y-5575290D01*
G01X9022497Y-5518140D02*
G01X9039769Y-5500868D01*
G01X9051199Y-5495280D01*
G01X9068217Y-5495280D01*
G01X9079647Y-5500868D01*
G01X9085489Y-5518140D01*
G01X9085489Y-5575290D01*
G01X9085489Y-5518140D02*
G01X9102507Y-5500868D01*
G01X9113937Y-5495280D01*
G01X9131209Y-5495280D01*
G01X9142639Y-5500868D01*
G01X9148227Y-5518140D01*
G01X9148227Y-5575290D01*
G01X9195979Y-5455148D02*
G01X9201821Y-5460990D01*
G01X9207409Y-5455148D01*
G01X9201821Y-5449560D01*
G01X9195979Y-5455148D01*
G01X9201821Y-5495280D02*
G01X9201821Y-5575290D01*
G01X9255161Y-5455148D02*
G01X9255161Y-5575290D01*
G01X9343045Y-5432288D02*
G01X9331615Y-5443718D01*
G01X9320185Y-5460990D01*
G01X9308755Y-5483850D01*
G01X9302913Y-5512298D01*
G01X9302913Y-5535158D01*
G01X9308755Y-5563860D01*
G01X9320185Y-5586720D01*
G01X9331615Y-5603738D01*
G01X9343045Y-5615168D01*
G01X9425087Y-5455148D02*
G01X9408069Y-5460990D01*
G01X9396639Y-5478008D01*
G01X9390797Y-5506710D01*
G01X9390797Y-5523728D01*
G01X9396639Y-5552430D01*
G01X9408069Y-5569448D01*
G01X9425087Y-5575290D01*
G01X9436517Y-5575290D01*
G01X9453789Y-5569448D01*
G01X9465219Y-5552430D01*
G01X9470807Y-5523728D01*
G01X9470807Y-5506710D01*
G01X9465219Y-5478008D01*
G01X9453789Y-5460990D01*
G01X9436517Y-5455148D01*
G01X9425087Y-5455148D01*
G01X9524401Y-5546588D02*
G01X9518559Y-5552430D01*
G01X9524401Y-5558018D01*
G01X9529989Y-5552430D01*
G01X9524401Y-5546588D01*
G01X9589171Y-5455148D02*
G01X9652163Y-5455148D01*
G01X9617873Y-5500868D01*
G01X9634891Y-5500868D01*
G01X9646321Y-5506710D01*
G01X9652163Y-5512298D01*
G01X9657751Y-5529570D01*
G01X9657751Y-5541000D01*
G01X9652163Y-5558018D01*
G01X9640733Y-5569448D01*
G01X9623461Y-5575290D01*
G01X9606443Y-5575290D01*
G01X9589171Y-5569448D01*
G01X9583583Y-5563860D01*
G01X9577741Y-5552430D01*
G01X9739793Y-5455148D02*
G01X9722775Y-5460990D01*
G01X9711345Y-5478008D01*
G01X9705503Y-5506710D01*
G01X9705503Y-5523728D01*
G01X9711345Y-5552430D01*
G01X9722775Y-5569448D01*
G01X9739793Y-5575290D01*
G01X9751223Y-5575290D01*
G01X9768495Y-5569448D01*
G01X9779925Y-5552430D01*
G01X9785513Y-5523728D01*
G01X9785513Y-5506710D01*
G01X9779925Y-5478008D01*
G01X9768495Y-5460990D01*
G01X9751223Y-5455148D01*
G01X9739793Y-5455148D01*
G01X9901845Y-5455148D02*
G01X9844695Y-5455148D01*
G01X9839107Y-5506710D01*
G01X9844695Y-5500868D01*
G01X9861967Y-5495280D01*
G01X9878985Y-5495280D01*
G01X9896257Y-5500868D01*
G01X9907687Y-5512298D01*
G01X9913275Y-5529570D01*
G01X9913275Y-5541000D01*
G01X9907687Y-5558018D01*
G01X9896257Y-5569448D01*
G01X9878985Y-5575290D01*
G01X9861967Y-5575290D01*
G01X9844695Y-5569448D01*
G01X9839107Y-5563860D01*
G01X9833265Y-5552430D01*
G01X9961027Y-5495280D02*
G01X9961027Y-5575290D01*
G01X9961027Y-5518140D02*
G01X9978299Y-5500868D01*
G01X9989729Y-5495280D01*
G01X10006747Y-5495280D01*
G01X10018177Y-5500868D01*
G01X10024019Y-5518140D01*
G01X10024019Y-5575290D01*
G01X10024019Y-5518140D02*
G01X10041037Y-5500868D01*
G01X10052467Y-5495280D01*
G01X10069739Y-5495280D01*
G01X10081169Y-5500868D01*
G01X10086757Y-5518140D01*
G01X10086757Y-5575290D01*
G01X10134509Y-5495280D02*
G01X10134509Y-5575290D01*
G01X10134509Y-5518140D02*
G01X10151781Y-5500868D01*
G01X10163211Y-5495280D01*
G01X10180229Y-5495280D01*
G01X10191659Y-5500868D01*
G01X10197501Y-5518140D01*
G01X10197501Y-5575290D01*
G01X10197501Y-5518140D02*
G01X10214519Y-5500868D01*
G01X10225949Y-5495280D01*
G01X10243221Y-5495280D01*
G01X10254651Y-5500868D01*
G01X10260239Y-5518140D01*
G01X10260239Y-5575290D01*
G01X10307991Y-5432288D02*
G01X10319421Y-5443718D01*
G01X10330851Y-5460990D01*
G01X10342281Y-5483850D01*
G01X10348123Y-5512298D01*
G01X10348123Y-5535158D01*
G01X10342281Y-5563860D01*
G01X10330851Y-5586720D01*
G01X10319421Y-5603738D01*
G01X10307991Y-5615168D01*
G01X12666526Y-5455148D02*
G01X12666526Y-5575290D01*
G01X12666526Y-5455148D02*
G01X12718088Y-5455148D01*
G01X12735106Y-5460990D01*
G01X12740948Y-5466578D01*
G01X12746536Y-5478008D01*
G01X12746536Y-5495280D01*
G01X12740948Y-5506710D01*
G01X12735106Y-5512298D01*
G01X12718088Y-5518140D01*
G01X12666526Y-5518140D01*
G01X12834420Y-5455148D02*
G01X12834420Y-5575290D01*
G01X12794288Y-5455148D02*
G01X12874298Y-5455148D01*
G01X12922050Y-5455148D02*
G01X12922050Y-5575290D01*
G01X13002060Y-5455148D02*
G01X13002060Y-5575290D01*
G01X12922050Y-5512298D02*
G01X13002060Y-5512298D01*
G01X14127934Y-5455148D02*
G01X14127934Y-5575290D01*
G01X14127934Y-5455148D02*
G01X14179496Y-5455148D01*
G01X14196514Y-5460990D01*
G01X14202356Y-5466578D01*
G01X14207944Y-5478008D01*
G01X14207944Y-5489438D01*
G01X14202356Y-5500868D01*
G01X14196514Y-5506710D01*
G01X14179496Y-5512298D01*
G01X14127934Y-5512298D01*
G01X14168066Y-5512298D02*
G01X14207944Y-5575290D01*
G01X14284398Y-5495280D02*
G01X14272968Y-5500868D01*
G01X14261538Y-5512298D01*
G01X14255696Y-5529570D01*
G01X14255696Y-5541000D01*
G01X14261538Y-5558018D01*
G01X14272968Y-5569448D01*
G01X14284398Y-5575290D01*
G01X14301416Y-5575290D01*
G01X14312846Y-5569448D01*
G01X14324276Y-5558018D01*
G01X14330118Y-5541000D01*
G01X14330118Y-5529570D01*
G01X14324276Y-5512298D01*
G01X14312846Y-5500868D01*
G01X14301416Y-5495280D01*
G01X14284398Y-5495280D01*
G01X14377870Y-5495280D02*
G01X14377870Y-5552430D01*
G01X14383712Y-5569448D01*
G01X14395142Y-5575290D01*
G01X14412160Y-5575290D01*
G01X14423590Y-5569448D01*
G01X14440862Y-5552430D01*
G01X14440862Y-5495280D02*
G01X14440862Y-5575290D01*
G01X14488614Y-5495280D02*
G01X14488614Y-5575290D01*
G01X14488614Y-5518140D02*
G01X14505886Y-5500868D01*
G01X14517316Y-5495280D01*
G01X14534334Y-5495280D01*
G01X14545764Y-5500868D01*
G01X14551606Y-5518140D01*
G01X14551606Y-5575290D01*
G01X14667938Y-5455148D02*
G01X14667938Y-5575290D01*
G01X14667938Y-5512298D02*
G01X14656508Y-5500868D01*
G01X14645078Y-5495280D01*
G01X14628060Y-5495280D01*
G01X14616630Y-5500868D01*
G01X14605200Y-5512298D01*
G01X14599358Y-5529570D01*
G01X14599358Y-5541000D01*
G01X14605200Y-5558018D01*
G01X14616630Y-5569448D01*
G01X14628060Y-5575290D01*
G01X14645078Y-5575290D01*
G01X14656508Y-5569448D01*
G01X14667938Y-5558018D01*
G01X15559115Y-5455148D02*
G01X15604835Y-5575290D01*
G01X15650555Y-5455148D02*
G01X15604835Y-5575290D01*
G01X15698307Y-5455148D02*
G01X15704149Y-5460990D01*
G01X15709737Y-5455148D01*
G01X15704149Y-5449560D01*
G01X15698307Y-5455148D01*
G01X15704149Y-5495280D02*
G01X15704149Y-5575290D01*
G01X15826069Y-5495280D02*
G01X15826069Y-5575290D01*
G01X15826069Y-5512298D02*
G01X15814639Y-5500868D01*
G01X15803209Y-5495280D01*
G01X15786191Y-5495280D01*
G01X15774761Y-5500868D01*
G01X15763331Y-5512298D01*
G01X15757489Y-5529570D01*
G01X15757489Y-5541000D01*
G01X15763331Y-5558018D01*
G01X15774761Y-5569448D01*
G01X15786191Y-5575290D01*
G01X15803209Y-5575290D01*
G01X15814639Y-5569448D01*
G01X15826069Y-5558018D01*
G01X19187795Y-5455148D02*
G01X19187795Y-5575290D01*
G01X19147663Y-5455148D02*
G01X19227673Y-5455148D01*
G01X19304127Y-5495280D02*
G01X19292697Y-5500868D01*
G01X19281267Y-5512298D01*
G01X19275425Y-5529570D01*
G01X19275425Y-5541000D01*
G01X19281267Y-5558018D01*
G01X19292697Y-5569448D01*
G01X19304127Y-5575290D01*
G01X19321145Y-5575290D01*
G01X19332575Y-5569448D01*
G01X19344005Y-5558018D01*
G01X19349847Y-5541000D01*
G01X19349847Y-5529570D01*
G01X19344005Y-5512298D01*
G01X19332575Y-5500868D01*
G01X19321145Y-5495280D01*
G01X19304127Y-5495280D01*
G01X19397599Y-5495280D02*
G01X19397599Y-5615168D01*
G01X19397599Y-5512298D02*
G01X19409029Y-5500868D01*
G01X19420459Y-5495280D01*
G01X19437731Y-5495280D01*
G01X19449161Y-5500868D01*
G01X19460591Y-5512298D01*
G01X19466179Y-5529570D01*
G01X19466179Y-5541000D01*
G01X19460591Y-5558018D01*
G01X19449161Y-5569448D01*
G01X19437731Y-5575290D01*
G01X19420459Y-5575290D01*
G01X19409029Y-5569448D01*
G01X19397599Y-5558018D01*
G01X19641947Y-5455148D02*
G01X19641947Y-5575290D01*
G01X19641947Y-5575290D02*
G01X19710527Y-5575290D01*
G01X19826859Y-5495280D02*
G01X19826859Y-5575290D01*
G01X19826859Y-5512298D02*
G01X19815429Y-5500868D01*
G01X19803999Y-5495280D01*
G01X19786981Y-5495280D01*
G01X19775551Y-5500868D01*
G01X19764121Y-5512298D01*
G01X19758279Y-5529570D01*
G01X19758279Y-5541000D01*
G01X19764121Y-5558018D01*
G01X19775551Y-5569448D01*
G01X19786981Y-5575290D01*
G01X19803999Y-5575290D01*
G01X19815429Y-5569448D01*
G01X19826859Y-5558018D01*
G01X19880453Y-5495280D02*
G01X19914743Y-5575290D01*
G01X19949033Y-5495280D02*
G01X19914743Y-5575290D01*
G01X19903313Y-5598150D01*
G01X19891883Y-5609580D01*
G01X19880453Y-5615168D01*
G01X19874611Y-5615168D01*
G01X19996785Y-5529570D02*
G01X20065365Y-5529570D01*
G01X20065365Y-5518140D01*
G01X20059777Y-5506710D01*
G01X20053935Y-5500868D01*
G01X20042505Y-5495280D01*
G01X20025487Y-5495280D01*
G01X20014057Y-5500868D01*
G01X20002627Y-5512298D01*
G01X19996785Y-5529570D01*
G01X19996785Y-5541000D01*
G01X20002627Y-5558018D01*
G01X20014057Y-5569448D01*
G01X20025487Y-5575290D01*
G01X20042505Y-5575290D01*
G01X20053935Y-5569448D01*
G01X20065365Y-5558018D01*
G01X20113117Y-5495280D02*
G01X20113117Y-5575290D01*
G01X20113117Y-5529570D02*
G01X20118959Y-5512298D01*
G01X20130389Y-5500868D01*
G01X20141819Y-5495280D01*
G01X20158837Y-5495280D01*
G01X20206589Y-5523728D02*
G01X20309459Y-5523728D01*
G01X20357211Y-5455148D02*
G01X20357211Y-5575290D01*
G01X20357211Y-5455148D02*
G01X20408773Y-5455148D01*
G01X20425791Y-5460990D01*
G01X20431633Y-5466578D01*
G01X20437221Y-5478008D01*
G01X20437221Y-5489438D01*
G01X20431633Y-5500868D01*
G01X20425791Y-5506710D01*
G01X20408773Y-5512298D01*
G01X20357211Y-5512298D02*
G01X20408773Y-5512298D01*
G01X20425791Y-5518140D01*
G01X20431633Y-5523728D01*
G01X20437221Y-5535158D01*
G01X20437221Y-5552430D01*
G01X20431633Y-5563860D01*
G01X20425791Y-5569448D01*
G01X20408773Y-5575290D01*
G01X20357211Y-5575290D01*
G01X20513675Y-5495280D02*
G01X20502245Y-5500868D01*
G01X20490815Y-5512298D01*
G01X20484973Y-5529570D01*
G01X20484973Y-5541000D01*
G01X20490815Y-5558018D01*
G01X20502245Y-5569448D01*
G01X20513675Y-5575290D01*
G01X20530693Y-5575290D01*
G01X20542123Y-5569448D01*
G01X20553553Y-5558018D01*
G01X20559395Y-5541000D01*
G01X20559395Y-5529570D01*
G01X20553553Y-5512298D01*
G01X20542123Y-5500868D01*
G01X20530693Y-5495280D01*
G01X20513675Y-5495280D01*
G01X20624419Y-5455148D02*
G01X20624419Y-5552430D01*
G01X20630007Y-5569448D01*
G01X20641437Y-5575290D01*
G01X20652867Y-5575290D01*
G01X20607147Y-5495280D02*
G01X20647279Y-5495280D01*
G01X20717891Y-5455148D02*
G01X20717891Y-5552430D01*
G01X20723479Y-5569448D01*
G01X20734909Y-5575290D01*
G01X20746339Y-5575290D01*
G01X20700619Y-5495280D02*
G01X20740751Y-5495280D01*
G01X20822793Y-5495280D02*
G01X20811363Y-5500868D01*
G01X20799933Y-5512298D01*
G01X20794091Y-5529570D01*
G01X20794091Y-5541000D01*
G01X20799933Y-5558018D01*
G01X20811363Y-5569448D01*
G01X20822793Y-5575290D01*
G01X20839811Y-5575290D01*
G01X20851241Y-5569448D01*
G01X20862671Y-5558018D01*
G01X20868513Y-5541000D01*
G01X20868513Y-5529570D01*
G01X20862671Y-5512298D01*
G01X20851241Y-5500868D01*
G01X20839811Y-5495280D01*
G01X20822793Y-5495280D01*
G01X20916265Y-5495280D02*
G01X20916265Y-5575290D01*
G01X20916265Y-5518140D02*
G01X20933537Y-5500868D01*
G01X20944967Y-5495280D01*
G01X20961985Y-5495280D01*
G01X20973415Y-5500868D01*
G01X20979257Y-5518140D01*
G01X20979257Y-5575290D01*
G01X20979257Y-5518140D02*
G01X20996275Y-5500868D01*
G01X21007705Y-5495280D01*
G01X21024977Y-5495280D01*
G01X21036407Y-5500868D01*
G01X21041995Y-5518140D01*
G01X21041995Y-5575290D01*
G01X21217763Y-5455148D02*
G01X21217763Y-5575290D01*
G01X21217763Y-5575290D02*
G01X21286343Y-5575290D01*
G01X21402675Y-5495280D02*
G01X21402675Y-5575290D01*
G01X21402675Y-5512298D02*
G01X21391245Y-5500868D01*
G01X21379815Y-5495280D01*
G01X21362797Y-5495280D01*
G01X21351367Y-5500868D01*
G01X21339937Y-5512298D01*
G01X21334095Y-5529570D01*
G01X21334095Y-5541000D01*
G01X21339937Y-5558018D01*
G01X21351367Y-5569448D01*
G01X21362797Y-5575290D01*
G01X21379815Y-5575290D01*
G01X21391245Y-5569448D01*
G01X21402675Y-5558018D01*
G01X21456269Y-5495280D02*
G01X21490559Y-5575290D01*
G01X21524849Y-5495280D02*
G01X21490559Y-5575290D01*
G01X21479129Y-5598150D01*
G01X21467699Y-5609580D01*
G01X21456269Y-5615168D01*
G01X21450427Y-5615168D01*
G01X21572601Y-5529570D02*
G01X21641181Y-5529570D01*
G01X21641181Y-5518140D01*
G01X21635593Y-5506710D01*
G01X21629751Y-5500868D01*
G01X21618321Y-5495280D01*
G01X21601303Y-5495280D01*
G01X21589873Y-5500868D01*
G01X21578443Y-5512298D01*
G01X21572601Y-5529570D01*
G01X21572601Y-5541000D01*
G01X21578443Y-5558018D01*
G01X21589873Y-5569448D01*
G01X21601303Y-5575290D01*
G01X21618321Y-5575290D01*
G01X21629751Y-5569448D01*
G01X21641181Y-5558018D01*
G01X21688933Y-5495280D02*
G01X21688933Y-5575290D01*
G01X21688933Y-5529570D02*
G01X21694775Y-5512298D01*
G01X21706205Y-5500868D01*
G01X21717635Y-5495280D01*
G01X21734653Y-5495280D01*

G04 Image Start*
G36*
G01X5920686Y-4798014D02*
G01X6085786Y-4963114D01*
G01X5920686Y-5128214D01*
G01X5755586Y-4963114D01*
G01X5791501Y-4963114D01*
G01X5920686Y-5092298D01*
G01X6049870Y-4963114D01*
G01X5920686Y-4833930D01*
G01X5920686Y-4833930D01*
G01X5791501Y-4963114D01*
G01X5755586Y-4963114D01*
G01X5920686Y-4798014D01*
G37*
G36*
G01X6052562Y-2732903D02*
G01X5946949Y-2721422D01*
G01X5904074Y-2818628D01*
G01X5861199Y-2721422D01*
G01X5755586Y-2732903D01*
G01X5818349Y-2647178D01*
G01X5778627Y-2592924D01*
G01X5810119Y-2592924D01*
G01X5849820Y-2647178D01*
G01X5810119Y-2701433D01*
G01X5876947Y-2694168D01*
G01X5876947Y-2694168D01*
G01X5904074Y-2755662D01*
G01X5931201Y-2694168D01*
G01X5998029Y-2701433D01*
G01X5958328Y-2647178D01*
G01X5998003Y-2592949D01*
G01X5931176Y-2600214D01*
G01X5904074Y-2538695D01*
G01X5876947Y-2600188D01*
G01X5810119Y-2592924D01*
G01X5778627Y-2592924D01*
G01X5755586Y-2561453D01*
G01X5861224Y-2572934D01*
G01X5904074Y-2475728D01*
G01X5946949Y-2572934D01*
G01X6052562Y-2561453D01*
G01X5989799Y-2647178D01*
G01X6052562Y-2732903D01*
G37*
G36*
G01X5923569Y-1618599D02*
G01X5915829Y-1619187D01*
G01X5907986Y-1619385D01*
G01X5900142Y-1619187D01*
G01X5892402Y-1618599D01*
G01X5884775Y-1617630D01*
G01X5877270Y-1616289D01*
G01X5862664Y-1612534D01*
G01X5848662Y-1607410D01*
G01X5835339Y-1600993D01*
G01X5822774Y-1593360D01*
G01X5811042Y-1584587D01*
G01X5800220Y-1574751D01*
G01X5790384Y-1563929D01*
G01X5781611Y-1552197D01*
G01X5773978Y-1539632D01*
G01X5767561Y-1526309D01*
G01X5762437Y-1512307D01*
G01X5758682Y-1497701D01*
G01X5757341Y-1490196D01*
G01X5756372Y-1482569D01*
G01X5755784Y-1474829D01*
G01X5755586Y-1466985D01*
G01X5780986Y-1466985D01*
G01X5781643Y-1479952D01*
G01X5783570Y-1492548D01*
G01X5786705Y-1504710D01*
G01X5790982Y-1516372D01*
G01X5796336Y-1527471D01*
G01X5802705Y-1537943D01*
G01X5810023Y-1547723D01*
G01X5818225Y-1556746D01*
G01X5827248Y-1564948D01*
G01X5837028Y-1572266D01*
G01X5847500Y-1578635D01*
G01X5858599Y-1583989D01*
G01X5870261Y-1588266D01*
G01X5882423Y-1591401D01*
G01X5882423Y-1591401D01*
G01X5895019Y-1593328D01*
G01X5907986Y-1593985D01*
G01X5920952Y-1593328D01*
G01X5933548Y-1591401D01*
G01X5945710Y-1588266D01*
G01X5957372Y-1583989D01*
G01X5968472Y-1578635D01*
G01X5978943Y-1572266D01*
G01X5988723Y-1564948D01*
G01X5997746Y-1556746D01*
G01X6005949Y-1547723D01*
G01X6013266Y-1537943D01*
G01X6019635Y-1527471D01*
G01X6024990Y-1516372D01*
G01X6029266Y-1504710D01*
G01X6032401Y-1492548D01*
G01X6034329Y-1479952D01*
G01X6034986Y-1466985D01*
G01X6034329Y-1454019D01*
G01X6032401Y-1441423D01*
G01X6029266Y-1429261D01*
G01X6024990Y-1417599D01*
G01X6019635Y-1406499D01*
G01X6013266Y-1396028D01*
G01X6005949Y-1386248D01*
G01X5997746Y-1377225D01*
G01X5988723Y-1369022D01*
G01X5978943Y-1361705D01*
G01X5968472Y-1355336D01*
G01X5957372Y-1349982D01*
G01X5945710Y-1345705D01*
G01X5933548Y-1342570D01*
G01X5920952Y-1340642D01*
G01X5907986Y-1339985D01*
G01X5895019Y-1340642D01*
G01X5882423Y-1342570D01*
G01X5870261Y-1345705D01*
G01X5858599Y-1349982D01*
G01X5847500Y-1355336D01*
G01X5837028Y-1361705D01*
G01X5827248Y-1369022D01*
G01X5818225Y-1377225D01*
G01X5810023Y-1386248D01*
G01X5802705Y-1396028D01*
G01X5796336Y-1406499D01*
G01X5790982Y-1417599D01*
G01X5786705Y-1429261D01*
G01X5783570Y-1441423D01*
G01X5781643Y-1454019D01*
G01X5780986Y-1466985D01*
G01X5755586Y-1466985D01*
G01X5755784Y-1459142D01*
G01X5756372Y-1451402D01*
G01X5757341Y-1443775D01*
G01X5758682Y-1436269D01*
G01X5762437Y-1421664D01*
G01X5767561Y-1407661D01*
G01X5773978Y-1394339D01*
G01X5781611Y-1381774D01*
G01X5790384Y-1370042D01*
G01X5800220Y-1359220D01*
G01X5811042Y-1349384D01*
G01X5822774Y-1340611D01*
G01X5835339Y-1332978D01*
G01X5848662Y-1326561D01*
G01X5862664Y-1321436D01*
G01X5877270Y-1317681D01*
G01X5884775Y-1316341D01*
G01X5892402Y-1315372D01*
G01X5900142Y-1314784D01*
G01X5907986Y-1314585D01*
G01X5915829Y-1314784D01*
G01X5923569Y-1315372D01*
G01X5931196Y-1316341D01*
G01X5938702Y-1317681D01*
G01X5953307Y-1321436D01*
G01X5967310Y-1326561D01*
G01X5980632Y-1332978D01*
G01X5993197Y-1340611D01*
G01X6004929Y-1349384D01*
G01X6015751Y-1359220D01*
G01X6025587Y-1370042D01*
G01X6034360Y-1381774D01*
G01X6041993Y-1394339D01*
G01X6048410Y-1407661D01*
G01X6053535Y-1421664D01*
G01X6057290Y-1436269D01*
G01X6058630Y-1443775D01*
G01X6059599Y-1451402D01*
G01X6060187Y-1459142D01*
G01X6060386Y-1466985D01*
G01X6060187Y-1474829D01*
G01X6059599Y-1482569D01*
G01X6058630Y-1490196D01*
G01X6057290Y-1497701D01*
G01X6053535Y-1512307D01*
G01X6048410Y-1526309D01*
G01X6041993Y-1539632D01*
G01X6034360Y-1552197D01*
G01X6025587Y-1563929D01*
G01X6015751Y-1574751D01*
G01X6004929Y-1584587D01*
G01X5993197Y-1593360D01*
G01X5980632Y-1600993D01*
G01X5967310Y-1607410D01*
G01X5953307Y-1612534D01*
G01X5938702Y-1616289D01*
G01X5931196Y-1617630D01*
G01X5923569Y-1618599D01*
G37*
G36*
G01X6060386Y-3858537D02*
G01X5977277Y-3858537D01*
G01X5977277Y-3941671D01*
G01X5838720Y-3941671D01*
G01X5838720Y-3858562D01*
G01X5755586Y-3858562D01*
G01X5755586Y-3745405D01*
G01X5780986Y-3745405D01*
G01X5780986Y-3833137D01*
G01X5864120Y-3833137D01*
G01X5864120Y-3916271D01*
G01X5864120Y-3916271D01*
G01X5951851Y-3916271D01*
G01X5951851Y-3833162D01*
G01X6034986Y-3833162D01*
G01X6034986Y-3745405D01*
G01X5951851Y-3745405D01*
G01X5951851Y-3662271D01*
G01X5864120Y-3662271D01*
G01X5864120Y-3745405D01*
G01X5780986Y-3745405D01*
G01X5755586Y-3745405D01*
G01X5755586Y-3720005D01*
G01X5838720Y-3720005D01*
G01X5838720Y-3636871D01*
G01X5977251Y-3636871D01*
G01X5977251Y-3720005D01*
G01X6060386Y-3720005D01*
G01X6060386Y-3858537D01*
G37*
G36*
G01X6060386Y-3056300D02*
G01X5990358Y-3208700D01*
G01X6060386Y-3361100D01*
G01X5907986Y-3291072D01*
G01X5755586Y-3361100D01*
G01X5779348Y-3309385D01*
G01X5807300Y-3309385D01*
G01X5897368Y-3267983D01*
G01X5907986Y-3263107D01*
G01X5918603Y-3267983D01*
G01X6008671Y-3309385D01*
G01X5967269Y-3219317D01*
G01X5962392Y-3208700D01*
G01X5967269Y-3198083D01*
G01X6008671Y-3108014D01*
G01X5918603Y-3149416D01*
G01X5907986Y-3154293D01*
G01X5897368Y-3149416D01*
G01X5807300Y-3108014D01*
G01X5848702Y-3198083D01*
G01X5853579Y-3208700D01*
G01X5853579Y-3208700D01*
G01X5848702Y-3219317D01*
G01X5807300Y-3309385D01*
G01X5779348Y-3309385D01*
G01X5825613Y-3208700D01*
G01X5755586Y-3056300D01*
G01X5907986Y-3126328D01*
G01X6060386Y-3056300D01*
G37*
G36*
G01X5755586Y-1895157D02*
G01X6060386Y-1895157D01*
G01X5907986Y-2159114D01*
G01X5770251Y-1920557D01*
G01X5799578Y-1920557D01*
G01X5907986Y-2108314D01*
G01X6016393Y-1920557D01*
G01X6016393Y-1920557D01*
G01X5799578Y-1920557D01*
G01X5770251Y-1920557D01*
G01X5755586Y-1895157D01*
G37*
G36*
G01X5755586Y-734014D02*
G01X6034986Y-734014D01*
G01X6034986Y-1013414D01*
G01X5755586Y-1013414D01*
G01X5755586Y-759414D01*
G01X5780986Y-759414D01*
G01X5780986Y-988014D01*
G01X6009586Y-988014D01*
G01X6009586Y-759414D01*
G01X6009586Y-759414D01*
G01X5780986Y-759414D01*
G01X5755586Y-759414D01*
G01X5755586Y-734014D01*
G37*
G36*
G01X6034986Y-4496843D02*
G01X5933386Y-4496843D01*
G01X5895286Y-4420643D01*
G01X5857186Y-4496843D01*
G01X5755586Y-4496843D01*
G01X5755586Y-4471443D01*
G01X5780986Y-4471443D01*
G01X5841488Y-4471443D01*
G01X5872553Y-4409289D01*
G01X5895286Y-4363848D01*
G01X5918019Y-4409289D01*
G01X5949083Y-4471443D01*
G01X6009586Y-4471443D01*
G01X6009586Y-4410940D01*
G01X5947432Y-4379850D01*
G01X5901991Y-4357143D01*
G01X5947432Y-4334435D01*
G01X6009586Y-4303345D01*
G01X6009586Y-4242843D01*
G01X5949083Y-4242843D01*
G01X5918019Y-4304996D01*
G01X5895286Y-4350437D01*
G01X5872553Y-4304996D01*
G01X5841488Y-4242843D01*
G01X5780986Y-4242843D01*
G01X5780986Y-4303345D01*
G01X5843139Y-4334435D01*
G01X5888580Y-4357143D01*
G01X5843139Y-4379850D01*
G01X5780986Y-4410940D01*
G01X5780986Y-4471443D01*
G01X5780986Y-4471443D01*
G01X5755586Y-4471443D01*
G01X5755586Y-4395243D01*
G01X5831786Y-4357143D01*
G01X5755586Y-4319043D01*
G01X5755586Y-4217443D01*
G01X5857186Y-4217443D01*
G01X5895286Y-4293643D01*
G01X5933386Y-4217443D01*
G01X6034986Y-4217443D01*
G01X6034986Y-4319043D01*
G01X5958786Y-4357143D01*
G01X6034986Y-4395243D01*
G01X6034986Y-4496843D01*
G37*
G36*
G01X5755586Y-5378585D02*
G01X6034986Y-5378585D01*
G01X6034986Y-5657985D01*
G01X5755586Y-5657985D01*
G01X5755586Y-5403985D01*
G01X5780986Y-5403985D01*
G01X5780986Y-5632585D01*
G01X6009586Y-5632585D01*
G01X6009586Y-5403985D01*
G01X6009586Y-5403985D01*
G01X5780986Y-5403985D01*
G01X5755586Y-5403985D01*
G01X5755586Y-5378585D01*
G37*
G36*
G01X5806386Y-5429385D02*
G01X5984186Y-5429385D01*
G01X5984186Y-5607185D01*
G01X5806386Y-5607185D01*
G01X5806386Y-5581785D01*
G01X5831786Y-5581785D01*
G01X5958786Y-5581785D01*
G01X5958786Y-5454785D01*
G01X5831786Y-5454785D01*
G01X5831786Y-5581785D01*
G01X5831786Y-5581785D01*
G01X5806386Y-5581785D01*
G01X5806386Y-5429385D01*
G37*

G04 PolygonModel Start*
G54D20*
G01X5465300Y-5814014D02*
G01X22325384Y-5814014D01*
G01X5465300Y-5233443D02*
G01X22325384Y-5233443D01*
G01X5465300Y-4652871D02*
G01X22325384Y-4652871D01*
G01X5465300Y-4072300D02*
G01X22325384Y-4072300D01*
G01X5465300Y-3491728D02*
G01X22325384Y-3491728D01*
G01X5465300Y-2911157D02*
G01X22325384Y-2911157D01*
G01X5465300Y-2330585D02*
G01X22325384Y-2330585D01*
G01X5465300Y-1750014D02*
G01X22325384Y-1750014D01*
G01X5465300Y-1169443D02*
G01X22325384Y-1169443D01*
G01X5465300Y-588871D02*
G01X22325384Y-588871D01*
G01X5465300Y-8300D02*
G01X22325384Y-8300D01*
G01X5465300Y-8300D02*
G01X5465300Y-5788614D01*
G01X6916728Y-8300D02*
G01X6916728Y-5788614D01*
G01X8330892Y-8300D02*
G01X8330892Y-5788614D01*
G01X12366081Y-8300D02*
G01X12366081Y-5788614D01*
G01X13827488Y-8300D02*
G01X13827488Y-5788614D01*
G01X15258669Y-8300D02*
G01X15258669Y-5788614D01*
G01X16927848Y-8300D02*
G01X16927848Y-5788614D01*
G01X18847217Y-8300D02*
G01X18847217Y-5788614D01*
G01X22325384Y-8300D02*
G01X22325384Y-5788614D01*

M02*

